G04 #@! TF.GenerationSoftware,KiCad,Pcbnew,7.0.10*
G04 #@! TF.CreationDate,2024-01-29T15:04:35+01:00*
G04 #@! TF.ProjectId,discipline-pcb,64697363-6970-46c6-996e-652d7063622e,rev?*
G04 #@! TF.SameCoordinates,Original*
G04 #@! TF.FileFunction,Legend,Bot*
G04 #@! TF.FilePolarity,Positive*
%FSLAX46Y46*%
G04 Gerber Fmt 4.6, Leading zero omitted, Abs format (unit mm)*
G04 Created by KiCad (PCBNEW 7.0.10) date 2024-01-29 15:04:35*
%MOMM*%
%LPD*%
G01*
G04 APERTURE LIST*
G04 Aperture macros list*
%AMRoundRect*
0 Rectangle with rounded corners*
0 $1 Rounding radius*
0 $2 $3 $4 $5 $6 $7 $8 $9 X,Y pos of 4 corners*
0 Add a 4 corners polygon primitive as box body*
4,1,4,$2,$3,$4,$5,$6,$7,$8,$9,$2,$3,0*
0 Add four circle primitives for the rounded corners*
1,1,$1+$1,$2,$3*
1,1,$1+$1,$4,$5*
1,1,$1+$1,$6,$7*
1,1,$1+$1,$8,$9*
0 Add four rect primitives between the rounded corners*
20,1,$1+$1,$2,$3,$4,$5,0*
20,1,$1+$1,$4,$5,$6,$7,0*
20,1,$1+$1,$6,$7,$8,$9,0*
20,1,$1+$1,$8,$9,$2,$3,0*%
G04 Aperture macros list end*
%ADD10C,0.100000*%
%ADD11C,0.150000*%
%ADD12C,0.300000*%
%ADD13C,0.400000*%
%ADD14C,0.120000*%
%ADD15C,1.500000*%
%ADD16C,0.010000*%
%ADD17C,1.802000*%
%ADD18C,4.102000*%
%ADD19C,2.302000*%
%ADD20C,3.152000*%
%ADD21C,4.502000*%
%ADD22C,4.089800*%
%ADD23C,3.150000*%
%ADD24RoundRect,0.051000X-0.800000X0.800000X-0.800000X-0.800000X0.800000X-0.800000X0.800000X0.800000X0*%
%ADD25O,1.702000X1.702000*%
%ADD26C,1.502000*%
%ADD27O,1.502000X1.502000*%
%ADD28C,2.102000*%
%ADD29RoundRect,0.051000X-0.900000X-0.900000X0.900000X-0.900000X0.900000X0.900000X-0.900000X0.900000X0*%
%ADD30C,1.902000*%
%ADD31RoundRect,0.051000X0.600000X-0.600000X0.600000X0.600000X-0.600000X0.600000X-0.600000X-0.600000X0*%
%ADD32C,1.302000*%
%ADD33C,1.702000*%
%ADD34O,0.752000X1.102000*%
%ADD35O,1.002000X2.502000*%
%ADD36O,1.002000X1.802000*%
%ADD37RoundRect,0.051000X0.850000X0.850000X-0.850000X0.850000X-0.850000X-0.850000X0.850000X-0.850000X0*%
%ADD38RoundRect,0.051000X0.800000X-0.800000X0.800000X0.800000X-0.800000X0.800000X-0.800000X-0.800000X0*%
%ADD39RoundRect,0.051000X0.952500X1.000000X-0.952500X1.000000X-0.952500X-1.000000X0.952500X-1.000000X0*%
%ADD40O,2.007000X2.102000*%
%ADD41RoundRect,0.051000X-1.100000X-1.100000X1.100000X-1.100000X1.100000X1.100000X-1.100000X1.100000X0*%
%ADD42O,2.302000X2.302000*%
%ADD43C,1.602000*%
%ADD44RoundRect,0.051000X-0.850000X-0.850000X0.850000X-0.850000X0.850000X0.850000X-0.850000X0.850000X0*%
%ADD45O,1.802000X1.802000*%
G04 APERTURE END LIST*
D10*
D11*
X299989000Y-253002200D02*
X407989000Y-253002200D01*
X407989000Y-285002200D01*
X299989000Y-285002200D01*
X299989000Y-253002200D01*
D10*
D11*
X10000000Y-10000000D02*
X409989000Y-10000000D01*
X409989000Y-287002200D01*
X10000000Y-287002200D01*
X10000000Y-10000000D01*
D10*
D11*
X12000000Y-12000000D02*
X407989000Y-12000000D01*
X407989000Y-285002200D01*
X12000000Y-285002200D01*
X12000000Y-12000000D01*
D10*
D11*
X60000000Y-12000000D02*
X60000000Y-10000000D01*
D10*
D11*
X110000000Y-12000000D02*
X110000000Y-10000000D01*
D10*
D11*
X160000000Y-12000000D02*
X160000000Y-10000000D01*
D10*
D11*
X210000000Y-12000000D02*
X210000000Y-10000000D01*
D10*
D11*
X260000000Y-12000000D02*
X260000000Y-10000000D01*
D10*
D11*
X310000000Y-12000000D02*
X310000000Y-10000000D01*
D10*
D11*
X360000000Y-12000000D02*
X360000000Y-10000000D01*
D10*
D11*
X36089160Y-11593604D02*
X35346303Y-11593604D01*
X35717731Y-11593604D02*
X35717731Y-10293604D01*
X35717731Y-10293604D02*
X35593922Y-10479319D01*
X35593922Y-10479319D02*
X35470112Y-10603128D01*
X35470112Y-10603128D02*
X35346303Y-10665033D01*
D10*
D11*
X85346303Y-10417414D02*
X85408207Y-10355509D01*
X85408207Y-10355509D02*
X85532017Y-10293604D01*
X85532017Y-10293604D02*
X85841541Y-10293604D01*
X85841541Y-10293604D02*
X85965350Y-10355509D01*
X85965350Y-10355509D02*
X86027255Y-10417414D01*
X86027255Y-10417414D02*
X86089160Y-10541223D01*
X86089160Y-10541223D02*
X86089160Y-10665033D01*
X86089160Y-10665033D02*
X86027255Y-10850747D01*
X86027255Y-10850747D02*
X85284398Y-11593604D01*
X85284398Y-11593604D02*
X86089160Y-11593604D01*
D10*
D11*
X135284398Y-10293604D02*
X136089160Y-10293604D01*
X136089160Y-10293604D02*
X135655826Y-10788842D01*
X135655826Y-10788842D02*
X135841541Y-10788842D01*
X135841541Y-10788842D02*
X135965350Y-10850747D01*
X135965350Y-10850747D02*
X136027255Y-10912652D01*
X136027255Y-10912652D02*
X136089160Y-11036461D01*
X136089160Y-11036461D02*
X136089160Y-11345985D01*
X136089160Y-11345985D02*
X136027255Y-11469795D01*
X136027255Y-11469795D02*
X135965350Y-11531700D01*
X135965350Y-11531700D02*
X135841541Y-11593604D01*
X135841541Y-11593604D02*
X135470112Y-11593604D01*
X135470112Y-11593604D02*
X135346303Y-11531700D01*
X135346303Y-11531700D02*
X135284398Y-11469795D01*
D10*
D11*
X185965350Y-10726938D02*
X185965350Y-11593604D01*
X185655826Y-10231700D02*
X185346303Y-11160271D01*
X185346303Y-11160271D02*
X186151064Y-11160271D01*
D10*
D11*
X236027255Y-10293604D02*
X235408207Y-10293604D01*
X235408207Y-10293604D02*
X235346303Y-10912652D01*
X235346303Y-10912652D02*
X235408207Y-10850747D01*
X235408207Y-10850747D02*
X235532017Y-10788842D01*
X235532017Y-10788842D02*
X235841541Y-10788842D01*
X235841541Y-10788842D02*
X235965350Y-10850747D01*
X235965350Y-10850747D02*
X236027255Y-10912652D01*
X236027255Y-10912652D02*
X236089160Y-11036461D01*
X236089160Y-11036461D02*
X236089160Y-11345985D01*
X236089160Y-11345985D02*
X236027255Y-11469795D01*
X236027255Y-11469795D02*
X235965350Y-11531700D01*
X235965350Y-11531700D02*
X235841541Y-11593604D01*
X235841541Y-11593604D02*
X235532017Y-11593604D01*
X235532017Y-11593604D02*
X235408207Y-11531700D01*
X235408207Y-11531700D02*
X235346303Y-11469795D01*
D10*
D11*
X285965350Y-10293604D02*
X285717731Y-10293604D01*
X285717731Y-10293604D02*
X285593922Y-10355509D01*
X285593922Y-10355509D02*
X285532017Y-10417414D01*
X285532017Y-10417414D02*
X285408207Y-10603128D01*
X285408207Y-10603128D02*
X285346303Y-10850747D01*
X285346303Y-10850747D02*
X285346303Y-11345985D01*
X285346303Y-11345985D02*
X285408207Y-11469795D01*
X285408207Y-11469795D02*
X285470112Y-11531700D01*
X285470112Y-11531700D02*
X285593922Y-11593604D01*
X285593922Y-11593604D02*
X285841541Y-11593604D01*
X285841541Y-11593604D02*
X285965350Y-11531700D01*
X285965350Y-11531700D02*
X286027255Y-11469795D01*
X286027255Y-11469795D02*
X286089160Y-11345985D01*
X286089160Y-11345985D02*
X286089160Y-11036461D01*
X286089160Y-11036461D02*
X286027255Y-10912652D01*
X286027255Y-10912652D02*
X285965350Y-10850747D01*
X285965350Y-10850747D02*
X285841541Y-10788842D01*
X285841541Y-10788842D02*
X285593922Y-10788842D01*
X285593922Y-10788842D02*
X285470112Y-10850747D01*
X285470112Y-10850747D02*
X285408207Y-10912652D01*
X285408207Y-10912652D02*
X285346303Y-11036461D01*
D10*
D11*
X335284398Y-10293604D02*
X336151064Y-10293604D01*
X336151064Y-10293604D02*
X335593922Y-11593604D01*
D10*
D11*
X385593922Y-10850747D02*
X385470112Y-10788842D01*
X385470112Y-10788842D02*
X385408207Y-10726938D01*
X385408207Y-10726938D02*
X385346303Y-10603128D01*
X385346303Y-10603128D02*
X385346303Y-10541223D01*
X385346303Y-10541223D02*
X385408207Y-10417414D01*
X385408207Y-10417414D02*
X385470112Y-10355509D01*
X385470112Y-10355509D02*
X385593922Y-10293604D01*
X385593922Y-10293604D02*
X385841541Y-10293604D01*
X385841541Y-10293604D02*
X385965350Y-10355509D01*
X385965350Y-10355509D02*
X386027255Y-10417414D01*
X386027255Y-10417414D02*
X386089160Y-10541223D01*
X386089160Y-10541223D02*
X386089160Y-10603128D01*
X386089160Y-10603128D02*
X386027255Y-10726938D01*
X386027255Y-10726938D02*
X385965350Y-10788842D01*
X385965350Y-10788842D02*
X385841541Y-10850747D01*
X385841541Y-10850747D02*
X385593922Y-10850747D01*
X385593922Y-10850747D02*
X385470112Y-10912652D01*
X385470112Y-10912652D02*
X385408207Y-10974557D01*
X385408207Y-10974557D02*
X385346303Y-11098366D01*
X385346303Y-11098366D02*
X385346303Y-11345985D01*
X385346303Y-11345985D02*
X385408207Y-11469795D01*
X385408207Y-11469795D02*
X385470112Y-11531700D01*
X385470112Y-11531700D02*
X385593922Y-11593604D01*
X385593922Y-11593604D02*
X385841541Y-11593604D01*
X385841541Y-11593604D02*
X385965350Y-11531700D01*
X385965350Y-11531700D02*
X386027255Y-11469795D01*
X386027255Y-11469795D02*
X386089160Y-11345985D01*
X386089160Y-11345985D02*
X386089160Y-11098366D01*
X386089160Y-11098366D02*
X386027255Y-10974557D01*
X386027255Y-10974557D02*
X385965350Y-10912652D01*
X385965350Y-10912652D02*
X385841541Y-10850747D01*
D10*
D11*
X60000000Y-285002200D02*
X60000000Y-287002200D01*
D10*
D11*
X110000000Y-285002200D02*
X110000000Y-287002200D01*
D10*
D11*
X160000000Y-285002200D02*
X160000000Y-287002200D01*
D10*
D11*
X210000000Y-285002200D02*
X210000000Y-287002200D01*
D10*
D11*
X260000000Y-285002200D02*
X260000000Y-287002200D01*
D10*
D11*
X310000000Y-285002200D02*
X310000000Y-287002200D01*
D10*
D11*
X360000000Y-285002200D02*
X360000000Y-287002200D01*
D10*
D11*
X36089160Y-286595804D02*
X35346303Y-286595804D01*
X35717731Y-286595804D02*
X35717731Y-285295804D01*
X35717731Y-285295804D02*
X35593922Y-285481519D01*
X35593922Y-285481519D02*
X35470112Y-285605328D01*
X35470112Y-285605328D02*
X35346303Y-285667233D01*
D10*
D11*
X85346303Y-285419614D02*
X85408207Y-285357709D01*
X85408207Y-285357709D02*
X85532017Y-285295804D01*
X85532017Y-285295804D02*
X85841541Y-285295804D01*
X85841541Y-285295804D02*
X85965350Y-285357709D01*
X85965350Y-285357709D02*
X86027255Y-285419614D01*
X86027255Y-285419614D02*
X86089160Y-285543423D01*
X86089160Y-285543423D02*
X86089160Y-285667233D01*
X86089160Y-285667233D02*
X86027255Y-285852947D01*
X86027255Y-285852947D02*
X85284398Y-286595804D01*
X85284398Y-286595804D02*
X86089160Y-286595804D01*
D10*
D11*
X135284398Y-285295804D02*
X136089160Y-285295804D01*
X136089160Y-285295804D02*
X135655826Y-285791042D01*
X135655826Y-285791042D02*
X135841541Y-285791042D01*
X135841541Y-285791042D02*
X135965350Y-285852947D01*
X135965350Y-285852947D02*
X136027255Y-285914852D01*
X136027255Y-285914852D02*
X136089160Y-286038661D01*
X136089160Y-286038661D02*
X136089160Y-286348185D01*
X136089160Y-286348185D02*
X136027255Y-286471995D01*
X136027255Y-286471995D02*
X135965350Y-286533900D01*
X135965350Y-286533900D02*
X135841541Y-286595804D01*
X135841541Y-286595804D02*
X135470112Y-286595804D01*
X135470112Y-286595804D02*
X135346303Y-286533900D01*
X135346303Y-286533900D02*
X135284398Y-286471995D01*
D10*
D11*
X185965350Y-285729138D02*
X185965350Y-286595804D01*
X185655826Y-285233900D02*
X185346303Y-286162471D01*
X185346303Y-286162471D02*
X186151064Y-286162471D01*
D10*
D11*
X236027255Y-285295804D02*
X235408207Y-285295804D01*
X235408207Y-285295804D02*
X235346303Y-285914852D01*
X235346303Y-285914852D02*
X235408207Y-285852947D01*
X235408207Y-285852947D02*
X235532017Y-285791042D01*
X235532017Y-285791042D02*
X235841541Y-285791042D01*
X235841541Y-285791042D02*
X235965350Y-285852947D01*
X235965350Y-285852947D02*
X236027255Y-285914852D01*
X236027255Y-285914852D02*
X236089160Y-286038661D01*
X236089160Y-286038661D02*
X236089160Y-286348185D01*
X236089160Y-286348185D02*
X236027255Y-286471995D01*
X236027255Y-286471995D02*
X235965350Y-286533900D01*
X235965350Y-286533900D02*
X235841541Y-286595804D01*
X235841541Y-286595804D02*
X235532017Y-286595804D01*
X235532017Y-286595804D02*
X235408207Y-286533900D01*
X235408207Y-286533900D02*
X235346303Y-286471995D01*
D10*
D11*
X285965350Y-285295804D02*
X285717731Y-285295804D01*
X285717731Y-285295804D02*
X285593922Y-285357709D01*
X285593922Y-285357709D02*
X285532017Y-285419614D01*
X285532017Y-285419614D02*
X285408207Y-285605328D01*
X285408207Y-285605328D02*
X285346303Y-285852947D01*
X285346303Y-285852947D02*
X285346303Y-286348185D01*
X285346303Y-286348185D02*
X285408207Y-286471995D01*
X285408207Y-286471995D02*
X285470112Y-286533900D01*
X285470112Y-286533900D02*
X285593922Y-286595804D01*
X285593922Y-286595804D02*
X285841541Y-286595804D01*
X285841541Y-286595804D02*
X285965350Y-286533900D01*
X285965350Y-286533900D02*
X286027255Y-286471995D01*
X286027255Y-286471995D02*
X286089160Y-286348185D01*
X286089160Y-286348185D02*
X286089160Y-286038661D01*
X286089160Y-286038661D02*
X286027255Y-285914852D01*
X286027255Y-285914852D02*
X285965350Y-285852947D01*
X285965350Y-285852947D02*
X285841541Y-285791042D01*
X285841541Y-285791042D02*
X285593922Y-285791042D01*
X285593922Y-285791042D02*
X285470112Y-285852947D01*
X285470112Y-285852947D02*
X285408207Y-285914852D01*
X285408207Y-285914852D02*
X285346303Y-286038661D01*
D10*
D11*
X335284398Y-285295804D02*
X336151064Y-285295804D01*
X336151064Y-285295804D02*
X335593922Y-286595804D01*
D10*
D11*
X385593922Y-285852947D02*
X385470112Y-285791042D01*
X385470112Y-285791042D02*
X385408207Y-285729138D01*
X385408207Y-285729138D02*
X385346303Y-285605328D01*
X385346303Y-285605328D02*
X385346303Y-285543423D01*
X385346303Y-285543423D02*
X385408207Y-285419614D01*
X385408207Y-285419614D02*
X385470112Y-285357709D01*
X385470112Y-285357709D02*
X385593922Y-285295804D01*
X385593922Y-285295804D02*
X385841541Y-285295804D01*
X385841541Y-285295804D02*
X385965350Y-285357709D01*
X385965350Y-285357709D02*
X386027255Y-285419614D01*
X386027255Y-285419614D02*
X386089160Y-285543423D01*
X386089160Y-285543423D02*
X386089160Y-285605328D01*
X386089160Y-285605328D02*
X386027255Y-285729138D01*
X386027255Y-285729138D02*
X385965350Y-285791042D01*
X385965350Y-285791042D02*
X385841541Y-285852947D01*
X385841541Y-285852947D02*
X385593922Y-285852947D01*
X385593922Y-285852947D02*
X385470112Y-285914852D01*
X385470112Y-285914852D02*
X385408207Y-285976757D01*
X385408207Y-285976757D02*
X385346303Y-286100566D01*
X385346303Y-286100566D02*
X385346303Y-286348185D01*
X385346303Y-286348185D02*
X385408207Y-286471995D01*
X385408207Y-286471995D02*
X385470112Y-286533900D01*
X385470112Y-286533900D02*
X385593922Y-286595804D01*
X385593922Y-286595804D02*
X385841541Y-286595804D01*
X385841541Y-286595804D02*
X385965350Y-286533900D01*
X385965350Y-286533900D02*
X386027255Y-286471995D01*
X386027255Y-286471995D02*
X386089160Y-286348185D01*
X386089160Y-286348185D02*
X386089160Y-286100566D01*
X386089160Y-286100566D02*
X386027255Y-285976757D01*
X386027255Y-285976757D02*
X385965350Y-285914852D01*
X385965350Y-285914852D02*
X385841541Y-285852947D01*
D10*
D11*
X10000000Y-60000000D02*
X12000000Y-60000000D01*
D10*
D11*
X10000000Y-110000000D02*
X12000000Y-110000000D01*
D10*
D11*
X10000000Y-160000000D02*
X12000000Y-160000000D01*
D10*
D11*
X10000000Y-210000000D02*
X12000000Y-210000000D01*
D10*
D11*
X10000000Y-260000000D02*
X12000000Y-260000000D01*
D10*
D11*
X10690476Y-35222176D02*
X11309523Y-35222176D01*
X10566666Y-35593604D02*
X10999999Y-34293604D01*
X10999999Y-34293604D02*
X11433333Y-35593604D01*
D10*
D11*
X11092857Y-84912652D02*
X11278571Y-84974557D01*
X11278571Y-84974557D02*
X11340476Y-85036461D01*
X11340476Y-85036461D02*
X11402380Y-85160271D01*
X11402380Y-85160271D02*
X11402380Y-85345985D01*
X11402380Y-85345985D02*
X11340476Y-85469795D01*
X11340476Y-85469795D02*
X11278571Y-85531700D01*
X11278571Y-85531700D02*
X11154761Y-85593604D01*
X11154761Y-85593604D02*
X10659523Y-85593604D01*
X10659523Y-85593604D02*
X10659523Y-84293604D01*
X10659523Y-84293604D02*
X11092857Y-84293604D01*
X11092857Y-84293604D02*
X11216666Y-84355509D01*
X11216666Y-84355509D02*
X11278571Y-84417414D01*
X11278571Y-84417414D02*
X11340476Y-84541223D01*
X11340476Y-84541223D02*
X11340476Y-84665033D01*
X11340476Y-84665033D02*
X11278571Y-84788842D01*
X11278571Y-84788842D02*
X11216666Y-84850747D01*
X11216666Y-84850747D02*
X11092857Y-84912652D01*
X11092857Y-84912652D02*
X10659523Y-84912652D01*
D10*
D11*
X11402380Y-135469795D02*
X11340476Y-135531700D01*
X11340476Y-135531700D02*
X11154761Y-135593604D01*
X11154761Y-135593604D02*
X11030952Y-135593604D01*
X11030952Y-135593604D02*
X10845238Y-135531700D01*
X10845238Y-135531700D02*
X10721428Y-135407890D01*
X10721428Y-135407890D02*
X10659523Y-135284080D01*
X10659523Y-135284080D02*
X10597619Y-135036461D01*
X10597619Y-135036461D02*
X10597619Y-134850747D01*
X10597619Y-134850747D02*
X10659523Y-134603128D01*
X10659523Y-134603128D02*
X10721428Y-134479319D01*
X10721428Y-134479319D02*
X10845238Y-134355509D01*
X10845238Y-134355509D02*
X11030952Y-134293604D01*
X11030952Y-134293604D02*
X11154761Y-134293604D01*
X11154761Y-134293604D02*
X11340476Y-134355509D01*
X11340476Y-134355509D02*
X11402380Y-134417414D01*
D10*
D11*
X10659523Y-185593604D02*
X10659523Y-184293604D01*
X10659523Y-184293604D02*
X10969047Y-184293604D01*
X10969047Y-184293604D02*
X11154761Y-184355509D01*
X11154761Y-184355509D02*
X11278571Y-184479319D01*
X11278571Y-184479319D02*
X11340476Y-184603128D01*
X11340476Y-184603128D02*
X11402380Y-184850747D01*
X11402380Y-184850747D02*
X11402380Y-185036461D01*
X11402380Y-185036461D02*
X11340476Y-185284080D01*
X11340476Y-185284080D02*
X11278571Y-185407890D01*
X11278571Y-185407890D02*
X11154761Y-185531700D01*
X11154761Y-185531700D02*
X10969047Y-185593604D01*
X10969047Y-185593604D02*
X10659523Y-185593604D01*
D10*
D11*
X10721428Y-234912652D02*
X11154762Y-234912652D01*
X11340476Y-235593604D02*
X10721428Y-235593604D01*
X10721428Y-235593604D02*
X10721428Y-234293604D01*
X10721428Y-234293604D02*
X11340476Y-234293604D01*
D10*
D11*
X11185714Y-284912652D02*
X10752380Y-284912652D01*
X10752380Y-285593604D02*
X10752380Y-284293604D01*
X10752380Y-284293604D02*
X11371428Y-284293604D01*
D10*
D11*
X409989000Y-60000000D02*
X407989000Y-60000000D01*
D10*
D11*
X409989000Y-110000000D02*
X407989000Y-110000000D01*
D10*
D11*
X409989000Y-160000000D02*
X407989000Y-160000000D01*
D10*
D11*
X409989000Y-210000000D02*
X407989000Y-210000000D01*
D10*
D11*
X409989000Y-260000000D02*
X407989000Y-260000000D01*
D10*
D11*
X408679476Y-35222176D02*
X409298523Y-35222176D01*
X408555666Y-35593604D02*
X408988999Y-34293604D01*
X408988999Y-34293604D02*
X409422333Y-35593604D01*
D10*
D11*
X409081857Y-84912652D02*
X409267571Y-84974557D01*
X409267571Y-84974557D02*
X409329476Y-85036461D01*
X409329476Y-85036461D02*
X409391380Y-85160271D01*
X409391380Y-85160271D02*
X409391380Y-85345985D01*
X409391380Y-85345985D02*
X409329476Y-85469795D01*
X409329476Y-85469795D02*
X409267571Y-85531700D01*
X409267571Y-85531700D02*
X409143761Y-85593604D01*
X409143761Y-85593604D02*
X408648523Y-85593604D01*
X408648523Y-85593604D02*
X408648523Y-84293604D01*
X408648523Y-84293604D02*
X409081857Y-84293604D01*
X409081857Y-84293604D02*
X409205666Y-84355509D01*
X409205666Y-84355509D02*
X409267571Y-84417414D01*
X409267571Y-84417414D02*
X409329476Y-84541223D01*
X409329476Y-84541223D02*
X409329476Y-84665033D01*
X409329476Y-84665033D02*
X409267571Y-84788842D01*
X409267571Y-84788842D02*
X409205666Y-84850747D01*
X409205666Y-84850747D02*
X409081857Y-84912652D01*
X409081857Y-84912652D02*
X408648523Y-84912652D01*
D10*
D11*
X409391380Y-135469795D02*
X409329476Y-135531700D01*
X409329476Y-135531700D02*
X409143761Y-135593604D01*
X409143761Y-135593604D02*
X409019952Y-135593604D01*
X409019952Y-135593604D02*
X408834238Y-135531700D01*
X408834238Y-135531700D02*
X408710428Y-135407890D01*
X408710428Y-135407890D02*
X408648523Y-135284080D01*
X408648523Y-135284080D02*
X408586619Y-135036461D01*
X408586619Y-135036461D02*
X408586619Y-134850747D01*
X408586619Y-134850747D02*
X408648523Y-134603128D01*
X408648523Y-134603128D02*
X408710428Y-134479319D01*
X408710428Y-134479319D02*
X408834238Y-134355509D01*
X408834238Y-134355509D02*
X409019952Y-134293604D01*
X409019952Y-134293604D02*
X409143761Y-134293604D01*
X409143761Y-134293604D02*
X409329476Y-134355509D01*
X409329476Y-134355509D02*
X409391380Y-134417414D01*
D10*
D11*
X408648523Y-185593604D02*
X408648523Y-184293604D01*
X408648523Y-184293604D02*
X408958047Y-184293604D01*
X408958047Y-184293604D02*
X409143761Y-184355509D01*
X409143761Y-184355509D02*
X409267571Y-184479319D01*
X409267571Y-184479319D02*
X409329476Y-184603128D01*
X409329476Y-184603128D02*
X409391380Y-184850747D01*
X409391380Y-184850747D02*
X409391380Y-185036461D01*
X409391380Y-185036461D02*
X409329476Y-185284080D01*
X409329476Y-185284080D02*
X409267571Y-185407890D01*
X409267571Y-185407890D02*
X409143761Y-185531700D01*
X409143761Y-185531700D02*
X408958047Y-185593604D01*
X408958047Y-185593604D02*
X408648523Y-185593604D01*
D10*
D11*
X408710428Y-234912652D02*
X409143762Y-234912652D01*
X409329476Y-235593604D02*
X408710428Y-235593604D01*
X408710428Y-235593604D02*
X408710428Y-234293604D01*
X408710428Y-234293604D02*
X409329476Y-234293604D01*
D10*
D11*
X409174714Y-284912652D02*
X408741380Y-284912652D01*
X408741380Y-285593604D02*
X408741380Y-284293604D01*
X408741380Y-284293604D02*
X409360428Y-284293604D01*
D10*
D11*
X323444826Y-280788328D02*
X323444826Y-279288328D01*
X323444826Y-279288328D02*
X323801969Y-279288328D01*
X323801969Y-279288328D02*
X324016255Y-279359757D01*
X324016255Y-279359757D02*
X324159112Y-279502614D01*
X324159112Y-279502614D02*
X324230541Y-279645471D01*
X324230541Y-279645471D02*
X324301969Y-279931185D01*
X324301969Y-279931185D02*
X324301969Y-280145471D01*
X324301969Y-280145471D02*
X324230541Y-280431185D01*
X324230541Y-280431185D02*
X324159112Y-280574042D01*
X324159112Y-280574042D02*
X324016255Y-280716900D01*
X324016255Y-280716900D02*
X323801969Y-280788328D01*
X323801969Y-280788328D02*
X323444826Y-280788328D01*
X325587684Y-280788328D02*
X325587684Y-280002614D01*
X325587684Y-280002614D02*
X325516255Y-279859757D01*
X325516255Y-279859757D02*
X325373398Y-279788328D01*
X325373398Y-279788328D02*
X325087684Y-279788328D01*
X325087684Y-279788328D02*
X324944826Y-279859757D01*
X325587684Y-280716900D02*
X325444826Y-280788328D01*
X325444826Y-280788328D02*
X325087684Y-280788328D01*
X325087684Y-280788328D02*
X324944826Y-280716900D01*
X324944826Y-280716900D02*
X324873398Y-280574042D01*
X324873398Y-280574042D02*
X324873398Y-280431185D01*
X324873398Y-280431185D02*
X324944826Y-280288328D01*
X324944826Y-280288328D02*
X325087684Y-280216900D01*
X325087684Y-280216900D02*
X325444826Y-280216900D01*
X325444826Y-280216900D02*
X325587684Y-280145471D01*
X326087684Y-279788328D02*
X326659112Y-279788328D01*
X326301969Y-279288328D02*
X326301969Y-280574042D01*
X326301969Y-280574042D02*
X326373398Y-280716900D01*
X326373398Y-280716900D02*
X326516255Y-280788328D01*
X326516255Y-280788328D02*
X326659112Y-280788328D01*
X327730541Y-280716900D02*
X327587684Y-280788328D01*
X327587684Y-280788328D02*
X327301970Y-280788328D01*
X327301970Y-280788328D02*
X327159112Y-280716900D01*
X327159112Y-280716900D02*
X327087684Y-280574042D01*
X327087684Y-280574042D02*
X327087684Y-280002614D01*
X327087684Y-280002614D02*
X327159112Y-279859757D01*
X327159112Y-279859757D02*
X327301970Y-279788328D01*
X327301970Y-279788328D02*
X327587684Y-279788328D01*
X327587684Y-279788328D02*
X327730541Y-279859757D01*
X327730541Y-279859757D02*
X327801970Y-280002614D01*
X327801970Y-280002614D02*
X327801970Y-280145471D01*
X327801970Y-280145471D02*
X327087684Y-280288328D01*
X328444826Y-280645471D02*
X328516255Y-280716900D01*
X328516255Y-280716900D02*
X328444826Y-280788328D01*
X328444826Y-280788328D02*
X328373398Y-280716900D01*
X328373398Y-280716900D02*
X328444826Y-280645471D01*
X328444826Y-280645471D02*
X328444826Y-280788328D01*
X328444826Y-279859757D02*
X328516255Y-279931185D01*
X328516255Y-279931185D02*
X328444826Y-280002614D01*
X328444826Y-280002614D02*
X328373398Y-279931185D01*
X328373398Y-279931185D02*
X328444826Y-279859757D01*
X328444826Y-279859757D02*
X328444826Y-280002614D01*
D10*
D11*
X299989000Y-281502200D02*
X407989000Y-281502200D01*
D10*
D11*
X301444826Y-283588328D02*
X301444826Y-282088328D01*
X302301969Y-283588328D02*
X301659112Y-282731185D01*
X302301969Y-282088328D02*
X301444826Y-282945471D01*
X302944826Y-283588328D02*
X302944826Y-282588328D01*
X302944826Y-282088328D02*
X302873398Y-282159757D01*
X302873398Y-282159757D02*
X302944826Y-282231185D01*
X302944826Y-282231185D02*
X303016255Y-282159757D01*
X303016255Y-282159757D02*
X302944826Y-282088328D01*
X302944826Y-282088328D02*
X302944826Y-282231185D01*
X304516255Y-283445471D02*
X304444827Y-283516900D01*
X304444827Y-283516900D02*
X304230541Y-283588328D01*
X304230541Y-283588328D02*
X304087684Y-283588328D01*
X304087684Y-283588328D02*
X303873398Y-283516900D01*
X303873398Y-283516900D02*
X303730541Y-283374042D01*
X303730541Y-283374042D02*
X303659112Y-283231185D01*
X303659112Y-283231185D02*
X303587684Y-282945471D01*
X303587684Y-282945471D02*
X303587684Y-282731185D01*
X303587684Y-282731185D02*
X303659112Y-282445471D01*
X303659112Y-282445471D02*
X303730541Y-282302614D01*
X303730541Y-282302614D02*
X303873398Y-282159757D01*
X303873398Y-282159757D02*
X304087684Y-282088328D01*
X304087684Y-282088328D02*
X304230541Y-282088328D01*
X304230541Y-282088328D02*
X304444827Y-282159757D01*
X304444827Y-282159757D02*
X304516255Y-282231185D01*
X305801970Y-283588328D02*
X305801970Y-282802614D01*
X305801970Y-282802614D02*
X305730541Y-282659757D01*
X305730541Y-282659757D02*
X305587684Y-282588328D01*
X305587684Y-282588328D02*
X305301970Y-282588328D01*
X305301970Y-282588328D02*
X305159112Y-282659757D01*
X305801970Y-283516900D02*
X305659112Y-283588328D01*
X305659112Y-283588328D02*
X305301970Y-283588328D01*
X305301970Y-283588328D02*
X305159112Y-283516900D01*
X305159112Y-283516900D02*
X305087684Y-283374042D01*
X305087684Y-283374042D02*
X305087684Y-283231185D01*
X305087684Y-283231185D02*
X305159112Y-283088328D01*
X305159112Y-283088328D02*
X305301970Y-283016900D01*
X305301970Y-283016900D02*
X305659112Y-283016900D01*
X305659112Y-283016900D02*
X305801970Y-282945471D01*
X307159113Y-283588328D02*
X307159113Y-282088328D01*
X307159113Y-283516900D02*
X307016255Y-283588328D01*
X307016255Y-283588328D02*
X306730541Y-283588328D01*
X306730541Y-283588328D02*
X306587684Y-283516900D01*
X306587684Y-283516900D02*
X306516255Y-283445471D01*
X306516255Y-283445471D02*
X306444827Y-283302614D01*
X306444827Y-283302614D02*
X306444827Y-282874042D01*
X306444827Y-282874042D02*
X306516255Y-282731185D01*
X306516255Y-282731185D02*
X306587684Y-282659757D01*
X306587684Y-282659757D02*
X306730541Y-282588328D01*
X306730541Y-282588328D02*
X307016255Y-282588328D01*
X307016255Y-282588328D02*
X307159113Y-282659757D01*
X309016255Y-282802614D02*
X309516255Y-282802614D01*
X309730541Y-283588328D02*
X309016255Y-283588328D01*
X309016255Y-283588328D02*
X309016255Y-282088328D01*
X309016255Y-282088328D02*
X309730541Y-282088328D01*
X310373398Y-283445471D02*
X310444827Y-283516900D01*
X310444827Y-283516900D02*
X310373398Y-283588328D01*
X310373398Y-283588328D02*
X310301970Y-283516900D01*
X310301970Y-283516900D02*
X310373398Y-283445471D01*
X310373398Y-283445471D02*
X310373398Y-283588328D01*
X311087684Y-283588328D02*
X311087684Y-282088328D01*
X311087684Y-282088328D02*
X311444827Y-282088328D01*
X311444827Y-282088328D02*
X311659113Y-282159757D01*
X311659113Y-282159757D02*
X311801970Y-282302614D01*
X311801970Y-282302614D02*
X311873399Y-282445471D01*
X311873399Y-282445471D02*
X311944827Y-282731185D01*
X311944827Y-282731185D02*
X311944827Y-282945471D01*
X311944827Y-282945471D02*
X311873399Y-283231185D01*
X311873399Y-283231185D02*
X311801970Y-283374042D01*
X311801970Y-283374042D02*
X311659113Y-283516900D01*
X311659113Y-283516900D02*
X311444827Y-283588328D01*
X311444827Y-283588328D02*
X311087684Y-283588328D01*
X312587684Y-283445471D02*
X312659113Y-283516900D01*
X312659113Y-283516900D02*
X312587684Y-283588328D01*
X312587684Y-283588328D02*
X312516256Y-283516900D01*
X312516256Y-283516900D02*
X312587684Y-283445471D01*
X312587684Y-283445471D02*
X312587684Y-283588328D01*
X313230542Y-283159757D02*
X313944828Y-283159757D01*
X313087685Y-283588328D02*
X313587685Y-282088328D01*
X313587685Y-282088328D02*
X314087685Y-283588328D01*
X314587684Y-283445471D02*
X314659113Y-283516900D01*
X314659113Y-283516900D02*
X314587684Y-283588328D01*
X314587684Y-283588328D02*
X314516256Y-283516900D01*
X314516256Y-283516900D02*
X314587684Y-283445471D01*
X314587684Y-283445471D02*
X314587684Y-283588328D01*
X317587684Y-283588328D02*
X317587684Y-282088328D01*
X317730542Y-283016900D02*
X318159113Y-283588328D01*
X318159113Y-282588328D02*
X317587684Y-283159757D01*
X318801970Y-283588328D02*
X318801970Y-282588328D01*
X318801970Y-282088328D02*
X318730542Y-282159757D01*
X318730542Y-282159757D02*
X318801970Y-282231185D01*
X318801970Y-282231185D02*
X318873399Y-282159757D01*
X318873399Y-282159757D02*
X318801970Y-282088328D01*
X318801970Y-282088328D02*
X318801970Y-282231185D01*
X320159114Y-283516900D02*
X320016256Y-283588328D01*
X320016256Y-283588328D02*
X319730542Y-283588328D01*
X319730542Y-283588328D02*
X319587685Y-283516900D01*
X319587685Y-283516900D02*
X319516256Y-283445471D01*
X319516256Y-283445471D02*
X319444828Y-283302614D01*
X319444828Y-283302614D02*
X319444828Y-282874042D01*
X319444828Y-282874042D02*
X319516256Y-282731185D01*
X319516256Y-282731185D02*
X319587685Y-282659757D01*
X319587685Y-282659757D02*
X319730542Y-282588328D01*
X319730542Y-282588328D02*
X320016256Y-282588328D01*
X320016256Y-282588328D02*
X320159114Y-282659757D01*
X321444828Y-283588328D02*
X321444828Y-282802614D01*
X321444828Y-282802614D02*
X321373399Y-282659757D01*
X321373399Y-282659757D02*
X321230542Y-282588328D01*
X321230542Y-282588328D02*
X320944828Y-282588328D01*
X320944828Y-282588328D02*
X320801970Y-282659757D01*
X321444828Y-283516900D02*
X321301970Y-283588328D01*
X321301970Y-283588328D02*
X320944828Y-283588328D01*
X320944828Y-283588328D02*
X320801970Y-283516900D01*
X320801970Y-283516900D02*
X320730542Y-283374042D01*
X320730542Y-283374042D02*
X320730542Y-283231185D01*
X320730542Y-283231185D02*
X320801970Y-283088328D01*
X320801970Y-283088328D02*
X320944828Y-283016900D01*
X320944828Y-283016900D02*
X321301970Y-283016900D01*
X321301970Y-283016900D02*
X321444828Y-282945471D01*
X322801971Y-283588328D02*
X322801971Y-282088328D01*
X322801971Y-283516900D02*
X322659113Y-283588328D01*
X322659113Y-283588328D02*
X322373399Y-283588328D01*
X322373399Y-283588328D02*
X322230542Y-283516900D01*
X322230542Y-283516900D02*
X322159113Y-283445471D01*
X322159113Y-283445471D02*
X322087685Y-283302614D01*
X322087685Y-283302614D02*
X322087685Y-282874042D01*
X322087685Y-282874042D02*
X322159113Y-282731185D01*
X322159113Y-282731185D02*
X322230542Y-282659757D01*
X322230542Y-282659757D02*
X322373399Y-282588328D01*
X322373399Y-282588328D02*
X322659113Y-282588328D01*
X322659113Y-282588328D02*
X322801971Y-282659757D01*
X324516256Y-282088328D02*
X325516256Y-282088328D01*
X325516256Y-282088328D02*
X324873399Y-283588328D01*
X326087684Y-283445471D02*
X326159113Y-283516900D01*
X326159113Y-283516900D02*
X326087684Y-283588328D01*
X326087684Y-283588328D02*
X326016256Y-283516900D01*
X326016256Y-283516900D02*
X326087684Y-283445471D01*
X326087684Y-283445471D02*
X326087684Y-283588328D01*
X327087685Y-282088328D02*
X327230542Y-282088328D01*
X327230542Y-282088328D02*
X327373399Y-282159757D01*
X327373399Y-282159757D02*
X327444828Y-282231185D01*
X327444828Y-282231185D02*
X327516256Y-282374042D01*
X327516256Y-282374042D02*
X327587685Y-282659757D01*
X327587685Y-282659757D02*
X327587685Y-283016900D01*
X327587685Y-283016900D02*
X327516256Y-283302614D01*
X327516256Y-283302614D02*
X327444828Y-283445471D01*
X327444828Y-283445471D02*
X327373399Y-283516900D01*
X327373399Y-283516900D02*
X327230542Y-283588328D01*
X327230542Y-283588328D02*
X327087685Y-283588328D01*
X327087685Y-283588328D02*
X326944828Y-283516900D01*
X326944828Y-283516900D02*
X326873399Y-283445471D01*
X326873399Y-283445471D02*
X326801970Y-283302614D01*
X326801970Y-283302614D02*
X326730542Y-283016900D01*
X326730542Y-283016900D02*
X326730542Y-282659757D01*
X326730542Y-282659757D02*
X326801970Y-282374042D01*
X326801970Y-282374042D02*
X326873399Y-282231185D01*
X326873399Y-282231185D02*
X326944828Y-282159757D01*
X326944828Y-282159757D02*
X327087685Y-282088328D01*
X328230541Y-283445471D02*
X328301970Y-283516900D01*
X328301970Y-283516900D02*
X328230541Y-283588328D01*
X328230541Y-283588328D02*
X328159113Y-283516900D01*
X328159113Y-283516900D02*
X328230541Y-283445471D01*
X328230541Y-283445471D02*
X328230541Y-283588328D01*
X329730542Y-283588328D02*
X328873399Y-283588328D01*
X329301970Y-283588328D02*
X329301970Y-282088328D01*
X329301970Y-282088328D02*
X329159113Y-282302614D01*
X329159113Y-282302614D02*
X329016256Y-282445471D01*
X329016256Y-282445471D02*
X328873399Y-282516900D01*
X330659113Y-282088328D02*
X330801970Y-282088328D01*
X330801970Y-282088328D02*
X330944827Y-282159757D01*
X330944827Y-282159757D02*
X331016256Y-282231185D01*
X331016256Y-282231185D02*
X331087684Y-282374042D01*
X331087684Y-282374042D02*
X331159113Y-282659757D01*
X331159113Y-282659757D02*
X331159113Y-283016900D01*
X331159113Y-283016900D02*
X331087684Y-283302614D01*
X331087684Y-283302614D02*
X331016256Y-283445471D01*
X331016256Y-283445471D02*
X330944827Y-283516900D01*
X330944827Y-283516900D02*
X330801970Y-283588328D01*
X330801970Y-283588328D02*
X330659113Y-283588328D01*
X330659113Y-283588328D02*
X330516256Y-283516900D01*
X330516256Y-283516900D02*
X330444827Y-283445471D01*
X330444827Y-283445471D02*
X330373398Y-283302614D01*
X330373398Y-283302614D02*
X330301970Y-283016900D01*
X330301970Y-283016900D02*
X330301970Y-282659757D01*
X330301970Y-282659757D02*
X330373398Y-282374042D01*
X330373398Y-282374042D02*
X330444827Y-282231185D01*
X330444827Y-282231185D02*
X330516256Y-282159757D01*
X330516256Y-282159757D02*
X330659113Y-282088328D01*
D10*
D11*
X299989000Y-278502200D02*
X407989000Y-278502200D01*
D10*
D12*
X387400653Y-280780528D02*
X386900653Y-280066242D01*
X386543510Y-280780528D02*
X386543510Y-279280528D01*
X386543510Y-279280528D02*
X387114939Y-279280528D01*
X387114939Y-279280528D02*
X387257796Y-279351957D01*
X387257796Y-279351957D02*
X387329225Y-279423385D01*
X387329225Y-279423385D02*
X387400653Y-279566242D01*
X387400653Y-279566242D02*
X387400653Y-279780528D01*
X387400653Y-279780528D02*
X387329225Y-279923385D01*
X387329225Y-279923385D02*
X387257796Y-279994814D01*
X387257796Y-279994814D02*
X387114939Y-280066242D01*
X387114939Y-280066242D02*
X386543510Y-280066242D01*
X388614939Y-280709100D02*
X388472082Y-280780528D01*
X388472082Y-280780528D02*
X388186368Y-280780528D01*
X388186368Y-280780528D02*
X388043510Y-280709100D01*
X388043510Y-280709100D02*
X387972082Y-280566242D01*
X387972082Y-280566242D02*
X387972082Y-279994814D01*
X387972082Y-279994814D02*
X388043510Y-279851957D01*
X388043510Y-279851957D02*
X388186368Y-279780528D01*
X388186368Y-279780528D02*
X388472082Y-279780528D01*
X388472082Y-279780528D02*
X388614939Y-279851957D01*
X388614939Y-279851957D02*
X388686368Y-279994814D01*
X388686368Y-279994814D02*
X388686368Y-280137671D01*
X388686368Y-280137671D02*
X387972082Y-280280528D01*
X389186367Y-279780528D02*
X389543510Y-280780528D01*
X389543510Y-280780528D02*
X389900653Y-279780528D01*
X390472081Y-280637671D02*
X390543510Y-280709100D01*
X390543510Y-280709100D02*
X390472081Y-280780528D01*
X390472081Y-280780528D02*
X390400653Y-280709100D01*
X390400653Y-280709100D02*
X390472081Y-280637671D01*
X390472081Y-280637671D02*
X390472081Y-280780528D01*
X390472081Y-279851957D02*
X390543510Y-279923385D01*
X390543510Y-279923385D02*
X390472081Y-279994814D01*
X390472081Y-279994814D02*
X390400653Y-279923385D01*
X390400653Y-279923385D02*
X390472081Y-279851957D01*
X390472081Y-279851957D02*
X390472081Y-279994814D01*
D10*
D11*
X301373398Y-280716900D02*
X301587684Y-280788328D01*
X301587684Y-280788328D02*
X301944826Y-280788328D01*
X301944826Y-280788328D02*
X302087684Y-280716900D01*
X302087684Y-280716900D02*
X302159112Y-280645471D01*
X302159112Y-280645471D02*
X302230541Y-280502614D01*
X302230541Y-280502614D02*
X302230541Y-280359757D01*
X302230541Y-280359757D02*
X302159112Y-280216900D01*
X302159112Y-280216900D02*
X302087684Y-280145471D01*
X302087684Y-280145471D02*
X301944826Y-280074042D01*
X301944826Y-280074042D02*
X301659112Y-280002614D01*
X301659112Y-280002614D02*
X301516255Y-279931185D01*
X301516255Y-279931185D02*
X301444826Y-279859757D01*
X301444826Y-279859757D02*
X301373398Y-279716900D01*
X301373398Y-279716900D02*
X301373398Y-279574042D01*
X301373398Y-279574042D02*
X301444826Y-279431185D01*
X301444826Y-279431185D02*
X301516255Y-279359757D01*
X301516255Y-279359757D02*
X301659112Y-279288328D01*
X301659112Y-279288328D02*
X302016255Y-279288328D01*
X302016255Y-279288328D02*
X302230541Y-279359757D01*
X302873397Y-280788328D02*
X302873397Y-279788328D01*
X302873397Y-279288328D02*
X302801969Y-279359757D01*
X302801969Y-279359757D02*
X302873397Y-279431185D01*
X302873397Y-279431185D02*
X302944826Y-279359757D01*
X302944826Y-279359757D02*
X302873397Y-279288328D01*
X302873397Y-279288328D02*
X302873397Y-279431185D01*
X303444826Y-279788328D02*
X304230541Y-279788328D01*
X304230541Y-279788328D02*
X303444826Y-280788328D01*
X303444826Y-280788328D02*
X304230541Y-280788328D01*
X305373398Y-280716900D02*
X305230541Y-280788328D01*
X305230541Y-280788328D02*
X304944827Y-280788328D01*
X304944827Y-280788328D02*
X304801969Y-280716900D01*
X304801969Y-280716900D02*
X304730541Y-280574042D01*
X304730541Y-280574042D02*
X304730541Y-280002614D01*
X304730541Y-280002614D02*
X304801969Y-279859757D01*
X304801969Y-279859757D02*
X304944827Y-279788328D01*
X304944827Y-279788328D02*
X305230541Y-279788328D01*
X305230541Y-279788328D02*
X305373398Y-279859757D01*
X305373398Y-279859757D02*
X305444827Y-280002614D01*
X305444827Y-280002614D02*
X305444827Y-280145471D01*
X305444827Y-280145471D02*
X304730541Y-280288328D01*
X306087683Y-280645471D02*
X306159112Y-280716900D01*
X306159112Y-280716900D02*
X306087683Y-280788328D01*
X306087683Y-280788328D02*
X306016255Y-280716900D01*
X306016255Y-280716900D02*
X306087683Y-280645471D01*
X306087683Y-280645471D02*
X306087683Y-280788328D01*
X306087683Y-279859757D02*
X306159112Y-279931185D01*
X306159112Y-279931185D02*
X306087683Y-280002614D01*
X306087683Y-280002614D02*
X306016255Y-279931185D01*
X306016255Y-279931185D02*
X306087683Y-279859757D01*
X306087683Y-279859757D02*
X306087683Y-280002614D01*
X307873398Y-280359757D02*
X308587684Y-280359757D01*
X307730541Y-280788328D02*
X308230541Y-279288328D01*
X308230541Y-279288328D02*
X308730541Y-280788328D01*
X309087683Y-279288328D02*
X310016255Y-279288328D01*
X310016255Y-279288328D02*
X309516255Y-279859757D01*
X309516255Y-279859757D02*
X309730540Y-279859757D01*
X309730540Y-279859757D02*
X309873398Y-279931185D01*
X309873398Y-279931185D02*
X309944826Y-280002614D01*
X309944826Y-280002614D02*
X310016255Y-280145471D01*
X310016255Y-280145471D02*
X310016255Y-280502614D01*
X310016255Y-280502614D02*
X309944826Y-280645471D01*
X309944826Y-280645471D02*
X309873398Y-280716900D01*
X309873398Y-280716900D02*
X309730540Y-280788328D01*
X309730540Y-280788328D02*
X309301969Y-280788328D01*
X309301969Y-280788328D02*
X309159112Y-280716900D01*
X309159112Y-280716900D02*
X309087683Y-280645471D01*
D10*
D11*
X386444826Y-283588328D02*
X386444826Y-282088328D01*
X387801970Y-283588328D02*
X387801970Y-282088328D01*
X387801970Y-283516900D02*
X387659112Y-283588328D01*
X387659112Y-283588328D02*
X387373398Y-283588328D01*
X387373398Y-283588328D02*
X387230541Y-283516900D01*
X387230541Y-283516900D02*
X387159112Y-283445471D01*
X387159112Y-283445471D02*
X387087684Y-283302614D01*
X387087684Y-283302614D02*
X387087684Y-282874042D01*
X387087684Y-282874042D02*
X387159112Y-282731185D01*
X387159112Y-282731185D02*
X387230541Y-282659757D01*
X387230541Y-282659757D02*
X387373398Y-282588328D01*
X387373398Y-282588328D02*
X387659112Y-282588328D01*
X387659112Y-282588328D02*
X387801970Y-282659757D01*
X388516255Y-283445471D02*
X388587684Y-283516900D01*
X388587684Y-283516900D02*
X388516255Y-283588328D01*
X388516255Y-283588328D02*
X388444827Y-283516900D01*
X388444827Y-283516900D02*
X388516255Y-283445471D01*
X388516255Y-283445471D02*
X388516255Y-283588328D01*
X388516255Y-282659757D02*
X388587684Y-282731185D01*
X388587684Y-282731185D02*
X388516255Y-282802614D01*
X388516255Y-282802614D02*
X388444827Y-282731185D01*
X388444827Y-282731185D02*
X388516255Y-282659757D01*
X388516255Y-282659757D02*
X388516255Y-282802614D01*
X391159113Y-283588328D02*
X390301970Y-283588328D01*
X390730541Y-283588328D02*
X390730541Y-282088328D01*
X390730541Y-282088328D02*
X390587684Y-282302614D01*
X390587684Y-282302614D02*
X390444827Y-282445471D01*
X390444827Y-282445471D02*
X390301970Y-282516900D01*
X392873398Y-282016900D02*
X391587684Y-283945471D01*
X394159113Y-283588328D02*
X393301970Y-283588328D01*
X393730541Y-283588328D02*
X393730541Y-282088328D01*
X393730541Y-282088328D02*
X393587684Y-282302614D01*
X393587684Y-282302614D02*
X393444827Y-282445471D01*
X393444827Y-282445471D02*
X393301970Y-282516900D01*
D10*
D11*
X299989000Y-274502200D02*
X407989000Y-274502200D01*
D10*
D13*
X301680728Y-275206638D02*
X302823585Y-275206638D01*
X302002157Y-277206638D02*
X302252157Y-275206638D01*
X303240252Y-277206638D02*
X303406919Y-275873304D01*
X303490252Y-275206638D02*
X303383109Y-275301876D01*
X303383109Y-275301876D02*
X303466443Y-275397114D01*
X303466443Y-275397114D02*
X303573586Y-275301876D01*
X303573586Y-275301876D02*
X303490252Y-275206638D01*
X303490252Y-275206638D02*
X303466443Y-275397114D01*
X304073586Y-275873304D02*
X304835490Y-275873304D01*
X304442633Y-275206638D02*
X304228348Y-276920923D01*
X304228348Y-276920923D02*
X304299776Y-277111400D01*
X304299776Y-277111400D02*
X304478348Y-277206638D01*
X304478348Y-277206638D02*
X304668824Y-277206638D01*
X305621205Y-277206638D02*
X305442633Y-277111400D01*
X305442633Y-277111400D02*
X305371205Y-276920923D01*
X305371205Y-276920923D02*
X305585490Y-275206638D01*
X307156919Y-277111400D02*
X306954538Y-277206638D01*
X306954538Y-277206638D02*
X306573585Y-277206638D01*
X306573585Y-277206638D02*
X306395014Y-277111400D01*
X306395014Y-277111400D02*
X306323585Y-276920923D01*
X306323585Y-276920923D02*
X306418824Y-276159019D01*
X306418824Y-276159019D02*
X306537871Y-275968542D01*
X306537871Y-275968542D02*
X306740252Y-275873304D01*
X306740252Y-275873304D02*
X307121204Y-275873304D01*
X307121204Y-275873304D02*
X307299776Y-275968542D01*
X307299776Y-275968542D02*
X307371204Y-276159019D01*
X307371204Y-276159019D02*
X307347395Y-276349495D01*
X307347395Y-276349495D02*
X306371204Y-276539971D01*
X308121205Y-277016161D02*
X308204538Y-277111400D01*
X308204538Y-277111400D02*
X308097395Y-277206638D01*
X308097395Y-277206638D02*
X308014062Y-277111400D01*
X308014062Y-277111400D02*
X308121205Y-277016161D01*
X308121205Y-277016161D02*
X308097395Y-277206638D01*
X308252157Y-275968542D02*
X308335490Y-276063780D01*
X308335490Y-276063780D02*
X308228348Y-276159019D01*
X308228348Y-276159019D02*
X308145014Y-276063780D01*
X308145014Y-276063780D02*
X308252157Y-275968542D01*
X308252157Y-275968542D02*
X308228348Y-276159019D01*
D10*
D11*
X301944826Y-272602614D02*
X301444826Y-272602614D01*
X301444826Y-273388328D02*
X301444826Y-271888328D01*
X301444826Y-271888328D02*
X302159112Y-271888328D01*
X302730540Y-273388328D02*
X302730540Y-272388328D01*
X302730540Y-271888328D02*
X302659112Y-271959757D01*
X302659112Y-271959757D02*
X302730540Y-272031185D01*
X302730540Y-272031185D02*
X302801969Y-271959757D01*
X302801969Y-271959757D02*
X302730540Y-271888328D01*
X302730540Y-271888328D02*
X302730540Y-272031185D01*
X303659112Y-273388328D02*
X303516255Y-273316900D01*
X303516255Y-273316900D02*
X303444826Y-273174042D01*
X303444826Y-273174042D02*
X303444826Y-271888328D01*
X304801969Y-273316900D02*
X304659112Y-273388328D01*
X304659112Y-273388328D02*
X304373398Y-273388328D01*
X304373398Y-273388328D02*
X304230540Y-273316900D01*
X304230540Y-273316900D02*
X304159112Y-273174042D01*
X304159112Y-273174042D02*
X304159112Y-272602614D01*
X304159112Y-272602614D02*
X304230540Y-272459757D01*
X304230540Y-272459757D02*
X304373398Y-272388328D01*
X304373398Y-272388328D02*
X304659112Y-272388328D01*
X304659112Y-272388328D02*
X304801969Y-272459757D01*
X304801969Y-272459757D02*
X304873398Y-272602614D01*
X304873398Y-272602614D02*
X304873398Y-272745471D01*
X304873398Y-272745471D02*
X304159112Y-272888328D01*
X305516254Y-273245471D02*
X305587683Y-273316900D01*
X305587683Y-273316900D02*
X305516254Y-273388328D01*
X305516254Y-273388328D02*
X305444826Y-273316900D01*
X305444826Y-273316900D02*
X305516254Y-273245471D01*
X305516254Y-273245471D02*
X305516254Y-273388328D01*
X305516254Y-272459757D02*
X305587683Y-272531185D01*
X305587683Y-272531185D02*
X305516254Y-272602614D01*
X305516254Y-272602614D02*
X305444826Y-272531185D01*
X305444826Y-272531185D02*
X305516254Y-272459757D01*
X305516254Y-272459757D02*
X305516254Y-272602614D01*
X308016255Y-273388328D02*
X308016255Y-271888328D01*
X308016255Y-273316900D02*
X307873397Y-273388328D01*
X307873397Y-273388328D02*
X307587683Y-273388328D01*
X307587683Y-273388328D02*
X307444826Y-273316900D01*
X307444826Y-273316900D02*
X307373397Y-273245471D01*
X307373397Y-273245471D02*
X307301969Y-273102614D01*
X307301969Y-273102614D02*
X307301969Y-272674042D01*
X307301969Y-272674042D02*
X307373397Y-272531185D01*
X307373397Y-272531185D02*
X307444826Y-272459757D01*
X307444826Y-272459757D02*
X307587683Y-272388328D01*
X307587683Y-272388328D02*
X307873397Y-272388328D01*
X307873397Y-272388328D02*
X308016255Y-272459757D01*
X308730540Y-273388328D02*
X308730540Y-272388328D01*
X308730540Y-271888328D02*
X308659112Y-271959757D01*
X308659112Y-271959757D02*
X308730540Y-272031185D01*
X308730540Y-272031185D02*
X308801969Y-271959757D01*
X308801969Y-271959757D02*
X308730540Y-271888328D01*
X308730540Y-271888328D02*
X308730540Y-272031185D01*
X309373398Y-273316900D02*
X309516255Y-273388328D01*
X309516255Y-273388328D02*
X309801969Y-273388328D01*
X309801969Y-273388328D02*
X309944826Y-273316900D01*
X309944826Y-273316900D02*
X310016255Y-273174042D01*
X310016255Y-273174042D02*
X310016255Y-273102614D01*
X310016255Y-273102614D02*
X309944826Y-272959757D01*
X309944826Y-272959757D02*
X309801969Y-272888328D01*
X309801969Y-272888328D02*
X309587684Y-272888328D01*
X309587684Y-272888328D02*
X309444826Y-272816900D01*
X309444826Y-272816900D02*
X309373398Y-272674042D01*
X309373398Y-272674042D02*
X309373398Y-272602614D01*
X309373398Y-272602614D02*
X309444826Y-272459757D01*
X309444826Y-272459757D02*
X309587684Y-272388328D01*
X309587684Y-272388328D02*
X309801969Y-272388328D01*
X309801969Y-272388328D02*
X309944826Y-272459757D01*
X311301970Y-273316900D02*
X311159112Y-273388328D01*
X311159112Y-273388328D02*
X310873398Y-273388328D01*
X310873398Y-273388328D02*
X310730541Y-273316900D01*
X310730541Y-273316900D02*
X310659112Y-273245471D01*
X310659112Y-273245471D02*
X310587684Y-273102614D01*
X310587684Y-273102614D02*
X310587684Y-272674042D01*
X310587684Y-272674042D02*
X310659112Y-272531185D01*
X310659112Y-272531185D02*
X310730541Y-272459757D01*
X310730541Y-272459757D02*
X310873398Y-272388328D01*
X310873398Y-272388328D02*
X311159112Y-272388328D01*
X311159112Y-272388328D02*
X311301970Y-272459757D01*
X311944826Y-273388328D02*
X311944826Y-272388328D01*
X311944826Y-271888328D02*
X311873398Y-271959757D01*
X311873398Y-271959757D02*
X311944826Y-272031185D01*
X311944826Y-272031185D02*
X312016255Y-271959757D01*
X312016255Y-271959757D02*
X311944826Y-271888328D01*
X311944826Y-271888328D02*
X311944826Y-272031185D01*
X312659112Y-272388328D02*
X312659112Y-273888328D01*
X312659112Y-272459757D02*
X312801970Y-272388328D01*
X312801970Y-272388328D02*
X313087684Y-272388328D01*
X313087684Y-272388328D02*
X313230541Y-272459757D01*
X313230541Y-272459757D02*
X313301970Y-272531185D01*
X313301970Y-272531185D02*
X313373398Y-272674042D01*
X313373398Y-272674042D02*
X313373398Y-273102614D01*
X313373398Y-273102614D02*
X313301970Y-273245471D01*
X313301970Y-273245471D02*
X313230541Y-273316900D01*
X313230541Y-273316900D02*
X313087684Y-273388328D01*
X313087684Y-273388328D02*
X312801970Y-273388328D01*
X312801970Y-273388328D02*
X312659112Y-273316900D01*
X314230541Y-273388328D02*
X314087684Y-273316900D01*
X314087684Y-273316900D02*
X314016255Y-273174042D01*
X314016255Y-273174042D02*
X314016255Y-271888328D01*
X314801969Y-273388328D02*
X314801969Y-272388328D01*
X314801969Y-271888328D02*
X314730541Y-271959757D01*
X314730541Y-271959757D02*
X314801969Y-272031185D01*
X314801969Y-272031185D02*
X314873398Y-271959757D01*
X314873398Y-271959757D02*
X314801969Y-271888328D01*
X314801969Y-271888328D02*
X314801969Y-272031185D01*
X315516255Y-272388328D02*
X315516255Y-273388328D01*
X315516255Y-272531185D02*
X315587684Y-272459757D01*
X315587684Y-272459757D02*
X315730541Y-272388328D01*
X315730541Y-272388328D02*
X315944827Y-272388328D01*
X315944827Y-272388328D02*
X316087684Y-272459757D01*
X316087684Y-272459757D02*
X316159113Y-272602614D01*
X316159113Y-272602614D02*
X316159113Y-273388328D01*
X317444827Y-273316900D02*
X317301970Y-273388328D01*
X317301970Y-273388328D02*
X317016256Y-273388328D01*
X317016256Y-273388328D02*
X316873398Y-273316900D01*
X316873398Y-273316900D02*
X316801970Y-273174042D01*
X316801970Y-273174042D02*
X316801970Y-272602614D01*
X316801970Y-272602614D02*
X316873398Y-272459757D01*
X316873398Y-272459757D02*
X317016256Y-272388328D01*
X317016256Y-272388328D02*
X317301970Y-272388328D01*
X317301970Y-272388328D02*
X317444827Y-272459757D01*
X317444827Y-272459757D02*
X317516256Y-272602614D01*
X317516256Y-272602614D02*
X317516256Y-272745471D01*
X317516256Y-272745471D02*
X316801970Y-272888328D01*
X318159112Y-272816900D02*
X319301970Y-272816900D01*
X320016255Y-272388328D02*
X320016255Y-273888328D01*
X320016255Y-272459757D02*
X320159113Y-272388328D01*
X320159113Y-272388328D02*
X320444827Y-272388328D01*
X320444827Y-272388328D02*
X320587684Y-272459757D01*
X320587684Y-272459757D02*
X320659113Y-272531185D01*
X320659113Y-272531185D02*
X320730541Y-272674042D01*
X320730541Y-272674042D02*
X320730541Y-273102614D01*
X320730541Y-273102614D02*
X320659113Y-273245471D01*
X320659113Y-273245471D02*
X320587684Y-273316900D01*
X320587684Y-273316900D02*
X320444827Y-273388328D01*
X320444827Y-273388328D02*
X320159113Y-273388328D01*
X320159113Y-273388328D02*
X320016255Y-273316900D01*
X322016256Y-273316900D02*
X321873398Y-273388328D01*
X321873398Y-273388328D02*
X321587684Y-273388328D01*
X321587684Y-273388328D02*
X321444827Y-273316900D01*
X321444827Y-273316900D02*
X321373398Y-273245471D01*
X321373398Y-273245471D02*
X321301970Y-273102614D01*
X321301970Y-273102614D02*
X321301970Y-272674042D01*
X321301970Y-272674042D02*
X321373398Y-272531185D01*
X321373398Y-272531185D02*
X321444827Y-272459757D01*
X321444827Y-272459757D02*
X321587684Y-272388328D01*
X321587684Y-272388328D02*
X321873398Y-272388328D01*
X321873398Y-272388328D02*
X322016256Y-272459757D01*
X322659112Y-273388328D02*
X322659112Y-271888328D01*
X322659112Y-272459757D02*
X322801970Y-272388328D01*
X322801970Y-272388328D02*
X323087684Y-272388328D01*
X323087684Y-272388328D02*
X323230541Y-272459757D01*
X323230541Y-272459757D02*
X323301970Y-272531185D01*
X323301970Y-272531185D02*
X323373398Y-272674042D01*
X323373398Y-272674042D02*
X323373398Y-273102614D01*
X323373398Y-273102614D02*
X323301970Y-273245471D01*
X323301970Y-273245471D02*
X323230541Y-273316900D01*
X323230541Y-273316900D02*
X323087684Y-273388328D01*
X323087684Y-273388328D02*
X322801970Y-273388328D01*
X322801970Y-273388328D02*
X322659112Y-273316900D01*
X324016255Y-273245471D02*
X324087684Y-273316900D01*
X324087684Y-273316900D02*
X324016255Y-273388328D01*
X324016255Y-273388328D02*
X323944827Y-273316900D01*
X323944827Y-273316900D02*
X324016255Y-273245471D01*
X324016255Y-273245471D02*
X324016255Y-273388328D01*
X324730541Y-273388328D02*
X324730541Y-271888328D01*
X324873399Y-272816900D02*
X325301970Y-273388328D01*
X325301970Y-272388328D02*
X324730541Y-272959757D01*
X325944827Y-273388328D02*
X325944827Y-272388328D01*
X325944827Y-271888328D02*
X325873399Y-271959757D01*
X325873399Y-271959757D02*
X325944827Y-272031185D01*
X325944827Y-272031185D02*
X326016256Y-271959757D01*
X326016256Y-271959757D02*
X325944827Y-271888328D01*
X325944827Y-271888328D02*
X325944827Y-272031185D01*
X327301971Y-273316900D02*
X327159113Y-273388328D01*
X327159113Y-273388328D02*
X326873399Y-273388328D01*
X326873399Y-273388328D02*
X326730542Y-273316900D01*
X326730542Y-273316900D02*
X326659113Y-273245471D01*
X326659113Y-273245471D02*
X326587685Y-273102614D01*
X326587685Y-273102614D02*
X326587685Y-272674042D01*
X326587685Y-272674042D02*
X326659113Y-272531185D01*
X326659113Y-272531185D02*
X326730542Y-272459757D01*
X326730542Y-272459757D02*
X326873399Y-272388328D01*
X326873399Y-272388328D02*
X327159113Y-272388328D01*
X327159113Y-272388328D02*
X327301971Y-272459757D01*
X328587685Y-273388328D02*
X328587685Y-272602614D01*
X328587685Y-272602614D02*
X328516256Y-272459757D01*
X328516256Y-272459757D02*
X328373399Y-272388328D01*
X328373399Y-272388328D02*
X328087685Y-272388328D01*
X328087685Y-272388328D02*
X327944827Y-272459757D01*
X328587685Y-273316900D02*
X328444827Y-273388328D01*
X328444827Y-273388328D02*
X328087685Y-273388328D01*
X328087685Y-273388328D02*
X327944827Y-273316900D01*
X327944827Y-273316900D02*
X327873399Y-273174042D01*
X327873399Y-273174042D02*
X327873399Y-273031185D01*
X327873399Y-273031185D02*
X327944827Y-272888328D01*
X327944827Y-272888328D02*
X328087685Y-272816900D01*
X328087685Y-272816900D02*
X328444827Y-272816900D01*
X328444827Y-272816900D02*
X328587685Y-272745471D01*
X329944828Y-273388328D02*
X329944828Y-271888328D01*
X329944828Y-273316900D02*
X329801970Y-273388328D01*
X329801970Y-273388328D02*
X329516256Y-273388328D01*
X329516256Y-273388328D02*
X329373399Y-273316900D01*
X329373399Y-273316900D02*
X329301970Y-273245471D01*
X329301970Y-273245471D02*
X329230542Y-273102614D01*
X329230542Y-273102614D02*
X329230542Y-272674042D01*
X329230542Y-272674042D02*
X329301970Y-272531185D01*
X329301970Y-272531185D02*
X329373399Y-272459757D01*
X329373399Y-272459757D02*
X329516256Y-272388328D01*
X329516256Y-272388328D02*
X329801970Y-272388328D01*
X329801970Y-272388328D02*
X329944828Y-272459757D01*
X330301971Y-273531185D02*
X331444828Y-273531185D01*
X331801970Y-272388328D02*
X331801970Y-273888328D01*
X331801970Y-272459757D02*
X331944828Y-272388328D01*
X331944828Y-272388328D02*
X332230542Y-272388328D01*
X332230542Y-272388328D02*
X332373399Y-272459757D01*
X332373399Y-272459757D02*
X332444828Y-272531185D01*
X332444828Y-272531185D02*
X332516256Y-272674042D01*
X332516256Y-272674042D02*
X332516256Y-273102614D01*
X332516256Y-273102614D02*
X332444828Y-273245471D01*
X332444828Y-273245471D02*
X332373399Y-273316900D01*
X332373399Y-273316900D02*
X332230542Y-273388328D01*
X332230542Y-273388328D02*
X331944828Y-273388328D01*
X331944828Y-273388328D02*
X331801970Y-273316900D01*
X333801971Y-273316900D02*
X333659113Y-273388328D01*
X333659113Y-273388328D02*
X333373399Y-273388328D01*
X333373399Y-273388328D02*
X333230542Y-273316900D01*
X333230542Y-273316900D02*
X333159113Y-273245471D01*
X333159113Y-273245471D02*
X333087685Y-273102614D01*
X333087685Y-273102614D02*
X333087685Y-272674042D01*
X333087685Y-272674042D02*
X333159113Y-272531185D01*
X333159113Y-272531185D02*
X333230542Y-272459757D01*
X333230542Y-272459757D02*
X333373399Y-272388328D01*
X333373399Y-272388328D02*
X333659113Y-272388328D01*
X333659113Y-272388328D02*
X333801971Y-272459757D01*
X334444827Y-273388328D02*
X334444827Y-271888328D01*
X334444827Y-272459757D02*
X334587685Y-272388328D01*
X334587685Y-272388328D02*
X334873399Y-272388328D01*
X334873399Y-272388328D02*
X335016256Y-272459757D01*
X335016256Y-272459757D02*
X335087685Y-272531185D01*
X335087685Y-272531185D02*
X335159113Y-272674042D01*
X335159113Y-272674042D02*
X335159113Y-273102614D01*
X335159113Y-273102614D02*
X335087685Y-273245471D01*
X335087685Y-273245471D02*
X335016256Y-273316900D01*
X335016256Y-273316900D02*
X334873399Y-273388328D01*
X334873399Y-273388328D02*
X334587685Y-273388328D01*
X334587685Y-273388328D02*
X334444827Y-273316900D01*
D10*
D11*
X299989000Y-268502200D02*
X407989000Y-268502200D01*
D10*
D11*
X301373398Y-270616900D02*
X301587684Y-270688328D01*
X301587684Y-270688328D02*
X301944826Y-270688328D01*
X301944826Y-270688328D02*
X302087684Y-270616900D01*
X302087684Y-270616900D02*
X302159112Y-270545471D01*
X302159112Y-270545471D02*
X302230541Y-270402614D01*
X302230541Y-270402614D02*
X302230541Y-270259757D01*
X302230541Y-270259757D02*
X302159112Y-270116900D01*
X302159112Y-270116900D02*
X302087684Y-270045471D01*
X302087684Y-270045471D02*
X301944826Y-269974042D01*
X301944826Y-269974042D02*
X301659112Y-269902614D01*
X301659112Y-269902614D02*
X301516255Y-269831185D01*
X301516255Y-269831185D02*
X301444826Y-269759757D01*
X301444826Y-269759757D02*
X301373398Y-269616900D01*
X301373398Y-269616900D02*
X301373398Y-269474042D01*
X301373398Y-269474042D02*
X301444826Y-269331185D01*
X301444826Y-269331185D02*
X301516255Y-269259757D01*
X301516255Y-269259757D02*
X301659112Y-269188328D01*
X301659112Y-269188328D02*
X302016255Y-269188328D01*
X302016255Y-269188328D02*
X302230541Y-269259757D01*
X302873397Y-270688328D02*
X302873397Y-269188328D01*
X303516255Y-270688328D02*
X303516255Y-269902614D01*
X303516255Y-269902614D02*
X303444826Y-269759757D01*
X303444826Y-269759757D02*
X303301969Y-269688328D01*
X303301969Y-269688328D02*
X303087683Y-269688328D01*
X303087683Y-269688328D02*
X302944826Y-269759757D01*
X302944826Y-269759757D02*
X302873397Y-269831185D01*
X304801969Y-270616900D02*
X304659112Y-270688328D01*
X304659112Y-270688328D02*
X304373398Y-270688328D01*
X304373398Y-270688328D02*
X304230540Y-270616900D01*
X304230540Y-270616900D02*
X304159112Y-270474042D01*
X304159112Y-270474042D02*
X304159112Y-269902614D01*
X304159112Y-269902614D02*
X304230540Y-269759757D01*
X304230540Y-269759757D02*
X304373398Y-269688328D01*
X304373398Y-269688328D02*
X304659112Y-269688328D01*
X304659112Y-269688328D02*
X304801969Y-269759757D01*
X304801969Y-269759757D02*
X304873398Y-269902614D01*
X304873398Y-269902614D02*
X304873398Y-270045471D01*
X304873398Y-270045471D02*
X304159112Y-270188328D01*
X306087683Y-270616900D02*
X305944826Y-270688328D01*
X305944826Y-270688328D02*
X305659112Y-270688328D01*
X305659112Y-270688328D02*
X305516254Y-270616900D01*
X305516254Y-270616900D02*
X305444826Y-270474042D01*
X305444826Y-270474042D02*
X305444826Y-269902614D01*
X305444826Y-269902614D02*
X305516254Y-269759757D01*
X305516254Y-269759757D02*
X305659112Y-269688328D01*
X305659112Y-269688328D02*
X305944826Y-269688328D01*
X305944826Y-269688328D02*
X306087683Y-269759757D01*
X306087683Y-269759757D02*
X306159112Y-269902614D01*
X306159112Y-269902614D02*
X306159112Y-270045471D01*
X306159112Y-270045471D02*
X305444826Y-270188328D01*
X306587683Y-269688328D02*
X307159111Y-269688328D01*
X306801968Y-269188328D02*
X306801968Y-270474042D01*
X306801968Y-270474042D02*
X306873397Y-270616900D01*
X306873397Y-270616900D02*
X307016254Y-270688328D01*
X307016254Y-270688328D02*
X307159111Y-270688328D01*
X307659111Y-270545471D02*
X307730540Y-270616900D01*
X307730540Y-270616900D02*
X307659111Y-270688328D01*
X307659111Y-270688328D02*
X307587683Y-270616900D01*
X307587683Y-270616900D02*
X307659111Y-270545471D01*
X307659111Y-270545471D02*
X307659111Y-270688328D01*
X307659111Y-269759757D02*
X307730540Y-269831185D01*
X307730540Y-269831185D02*
X307659111Y-269902614D01*
X307659111Y-269902614D02*
X307587683Y-269831185D01*
X307587683Y-269831185D02*
X307659111Y-269759757D01*
X307659111Y-269759757D02*
X307659111Y-269902614D01*
D10*
D12*
D10*
D11*
D10*
D11*
D10*
D11*
D10*
D11*
D10*
D11*
X319989000Y-278502200D02*
X319989000Y-281502200D01*
D10*
D11*
X383989000Y-278502200D02*
X383989000Y-285002200D01*
X63962579Y-73584524D02*
X63162579Y-73584524D01*
X63162579Y-73584524D02*
X63162579Y-73775000D01*
X63162579Y-73775000D02*
X63200674Y-73889286D01*
X63200674Y-73889286D02*
X63276864Y-73965476D01*
X63276864Y-73965476D02*
X63353055Y-74003571D01*
X63353055Y-74003571D02*
X63505436Y-74041667D01*
X63505436Y-74041667D02*
X63619722Y-74041667D01*
X63619722Y-74041667D02*
X63772103Y-74003571D01*
X63772103Y-74003571D02*
X63848293Y-73965476D01*
X63848293Y-73965476D02*
X63924484Y-73889286D01*
X63924484Y-73889286D02*
X63962579Y-73775000D01*
X63962579Y-73775000D02*
X63962579Y-73584524D01*
X63962579Y-74803571D02*
X63962579Y-74346428D01*
X63962579Y-74575000D02*
X63162579Y-74575000D01*
X63162579Y-74575000D02*
X63276864Y-74498809D01*
X63276864Y-74498809D02*
X63353055Y-74422619D01*
X63353055Y-74422619D02*
X63391150Y-74346428D01*
X66910295Y-75235571D02*
X66110295Y-75235571D01*
X66110295Y-75235571D02*
X66110295Y-75426047D01*
X66110295Y-75426047D02*
X66148390Y-75540333D01*
X66148390Y-75540333D02*
X66224580Y-75616523D01*
X66224580Y-75616523D02*
X66300771Y-75654618D01*
X66300771Y-75654618D02*
X66453152Y-75692714D01*
X66453152Y-75692714D02*
X66567438Y-75692714D01*
X66567438Y-75692714D02*
X66719819Y-75654618D01*
X66719819Y-75654618D02*
X66796009Y-75616523D01*
X66796009Y-75616523D02*
X66872200Y-75540333D01*
X66872200Y-75540333D02*
X66910295Y-75426047D01*
X66910295Y-75426047D02*
X66910295Y-75235571D01*
X66910295Y-76454618D02*
X66910295Y-75997475D01*
X66910295Y-76226047D02*
X66110295Y-76226047D01*
X66110295Y-76226047D02*
X66224580Y-76149856D01*
X66224580Y-76149856D02*
X66300771Y-76073666D01*
X66300771Y-76073666D02*
X66338866Y-75997475D01*
X66110295Y-77140333D02*
X66110295Y-76987952D01*
X66110295Y-76987952D02*
X66148390Y-76911761D01*
X66148390Y-76911761D02*
X66186485Y-76873666D01*
X66186485Y-76873666D02*
X66300771Y-76797476D01*
X66300771Y-76797476D02*
X66453152Y-76759380D01*
X66453152Y-76759380D02*
X66757914Y-76759380D01*
X66757914Y-76759380D02*
X66834104Y-76797476D01*
X66834104Y-76797476D02*
X66872200Y-76835571D01*
X66872200Y-76835571D02*
X66910295Y-76911761D01*
X66910295Y-76911761D02*
X66910295Y-77064142D01*
X66910295Y-77064142D02*
X66872200Y-77140333D01*
X66872200Y-77140333D02*
X66834104Y-77178428D01*
X66834104Y-77178428D02*
X66757914Y-77216523D01*
X66757914Y-77216523D02*
X66567438Y-77216523D01*
X66567438Y-77216523D02*
X66491247Y-77178428D01*
X66491247Y-77178428D02*
X66453152Y-77140333D01*
X66453152Y-77140333D02*
X66415057Y-77064142D01*
X66415057Y-77064142D02*
X66415057Y-76911761D01*
X66415057Y-76911761D02*
X66453152Y-76835571D01*
X66453152Y-76835571D02*
X66491247Y-76797476D01*
X66491247Y-76797476D02*
X66567438Y-76759380D01*
X69450295Y-75204071D02*
X68650295Y-75204071D01*
X68650295Y-75204071D02*
X68650295Y-75394547D01*
X68650295Y-75394547D02*
X68688390Y-75508833D01*
X68688390Y-75508833D02*
X68764580Y-75585023D01*
X68764580Y-75585023D02*
X68840771Y-75623118D01*
X68840771Y-75623118D02*
X68993152Y-75661214D01*
X68993152Y-75661214D02*
X69107438Y-75661214D01*
X69107438Y-75661214D02*
X69259819Y-75623118D01*
X69259819Y-75623118D02*
X69336009Y-75585023D01*
X69336009Y-75585023D02*
X69412200Y-75508833D01*
X69412200Y-75508833D02*
X69450295Y-75394547D01*
X69450295Y-75394547D02*
X69450295Y-75204071D01*
X68650295Y-75927880D02*
X68650295Y-76423118D01*
X68650295Y-76423118D02*
X68955057Y-76156452D01*
X68955057Y-76156452D02*
X68955057Y-76270737D01*
X68955057Y-76270737D02*
X68993152Y-76346928D01*
X68993152Y-76346928D02*
X69031247Y-76385023D01*
X69031247Y-76385023D02*
X69107438Y-76423118D01*
X69107438Y-76423118D02*
X69297914Y-76423118D01*
X69297914Y-76423118D02*
X69374104Y-76385023D01*
X69374104Y-76385023D02*
X69412200Y-76346928D01*
X69412200Y-76346928D02*
X69450295Y-76270737D01*
X69450295Y-76270737D02*
X69450295Y-76042166D01*
X69450295Y-76042166D02*
X69412200Y-75965975D01*
X69412200Y-75965975D02*
X69374104Y-75927880D01*
X69450295Y-77185023D02*
X69450295Y-76727880D01*
X69450295Y-76956452D02*
X68650295Y-76956452D01*
X68650295Y-76956452D02*
X68764580Y-76880261D01*
X68764580Y-76880261D02*
X68840771Y-76804071D01*
X68840771Y-76804071D02*
X68878866Y-76727880D01*
X77070295Y-76861071D02*
X76270295Y-76861071D01*
X76270295Y-76861071D02*
X76270295Y-77051547D01*
X76270295Y-77051547D02*
X76308390Y-77165833D01*
X76308390Y-77165833D02*
X76384580Y-77242023D01*
X76384580Y-77242023D02*
X76460771Y-77280118D01*
X76460771Y-77280118D02*
X76613152Y-77318214D01*
X76613152Y-77318214D02*
X76727438Y-77318214D01*
X76727438Y-77318214D02*
X76879819Y-77280118D01*
X76879819Y-77280118D02*
X76956009Y-77242023D01*
X76956009Y-77242023D02*
X77032200Y-77165833D01*
X77032200Y-77165833D02*
X77070295Y-77051547D01*
X77070295Y-77051547D02*
X77070295Y-76861071D01*
X76270295Y-77584880D02*
X76270295Y-78080118D01*
X76270295Y-78080118D02*
X76575057Y-77813452D01*
X76575057Y-77813452D02*
X76575057Y-77927737D01*
X76575057Y-77927737D02*
X76613152Y-78003928D01*
X76613152Y-78003928D02*
X76651247Y-78042023D01*
X76651247Y-78042023D02*
X76727438Y-78080118D01*
X76727438Y-78080118D02*
X76917914Y-78080118D01*
X76917914Y-78080118D02*
X76994104Y-78042023D01*
X76994104Y-78042023D02*
X77032200Y-78003928D01*
X77032200Y-78003928D02*
X77070295Y-77927737D01*
X77070295Y-77927737D02*
X77070295Y-77699166D01*
X77070295Y-77699166D02*
X77032200Y-77622975D01*
X77032200Y-77622975D02*
X76994104Y-77584880D01*
X76346485Y-78384880D02*
X76308390Y-78422976D01*
X76308390Y-78422976D02*
X76270295Y-78499166D01*
X76270295Y-78499166D02*
X76270295Y-78689642D01*
X76270295Y-78689642D02*
X76308390Y-78765833D01*
X76308390Y-78765833D02*
X76346485Y-78803928D01*
X76346485Y-78803928D02*
X76422676Y-78842023D01*
X76422676Y-78842023D02*
X76498866Y-78842023D01*
X76498866Y-78842023D02*
X76613152Y-78803928D01*
X76613152Y-78803928D02*
X77070295Y-78346785D01*
X77070295Y-78346785D02*
X77070295Y-78842023D01*
X71990295Y-75235571D02*
X71190295Y-75235571D01*
X71190295Y-75235571D02*
X71190295Y-75426047D01*
X71190295Y-75426047D02*
X71228390Y-75540333D01*
X71228390Y-75540333D02*
X71304580Y-75616523D01*
X71304580Y-75616523D02*
X71380771Y-75654618D01*
X71380771Y-75654618D02*
X71533152Y-75692714D01*
X71533152Y-75692714D02*
X71647438Y-75692714D01*
X71647438Y-75692714D02*
X71799819Y-75654618D01*
X71799819Y-75654618D02*
X71876009Y-75616523D01*
X71876009Y-75616523D02*
X71952200Y-75540333D01*
X71952200Y-75540333D02*
X71990295Y-75426047D01*
X71990295Y-75426047D02*
X71990295Y-75235571D01*
X71456961Y-76378428D02*
X71990295Y-76378428D01*
X71152200Y-76187952D02*
X71723628Y-75997475D01*
X71723628Y-75997475D02*
X71723628Y-76492714D01*
X71190295Y-77178428D02*
X71190295Y-76797476D01*
X71190295Y-76797476D02*
X71571247Y-76759380D01*
X71571247Y-76759380D02*
X71533152Y-76797476D01*
X71533152Y-76797476D02*
X71495057Y-76873666D01*
X71495057Y-76873666D02*
X71495057Y-77064142D01*
X71495057Y-77064142D02*
X71533152Y-77140333D01*
X71533152Y-77140333D02*
X71571247Y-77178428D01*
X71571247Y-77178428D02*
X71647438Y-77216523D01*
X71647438Y-77216523D02*
X71837914Y-77216523D01*
X71837914Y-77216523D02*
X71914104Y-77178428D01*
X71914104Y-77178428D02*
X71952200Y-77140333D01*
X71952200Y-77140333D02*
X71990295Y-77064142D01*
X71990295Y-77064142D02*
X71990295Y-76873666D01*
X71990295Y-76873666D02*
X71952200Y-76797476D01*
X71952200Y-76797476D02*
X71914104Y-76759380D01*
X74530295Y-76861071D02*
X73730295Y-76861071D01*
X73730295Y-76861071D02*
X73730295Y-77051547D01*
X73730295Y-77051547D02*
X73768390Y-77165833D01*
X73768390Y-77165833D02*
X73844580Y-77242023D01*
X73844580Y-77242023D02*
X73920771Y-77280118D01*
X73920771Y-77280118D02*
X74073152Y-77318214D01*
X74073152Y-77318214D02*
X74187438Y-77318214D01*
X74187438Y-77318214D02*
X74339819Y-77280118D01*
X74339819Y-77280118D02*
X74416009Y-77242023D01*
X74416009Y-77242023D02*
X74492200Y-77165833D01*
X74492200Y-77165833D02*
X74530295Y-77051547D01*
X74530295Y-77051547D02*
X74530295Y-76861071D01*
X73730295Y-78003928D02*
X73730295Y-77851547D01*
X73730295Y-77851547D02*
X73768390Y-77775356D01*
X73768390Y-77775356D02*
X73806485Y-77737261D01*
X73806485Y-77737261D02*
X73920771Y-77661071D01*
X73920771Y-77661071D02*
X74073152Y-77622975D01*
X74073152Y-77622975D02*
X74377914Y-77622975D01*
X74377914Y-77622975D02*
X74454104Y-77661071D01*
X74454104Y-77661071D02*
X74492200Y-77699166D01*
X74492200Y-77699166D02*
X74530295Y-77775356D01*
X74530295Y-77775356D02*
X74530295Y-77927737D01*
X74530295Y-77927737D02*
X74492200Y-78003928D01*
X74492200Y-78003928D02*
X74454104Y-78042023D01*
X74454104Y-78042023D02*
X74377914Y-78080118D01*
X74377914Y-78080118D02*
X74187438Y-78080118D01*
X74187438Y-78080118D02*
X74111247Y-78042023D01*
X74111247Y-78042023D02*
X74073152Y-78003928D01*
X74073152Y-78003928D02*
X74035057Y-77927737D01*
X74035057Y-77927737D02*
X74035057Y-77775356D01*
X74035057Y-77775356D02*
X74073152Y-77699166D01*
X74073152Y-77699166D02*
X74111247Y-77661071D01*
X74111247Y-77661071D02*
X74187438Y-77622975D01*
X73730295Y-78575357D02*
X73730295Y-78651547D01*
X73730295Y-78651547D02*
X73768390Y-78727738D01*
X73768390Y-78727738D02*
X73806485Y-78765833D01*
X73806485Y-78765833D02*
X73882676Y-78803928D01*
X73882676Y-78803928D02*
X74035057Y-78842023D01*
X74035057Y-78842023D02*
X74225533Y-78842023D01*
X74225533Y-78842023D02*
X74377914Y-78803928D01*
X74377914Y-78803928D02*
X74454104Y-78765833D01*
X74454104Y-78765833D02*
X74492200Y-78727738D01*
X74492200Y-78727738D02*
X74530295Y-78651547D01*
X74530295Y-78651547D02*
X74530295Y-78575357D01*
X74530295Y-78575357D02*
X74492200Y-78499166D01*
X74492200Y-78499166D02*
X74454104Y-78461071D01*
X74454104Y-78461071D02*
X74377914Y-78422976D01*
X74377914Y-78422976D02*
X74225533Y-78384880D01*
X74225533Y-78384880D02*
X74035057Y-78384880D01*
X74035057Y-78384880D02*
X73882676Y-78422976D01*
X73882676Y-78422976D02*
X73806485Y-78461071D01*
X73806485Y-78461071D02*
X73768390Y-78499166D01*
X73768390Y-78499166D02*
X73730295Y-78575357D01*
X324105880Y-69084078D02*
X324153499Y-69131698D01*
X324153499Y-69131698D02*
X324296356Y-69179317D01*
X324296356Y-69179317D02*
X324391594Y-69179317D01*
X324391594Y-69179317D02*
X324534451Y-69131698D01*
X324534451Y-69131698D02*
X324629689Y-69036459D01*
X324629689Y-69036459D02*
X324677308Y-68941221D01*
X324677308Y-68941221D02*
X324724927Y-68750745D01*
X324724927Y-68750745D02*
X324724927Y-68607888D01*
X324724927Y-68607888D02*
X324677308Y-68417412D01*
X324677308Y-68417412D02*
X324629689Y-68322174D01*
X324629689Y-68322174D02*
X324534451Y-68226936D01*
X324534451Y-68226936D02*
X324391594Y-68179317D01*
X324391594Y-68179317D02*
X324296356Y-68179317D01*
X324296356Y-68179317D02*
X324153499Y-68226936D01*
X324153499Y-68226936D02*
X324105880Y-68274555D01*
X323248737Y-68512650D02*
X323248737Y-69179317D01*
X323486832Y-68131698D02*
X323724927Y-68845983D01*
X323724927Y-68845983D02*
X323105880Y-68845983D01*
X325322194Y-66168494D02*
X325226956Y-66168494D01*
X325226956Y-66168494D02*
X325131718Y-66216113D01*
X325131718Y-66216113D02*
X325084099Y-66263732D01*
X325084099Y-66263732D02*
X325036480Y-66358970D01*
X325036480Y-66358970D02*
X324988861Y-66549446D01*
X324988861Y-66549446D02*
X324988861Y-66787541D01*
X324988861Y-66787541D02*
X325036480Y-66978017D01*
X325036480Y-66978017D02*
X325084099Y-67073255D01*
X325084099Y-67073255D02*
X325131718Y-67120875D01*
X325131718Y-67120875D02*
X325226956Y-67168494D01*
X325226956Y-67168494D02*
X325322194Y-67168494D01*
X325322194Y-67168494D02*
X325417432Y-67120875D01*
X325417432Y-67120875D02*
X325465051Y-67073255D01*
X325465051Y-67073255D02*
X325512670Y-66978017D01*
X325512670Y-66978017D02*
X325560289Y-66787541D01*
X325560289Y-66787541D02*
X325560289Y-66549446D01*
X325560289Y-66549446D02*
X325512670Y-66358970D01*
X325512670Y-66358970D02*
X325465051Y-66263732D01*
X325465051Y-66263732D02*
X325417432Y-66216113D01*
X325417432Y-66216113D02*
X325322194Y-66168494D01*
X324560289Y-67073255D02*
X324512670Y-67120875D01*
X324512670Y-67120875D02*
X324560289Y-67168494D01*
X324560289Y-67168494D02*
X324607908Y-67120875D01*
X324607908Y-67120875D02*
X324560289Y-67073255D01*
X324560289Y-67073255D02*
X324560289Y-67168494D01*
X323560290Y-67168494D02*
X324131718Y-67168494D01*
X323846004Y-67168494D02*
X323846004Y-66168494D01*
X323846004Y-66168494D02*
X323941242Y-66311351D01*
X323941242Y-66311351D02*
X324036480Y-66406589D01*
X324036480Y-66406589D02*
X324131718Y-66454208D01*
X322703147Y-66501827D02*
X322703147Y-67168494D01*
X323131718Y-66501827D02*
X323131718Y-67025636D01*
X323131718Y-67025636D02*
X323084099Y-67120875D01*
X323084099Y-67120875D02*
X322988861Y-67168494D01*
X322988861Y-67168494D02*
X322846004Y-67168494D01*
X322846004Y-67168494D02*
X322750766Y-67120875D01*
X322750766Y-67120875D02*
X322703147Y-67073255D01*
X61449295Y-73172071D02*
X60649295Y-73172071D01*
X60649295Y-73172071D02*
X60649295Y-73362547D01*
X60649295Y-73362547D02*
X60687390Y-73476833D01*
X60687390Y-73476833D02*
X60763580Y-73553023D01*
X60763580Y-73553023D02*
X60839771Y-73591118D01*
X60839771Y-73591118D02*
X60992152Y-73629214D01*
X60992152Y-73629214D02*
X61106438Y-73629214D01*
X61106438Y-73629214D02*
X61258819Y-73591118D01*
X61258819Y-73591118D02*
X61335009Y-73553023D01*
X61335009Y-73553023D02*
X61411200Y-73476833D01*
X61411200Y-73476833D02*
X61449295Y-73362547D01*
X61449295Y-73362547D02*
X61449295Y-73172071D01*
X60649295Y-73895880D02*
X60649295Y-74429214D01*
X60649295Y-74429214D02*
X61449295Y-74086356D01*
X61449295Y-75153023D02*
X61449295Y-74695880D01*
X61449295Y-74924452D02*
X60649295Y-74924452D01*
X60649295Y-74924452D02*
X60763580Y-74848261D01*
X60763580Y-74848261D02*
X60839771Y-74772071D01*
X60839771Y-74772071D02*
X60877866Y-74695880D01*
D14*
X63590284Y-67475000D02*
X63590284Y-68755000D01*
X64600284Y-67735000D02*
X62600284Y-67735000D01*
X62600284Y-67735000D02*
X62610284Y-70725000D01*
X64600284Y-67745000D02*
X64600284Y-70715000D01*
X64130284Y-68765000D02*
X63050284Y-68765000D01*
X63590284Y-68865000D02*
X63050284Y-69815000D01*
X63600284Y-68875000D02*
X64130284Y-69785000D01*
X64130284Y-69815000D02*
X63050284Y-69815000D01*
X64600284Y-70725000D02*
X62610284Y-70725000D01*
X63590284Y-70935000D02*
X63590284Y-69815000D01*
X66538000Y-69507000D02*
X66538000Y-70787000D01*
X67548000Y-69767000D02*
X65548000Y-69767000D01*
X65548000Y-69767000D02*
X65558000Y-72757000D01*
X67548000Y-69777000D02*
X67548000Y-72747000D01*
X67078000Y-70797000D02*
X65998000Y-70797000D01*
X66538000Y-70897000D02*
X65998000Y-71847000D01*
X66548000Y-70907000D02*
X67078000Y-71817000D01*
X67078000Y-71847000D02*
X65998000Y-71847000D01*
X67548000Y-72757000D02*
X65558000Y-72757000D01*
X66538000Y-72967000D02*
X66538000Y-71847000D01*
X69078000Y-69475500D02*
X69078000Y-70755500D01*
X70088000Y-69735500D02*
X68088000Y-69735500D01*
X68088000Y-69735500D02*
X68098000Y-72725500D01*
X70088000Y-69745500D02*
X70088000Y-72715500D01*
X69618000Y-70765500D02*
X68538000Y-70765500D01*
X69078000Y-70865500D02*
X68538000Y-71815500D01*
X69088000Y-70875500D02*
X69618000Y-71785500D01*
X69618000Y-71815500D02*
X68538000Y-71815500D01*
X70088000Y-72725500D02*
X68098000Y-72725500D01*
X69078000Y-72935500D02*
X69078000Y-71815500D01*
X76698000Y-71132500D02*
X76698000Y-72412500D01*
X77708000Y-71392500D02*
X75708000Y-71392500D01*
X75708000Y-71392500D02*
X75718000Y-74382500D01*
X77708000Y-71402500D02*
X77708000Y-74372500D01*
X77238000Y-72422500D02*
X76158000Y-72422500D01*
X76698000Y-72522500D02*
X76158000Y-73472500D01*
X76708000Y-72532500D02*
X77238000Y-73442500D01*
X77238000Y-73472500D02*
X76158000Y-73472500D01*
X77708000Y-74382500D02*
X75718000Y-74382500D01*
X76698000Y-74592500D02*
X76698000Y-73472500D01*
X71618000Y-69507000D02*
X71618000Y-70787000D01*
X72628000Y-69767000D02*
X70628000Y-69767000D01*
X70628000Y-69767000D02*
X70638000Y-72757000D01*
X72628000Y-69777000D02*
X72628000Y-72747000D01*
X72158000Y-70797000D02*
X71078000Y-70797000D01*
X71618000Y-70897000D02*
X71078000Y-71847000D01*
X71628000Y-70907000D02*
X72158000Y-71817000D01*
X72158000Y-71847000D02*
X71078000Y-71847000D01*
X72628000Y-72757000D02*
X70638000Y-72757000D01*
X71618000Y-72967000D02*
X71618000Y-71847000D01*
X74158000Y-71132500D02*
X74158000Y-72412500D01*
X75168000Y-71392500D02*
X73168000Y-71392500D01*
X73168000Y-71392500D02*
X73178000Y-74382500D01*
X75168000Y-71402500D02*
X75168000Y-74372500D01*
X74698000Y-72422500D02*
X73618000Y-72422500D01*
X74158000Y-72522500D02*
X73618000Y-73472500D01*
X74168000Y-72532500D02*
X74698000Y-73442500D01*
X74698000Y-73472500D02*
X73618000Y-73472500D01*
X75168000Y-74382500D02*
X73178000Y-74382500D01*
X74158000Y-74592500D02*
X74158000Y-73472500D01*
X321667000Y-67637000D02*
X326207000Y-67637000D01*
X321667000Y-67652000D02*
X321667000Y-67637000D01*
X321667000Y-69777000D02*
X321667000Y-69762000D01*
X321667000Y-69777000D02*
X326207000Y-69777000D01*
X326207000Y-67652000D02*
X326207000Y-67637000D01*
X326207000Y-69777000D02*
X326207000Y-69762000D01*
X61077000Y-67443500D02*
X61077000Y-68723500D01*
X62087000Y-67703500D02*
X60087000Y-67703500D01*
X60087000Y-67703500D02*
X60097000Y-70693500D01*
X62087000Y-67713500D02*
X62087000Y-70683500D01*
X61617000Y-68733500D02*
X60537000Y-68733500D01*
X61077000Y-68833500D02*
X60537000Y-69783500D01*
X61087000Y-68843500D02*
X61617000Y-69753500D01*
X61617000Y-69783500D02*
X60537000Y-69783500D01*
X62087000Y-70693500D02*
X60097000Y-70693500D01*
X61077000Y-70903500D02*
X61077000Y-69783500D01*
%LPC*%
D15*
X98425000Y-61976000D02*
X223254308Y-61976000D01*
X98425000Y-64516000D02*
X223254308Y-64516000D01*
X98425000Y-59436000D02*
X223254308Y-59436000D01*
G36*
X159154728Y-169387305D02*
G01*
X159154728Y-169508327D01*
X159015369Y-169508327D01*
X158876010Y-169508327D01*
X158876010Y-169746704D01*
X158876010Y-169985081D01*
X159033706Y-169985081D01*
X159191402Y-169985081D01*
X159191402Y-170106103D01*
X159191402Y-170227126D01*
X158762323Y-170227126D01*
X158333244Y-170227126D01*
X158333244Y-170106103D01*
X158333244Y-169985081D01*
X158472603Y-169985081D01*
X158611962Y-169985081D01*
X158611962Y-169625682D01*
X158611962Y-169266282D01*
X158883345Y-169266282D01*
X159154728Y-169266282D01*
X159154728Y-169387305D01*
G37*
G36*
X154570553Y-169387305D02*
G01*
X154570553Y-169508327D01*
X154431194Y-169508327D01*
X154291835Y-169508327D01*
X154291835Y-169746704D01*
X154291835Y-169985081D01*
X154449530Y-169985081D01*
X154607226Y-169985081D01*
X154607226Y-170106103D01*
X154607226Y-170227126D01*
X154178147Y-170227126D01*
X153749068Y-170227126D01*
X153749068Y-170106103D01*
X153749068Y-169985081D01*
X153884760Y-169985081D01*
X154020451Y-169985081D01*
X154020451Y-169625682D01*
X154020451Y-169266282D01*
X154295502Y-169266282D01*
X154570553Y-169266282D01*
X154570553Y-169387305D01*
G37*
G36*
X152582854Y-169387305D02*
G01*
X152582854Y-169508327D01*
X152443495Y-169508327D01*
X152304136Y-169508327D01*
X152304136Y-169746704D01*
X152304136Y-169985081D01*
X152461832Y-169985081D01*
X152619527Y-169985081D01*
X152619527Y-170106103D01*
X152619527Y-170227126D01*
X152190449Y-170227126D01*
X151761370Y-170227126D01*
X151761370Y-170106103D01*
X151761370Y-169985081D01*
X151897061Y-169985081D01*
X152032753Y-169985081D01*
X152032753Y-169625682D01*
X152032753Y-169266282D01*
X152307803Y-169266282D01*
X152582854Y-169266282D01*
X152582854Y-169387305D01*
G37*
G36*
X156572920Y-169589008D02*
G01*
X156572920Y-170227126D01*
X156180515Y-170227126D01*
X155788110Y-170227126D01*
X155788110Y-170109771D01*
X155788110Y-169992416D01*
X156052158Y-169992416D01*
X156316207Y-169992416D01*
X156316207Y-169838387D01*
X156316207Y-169684359D01*
X156081497Y-169684359D01*
X155846787Y-169684359D01*
X155846787Y-169574339D01*
X155846787Y-169464319D01*
X156081497Y-169464319D01*
X156316207Y-169464319D01*
X156316207Y-169324960D01*
X156316207Y-169185601D01*
X156052158Y-169185601D01*
X155788110Y-169185601D01*
X155788110Y-169068246D01*
X155788110Y-168950891D01*
X156180515Y-168950891D01*
X156572920Y-168950891D01*
X156572920Y-169589008D01*
G37*
G36*
X147648208Y-169472858D02*
G01*
X147687141Y-169482003D01*
X147718065Y-169499051D01*
X147738146Y-169522704D01*
X147742104Y-169533044D01*
X147747275Y-169557903D01*
X147749299Y-169585341D01*
X147747052Y-169616130D01*
X147735341Y-169652546D01*
X147713070Y-169679481D01*
X147679620Y-169697937D01*
X147665595Y-169701577D01*
X147635636Y-169703914D01*
X147602996Y-169701807D01*
X147573364Y-169695774D01*
X147552427Y-169686333D01*
X147542686Y-169678652D01*
X147520595Y-169654791D01*
X147508938Y-169627116D01*
X147505320Y-169590764D01*
X147508591Y-169553575D01*
X147522272Y-169517822D01*
X147546544Y-169492212D01*
X147581347Y-169476803D01*
X147626621Y-169471653D01*
X147648208Y-169472858D01*
G37*
G36*
X154180266Y-168848448D02*
G01*
X154228212Y-168854244D01*
X154265501Y-168868401D01*
X154293785Y-168891775D01*
X154314714Y-168925220D01*
X154323590Y-168950414D01*
X154327444Y-168994224D01*
X154317226Y-169037041D01*
X154302867Y-169064986D01*
X154281827Y-169088032D01*
X154251494Y-169105794D01*
X154238617Y-169110708D01*
X154200287Y-169118335D01*
X154157213Y-169119723D01*
X154115427Y-169114934D01*
X154080961Y-169104031D01*
X154061809Y-169093026D01*
X154032999Y-169065277D01*
X154015967Y-169029096D01*
X154010366Y-168983897D01*
X154010811Y-168970377D01*
X154019792Y-168927086D01*
X154040102Y-168892964D01*
X154071442Y-168868271D01*
X154113517Y-168853265D01*
X154166029Y-168848206D01*
X154180266Y-168848448D01*
G37*
G36*
X152192568Y-168848448D02*
G01*
X152240514Y-168854244D01*
X152277803Y-168868401D01*
X152306086Y-168891775D01*
X152327015Y-168925220D01*
X152335891Y-168950414D01*
X152339745Y-168994224D01*
X152329528Y-169037041D01*
X152315168Y-169064986D01*
X152294128Y-169088032D01*
X152263795Y-169105794D01*
X152250919Y-169110708D01*
X152212588Y-169118335D01*
X152169514Y-169119723D01*
X152127728Y-169114934D01*
X152093262Y-169104031D01*
X152074110Y-169093026D01*
X152045301Y-169065277D01*
X152028268Y-169029096D01*
X152022668Y-168983897D01*
X152023112Y-168970377D01*
X152032093Y-168927086D01*
X152052403Y-168892964D01*
X152083744Y-168868271D01*
X152125819Y-168853265D01*
X152178331Y-168848206D01*
X152192568Y-168848448D01*
G37*
G36*
X158765772Y-168849349D02*
G01*
X158798614Y-168851282D01*
X158822245Y-168854729D01*
X158839905Y-168860659D01*
X158856004Y-168870084D01*
X158857885Y-168871394D01*
X158888510Y-168901073D01*
X158906685Y-168938236D01*
X158912684Y-168983426D01*
X158909818Y-169016553D01*
X158895998Y-169054951D01*
X158870229Y-169085114D01*
X158831950Y-169107905D01*
X158816752Y-169112921D01*
X158781671Y-169118267D01*
X158742189Y-169118794D01*
X158704376Y-169114585D01*
X158674307Y-169105726D01*
X158650209Y-169092278D01*
X158620488Y-169064258D01*
X158603011Y-169028387D01*
X158597292Y-168983897D01*
X158599232Y-168956654D01*
X158611555Y-168917964D01*
X158636022Y-168886718D01*
X158673534Y-168861471D01*
X158688852Y-168854746D01*
X158707474Y-168850275D01*
X158731603Y-168848675D01*
X158765772Y-168849349D01*
G37*
G36*
X146690581Y-169896664D02*
G01*
X146734179Y-169915813D01*
X146743337Y-169921939D01*
X146775637Y-169953426D01*
X146797676Y-169992028D01*
X146809569Y-170035128D01*
X146811427Y-170080115D01*
X146803365Y-170124373D01*
X146785493Y-170165289D01*
X146757926Y-170200249D01*
X146720775Y-170226638D01*
X146703294Y-170234335D01*
X146684285Y-170239063D01*
X146660302Y-170240826D01*
X146626539Y-170240322D01*
X146621820Y-170240150D01*
X146590313Y-170238247D01*
X146568170Y-170234660D01*
X146550668Y-170228253D01*
X146533085Y-170217895D01*
X146510745Y-170201006D01*
X146483108Y-170169063D01*
X146466494Y-170130251D01*
X146459459Y-170081901D01*
X146459438Y-170081474D01*
X146459711Y-170034574D01*
X146466605Y-169997537D01*
X146481301Y-169966627D01*
X146504982Y-169938109D01*
X146511551Y-169931944D01*
X146550067Y-169907017D01*
X146595056Y-169892604D01*
X146643051Y-169889040D01*
X146690581Y-169896664D01*
G37*
G36*
X148945674Y-169746682D02*
G01*
X148787157Y-170227082D01*
X148620553Y-170227104D01*
X148453949Y-170227126D01*
X148298704Y-169755872D01*
X148284475Y-169712684D01*
X148258783Y-169634739D01*
X148234600Y-169561413D01*
X148212312Y-169493872D01*
X148192303Y-169433279D01*
X148174957Y-169380799D01*
X148160659Y-169337596D01*
X148149794Y-169304834D01*
X148142747Y-169283677D01*
X148139902Y-169275289D01*
X148140827Y-169272431D01*
X148148326Y-169269950D01*
X148164237Y-169268345D01*
X148190123Y-169267532D01*
X148227546Y-169267430D01*
X148278066Y-169267955D01*
X148419787Y-169269950D01*
X148498936Y-169530331D01*
X148528280Y-169627468D01*
X148553447Y-169712104D01*
X148574258Y-169783691D01*
X148590840Y-169842673D01*
X148603315Y-169889491D01*
X148611809Y-169924589D01*
X148616446Y-169948408D01*
X148616684Y-169949846D01*
X148619262Y-169954313D01*
X148623201Y-169945483D01*
X148628799Y-169922736D01*
X148629584Y-169919301D01*
X148635857Y-169895346D01*
X148646541Y-169857743D01*
X148661558Y-169806747D01*
X148680832Y-169742612D01*
X148704285Y-169665595D01*
X148731841Y-169575950D01*
X148763421Y-169473933D01*
X148798949Y-169359799D01*
X148828128Y-169266282D01*
X148966159Y-169266282D01*
X149104190Y-169266282D01*
X148945674Y-169746682D01*
G37*
G36*
X145583735Y-168951095D02*
G01*
X145728595Y-168951299D01*
X145876869Y-169055614D01*
X146025144Y-169159929D01*
X146025397Y-169308890D01*
X146025317Y-169358941D01*
X146024799Y-169398238D01*
X146023749Y-169425754D01*
X146022073Y-169442959D01*
X146019681Y-169451328D01*
X146016481Y-169452332D01*
X146012118Y-169449390D01*
X145996830Y-169438634D01*
X145972597Y-169421375D01*
X145941178Y-169398871D01*
X145904333Y-169372379D01*
X145863821Y-169343158D01*
X145836324Y-169323310D01*
X145798131Y-169295802D01*
X145764813Y-169271874D01*
X145738121Y-169252781D01*
X145719808Y-169239778D01*
X145711627Y-169234122D01*
X145711388Y-169234013D01*
X145709391Y-169236873D01*
X145707706Y-169247307D01*
X145706313Y-169266202D01*
X145705191Y-169294444D01*
X145704319Y-169332921D01*
X145703678Y-169382520D01*
X145703245Y-169444127D01*
X145703000Y-169518629D01*
X145702923Y-169606912D01*
X145702923Y-169985081D01*
X145864286Y-169985081D01*
X146025649Y-169985081D01*
X146025649Y-170106103D01*
X146025649Y-170227126D01*
X145607572Y-170227126D01*
X145189496Y-170227126D01*
X145189496Y-170106103D01*
X145189496Y-169985081D01*
X145314185Y-169985081D01*
X145438875Y-169985081D01*
X145438875Y-169467986D01*
X145438875Y-168950891D01*
X145583735Y-168951095D01*
G37*
G36*
X153426342Y-169130591D02*
G01*
X153426342Y-169266282D01*
X153554699Y-169266282D01*
X153683056Y-169266282D01*
X153683056Y-169387305D01*
X153683056Y-169508327D01*
X153554699Y-169508327D01*
X153426342Y-169508327D01*
X153426342Y-169741496D01*
X153426337Y-169756331D01*
X153426131Y-169823426D01*
X153425577Y-169877828D01*
X153424608Y-169921189D01*
X153423158Y-169955157D01*
X153421161Y-169981383D01*
X153418551Y-170001517D01*
X153415261Y-170017209D01*
X153398344Y-170065344D01*
X153366676Y-170118353D01*
X153324247Y-170161737D01*
X153271773Y-170194801D01*
X153209969Y-170216848D01*
X153194564Y-170219444D01*
X153161701Y-170222299D01*
X153115299Y-170224445D01*
X153055996Y-170225855D01*
X152984428Y-170226502D01*
X152795560Y-170227126D01*
X152795560Y-170106103D01*
X152795560Y-169985081D01*
X152953738Y-169985081D01*
X152998058Y-169984864D01*
X153048246Y-169983926D01*
X153087175Y-169982294D01*
X153113712Y-169980020D01*
X153126724Y-169977156D01*
X153134979Y-169971914D01*
X153143110Y-169963575D01*
X153149470Y-169951539D01*
X153154271Y-169934240D01*
X153157724Y-169910109D01*
X153160041Y-169877580D01*
X153161434Y-169835086D01*
X153162114Y-169781059D01*
X153162294Y-169713933D01*
X153162294Y-169508327D01*
X152975259Y-169508327D01*
X152788225Y-169508327D01*
X152788225Y-169387305D01*
X152788225Y-169266282D01*
X152975259Y-169266282D01*
X153162294Y-169266282D01*
X153162294Y-169130591D01*
X153162294Y-168994899D01*
X153294318Y-168994899D01*
X153426342Y-168994899D01*
X153426342Y-169130591D01*
G37*
G36*
X163247480Y-169071913D02*
G01*
X163247480Y-169192936D01*
X163093452Y-169192936D01*
X162939423Y-169192936D01*
X162939336Y-169572505D01*
X162939327Y-169594779D01*
X162939187Y-169681200D01*
X162938865Y-169754350D01*
X162938333Y-169815359D01*
X162937564Y-169865360D01*
X162936529Y-169905484D01*
X162935202Y-169936863D01*
X162933556Y-169960629D01*
X162931561Y-169977913D01*
X162929192Y-169989847D01*
X162928793Y-169991333D01*
X162904491Y-170053858D01*
X162868245Y-170109068D01*
X162821557Y-170155461D01*
X162765933Y-170191536D01*
X162702875Y-170215792D01*
X162695559Y-170217507D01*
X162673318Y-170220838D01*
X162642429Y-170223344D01*
X162601387Y-170225097D01*
X162548692Y-170226172D01*
X162482840Y-170226643D01*
X162301306Y-170227126D01*
X162301306Y-170106103D01*
X162301306Y-169985081D01*
X162452635Y-169985081D01*
X162460827Y-169985080D01*
X162510322Y-169984943D01*
X162547640Y-169984453D01*
X162574964Y-169983427D01*
X162594473Y-169981680D01*
X162608349Y-169979028D01*
X162618774Y-169975286D01*
X162627927Y-169970271D01*
X162635151Y-169965795D01*
X162643295Y-169960185D01*
X162650258Y-169953739D01*
X162656133Y-169945393D01*
X162661012Y-169934082D01*
X162664989Y-169918742D01*
X162668154Y-169898310D01*
X162670601Y-169871721D01*
X162672422Y-169837912D01*
X162673709Y-169795817D01*
X162674555Y-169744374D01*
X162675052Y-169682518D01*
X162675293Y-169609184D01*
X162675370Y-169523309D01*
X162675375Y-169423830D01*
X162675375Y-168950891D01*
X162961428Y-168950891D01*
X163247480Y-168950891D01*
X163247480Y-169071913D01*
G37*
G36*
X150153635Y-169255609D02*
G01*
X150185006Y-169256738D01*
X150208040Y-169259333D01*
X150226328Y-169263844D01*
X150243463Y-169270725D01*
X150274216Y-169287932D01*
X150318719Y-169324353D01*
X150354397Y-169368570D01*
X150375115Y-169401179D01*
X150375115Y-169333730D01*
X150375115Y-169266282D01*
X150507139Y-169266282D01*
X150639164Y-169266282D01*
X150639164Y-169746704D01*
X150639164Y-170227126D01*
X150503472Y-170227126D01*
X150367780Y-170227126D01*
X150367780Y-169912829D01*
X150367772Y-169873816D01*
X150367654Y-169799760D01*
X150367293Y-169738358D01*
X150366560Y-169688231D01*
X150365328Y-169648002D01*
X150363467Y-169616294D01*
X150360851Y-169591730D01*
X150357351Y-169572930D01*
X150352838Y-169558520D01*
X150347185Y-169547120D01*
X150340262Y-169537353D01*
X150331943Y-169527842D01*
X150329546Y-169525282D01*
X150300099Y-169501051D01*
X150266598Y-169487806D01*
X150224754Y-169483783D01*
X150218598Y-169483879D01*
X150173091Y-169491478D01*
X150135585Y-169510613D01*
X150107283Y-169540427D01*
X150089385Y-169580068D01*
X150087812Y-169590622D01*
X150086069Y-169616221D01*
X150084590Y-169654688D01*
X150083398Y-169705022D01*
X150082515Y-169766224D01*
X150081965Y-169837295D01*
X150081769Y-169917235D01*
X150081728Y-170227126D01*
X149949704Y-170227126D01*
X149817679Y-170227126D01*
X149817679Y-169882757D01*
X149817779Y-169813568D01*
X149818238Y-169728910D01*
X149819058Y-169656546D01*
X149820230Y-169596950D01*
X149821745Y-169550598D01*
X149823591Y-169517963D01*
X149825760Y-169499519D01*
X149845305Y-169438201D01*
X149877788Y-169379480D01*
X149920734Y-169328872D01*
X149940818Y-169310417D01*
X149970779Y-169287031D01*
X150000090Y-169271224D01*
X150032546Y-169261615D01*
X150071941Y-169256819D01*
X150122069Y-169255453D01*
X150153635Y-169255609D01*
G37*
G36*
X160694720Y-169255330D02*
G01*
X160725646Y-169255979D01*
X160748223Y-169257978D01*
X160766548Y-169262068D01*
X160784717Y-169268989D01*
X160806827Y-169279483D01*
X160851051Y-169307005D01*
X160890614Y-169345824D01*
X160918228Y-169391478D01*
X160920485Y-169396611D01*
X160924617Y-169404531D01*
X160927190Y-169404707D01*
X160928592Y-169395409D01*
X160929211Y-169374905D01*
X160929434Y-169341463D01*
X160929721Y-169266282D01*
X161058078Y-169266282D01*
X161186435Y-169266282D01*
X161186435Y-169746704D01*
X161186435Y-170227126D01*
X161054833Y-170227126D01*
X160923230Y-170227126D01*
X160920975Y-169906233D01*
X160920825Y-169885032D01*
X160920278Y-169811578D01*
X160919728Y-169751026D01*
X160919101Y-169701971D01*
X160918322Y-169663007D01*
X160917317Y-169632729D01*
X160916012Y-169609732D01*
X160914333Y-169592611D01*
X160912204Y-169579962D01*
X160909553Y-169570378D01*
X160906303Y-169562454D01*
X160902382Y-169554786D01*
X160882291Y-169525741D01*
X160851064Y-169501352D01*
X160809786Y-169486566D01*
X160797040Y-169484211D01*
X160751650Y-169484042D01*
X160710251Y-169496426D01*
X160675237Y-169520346D01*
X160649003Y-169554786D01*
X160647924Y-169556817D01*
X160644183Y-169564416D01*
X160641095Y-169572633D01*
X160638585Y-169582873D01*
X160636579Y-169596541D01*
X160635004Y-169615043D01*
X160633783Y-169639782D01*
X160632844Y-169672165D01*
X160632111Y-169713596D01*
X160631511Y-169765481D01*
X160630969Y-169829225D01*
X160630411Y-169906233D01*
X160628155Y-170227126D01*
X160496553Y-170227126D01*
X160364950Y-170227126D01*
X160365078Y-169891564D01*
X160365124Y-169839833D01*
X160365376Y-169760425D01*
X160365951Y-169693447D01*
X160366969Y-169637478D01*
X160368551Y-169591095D01*
X160370819Y-169552876D01*
X160373894Y-169521399D01*
X160377895Y-169495241D01*
X160382946Y-169472981D01*
X160389165Y-169453195D01*
X160396675Y-169434463D01*
X160405597Y-169415362D01*
X160408229Y-169410119D01*
X160443012Y-169357202D01*
X160487682Y-169312673D01*
X160539473Y-169279342D01*
X160551937Y-169273291D01*
X160571364Y-169264841D01*
X160589094Y-169259552D01*
X160609216Y-169256687D01*
X160635823Y-169255509D01*
X160673007Y-169255280D01*
X160694720Y-169255330D01*
G37*
G36*
X162190779Y-169668204D02*
G01*
X162190420Y-169713477D01*
X162189552Y-169771051D01*
X162189144Y-169794019D01*
X162187709Y-169853064D01*
X162185618Y-169900504D01*
X162182463Y-169938629D01*
X162177839Y-169969730D01*
X162171338Y-169996098D01*
X162162553Y-170020022D01*
X162151077Y-170043793D01*
X162136505Y-170069701D01*
X162115508Y-170099627D01*
X162074382Y-170141209D01*
X162023642Y-170178186D01*
X161966266Y-170208492D01*
X161905233Y-170230062D01*
X161898737Y-170231636D01*
X161863060Y-170237087D01*
X161818558Y-170240309D01*
X161769846Y-170241290D01*
X161721533Y-170240020D01*
X161678234Y-170236488D01*
X161644560Y-170230683D01*
X161629169Y-170226491D01*
X161559143Y-170199615D01*
X161497638Y-170162637D01*
X161445880Y-170116607D01*
X161405097Y-170062573D01*
X161376514Y-170001584D01*
X161363257Y-169963077D01*
X161493507Y-169963077D01*
X161623757Y-169963077D01*
X161639892Y-169984901D01*
X161647167Y-169992978D01*
X161673872Y-170010053D01*
X161709360Y-170021728D01*
X161750007Y-170027645D01*
X161792188Y-170027447D01*
X161832279Y-170020776D01*
X161866656Y-170007274D01*
X161889828Y-169990688D01*
X161912313Y-169961828D01*
X161926461Y-169923381D01*
X161933146Y-169873586D01*
X161936457Y-169816383D01*
X161645795Y-169816383D01*
X161355132Y-169816383D01*
X161355219Y-169689860D01*
X161355953Y-169645351D01*
X161603113Y-169645351D01*
X161697329Y-169650156D01*
X161732416Y-169651740D01*
X161780263Y-169653413D01*
X161826281Y-169654559D01*
X161864063Y-169654991D01*
X161936581Y-169655020D01*
X161932884Y-169608963D01*
X161930389Y-169587891D01*
X161916559Y-169538801D01*
X161892522Y-169500169D01*
X161858582Y-169472278D01*
X161815042Y-169455411D01*
X161762207Y-169449851D01*
X161757060Y-169449930D01*
X161710100Y-169457418D01*
X161671446Y-169476891D01*
X161641386Y-169508062D01*
X161620207Y-169550642D01*
X161608195Y-169604344D01*
X161603113Y-169645351D01*
X161355953Y-169645351D01*
X161356193Y-169630829D01*
X161360265Y-169571009D01*
X161368248Y-169521015D01*
X161380928Y-169478317D01*
X161399091Y-169440384D01*
X161423524Y-169404685D01*
X161455012Y-169368690D01*
X161457946Y-169365642D01*
X161503341Y-169325351D01*
X161552652Y-169294935D01*
X161608224Y-169273474D01*
X161672404Y-169260044D01*
X161747538Y-169253724D01*
X161798511Y-169252874D01*
X161852370Y-169255654D01*
X161899371Y-169263368D01*
X161943595Y-169276739D01*
X161989120Y-169296487D01*
X162012459Y-169308803D01*
X162070549Y-169349836D01*
X162117361Y-169400248D01*
X162152916Y-169460063D01*
X162177232Y-169529305D01*
X162180729Y-169543642D01*
X162184719Y-169562858D01*
X162187599Y-169582559D01*
X162189489Y-169605108D01*
X162190509Y-169632869D01*
X162190678Y-169655020D01*
X162190779Y-169668204D01*
G37*
G36*
X155615052Y-169825675D02*
G01*
X155613713Y-169877129D01*
X155611683Y-169922038D01*
X155608962Y-169957701D01*
X155605552Y-169981414D01*
X155584251Y-170050032D01*
X155552187Y-170111373D01*
X155510453Y-170162594D01*
X155459683Y-170202919D01*
X155400514Y-170231573D01*
X155392403Y-170234075D01*
X155357861Y-170239891D01*
X155315882Y-170241869D01*
X155271605Y-170240144D01*
X155230166Y-170234854D01*
X155196705Y-170226135D01*
X155187456Y-170222377D01*
X155143147Y-170196559D01*
X155101985Y-170160432D01*
X155068123Y-170117503D01*
X155047307Y-170084895D01*
X155047307Y-170156010D01*
X155047307Y-170227126D01*
X154918950Y-170227126D01*
X154790593Y-170227126D01*
X154790593Y-169736383D01*
X155054243Y-169736383D01*
X155054704Y-169783749D01*
X155056124Y-169828871D01*
X155058480Y-169868648D01*
X155061744Y-169899982D01*
X155065891Y-169919772D01*
X155071876Y-169934569D01*
X155095978Y-169971239D01*
X155129190Y-169996642D01*
X155129491Y-169996797D01*
X155155741Y-170005375D01*
X155189724Y-170010056D01*
X155225004Y-170010371D01*
X155255146Y-170005848D01*
X155266235Y-170001957D01*
X155297882Y-169981952D01*
X155323744Y-169952688D01*
X155339898Y-169918220D01*
X155341518Y-169911105D01*
X155344590Y-169885546D01*
X155346447Y-169847701D01*
X155347117Y-169796791D01*
X155346628Y-169732035D01*
X155345536Y-169677419D01*
X155343546Y-169629280D01*
X155340236Y-169592129D01*
X155335094Y-169564036D01*
X155327607Y-169543068D01*
X155317262Y-169527297D01*
X155303546Y-169514789D01*
X155285945Y-169503616D01*
X155266639Y-169494254D01*
X155223666Y-169483102D01*
X155180968Y-169483581D01*
X155141056Y-169494790D01*
X155106441Y-169515824D01*
X155079632Y-169545781D01*
X155063140Y-169583758D01*
X155062504Y-169586484D01*
X155058872Y-169611824D01*
X155056301Y-169647321D01*
X155054767Y-169689874D01*
X155054243Y-169736383D01*
X154790593Y-169736383D01*
X154790593Y-169589008D01*
X154790593Y-168950891D01*
X154923565Y-168950891D01*
X155056537Y-168950891D01*
X155053310Y-169177514D01*
X155050082Y-169404138D01*
X155069466Y-169373717D01*
X155074091Y-169366784D01*
X155106111Y-169329000D01*
X155145201Y-169295410D01*
X155185768Y-169270957D01*
X155196581Y-169266326D01*
X155214647Y-169260748D01*
X155236098Y-169257379D01*
X155264688Y-169255722D01*
X155304175Y-169255280D01*
X155325264Y-169255328D01*
X155356352Y-169255967D01*
X155379026Y-169257948D01*
X155397384Y-169262012D01*
X155415528Y-169268897D01*
X155437555Y-169279342D01*
X155464580Y-169294710D01*
X155512867Y-169334339D01*
X155553262Y-169384848D01*
X155584589Y-169444609D01*
X155605670Y-169511994D01*
X155608541Y-169530901D01*
X155611362Y-169564854D01*
X155613487Y-169608482D01*
X155614918Y-169659081D01*
X155615656Y-169713948D01*
X155615700Y-169770380D01*
X155615390Y-169796791D01*
X155615052Y-169825675D01*
G37*
G36*
X158214825Y-169778663D02*
G01*
X158214488Y-169844563D01*
X158212573Y-169899456D01*
X158208923Y-169945244D01*
X158203380Y-169983830D01*
X158195787Y-170017119D01*
X158185988Y-170047014D01*
X158181206Y-170058861D01*
X158150274Y-170114964D01*
X158109526Y-170163494D01*
X158061170Y-170202200D01*
X158007414Y-170228837D01*
X157986418Y-170234471D01*
X157946417Y-170239661D01*
X157901103Y-170240874D01*
X157855372Y-170238256D01*
X157814121Y-170231953D01*
X157782245Y-170222112D01*
X157781804Y-170221912D01*
X157737359Y-170194839D01*
X157696951Y-170157385D01*
X157665156Y-170113785D01*
X157643921Y-170076765D01*
X157643853Y-170151945D01*
X157643784Y-170227126D01*
X157515427Y-170227126D01*
X157387070Y-170227126D01*
X157387070Y-169754039D01*
X157654786Y-169754039D01*
X157654787Y-169759266D01*
X157655029Y-169809118D01*
X157655818Y-169847004D01*
X157657346Y-169875398D01*
X157659804Y-169896773D01*
X157663383Y-169913604D01*
X157668276Y-169928363D01*
X157685992Y-169960374D01*
X157716586Y-169988512D01*
X157757471Y-170006324D01*
X157803913Y-170013236D01*
X157848507Y-170007734D01*
X157887464Y-169989758D01*
X157919022Y-169959816D01*
X157924604Y-169951609D01*
X157935043Y-169928857D01*
X157942679Y-169898809D01*
X157947790Y-169859647D01*
X157950653Y-169809552D01*
X157951545Y-169746704D01*
X157950538Y-169683728D01*
X157946927Y-169629146D01*
X157940201Y-169585977D01*
X157929855Y-169552618D01*
X157915381Y-169527471D01*
X157896274Y-169508934D01*
X157872026Y-169495406D01*
X157862633Y-169492000D01*
X157830574Y-169485739D01*
X157794620Y-169484273D01*
X157760695Y-169487591D01*
X157734722Y-169495680D01*
X157721338Y-169503957D01*
X157694258Y-169528367D01*
X157672654Y-169557748D01*
X157660649Y-169587018D01*
X157658869Y-169602019D01*
X157657235Y-169629367D01*
X157655942Y-169665745D01*
X157655092Y-169708265D01*
X157654786Y-169754039D01*
X157387070Y-169754039D01*
X157387070Y-169589008D01*
X157387070Y-168950891D01*
X157519094Y-168950891D01*
X157651119Y-168950891D01*
X157651119Y-169176035D01*
X157651119Y-169401179D01*
X157671890Y-169368426D01*
X157694875Y-169337682D01*
X157731177Y-169304516D01*
X157778687Y-169275044D01*
X157783639Y-169272463D01*
X157800481Y-169264637D01*
X157816808Y-169259621D01*
X157836416Y-169256800D01*
X157863099Y-169255558D01*
X157900652Y-169255280D01*
X157921632Y-169255327D01*
X157952757Y-169255965D01*
X157975452Y-169257942D01*
X157993815Y-169261997D01*
X158011944Y-169268869D01*
X158033935Y-169279295D01*
X158060495Y-169294518D01*
X158104973Y-169329501D01*
X158143507Y-169371569D01*
X158171773Y-169416421D01*
X158172761Y-169418467D01*
X158183883Y-169442944D01*
X158192646Y-169466281D01*
X158199376Y-169490737D01*
X158204398Y-169518569D01*
X158208038Y-169552036D01*
X158210621Y-169593397D01*
X158212472Y-169644911D01*
X158213918Y-169708834D01*
X158214410Y-169746704D01*
X158214825Y-169778663D01*
G37*
G36*
X151640196Y-169752245D02*
G01*
X151639998Y-169810295D01*
X151639436Y-169855989D01*
X151638383Y-169891461D01*
X151636713Y-169918842D01*
X151634300Y-169940265D01*
X151631017Y-169957862D01*
X151626738Y-169973766D01*
X151623436Y-169984241D01*
X151600647Y-170041424D01*
X151571828Y-170089174D01*
X151534523Y-170131695D01*
X151529899Y-170136146D01*
X151480442Y-170176296D01*
X151426645Y-170205703D01*
X151363899Y-170226942D01*
X151334068Y-170233083D01*
X151285558Y-170238801D01*
X151232075Y-170241480D01*
X151178436Y-170241055D01*
X151129456Y-170237461D01*
X151089954Y-170230634D01*
X151033356Y-170212112D01*
X150967988Y-170178398D01*
X150912251Y-170134459D01*
X150866978Y-170081133D01*
X150833002Y-170019261D01*
X150811156Y-169949681D01*
X150810580Y-169946818D01*
X150806505Y-169916155D01*
X150803471Y-169874462D01*
X150801477Y-169824943D01*
X150800523Y-169770805D01*
X150800560Y-169746424D01*
X151072071Y-169746424D01*
X151072239Y-169798350D01*
X151072752Y-169840578D01*
X151073761Y-169872354D01*
X151075424Y-169895838D01*
X151077895Y-169913190D01*
X151081331Y-169926567D01*
X151085885Y-169938131D01*
X151102934Y-169965476D01*
X151133755Y-169990962D01*
X151175328Y-170006622D01*
X151204880Y-170011630D01*
X151253272Y-170010873D01*
X151295089Y-169998051D01*
X151329202Y-169973596D01*
X151354482Y-169937941D01*
X151358736Y-169929201D01*
X151363735Y-169917244D01*
X151367360Y-169904441D01*
X151369828Y-169888487D01*
X151371355Y-169867080D01*
X151372160Y-169837915D01*
X151372460Y-169798689D01*
X151372471Y-169747097D01*
X151372364Y-169708876D01*
X151371911Y-169664677D01*
X151370957Y-169631392D01*
X151369338Y-169606802D01*
X151366889Y-169588690D01*
X151363446Y-169574840D01*
X151358845Y-169563033D01*
X151337928Y-169530130D01*
X151304923Y-169502931D01*
X151263004Y-169487092D01*
X151234414Y-169482870D01*
X151187588Y-169484672D01*
X151146182Y-169497353D01*
X151112392Y-169520097D01*
X151088413Y-169552086D01*
X151084734Y-169559640D01*
X151080215Y-169570878D01*
X151076907Y-169583602D01*
X151074625Y-169600011D01*
X151073186Y-169622300D01*
X151072403Y-169652668D01*
X151072093Y-169693310D01*
X151072071Y-169746424D01*
X150800560Y-169746424D01*
X150800608Y-169715253D01*
X150801729Y-169661493D01*
X150803886Y-169612731D01*
X150807078Y-169572171D01*
X150811303Y-169543021D01*
X150830858Y-169479942D01*
X150863938Y-169418459D01*
X150908405Y-169364858D01*
X150963192Y-169320180D01*
X151027233Y-169285465D01*
X151099464Y-169261754D01*
X151139103Y-169255284D01*
X151190288Y-169252066D01*
X151245350Y-169252646D01*
X151299726Y-169256813D01*
X151348855Y-169264356D01*
X151388178Y-169275066D01*
X151451596Y-169303325D01*
X151511336Y-169342293D01*
X151559521Y-169389575D01*
X151596877Y-169445899D01*
X151624129Y-169511994D01*
X151628457Y-169526402D01*
X151632520Y-169542836D01*
X151635534Y-169560569D01*
X151637650Y-169581829D01*
X151639023Y-169608844D01*
X151639804Y-169643843D01*
X151640145Y-169689053D01*
X151640200Y-169746704D01*
X151640200Y-169747097D01*
X151640196Y-169752245D01*
G37*
G36*
X164178118Y-169713477D02*
G01*
X164177250Y-169771051D01*
X164176842Y-169794019D01*
X164175408Y-169853064D01*
X164173316Y-169900504D01*
X164170162Y-169938629D01*
X164165538Y-169969730D01*
X164159036Y-169996098D01*
X164150251Y-170020022D01*
X164138776Y-170043793D01*
X164124203Y-170069701D01*
X164103206Y-170099627D01*
X164062081Y-170141209D01*
X164011340Y-170178186D01*
X163953964Y-170208492D01*
X163892932Y-170230062D01*
X163862594Y-170235954D01*
X163816032Y-170240335D01*
X163763642Y-170241605D01*
X163710103Y-170239813D01*
X163660096Y-170235006D01*
X163618302Y-170227233D01*
X163586206Y-170217644D01*
X163519999Y-170187880D01*
X163462557Y-170147538D01*
X163415006Y-170097695D01*
X163378470Y-170039430D01*
X163354074Y-169973823D01*
X163351342Y-169959394D01*
X163347993Y-169927956D01*
X163345400Y-169886613D01*
X163343571Y-169838094D01*
X163342514Y-169785127D01*
X163342268Y-169736498D01*
X163607156Y-169736498D01*
X163607282Y-169782866D01*
X163608079Y-169826785D01*
X163609550Y-169865205D01*
X163611701Y-169895073D01*
X163614537Y-169913340D01*
X163628397Y-169944473D01*
X163652110Y-169974772D01*
X163680468Y-169996208D01*
X163698635Y-170003577D01*
X163738815Y-170010805D01*
X163782325Y-170009692D01*
X163823801Y-170000609D01*
X163857876Y-169983929D01*
X163871839Y-169972838D01*
X163883616Y-169959664D01*
X163892499Y-169943280D01*
X163898886Y-169921779D01*
X163903175Y-169893251D01*
X163905765Y-169855789D01*
X163907054Y-169807483D01*
X163907440Y-169746424D01*
X163907449Y-169710340D01*
X163907260Y-169665589D01*
X163906664Y-169631881D01*
X163905475Y-169607019D01*
X163903509Y-169588805D01*
X163900580Y-169575043D01*
X163896505Y-169563535D01*
X163891098Y-169552086D01*
X163878398Y-169532264D01*
X163848397Y-169505528D01*
X163809788Y-169488645D01*
X163764605Y-169482363D01*
X163714887Y-169487429D01*
X163695722Y-169493166D01*
X163660043Y-169513511D01*
X163632039Y-169542861D01*
X163615060Y-169578172D01*
X163613259Y-169587563D01*
X163610751Y-169613214D01*
X163608895Y-169648621D01*
X163607695Y-169690732D01*
X163607156Y-169736498D01*
X163342268Y-169736498D01*
X163342237Y-169730439D01*
X163342748Y-169676759D01*
X163344053Y-169626813D01*
X163346161Y-169583330D01*
X163349079Y-169549038D01*
X163352816Y-169526663D01*
X163353326Y-169524778D01*
X163379044Y-169457171D01*
X163416851Y-169397580D01*
X163466205Y-169346566D01*
X163526568Y-169304692D01*
X163597398Y-169272518D01*
X163604861Y-169270074D01*
X163642819Y-169261683D01*
X163689786Y-169255869D01*
X163741373Y-169252800D01*
X163793192Y-169252644D01*
X163840857Y-169255567D01*
X163879978Y-169261738D01*
X163912920Y-169270879D01*
X163978694Y-169298000D01*
X164037696Y-169334469D01*
X164087523Y-169378654D01*
X164125773Y-169428918D01*
X164127298Y-169431528D01*
X164140985Y-169459809D01*
X164154432Y-169494715D01*
X164164931Y-169529305D01*
X164168427Y-169543642D01*
X164172418Y-169562858D01*
X164175298Y-169582559D01*
X164177187Y-169605108D01*
X164178207Y-169632869D01*
X164178477Y-169668204D01*
X164178143Y-169710340D01*
X164178118Y-169713477D01*
G37*
G36*
X160201853Y-169771051D02*
G01*
X160201445Y-169794019D01*
X160200011Y-169853064D01*
X160197919Y-169900504D01*
X160194765Y-169938629D01*
X160190140Y-169969730D01*
X160183639Y-169996098D01*
X160174854Y-170020022D01*
X160163379Y-170043793D01*
X160148806Y-170069701D01*
X160127809Y-170099627D01*
X160086684Y-170141209D01*
X160035943Y-170178186D01*
X159978567Y-170208492D01*
X159917535Y-170230062D01*
X159887197Y-170235954D01*
X159840635Y-170240335D01*
X159788245Y-170241605D01*
X159734706Y-170239813D01*
X159684699Y-170235006D01*
X159642905Y-170227233D01*
X159598220Y-170212970D01*
X159534116Y-170181149D01*
X159478460Y-170138926D01*
X159432567Y-170087604D01*
X159397758Y-170028485D01*
X159375351Y-169962873D01*
X159375309Y-169962691D01*
X159372495Y-169942103D01*
X159370320Y-169909789D01*
X159368770Y-169868388D01*
X159367835Y-169820537D01*
X159367500Y-169768877D01*
X159367656Y-169736498D01*
X159631759Y-169736498D01*
X159631885Y-169782866D01*
X159632681Y-169826785D01*
X159634153Y-169865205D01*
X159636304Y-169895073D01*
X159639140Y-169913340D01*
X159653000Y-169944473D01*
X159676713Y-169974772D01*
X159705071Y-169996208D01*
X159730721Y-170004841D01*
X159764975Y-170009959D01*
X159800904Y-170010755D01*
X159832116Y-170006702D01*
X159862920Y-169995407D01*
X159896333Y-169970509D01*
X159920293Y-169934414D01*
X159921399Y-169931995D01*
X159926381Y-169919699D01*
X159930075Y-169906503D01*
X159932669Y-169890112D01*
X159934356Y-169868231D01*
X159935325Y-169838566D01*
X159935767Y-169798822D01*
X159935872Y-169746704D01*
X159935848Y-169710260D01*
X159935621Y-169667403D01*
X159934968Y-169635337D01*
X159933667Y-169611750D01*
X159931495Y-169594334D01*
X159928231Y-169580777D01*
X159923651Y-169568770D01*
X159917535Y-169556002D01*
X159905201Y-169535936D01*
X159874991Y-169507012D01*
X159836298Y-169488899D01*
X159790628Y-169482178D01*
X159739490Y-169487429D01*
X159720325Y-169493166D01*
X159684646Y-169513511D01*
X159656642Y-169542861D01*
X159639663Y-169578172D01*
X159637862Y-169587563D01*
X159635354Y-169613214D01*
X159633498Y-169648621D01*
X159632298Y-169690732D01*
X159631759Y-169736498D01*
X159367656Y-169736498D01*
X159367755Y-169716045D01*
X159368585Y-169664680D01*
X159369979Y-169617420D01*
X159371925Y-169576905D01*
X159374409Y-169545774D01*
X159377419Y-169526663D01*
X159377929Y-169524778D01*
X159403647Y-169457171D01*
X159441454Y-169397580D01*
X159490808Y-169346566D01*
X159551171Y-169304692D01*
X159622001Y-169272518D01*
X159629463Y-169270074D01*
X159667422Y-169261683D01*
X159714389Y-169255869D01*
X159765976Y-169252800D01*
X159817795Y-169252644D01*
X159865460Y-169255567D01*
X159904581Y-169261738D01*
X159937523Y-169270879D01*
X160003297Y-169298000D01*
X160062299Y-169334469D01*
X160112126Y-169378654D01*
X160150376Y-169428918D01*
X160151901Y-169431528D01*
X160165588Y-169459809D01*
X160179035Y-169494715D01*
X160189534Y-169529305D01*
X160193030Y-169543642D01*
X160197021Y-169562858D01*
X160199901Y-169582559D01*
X160201790Y-169605108D01*
X160202810Y-169632869D01*
X160203080Y-169668204D01*
X160202721Y-169713477D01*
X160202220Y-169746704D01*
X160201853Y-169771051D01*
G37*
G36*
X164809499Y-168939611D02*
G01*
X164863139Y-168945768D01*
X164905228Y-168954783D01*
X164976642Y-168979420D01*
X165037249Y-169013901D01*
X165086952Y-169058132D01*
X165125657Y-169112017D01*
X165153269Y-169175463D01*
X165169690Y-169248376D01*
X165173581Y-169309341D01*
X165165856Y-169381739D01*
X165144820Y-169450007D01*
X165110973Y-169512623D01*
X165064814Y-169568063D01*
X165050277Y-169581663D01*
X165013455Y-169610218D01*
X164971069Y-169634838D01*
X164920841Y-169656571D01*
X164860498Y-169676464D01*
X164787763Y-169695563D01*
X164752845Y-169704138D01*
X164705956Y-169716944D01*
X164670124Y-169729119D01*
X164643224Y-169741738D01*
X164623130Y-169755874D01*
X164607717Y-169772600D01*
X164594859Y-169792989D01*
X164578483Y-169833978D01*
X164573953Y-169875775D01*
X164581562Y-169914247D01*
X164600014Y-169948124D01*
X164628016Y-169976131D01*
X164664271Y-169996998D01*
X164707487Y-170009452D01*
X164756367Y-170012220D01*
X164809619Y-170004032D01*
X164832600Y-169996933D01*
X164860181Y-169985547D01*
X164880115Y-169974067D01*
X164897011Y-169957332D01*
X164915740Y-169929613D01*
X164929259Y-169899484D01*
X164934457Y-169872745D01*
X164934457Y-169853057D01*
X165062814Y-169853057D01*
X165191170Y-169853057D01*
X165190991Y-169891564D01*
X165185310Y-169950690D01*
X165166242Y-170013967D01*
X165134671Y-170071848D01*
X165091548Y-170123226D01*
X165037826Y-170166996D01*
X164974454Y-170202050D01*
X164902385Y-170227281D01*
X164869519Y-170233819D01*
X164819516Y-170239224D01*
X164763750Y-170241591D01*
X164706985Y-170240876D01*
X164653984Y-170237034D01*
X164609511Y-170230021D01*
X164562614Y-170216924D01*
X164494633Y-170186901D01*
X164436301Y-170146759D01*
X164388271Y-170097593D01*
X164351197Y-170040495D01*
X164325731Y-169976561D01*
X164312527Y-169906882D01*
X164312238Y-169832552D01*
X164325518Y-169754665D01*
X164336083Y-169718478D01*
X164357464Y-169667366D01*
X164386686Y-169620771D01*
X164426592Y-169573598D01*
X164450832Y-169549326D01*
X164479197Y-169525566D01*
X164510027Y-169505527D01*
X164545735Y-169488052D01*
X164588732Y-169471986D01*
X164641429Y-169456171D01*
X164706238Y-169439449D01*
X164754865Y-169427156D01*
X164799724Y-169414500D01*
X164833829Y-169402721D01*
X164859158Y-169390868D01*
X164877689Y-169377994D01*
X164891400Y-169363149D01*
X164902267Y-169345385D01*
X164909842Y-169321288D01*
X164911204Y-169286915D01*
X164904788Y-169252184D01*
X164891157Y-169223270D01*
X164885899Y-169216402D01*
X164854537Y-169189583D01*
X164813326Y-169173458D01*
X164762092Y-169167952D01*
X164730337Y-169169670D01*
X164683845Y-169180767D01*
X164647088Y-169201707D01*
X164620859Y-169231966D01*
X164605952Y-169271020D01*
X164600085Y-169299288D01*
X164470216Y-169301291D01*
X164340348Y-169303294D01*
X164340456Y-169279287D01*
X164340554Y-169274887D01*
X164344915Y-169239629D01*
X164354514Y-169198654D01*
X164367674Y-169158121D01*
X164382716Y-169124191D01*
X164394584Y-169104326D01*
X164434863Y-169055167D01*
X164486047Y-169012624D01*
X164545870Y-168978379D01*
X164612063Y-168954112D01*
X164636842Y-168948458D01*
X164690756Y-168941142D01*
X164750173Y-168938131D01*
X164809499Y-168939611D01*
G37*
G36*
X148046326Y-169636082D02*
G01*
X148046116Y-169713080D01*
X148045670Y-169777299D01*
X148044955Y-169829968D01*
X148043938Y-169872316D01*
X148042584Y-169905572D01*
X148040862Y-169930965D01*
X148038736Y-169949724D01*
X148036175Y-169963077D01*
X148026192Y-169996301D01*
X147995985Y-170061299D01*
X147954339Y-170117767D01*
X147902168Y-170164801D01*
X147840385Y-170201494D01*
X147769905Y-170226942D01*
X147740074Y-170233083D01*
X147691565Y-170238801D01*
X147638082Y-170241480D01*
X147584442Y-170241055D01*
X147535463Y-170237461D01*
X147495960Y-170230634D01*
X147489133Y-170228834D01*
X147418267Y-170202659D01*
X147356106Y-170165586D01*
X147303604Y-170118635D01*
X147261716Y-170062826D01*
X147231394Y-169999179D01*
X147213594Y-169928715D01*
X147213064Y-169924828D01*
X147210909Y-169897879D01*
X147209289Y-169856749D01*
X147208209Y-169801832D01*
X147207676Y-169733525D01*
X147207687Y-169685127D01*
X147456589Y-169685127D01*
X147456814Y-169752406D01*
X147457583Y-169806482D01*
X147458909Y-169847961D01*
X147460800Y-169877449D01*
X147463270Y-169895550D01*
X147468878Y-169914930D01*
X147490366Y-169953529D01*
X147522946Y-169983175D01*
X147565430Y-170002621D01*
X147573069Y-170004813D01*
X147610731Y-170012462D01*
X147645073Y-170012289D01*
X147683736Y-170004408D01*
X147716125Y-169992556D01*
X147753618Y-169967009D01*
X147780638Y-169931287D01*
X147781325Y-169929998D01*
X147785178Y-169922346D01*
X147788340Y-169914310D01*
X147790879Y-169904462D01*
X147792865Y-169891373D01*
X147794364Y-169873614D01*
X147795446Y-169849758D01*
X147796178Y-169818376D01*
X147796629Y-169778038D01*
X147796866Y-169727316D01*
X147796959Y-169664783D01*
X147796975Y-169589008D01*
X147796975Y-169277284D01*
X147778717Y-169245393D01*
X147770174Y-169232157D01*
X147739312Y-169201701D01*
X147698639Y-169181951D01*
X147647899Y-169172764D01*
X147639405Y-169172257D01*
X147587800Y-169174362D01*
X147545399Y-169186457D01*
X147510451Y-169209002D01*
X147502417Y-169216038D01*
X147491545Y-169226054D01*
X147482681Y-169236038D01*
X147475606Y-169247460D01*
X147470102Y-169261790D01*
X147465950Y-169280498D01*
X147462930Y-169305053D01*
X147460825Y-169336927D01*
X147459416Y-169377589D01*
X147458483Y-169428509D01*
X147457808Y-169491158D01*
X147457172Y-169567004D01*
X147456897Y-169604040D01*
X147456589Y-169685127D01*
X147207687Y-169685127D01*
X147207694Y-169652220D01*
X147208270Y-169558314D01*
X147208887Y-169490769D01*
X147209634Y-169424010D01*
X147210467Y-169369241D01*
X147211449Y-169325020D01*
X147212645Y-169289901D01*
X147214119Y-169262439D01*
X147215933Y-169241190D01*
X147218151Y-169224708D01*
X147220838Y-169211550D01*
X147224057Y-169200270D01*
X147252331Y-169134536D01*
X147292810Y-169075671D01*
X147344301Y-169026088D01*
X147406203Y-168986366D01*
X147477916Y-168957078D01*
X147513154Y-168948683D01*
X147563803Y-168942047D01*
X147619273Y-168939161D01*
X147674827Y-168940084D01*
X147725732Y-168944872D01*
X147767253Y-168953582D01*
X147789937Y-168961033D01*
X147860306Y-168992606D01*
X147920494Y-169033540D01*
X147969768Y-169083141D01*
X148007396Y-169140712D01*
X148032646Y-169205559D01*
X148034277Y-169211685D01*
X148037273Y-169224833D01*
X148039733Y-169239567D01*
X148041709Y-169257343D01*
X148043253Y-169279612D01*
X148044417Y-169307829D01*
X148045253Y-169343448D01*
X148045813Y-169387922D01*
X148046148Y-169442704D01*
X148046311Y-169509248D01*
X148046354Y-169589008D01*
X148046326Y-169636082D01*
G37*
D13*
X166325144Y-167154210D02*
X144025144Y-167154210D01*
X166305144Y-160474210D02*
X144025144Y-160474210D01*
X166335144Y-167154210D02*
G75*
G03*
X166335144Y-160474210I0J3340000D01*
G01*
X144035144Y-160474210D02*
G75*
G03*
X144035144Y-167154210I0J-3340000D01*
G01*
D16*
X150591802Y-164650234D02*
X150346944Y-164629968D01*
X150346944Y-162671099D01*
X150469373Y-162660967D01*
X150591802Y-162650834D01*
X150591802Y-164650234D01*
G36*
X150591802Y-164650234D02*
G01*
X150346944Y-164629968D01*
X150346944Y-162671099D01*
X150469373Y-162660967D01*
X150591802Y-162650834D01*
X150591802Y-164650234D01*
G37*
X162467958Y-163617489D02*
X162468441Y-163673398D01*
X162469827Y-163913238D01*
X162470004Y-164130887D01*
X162469043Y-164317724D01*
X162467013Y-164465130D01*
X162463982Y-164564485D01*
X162460021Y-164607170D01*
X162423078Y-164635155D01*
X162337078Y-164640216D01*
X162230748Y-164629968D01*
X162230748Y-162671099D01*
X162459283Y-162671099D01*
X162467958Y-163617489D01*
G36*
X162467958Y-163617489D02*
G01*
X162468441Y-163673398D01*
X162469827Y-163913238D01*
X162470004Y-164130887D01*
X162469043Y-164317724D01*
X162467013Y-164465130D01*
X162463982Y-164564485D01*
X162460021Y-164607170D01*
X162423078Y-164635155D01*
X162337078Y-164640216D01*
X162230748Y-164629968D01*
X162230748Y-162671099D01*
X162459283Y-162671099D01*
X162467958Y-163617489D01*
G37*
X156329656Y-162660967D02*
X156452085Y-162671099D01*
X156460760Y-163617489D01*
X156461248Y-163673761D01*
X156462669Y-163913418D01*
X156462931Y-164130761D01*
X156462095Y-164317194D01*
X156460224Y-164464122D01*
X156457379Y-164562951D01*
X156453623Y-164605085D01*
X156451013Y-164609863D01*
X156403405Y-164635741D01*
X156322518Y-164646292D01*
X156207226Y-164646292D01*
X156207226Y-162650834D01*
X156329656Y-162660967D01*
G36*
X156329656Y-162660967D02*
G01*
X156452085Y-162671099D01*
X156460760Y-163617489D01*
X156461248Y-163673761D01*
X156462669Y-163913418D01*
X156462931Y-164130761D01*
X156462095Y-164317194D01*
X156460224Y-164464122D01*
X156457379Y-164562951D01*
X156453623Y-164605085D01*
X156451013Y-164609863D01*
X156403405Y-164635741D01*
X156322518Y-164646292D01*
X156207226Y-164646292D01*
X156207226Y-162650834D01*
X156329656Y-162660967D01*
G37*
X152615967Y-163626798D02*
X152615882Y-163711488D01*
X152614684Y-163951478D01*
X152612215Y-164167387D01*
X152608662Y-164350974D01*
X152604212Y-164493994D01*
X152599050Y-164588205D01*
X152593365Y-164625364D01*
X152584530Y-164628668D01*
X152522200Y-164635199D01*
X152411792Y-164639315D01*
X152265492Y-164640682D01*
X152095486Y-164638967D01*
X151620208Y-164629968D01*
X151620208Y-164434081D01*
X152353722Y-164415629D01*
X152371108Y-162671099D01*
X152493537Y-162660967D01*
X152615967Y-162650834D01*
X152615967Y-163626798D01*
G36*
X152615967Y-163626798D02*
G01*
X152615882Y-163711488D01*
X152614684Y-163951478D01*
X152612215Y-164167387D01*
X152608662Y-164350974D01*
X152604212Y-164493994D01*
X152599050Y-164588205D01*
X152593365Y-164625364D01*
X152584530Y-164628668D01*
X152522200Y-164635199D01*
X152411792Y-164639315D01*
X152265492Y-164640682D01*
X152095486Y-164638967D01*
X151620208Y-164629968D01*
X151620208Y-164434081D01*
X152353722Y-164415629D01*
X152371108Y-162671099D01*
X152493537Y-162660967D01*
X152615967Y-162650834D01*
X152615967Y-163626798D01*
G37*
X147726475Y-162660833D02*
X147833062Y-162671099D01*
X147865710Y-164246351D01*
X148257483Y-163527999D01*
X148339741Y-163377872D01*
X148445656Y-163186666D01*
X148540674Y-163017470D01*
X148619765Y-162879148D01*
X148677901Y-162780561D01*
X148710050Y-162730572D01*
X148759094Y-162681279D01*
X148821471Y-162660739D01*
X148922261Y-162661298D01*
X149073679Y-162671099D01*
X149082323Y-163660800D01*
X149090966Y-164650501D01*
X148984379Y-164640235D01*
X148877792Y-164629968D01*
X148869054Y-163798057D01*
X148860315Y-162966146D01*
X148417744Y-163765409D01*
X148405926Y-163786732D01*
X148289105Y-163995362D01*
X148180508Y-164185608D01*
X148084740Y-164349678D01*
X148006403Y-164479783D01*
X147950103Y-164568132D01*
X147920441Y-164606936D01*
X147917123Y-164609338D01*
X147844999Y-164634566D01*
X147751442Y-164639583D01*
X147637175Y-164629968D01*
X147628531Y-163640268D01*
X147619887Y-162650567D01*
X147726475Y-162660833D01*
G36*
X147726475Y-162660833D02*
G01*
X147833062Y-162671099D01*
X147865710Y-164246351D01*
X148257483Y-163527999D01*
X148339741Y-163377872D01*
X148445656Y-163186666D01*
X148540674Y-163017470D01*
X148619765Y-162879148D01*
X148677901Y-162780561D01*
X148710050Y-162730572D01*
X148759094Y-162681279D01*
X148821471Y-162660739D01*
X148922261Y-162661298D01*
X149073679Y-162671099D01*
X149082323Y-163660800D01*
X149090966Y-164650501D01*
X148984379Y-164640235D01*
X148877792Y-164629968D01*
X148869054Y-163798057D01*
X148860315Y-162966146D01*
X148417744Y-163765409D01*
X148405926Y-163786732D01*
X148289105Y-163995362D01*
X148180508Y-164185608D01*
X148084740Y-164349678D01*
X148006403Y-164479783D01*
X147950103Y-164568132D01*
X147920441Y-164606936D01*
X147917123Y-164609338D01*
X147844999Y-164634566D01*
X147751442Y-164639583D01*
X147637175Y-164629968D01*
X147628531Y-163640268D01*
X147619887Y-162650567D01*
X147726475Y-162660833D01*
G37*
X145814376Y-162654779D02*
X146034918Y-162657231D01*
X146193908Y-162664409D01*
X146294802Y-162676565D01*
X146341057Y-162693953D01*
X146349475Y-162716699D01*
X146360386Y-162798616D01*
X146369158Y-162928651D01*
X146375798Y-163096495D01*
X146380309Y-163291842D01*
X146382695Y-163504386D01*
X146382961Y-163723818D01*
X146381110Y-163939834D01*
X146377148Y-164142124D01*
X146371078Y-164320384D01*
X146362905Y-164464305D01*
X146352632Y-164563582D01*
X146340265Y-164607907D01*
X146327528Y-164616111D01*
X146269615Y-164629900D01*
X146165499Y-164638059D01*
X146008869Y-164640947D01*
X145793414Y-164638922D01*
X145286532Y-164629968D01*
X145286532Y-164434081D01*
X146119052Y-164415807D01*
X146119052Y-163699506D01*
X145400800Y-163699506D01*
X145400800Y-163505828D01*
X145751764Y-163496561D01*
X146102728Y-163487295D01*
X146112115Y-163185303D01*
X146121502Y-162883310D01*
X145715672Y-162883310D01*
X145694926Y-162883300D01*
X145528478Y-162881902D01*
X145415438Y-162877197D01*
X145345058Y-162867835D01*
X145306590Y-162852466D01*
X145289285Y-162829739D01*
X145281579Y-162794519D01*
X145287992Y-162715472D01*
X145289449Y-162711174D01*
X145303281Y-162689070D01*
X145332655Y-162673607D01*
X145387521Y-162663614D01*
X145477829Y-162657925D01*
X145613528Y-162655368D01*
X145804568Y-162654776D01*
X145814376Y-162654779D01*
G36*
X145814376Y-162654779D02*
G01*
X146034918Y-162657231D01*
X146193908Y-162664409D01*
X146294802Y-162676565D01*
X146341057Y-162693953D01*
X146349475Y-162716699D01*
X146360386Y-162798616D01*
X146369158Y-162928651D01*
X146375798Y-163096495D01*
X146380309Y-163291842D01*
X146382695Y-163504386D01*
X146382961Y-163723818D01*
X146381110Y-163939834D01*
X146377148Y-164142124D01*
X146371078Y-164320384D01*
X146362905Y-164464305D01*
X146352632Y-164563582D01*
X146340265Y-164607907D01*
X146327528Y-164616111D01*
X146269615Y-164629900D01*
X146165499Y-164638059D01*
X146008869Y-164640947D01*
X145793414Y-164638922D01*
X145286532Y-164629968D01*
X145286532Y-164434081D01*
X146119052Y-164415807D01*
X146119052Y-163699506D01*
X145400800Y-163699506D01*
X145400800Y-163505828D01*
X145751764Y-163496561D01*
X146102728Y-163487295D01*
X146112115Y-163185303D01*
X146121502Y-162883310D01*
X145715672Y-162883310D01*
X145694926Y-162883300D01*
X145528478Y-162881902D01*
X145415438Y-162877197D01*
X145345058Y-162867835D01*
X145306590Y-162852466D01*
X145289285Y-162829739D01*
X145281579Y-162794519D01*
X145287992Y-162715472D01*
X145289449Y-162711174D01*
X145303281Y-162689070D01*
X145332655Y-162673607D01*
X145387521Y-162663614D01*
X145477829Y-162657925D01*
X145613528Y-162655368D01*
X145804568Y-162654776D01*
X145814376Y-162654779D01*
G37*
X165112431Y-163617489D02*
X165112911Y-163673092D01*
X165114265Y-163913086D01*
X165114372Y-164130992D01*
X165113305Y-164318171D01*
X165111141Y-164465980D01*
X165107953Y-164565780D01*
X165103818Y-164608931D01*
X165096591Y-164617610D01*
X165037341Y-164636671D01*
X164932077Y-164646834D01*
X164794618Y-164648785D01*
X164638781Y-164643212D01*
X164478383Y-164630801D01*
X164327241Y-164612240D01*
X164199174Y-164588215D01*
X164107998Y-164559414D01*
X163926600Y-164449859D01*
X163782652Y-164296471D01*
X163681188Y-164098167D01*
X163618869Y-163850102D01*
X163610806Y-163734335D01*
X163886448Y-163734335D01*
X163910112Y-163927864D01*
X163969737Y-164109937D01*
X164066807Y-164246591D01*
X164204697Y-164344300D01*
X164227373Y-164355341D01*
X164329965Y-164393063D01*
X164447425Y-164412346D01*
X164604633Y-164417758D01*
X164858897Y-164417758D01*
X164858897Y-162883310D01*
X164612990Y-162883310D01*
X164426331Y-162892618D01*
X164277628Y-162926035D01*
X164158409Y-162989823D01*
X164051728Y-163090229D01*
X163995265Y-163164100D01*
X163922865Y-163316878D01*
X163887629Y-163502917D01*
X163886448Y-163734335D01*
X163610806Y-163734335D01*
X163600760Y-163590101D01*
X163629620Y-163346453D01*
X163702555Y-163130150D01*
X163816407Y-162950535D01*
X163968020Y-162816950D01*
X163975173Y-162812457D01*
X164128105Y-162736457D01*
X164304699Y-162687634D01*
X164517808Y-162663531D01*
X164780284Y-162661693D01*
X165103756Y-162671099D01*
X165105702Y-162883310D01*
X165112431Y-163617489D01*
G36*
X165112431Y-163617489D02*
G01*
X165112911Y-163673092D01*
X165114265Y-163913086D01*
X165114372Y-164130992D01*
X165113305Y-164318171D01*
X165111141Y-164465980D01*
X165107953Y-164565780D01*
X165103818Y-164608931D01*
X165096591Y-164617610D01*
X165037341Y-164636671D01*
X164932077Y-164646834D01*
X164794618Y-164648785D01*
X164638781Y-164643212D01*
X164478383Y-164630801D01*
X164327241Y-164612240D01*
X164199174Y-164588215D01*
X164107998Y-164559414D01*
X163926600Y-164449859D01*
X163782652Y-164296471D01*
X163681188Y-164098167D01*
X163618869Y-163850102D01*
X163610806Y-163734335D01*
X163886448Y-163734335D01*
X163910112Y-163927864D01*
X163969737Y-164109937D01*
X164066807Y-164246591D01*
X164204697Y-164344300D01*
X164227373Y-164355341D01*
X164329965Y-164393063D01*
X164447425Y-164412346D01*
X164604633Y-164417758D01*
X164858897Y-164417758D01*
X164858897Y-162883310D01*
X164612990Y-162883310D01*
X164426331Y-162892618D01*
X164277628Y-162926035D01*
X164158409Y-162989823D01*
X164051728Y-163090229D01*
X163995265Y-163164100D01*
X163922865Y-163316878D01*
X163887629Y-163502917D01*
X163886448Y-163734335D01*
X163610806Y-163734335D01*
X163600760Y-163590101D01*
X163629620Y-163346453D01*
X163702555Y-163130150D01*
X163816407Y-162950535D01*
X163968020Y-162816950D01*
X163975173Y-162812457D01*
X164128105Y-162736457D01*
X164304699Y-162687634D01*
X164517808Y-162663531D01*
X164780284Y-162661693D01*
X165103756Y-162671099D01*
X165105702Y-162883310D01*
X165112431Y-163617489D01*
G37*
X158394655Y-162687333D02*
X158586516Y-162789979D01*
X158699359Y-162897078D01*
X158815123Y-163078068D01*
X158896236Y-163300088D01*
X158937841Y-163552590D01*
X158938822Y-163799878D01*
X158897561Y-164050050D01*
X158814756Y-164266117D01*
X158693729Y-164441890D01*
X158537799Y-164571180D01*
X158350288Y-164647796D01*
X158244618Y-164665847D01*
X158055395Y-164669959D01*
X157869350Y-164643959D01*
X157706153Y-164591254D01*
X157585478Y-164515256D01*
X157565744Y-164492776D01*
X157529579Y-164421166D01*
X157512684Y-164343086D01*
X157518111Y-164280286D01*
X157548909Y-164254519D01*
X157551220Y-164254634D01*
X157603164Y-164274662D01*
X157674782Y-164318677D01*
X157776751Y-164378891D01*
X157956897Y-164435479D01*
X158137995Y-164438527D01*
X158307800Y-164390362D01*
X158454067Y-164293309D01*
X158564552Y-164149694D01*
X158586015Y-164106793D01*
X158613343Y-164033021D01*
X158629527Y-163946696D01*
X158637283Y-163830258D01*
X158639326Y-163666152D01*
X158638419Y-163536793D01*
X158632723Y-163412270D01*
X158619110Y-163320306D01*
X158594535Y-163242415D01*
X158555951Y-163160111D01*
X158496213Y-163061565D01*
X158373017Y-162938547D01*
X158219538Y-162872186D01*
X158030294Y-162859344D01*
X158009659Y-162860803D01*
X157849010Y-162891158D01*
X157710835Y-162959858D01*
X157660679Y-162991031D01*
X157575871Y-163026512D01*
X157528111Y-163012693D01*
X157513139Y-162949349D01*
X157525844Y-162860616D01*
X157578113Y-162784344D01*
X157682638Y-162716878D01*
X157741356Y-162690119D01*
X157954214Y-162635959D01*
X158177934Y-162635512D01*
X158394655Y-162687333D01*
G36*
X158394655Y-162687333D02*
G01*
X158586516Y-162789979D01*
X158699359Y-162897078D01*
X158815123Y-163078068D01*
X158896236Y-163300088D01*
X158937841Y-163552590D01*
X158938822Y-163799878D01*
X158897561Y-164050050D01*
X158814756Y-164266117D01*
X158693729Y-164441890D01*
X158537799Y-164571180D01*
X158350288Y-164647796D01*
X158244618Y-164665847D01*
X158055395Y-164669959D01*
X157869350Y-164643959D01*
X157706153Y-164591254D01*
X157585478Y-164515256D01*
X157565744Y-164492776D01*
X157529579Y-164421166D01*
X157512684Y-164343086D01*
X157518111Y-164280286D01*
X157548909Y-164254519D01*
X157551220Y-164254634D01*
X157603164Y-164274662D01*
X157674782Y-164318677D01*
X157776751Y-164378891D01*
X157956897Y-164435479D01*
X158137995Y-164438527D01*
X158307800Y-164390362D01*
X158454067Y-164293309D01*
X158564552Y-164149694D01*
X158586015Y-164106793D01*
X158613343Y-164033021D01*
X158629527Y-163946696D01*
X158637283Y-163830258D01*
X158639326Y-163666152D01*
X158638419Y-163536793D01*
X158632723Y-163412270D01*
X158619110Y-163320306D01*
X158594535Y-163242415D01*
X158555951Y-163160111D01*
X158496213Y-163061565D01*
X158373017Y-162938547D01*
X158219538Y-162872186D01*
X158030294Y-162859344D01*
X158009659Y-162860803D01*
X157849010Y-162891158D01*
X157710835Y-162959858D01*
X157660679Y-162991031D01*
X157575871Y-163026512D01*
X157528111Y-163012693D01*
X157513139Y-162949349D01*
X157525844Y-162860616D01*
X157578113Y-162784344D01*
X157682638Y-162716878D01*
X157741356Y-162690119D01*
X157954214Y-162635959D01*
X158177934Y-162635512D01*
X158394655Y-162687333D01*
G37*
X154961626Y-162999379D02*
X154964628Y-163167721D01*
X154966172Y-163387409D01*
X154966609Y-163665414D01*
X154966576Y-163717340D01*
X154965551Y-163954668D01*
X154963232Y-164168760D01*
X154959811Y-164351203D01*
X154955479Y-164493586D01*
X154950426Y-164587498D01*
X154944844Y-164624527D01*
X154943370Y-164625812D01*
X154894923Y-164640319D01*
X154814253Y-164646292D01*
X154705427Y-164646292D01*
X154705427Y-163903782D01*
X154450225Y-163889009D01*
X154366147Y-163881960D01*
X154144328Y-163835080D01*
X153974128Y-163748994D01*
X153854154Y-163622394D01*
X153783009Y-163453977D01*
X153759299Y-163242436D01*
X153761913Y-163185561D01*
X154021132Y-163185561D01*
X154026708Y-163292377D01*
X154033096Y-163346643D01*
X154080919Y-163497595D01*
X154172297Y-163602535D01*
X154311229Y-163666725D01*
X154316399Y-163668137D01*
X154425690Y-163689223D01*
X154538225Y-163698293D01*
X154631662Y-163694686D01*
X154683662Y-163677740D01*
X154691947Y-163640207D01*
X154698950Y-163550448D01*
X154703686Y-163422368D01*
X154705427Y-163269643D01*
X154705427Y-162883310D01*
X154473627Y-162883310D01*
X154423184Y-162883466D01*
X154317530Y-162887790D01*
X154247496Y-162903537D01*
X154191221Y-162937956D01*
X154126842Y-162998296D01*
X154071603Y-163056290D01*
X154032974Y-163116034D01*
X154021132Y-163185561D01*
X153761913Y-163185561D01*
X153764624Y-163126571D01*
X153801397Y-162971445D01*
X153879408Y-162851186D01*
X154005997Y-162751175D01*
X154053149Y-162724684D01*
X154121607Y-162698121D01*
X154208260Y-162680525D01*
X154328807Y-162669015D01*
X154498950Y-162660711D01*
X154633129Y-162656887D01*
X154777155Y-162658270D01*
X154869382Y-162668250D01*
X154917510Y-162687318D01*
X154928045Y-162699996D01*
X154940377Y-162732690D01*
X154949851Y-162788836D01*
X154956817Y-162875408D01*
X154957124Y-162883310D01*
X154961626Y-162999379D01*
G36*
X154961626Y-162999379D02*
G01*
X154964628Y-163167721D01*
X154966172Y-163387409D01*
X154966609Y-163665414D01*
X154966576Y-163717340D01*
X154965551Y-163954668D01*
X154963232Y-164168760D01*
X154959811Y-164351203D01*
X154955479Y-164493586D01*
X154950426Y-164587498D01*
X154944844Y-164624527D01*
X154943370Y-164625812D01*
X154894923Y-164640319D01*
X154814253Y-164646292D01*
X154705427Y-164646292D01*
X154705427Y-163903782D01*
X154450225Y-163889009D01*
X154366147Y-163881960D01*
X154144328Y-163835080D01*
X153974128Y-163748994D01*
X153854154Y-163622394D01*
X153783009Y-163453977D01*
X153759299Y-163242436D01*
X153761913Y-163185561D01*
X154021132Y-163185561D01*
X154026708Y-163292377D01*
X154033096Y-163346643D01*
X154080919Y-163497595D01*
X154172297Y-163602535D01*
X154311229Y-163666725D01*
X154316399Y-163668137D01*
X154425690Y-163689223D01*
X154538225Y-163698293D01*
X154631662Y-163694686D01*
X154683662Y-163677740D01*
X154691947Y-163640207D01*
X154698950Y-163550448D01*
X154703686Y-163422368D01*
X154705427Y-163269643D01*
X154705427Y-162883310D01*
X154473627Y-162883310D01*
X154423184Y-162883466D01*
X154317530Y-162887790D01*
X154247496Y-162903537D01*
X154191221Y-162937956D01*
X154126842Y-162998296D01*
X154071603Y-163056290D01*
X154032974Y-163116034D01*
X154021132Y-163185561D01*
X153761913Y-163185561D01*
X153764624Y-163126571D01*
X153801397Y-162971445D01*
X153879408Y-162851186D01*
X154005997Y-162751175D01*
X154053149Y-162724684D01*
X154121607Y-162698121D01*
X154208260Y-162680525D01*
X154328807Y-162669015D01*
X154498950Y-162660711D01*
X154633129Y-162656887D01*
X154777155Y-162658270D01*
X154869382Y-162668250D01*
X154917510Y-162687318D01*
X154928045Y-162699996D01*
X154940377Y-162732690D01*
X154949851Y-162788836D01*
X154956817Y-162875408D01*
X154957124Y-162883310D01*
X154961626Y-162999379D01*
G37*
X160569122Y-162631877D02*
X160665380Y-162646681D01*
X160842339Y-162710107D01*
X160969422Y-162815336D01*
X161046077Y-162961799D01*
X161071751Y-163148930D01*
X161071701Y-163159409D01*
X161057855Y-163297144D01*
X161013799Y-163411095D01*
X160931324Y-163511457D01*
X160802221Y-163608427D01*
X160618283Y-163712201D01*
X160576322Y-163734206D01*
X160399495Y-163838044D01*
X160279731Y-163932090D01*
X160211747Y-164021260D01*
X160190260Y-164110470D01*
X160192267Y-164148378D01*
X160233993Y-164274064D01*
X160322175Y-164367761D01*
X160446829Y-164426186D01*
X160597972Y-164446056D01*
X160765621Y-164424087D01*
X160939792Y-164356995D01*
X160983487Y-164335935D01*
X161061885Y-164307535D01*
X161106550Y-164304820D01*
X161111144Y-164308359D01*
X161132748Y-164361057D01*
X161133370Y-164437173D01*
X161112061Y-164502652D01*
X161109427Y-164506351D01*
X161045629Y-164558593D01*
X160943481Y-164610095D01*
X160826892Y-164648620D01*
X160636489Y-164675603D01*
X160426856Y-164660265D01*
X160239843Y-164598390D01*
X160086250Y-164493769D01*
X159976876Y-164350194D01*
X159971011Y-164338078D01*
X159937654Y-164214800D01*
X159930175Y-164068767D01*
X159947881Y-163927832D01*
X159990080Y-163819849D01*
X160073448Y-163724770D01*
X160236766Y-163606298D01*
X160463980Y-163490354D01*
X160583396Y-163431459D01*
X160713307Y-163340158D01*
X160787179Y-163240997D01*
X160810568Y-163128169D01*
X160800786Y-163052629D01*
X160743677Y-162948617D01*
X160645003Y-162878974D01*
X160515671Y-162847564D01*
X160366587Y-162858251D01*
X160208658Y-162914901D01*
X160175184Y-162930900D01*
X160098499Y-162958916D01*
X160054840Y-162961945D01*
X160035111Y-162931595D01*
X160028328Y-162857763D01*
X160046194Y-162773391D01*
X160088420Y-162728554D01*
X160180909Y-162684296D01*
X160303980Y-162650150D01*
X160439446Y-162631036D01*
X160569122Y-162631877D01*
G36*
X160569122Y-162631877D02*
G01*
X160665380Y-162646681D01*
X160842339Y-162710107D01*
X160969422Y-162815336D01*
X161046077Y-162961799D01*
X161071751Y-163148930D01*
X161071701Y-163159409D01*
X161057855Y-163297144D01*
X161013799Y-163411095D01*
X160931324Y-163511457D01*
X160802221Y-163608427D01*
X160618283Y-163712201D01*
X160576322Y-163734206D01*
X160399495Y-163838044D01*
X160279731Y-163932090D01*
X160211747Y-164021260D01*
X160190260Y-164110470D01*
X160192267Y-164148378D01*
X160233993Y-164274064D01*
X160322175Y-164367761D01*
X160446829Y-164426186D01*
X160597972Y-164446056D01*
X160765621Y-164424087D01*
X160939792Y-164356995D01*
X160983487Y-164335935D01*
X161061885Y-164307535D01*
X161106550Y-164304820D01*
X161111144Y-164308359D01*
X161132748Y-164361057D01*
X161133370Y-164437173D01*
X161112061Y-164502652D01*
X161109427Y-164506351D01*
X161045629Y-164558593D01*
X160943481Y-164610095D01*
X160826892Y-164648620D01*
X160636489Y-164675603D01*
X160426856Y-164660265D01*
X160239843Y-164598390D01*
X160086250Y-164493769D01*
X159976876Y-164350194D01*
X159971011Y-164338078D01*
X159937654Y-164214800D01*
X159930175Y-164068767D01*
X159947881Y-163927832D01*
X159990080Y-163819849D01*
X160073448Y-163724770D01*
X160236766Y-163606298D01*
X160463980Y-163490354D01*
X160583396Y-163431459D01*
X160713307Y-163340158D01*
X160787179Y-163240997D01*
X160810568Y-163128169D01*
X160800786Y-163052629D01*
X160743677Y-162948617D01*
X160645003Y-162878974D01*
X160515671Y-162847564D01*
X160366587Y-162858251D01*
X160208658Y-162914901D01*
X160175184Y-162930900D01*
X160098499Y-162958916D01*
X160054840Y-162961945D01*
X160035111Y-162931595D01*
X160028328Y-162857763D01*
X160046194Y-162773391D01*
X160088420Y-162728554D01*
X160180909Y-162684296D01*
X160303980Y-162650150D01*
X160439446Y-162631036D01*
X160569122Y-162631877D01*
G37*
D17*
X58261250Y-94773750D03*
D18*
X63341250Y-94773750D03*
D17*
X68421250Y-94773750D03*
D19*
X65881250Y-89693750D03*
X59531250Y-92233750D03*
D17*
X77311250Y-94773750D03*
D18*
X82391250Y-94773750D03*
D17*
X87471250Y-94773750D03*
D19*
X84931250Y-89693750D03*
X78581250Y-92233750D03*
D17*
X96361250Y-94773750D03*
D18*
X101441250Y-94773750D03*
D17*
X106521250Y-94773750D03*
D19*
X103981250Y-89693750D03*
X97631250Y-92233750D03*
D17*
X115411250Y-94773750D03*
D18*
X120491250Y-94773750D03*
D17*
X125571250Y-94773750D03*
D19*
X123031250Y-89693750D03*
X116681250Y-92233750D03*
D17*
X134461250Y-94773750D03*
D18*
X139541250Y-94773750D03*
D17*
X144621250Y-94773750D03*
D19*
X142081250Y-89693750D03*
X135731250Y-92233750D03*
D17*
X153511250Y-94773750D03*
D18*
X158591250Y-94773750D03*
D17*
X163671250Y-94773750D03*
D19*
X161131250Y-89693750D03*
X154781250Y-92233750D03*
D17*
X172561250Y-94773750D03*
D18*
X177641250Y-94773750D03*
D17*
X182721250Y-94773750D03*
D19*
X180181250Y-89693750D03*
X173831250Y-92233750D03*
D17*
X191611250Y-94773750D03*
D18*
X196691250Y-94773750D03*
D17*
X201771250Y-94773750D03*
D19*
X199231250Y-89693750D03*
X192881250Y-92233750D03*
D17*
X210661250Y-94773750D03*
D18*
X215741250Y-94773750D03*
D17*
X220821250Y-94773750D03*
D19*
X218281250Y-89693750D03*
X211931250Y-92233750D03*
D17*
X229711250Y-94773750D03*
D18*
X234791250Y-94773750D03*
D17*
X239871250Y-94773750D03*
D19*
X237331250Y-89693750D03*
X230981250Y-92233750D03*
D17*
X248761250Y-94773750D03*
D18*
X253841250Y-94773750D03*
D17*
X258921250Y-94773750D03*
D19*
X256381250Y-89693750D03*
X250031250Y-92233750D03*
D17*
X267811250Y-94773750D03*
D18*
X272891250Y-94773750D03*
D17*
X277971250Y-94773750D03*
D19*
X275431250Y-89693750D03*
X269081250Y-92233750D03*
D17*
X286861250Y-94773750D03*
D18*
X291941250Y-94773750D03*
D17*
X297021250Y-94773750D03*
D19*
X294481250Y-89693750D03*
X288131250Y-92233750D03*
D17*
X344011250Y-94773750D03*
D18*
X349091250Y-94773750D03*
D17*
X354171250Y-94773750D03*
D19*
X351631250Y-89693750D03*
X345281250Y-92233750D03*
D17*
X86836250Y-113823750D03*
D18*
X91916250Y-113823750D03*
D17*
X96996250Y-113823750D03*
D19*
X94456250Y-108743750D03*
X88106250Y-111283750D03*
D17*
X105886250Y-113823750D03*
D18*
X110966250Y-113823750D03*
D17*
X116046250Y-113823750D03*
D19*
X113506250Y-108743750D03*
X107156250Y-111283750D03*
D17*
X124936250Y-113823750D03*
D18*
X130016250Y-113823750D03*
D17*
X135096250Y-113823750D03*
D19*
X132556250Y-108743750D03*
X126206250Y-111283750D03*
D17*
X143986250Y-113823750D03*
D18*
X149066250Y-113823750D03*
D17*
X154146250Y-113823750D03*
D19*
X151606250Y-108743750D03*
X145256250Y-111283750D03*
D17*
X163036250Y-113823750D03*
D18*
X168116250Y-113823750D03*
D17*
X173196250Y-113823750D03*
D19*
X170656250Y-108743750D03*
X164306250Y-111283750D03*
D17*
X182086250Y-113823750D03*
D18*
X187166250Y-113823750D03*
D17*
X192246250Y-113823750D03*
D19*
X189706250Y-108743750D03*
X183356250Y-111283750D03*
D17*
X201136250Y-113823750D03*
D18*
X206216250Y-113823750D03*
D17*
X211296250Y-113823750D03*
D19*
X208756250Y-108743750D03*
X202406250Y-111283750D03*
D17*
X220186250Y-113823750D03*
D18*
X225266250Y-113823750D03*
D17*
X230346250Y-113823750D03*
D19*
X227806250Y-108743750D03*
X221456250Y-111283750D03*
D17*
X239236250Y-113823750D03*
D18*
X244316250Y-113823750D03*
D17*
X249396250Y-113823750D03*
D19*
X246856250Y-108743750D03*
X240506250Y-111283750D03*
D17*
X258286250Y-113823750D03*
D18*
X263366250Y-113823750D03*
D17*
X268446250Y-113823750D03*
D19*
X265906250Y-108743750D03*
X259556250Y-111283750D03*
D17*
X277336250Y-113823750D03*
D18*
X282416250Y-113823750D03*
D17*
X287496250Y-113823750D03*
D19*
X284956250Y-108743750D03*
X278606250Y-111283750D03*
D17*
X296386250Y-113823750D03*
D18*
X301466250Y-113823750D03*
D17*
X306546250Y-113823750D03*
D19*
X304006250Y-108743750D03*
X297656250Y-111283750D03*
D17*
X344011250Y-113823750D03*
D18*
X349091250Y-113823750D03*
D17*
X354171250Y-113823750D03*
D19*
X351631250Y-108743750D03*
X345281250Y-111283750D03*
D17*
X91598750Y-132873750D03*
D18*
X96678750Y-132873750D03*
D17*
X101758750Y-132873750D03*
D19*
X99218750Y-127793750D03*
X92868750Y-130333750D03*
D17*
X110648750Y-132873750D03*
D18*
X115728750Y-132873750D03*
D17*
X120808750Y-132873750D03*
D19*
X118268750Y-127793750D03*
X111918750Y-130333750D03*
D17*
X129698750Y-132873750D03*
D18*
X134778750Y-132873750D03*
D17*
X139858750Y-132873750D03*
D19*
X137318750Y-127793750D03*
X130968750Y-130333750D03*
D17*
X148748250Y-132873750D03*
D18*
X153828250Y-132873750D03*
D17*
X158908250Y-132873750D03*
D19*
X156368250Y-127793750D03*
X150018250Y-130333750D03*
D17*
X167798250Y-132873750D03*
D18*
X172878250Y-132873750D03*
D17*
X177958250Y-132873750D03*
D19*
X175418250Y-127793750D03*
X169068250Y-130333750D03*
D17*
X186848250Y-132873750D03*
D18*
X191928250Y-132873750D03*
D17*
X197008250Y-132873750D03*
D19*
X194468250Y-127793750D03*
X188118250Y-130333750D03*
D17*
X205898250Y-132873750D03*
D18*
X210978250Y-132873750D03*
D17*
X216058250Y-132873750D03*
D19*
X213518250Y-127793750D03*
X207168250Y-130333750D03*
D17*
X224948250Y-132873750D03*
D18*
X230028250Y-132873750D03*
D17*
X235108250Y-132873750D03*
D19*
X232568250Y-127793750D03*
X226218250Y-130333750D03*
D17*
X243998250Y-132873750D03*
D18*
X249078250Y-132873750D03*
D17*
X254158250Y-132873750D03*
D19*
X251618250Y-127793750D03*
X245268250Y-130333750D03*
D17*
X263048250Y-132873750D03*
D18*
X268128250Y-132873750D03*
D17*
X273208250Y-132873750D03*
D19*
X270668250Y-127793750D03*
X264318250Y-130333750D03*
D17*
X282098250Y-132873750D03*
D18*
X287178250Y-132873750D03*
D17*
X292258250Y-132873750D03*
D19*
X289718250Y-127793750D03*
X283368250Y-130333750D03*
D17*
X344011250Y-132873750D03*
D18*
X349091250Y-132873750D03*
D17*
X354171250Y-132873750D03*
D19*
X351631250Y-127793750D03*
X345281250Y-130333750D03*
D17*
X101123750Y-151923750D03*
D18*
X106203750Y-151923750D03*
D17*
X111283750Y-151923750D03*
D19*
X108743750Y-146843750D03*
X102393750Y-149383750D03*
D17*
X120173750Y-151923750D03*
D18*
X125253750Y-151923750D03*
D17*
X130333750Y-151923750D03*
D19*
X127793750Y-146843750D03*
X121443750Y-149383750D03*
D17*
X139223750Y-151923750D03*
D18*
X144303750Y-151923750D03*
D17*
X149383750Y-151923750D03*
D19*
X146843750Y-146843750D03*
X140493750Y-149383750D03*
D17*
X158274250Y-151923750D03*
D18*
X163354250Y-151923750D03*
D17*
X168434250Y-151923750D03*
D19*
X165894250Y-146843750D03*
X159544250Y-149383750D03*
D17*
X177324250Y-151923750D03*
D18*
X182404250Y-151923750D03*
D17*
X187484250Y-151923750D03*
D19*
X184944250Y-146843750D03*
X178594250Y-149383750D03*
D17*
X196374250Y-151923750D03*
D18*
X201454250Y-151923750D03*
D17*
X206534250Y-151923750D03*
D19*
X203994250Y-146843750D03*
X197644250Y-149383750D03*
D17*
X215424250Y-151923750D03*
D18*
X220504250Y-151923750D03*
D17*
X225584250Y-151923750D03*
D19*
X223044250Y-146843750D03*
X216694250Y-149383750D03*
D17*
X234474250Y-151923750D03*
D18*
X239554250Y-151923750D03*
D17*
X244634250Y-151923750D03*
D19*
X242094250Y-146843750D03*
X235744250Y-149383750D03*
D17*
X253524250Y-151923750D03*
D18*
X258604250Y-151923750D03*
D17*
X263684250Y-151923750D03*
D19*
X261144250Y-146843750D03*
X254794250Y-149383750D03*
D17*
X272574250Y-151923750D03*
D18*
X277654250Y-151923750D03*
D17*
X282734250Y-151923750D03*
D19*
X280194250Y-146843750D03*
X273844250Y-149383750D03*
D17*
X324961250Y-151923750D03*
D18*
X330041250Y-151923750D03*
D17*
X335121250Y-151923750D03*
D19*
X332581250Y-146843750D03*
X326231250Y-149383750D03*
D17*
X344011250Y-151923750D03*
D18*
X349091250Y-151923750D03*
D17*
X354171250Y-151923750D03*
D19*
X351631250Y-146843750D03*
X345281250Y-149383750D03*
D17*
X179705250Y-170973750D03*
D18*
X184785250Y-170973750D03*
D17*
X189865250Y-170973750D03*
D19*
X187325250Y-165893750D03*
X180975250Y-168433750D03*
D17*
X305911250Y-170973750D03*
D18*
X310991250Y-170973750D03*
D17*
X316071250Y-170973750D03*
D19*
X313531250Y-165893750D03*
X307181250Y-168433750D03*
D17*
X324961250Y-170973750D03*
D18*
X330041250Y-170973750D03*
D17*
X335121250Y-170973750D03*
D19*
X332581250Y-165893750D03*
X326231250Y-168433750D03*
D17*
X344011250Y-170973750D03*
D18*
X349091250Y-170973750D03*
D17*
X354171250Y-170973750D03*
D19*
X351631250Y-165893750D03*
X345281250Y-168433750D03*
D20*
X308616250Y-87773750D03*
D18*
X308616250Y-103013750D03*
D17*
X315436250Y-94773750D03*
D18*
X320516250Y-94773750D03*
D17*
X325596250Y-94773750D03*
D20*
X332416250Y-87773750D03*
D18*
X332416250Y-103013750D03*
D19*
X323056250Y-89693750D03*
X316706250Y-92233750D03*
D17*
X320198250Y-113823750D03*
D18*
X325278250Y-113823750D03*
D17*
X330358250Y-113823750D03*
D19*
X327818250Y-108743750D03*
X321468250Y-111283750D03*
D17*
X65405050Y-132863620D03*
D18*
X70485050Y-132863620D03*
D17*
X75565050Y-132863620D03*
D19*
X73025050Y-127783620D03*
X66675050Y-130323620D03*
D20*
X306235250Y-125873750D03*
D18*
X306235250Y-141113750D03*
D17*
X313055250Y-132873750D03*
D18*
X318135250Y-132873750D03*
D17*
X323215250Y-132873750D03*
D20*
X330035250Y-125873750D03*
D18*
X330035250Y-141113750D03*
D19*
X320675250Y-127793750D03*
X314325250Y-130333750D03*
D20*
X63347450Y-144923750D03*
D18*
X63347450Y-160163750D03*
D17*
X70167450Y-151923750D03*
D18*
X75247450Y-151923750D03*
D17*
X80327450Y-151923750D03*
D20*
X87147450Y-144923750D03*
D18*
X87147450Y-160163750D03*
D19*
X77787450Y-146843750D03*
X71437450Y-149383750D03*
D17*
X298767250Y-151923750D03*
D18*
X303847250Y-151923750D03*
D17*
X308927250Y-151923750D03*
D19*
X306387250Y-146843750D03*
X300037250Y-149383750D03*
D17*
X60642450Y-170963620D03*
D18*
X65722450Y-170963620D03*
D17*
X70802450Y-170963620D03*
D19*
X68262450Y-165883620D03*
X61912450Y-168423620D03*
D17*
X84455050Y-170973750D03*
D18*
X89535050Y-170973750D03*
D17*
X94615050Y-170973750D03*
D19*
X92075050Y-165893750D03*
X85725050Y-168433750D03*
D17*
X108267450Y-170963620D03*
D18*
X113347450Y-170963620D03*
D17*
X118427450Y-170963620D03*
D19*
X115887450Y-165883620D03*
X109537450Y-168423620D03*
D21*
X57766382Y-80444750D03*
X57766382Y-61694750D03*
X354660309Y-61694750D03*
X354660309Y-80444750D03*
X96565888Y-161146960D03*
X315860803Y-161146960D03*
X113754723Y-104302994D03*
X298671968Y-104302994D03*
X206213345Y-104302994D03*
D22*
X120517573Y-162726640D03*
D23*
X120517573Y-177966640D03*
D22*
X234817573Y-162726640D03*
D23*
X234817573Y-177966640D03*
D21*
X206213345Y-166958110D03*
D17*
X286901528Y-170963620D03*
D18*
X291981528Y-170963620D03*
D17*
X297061528Y-170963620D03*
D19*
X294521528Y-165883620D03*
X288171528Y-168423620D03*
D24*
X85786525Y-72436199D03*
D25*
X85786525Y-77516199D03*
D24*
X88955988Y-67475612D03*
D25*
X88955988Y-72555612D03*
D24*
X101633840Y-67475612D03*
D25*
X101633840Y-72555612D03*
D24*
X114311692Y-67475612D03*
D25*
X114311692Y-72555612D03*
D24*
X126989544Y-67475612D03*
D25*
X126989544Y-72555612D03*
D24*
X139667396Y-67475612D03*
D25*
X139667396Y-72555612D03*
D24*
X152345248Y-67475612D03*
D25*
X152345248Y-72555612D03*
D24*
X165023100Y-67475612D03*
D25*
X165023100Y-72555612D03*
D24*
X177700952Y-67475612D03*
D25*
X177700952Y-72555612D03*
D24*
X190378804Y-67475612D03*
D25*
X190378804Y-72555612D03*
D24*
X203056656Y-67475612D03*
D25*
X203056656Y-72555612D03*
D24*
X215734508Y-67475612D03*
D25*
X215734508Y-72555612D03*
D24*
X228342376Y-67475612D03*
D25*
X228342376Y-72555612D03*
D24*
X275541929Y-72436199D03*
D25*
X275541929Y-77516199D03*
D24*
X82617062Y-70782670D03*
D25*
X82617062Y-75862670D03*
D24*
X92125451Y-69129141D03*
D25*
X92125451Y-74209141D03*
D24*
X104803303Y-69129141D03*
D25*
X104803303Y-74209141D03*
D24*
X117481155Y-69129141D03*
D25*
X117481155Y-74209141D03*
D24*
X130159007Y-69129141D03*
D25*
X130159007Y-74209141D03*
D24*
X142836859Y-69129141D03*
D25*
X142836859Y-74209141D03*
D24*
X155514711Y-69129141D03*
D25*
X155514711Y-74209141D03*
D24*
X168192563Y-69129141D03*
D25*
X168192563Y-74209141D03*
D24*
X180870415Y-69129141D03*
D25*
X180870415Y-74209141D03*
D24*
X193548267Y-69129141D03*
D25*
X193548267Y-74209141D03*
D24*
X206226119Y-69129141D03*
D25*
X206226119Y-74209141D03*
D24*
X218886475Y-69129141D03*
D25*
X218886475Y-74209141D03*
D24*
X231493149Y-69129141D03*
D25*
X231493149Y-74209141D03*
D24*
X272453205Y-70782670D03*
D25*
X272453205Y-75862670D03*
D24*
X95294914Y-70782670D03*
D25*
X95294914Y-75862670D03*
D24*
X107972766Y-70782670D03*
D25*
X107972766Y-75862670D03*
D24*
X120650618Y-70782670D03*
D25*
X120650618Y-75862670D03*
D24*
X133328470Y-70782670D03*
D25*
X133328470Y-75862670D03*
D24*
X146006322Y-70782670D03*
D25*
X146006322Y-75862670D03*
D24*
X158684174Y-70782670D03*
D25*
X158684174Y-75862670D03*
D24*
X171362026Y-70782670D03*
D25*
X171362026Y-75862670D03*
D24*
X184039878Y-70782670D03*
D25*
X184039878Y-75862670D03*
D24*
X196717730Y-70782670D03*
D25*
X196717730Y-75862670D03*
D24*
X209395582Y-70782670D03*
D25*
X209395582Y-75862670D03*
D24*
X234643922Y-70782670D03*
D25*
X234643922Y-75862670D03*
D24*
X269364481Y-69129141D03*
D25*
X269364481Y-74209141D03*
D24*
X98464377Y-72436199D03*
D25*
X98464377Y-77516199D03*
D24*
X111142229Y-72436199D03*
D25*
X111142229Y-77516199D03*
D24*
X123820081Y-72436199D03*
D25*
X123820081Y-77516199D03*
D24*
X136497933Y-72436199D03*
D25*
X136497933Y-77516199D03*
D24*
X149175785Y-72436199D03*
D25*
X149175785Y-77516199D03*
D24*
X161853637Y-72436199D03*
D25*
X161853637Y-77516199D03*
D24*
X174531489Y-72436199D03*
D25*
X174531489Y-77516199D03*
D24*
X187209341Y-72436199D03*
D25*
X187209341Y-77516199D03*
D24*
X199887193Y-72436199D03*
D25*
X199887193Y-77516199D03*
D24*
X212565045Y-72436199D03*
D25*
X212565045Y-77516199D03*
D24*
X222038442Y-70782670D03*
D25*
X222038442Y-75862670D03*
D24*
X237794695Y-72436199D03*
D25*
X237794695Y-77516199D03*
D24*
X266089606Y-67475612D03*
D25*
X266089606Y-72555612D03*
D24*
X259788058Y-70782670D03*
D25*
X259788058Y-75862670D03*
D24*
X256637284Y-69129141D03*
D25*
X256637284Y-74209141D03*
D24*
X253486511Y-67475612D03*
D25*
X253486511Y-72555612D03*
D24*
X250335738Y-72436199D03*
D25*
X250335738Y-77516199D03*
D24*
X225190409Y-72436199D03*
D25*
X225190409Y-77516199D03*
D24*
X244096241Y-69129141D03*
D25*
X244096241Y-74209141D03*
D24*
X240945468Y-67475612D03*
D25*
X240945468Y-72555612D03*
D24*
X262938832Y-72436199D03*
D25*
X262938832Y-77516199D03*
D24*
X247184965Y-70782670D03*
D25*
X247184965Y-75862670D03*
D26*
X295106316Y-73152052D03*
D27*
X290026316Y-73152052D03*
D26*
X295106316Y-75645517D03*
D27*
X290026316Y-75645517D03*
D26*
X290026316Y-70580211D03*
D27*
X295106316Y-70580211D03*
D28*
X226485732Y-59836074D03*
X232985732Y-59836074D03*
X226485732Y-64336074D03*
X232985732Y-64336074D03*
D29*
X284127716Y-61970830D03*
D30*
X286667716Y-61970830D03*
D26*
X290026316Y-65567034D03*
D27*
X295106316Y-65567034D03*
D28*
X238485732Y-59836074D03*
X244985732Y-59836074D03*
X238485732Y-64336074D03*
X244985732Y-64336074D03*
D26*
X270047614Y-64450838D03*
X270047614Y-59350838D03*
D31*
X284477676Y-70404866D03*
D32*
X284477676Y-68904866D03*
D33*
X320471062Y-78716416D03*
X325471062Y-78716416D03*
D17*
X248790884Y-170963620D03*
D18*
X253870884Y-170963620D03*
D17*
X258950884Y-170963620D03*
D19*
X256410884Y-165883620D03*
X250060884Y-168423620D03*
D17*
X267846206Y-170973750D03*
D18*
X272926206Y-170973750D03*
D17*
X278006206Y-170973750D03*
D19*
X275466206Y-165893750D03*
X269116206Y-168433750D03*
D34*
X280523468Y-66391022D03*
X279673468Y-66391022D03*
X278823468Y-66391022D03*
X277973468Y-66391022D03*
X277123468Y-66391022D03*
X276273468Y-66391022D03*
X275423468Y-66391022D03*
X274573468Y-66391022D03*
X274568468Y-65066022D03*
X275418468Y-65066022D03*
X276268468Y-65066022D03*
X277118468Y-65066022D03*
X277968468Y-65066022D03*
X278818468Y-65066022D03*
X279668468Y-65066022D03*
X280523468Y-65066022D03*
D35*
X281873468Y-65411022D03*
D36*
X281873468Y-62031022D03*
D35*
X273223468Y-65411022D03*
D36*
X273223468Y-62031022D03*
D33*
X342011000Y-82006040D03*
X342011000Y-79506040D03*
X327680238Y-82006040D03*
X327680238Y-79506040D03*
D24*
X286174982Y-73162196D03*
D25*
X286174982Y-78242196D03*
D24*
X283305310Y-73162196D03*
D25*
X283305310Y-78242196D03*
D26*
X295106316Y-78138982D03*
D27*
X290026316Y-78138982D03*
D26*
X295106316Y-63073204D03*
D27*
X290026316Y-63073204D03*
D26*
X290026316Y-68060499D03*
D27*
X295106316Y-68060499D03*
D22*
X134811423Y-162726640D03*
D23*
X134811423Y-177966640D03*
D22*
X234811223Y-162726640D03*
D23*
X234811223Y-177966640D03*
D37*
X255293830Y-60350870D03*
D17*
X255293830Y-62890870D03*
X252753830Y-60350870D03*
X252753830Y-62890870D03*
X250213830Y-60350870D03*
X250213830Y-62890870D03*
X60642500Y-132863620D03*
D18*
X65722500Y-132863620D03*
D17*
X70802500Y-132863620D03*
D19*
X68262500Y-127783620D03*
X61912500Y-130323620D03*
D17*
X63023700Y-170963620D03*
D18*
X68103700Y-170963620D03*
D17*
X73183700Y-170963620D03*
D19*
X70643700Y-165883620D03*
X64293700Y-168423620D03*
D17*
X91623031Y-170969819D03*
D18*
X96703031Y-170969819D03*
D17*
X101783031Y-170969819D03*
D19*
X99243031Y-165889819D03*
X92893031Y-168429819D03*
D17*
X172587573Y-170981640D03*
D18*
X177667573Y-170981640D03*
D17*
X182747573Y-170981640D03*
D19*
X180207573Y-165901640D03*
X173857573Y-168441640D03*
D17*
X253563936Y-170973750D03*
D18*
X258643936Y-170973750D03*
D17*
X263723936Y-170973750D03*
D19*
X261183936Y-165893750D03*
X254833936Y-168433750D03*
D17*
X282120128Y-170973750D03*
D18*
X287200128Y-170973750D03*
D17*
X292280128Y-170973750D03*
D19*
X289740128Y-165893750D03*
X283390128Y-168433750D03*
D17*
X63023750Y-113823750D03*
D18*
X68103750Y-113823750D03*
D17*
X73183750Y-113823750D03*
D19*
X70643750Y-108743750D03*
X64293750Y-111283750D03*
D38*
X299753430Y-76389182D03*
D25*
X302293430Y-76389182D03*
X304833430Y-76389182D03*
X307373430Y-76389182D03*
X309913430Y-76389182D03*
X312453430Y-76389182D03*
X314993430Y-76389182D03*
X317533430Y-76389182D03*
X320073430Y-76389182D03*
X322613430Y-76389182D03*
X325153430Y-76389182D03*
X327693430Y-76389182D03*
X330233430Y-76389182D03*
X332773430Y-76389182D03*
X335313430Y-76389182D03*
X337853430Y-76389182D03*
X340393430Y-76389182D03*
X342933430Y-76389182D03*
X345473430Y-76389182D03*
X348013430Y-76389182D03*
X348013430Y-61149182D03*
X345473430Y-61149182D03*
X342933430Y-61149182D03*
X340393430Y-61149182D03*
X337853430Y-61149182D03*
X335313430Y-61149182D03*
X332773430Y-61149182D03*
X330233430Y-61149182D03*
X327693430Y-61149182D03*
X325153430Y-61149182D03*
X322613430Y-61149182D03*
X320073430Y-61149182D03*
X317533430Y-61149182D03*
X314993430Y-61149182D03*
X312453430Y-61149182D03*
X309913430Y-61149182D03*
X307373430Y-61149182D03*
X304833430Y-61149182D03*
X302293430Y-61149182D03*
X299753430Y-61149182D03*
D21*
X206213345Y-80444750D03*
X206213345Y-61694750D03*
D17*
X82073750Y-151923750D03*
D18*
X87153750Y-151923750D03*
D17*
X92233750Y-151923750D03*
D19*
X89693750Y-146843750D03*
X83343750Y-149383750D03*
D18*
X319420000Y-111448750D03*
X319420000Y-135248750D03*
D17*
X322580000Y-123348750D03*
D18*
X327660000Y-123348750D03*
D17*
X332740000Y-123348750D03*
D20*
X334660000Y-111448750D03*
X334660000Y-135248750D03*
D19*
X330200000Y-118268750D03*
X323850000Y-120808750D03*
D17*
X301148750Y-132873750D03*
D18*
X306228750Y-132873750D03*
D17*
X311308750Y-132873750D03*
D19*
X308768750Y-127793750D03*
X302418750Y-130333750D03*
D17*
X60642500Y-151923750D03*
D18*
X65722500Y-151923750D03*
D17*
X70802500Y-151923750D03*
D19*
X68262500Y-146843750D03*
X61912500Y-149383750D03*
D39*
X71628000Y-60650000D03*
D40*
X69088000Y-60650000D03*
X66548000Y-60650000D03*
D41*
X87249000Y-63373000D03*
D42*
X94869000Y-63373000D03*
D43*
X332432000Y-80772000D03*
X337312000Y-80772000D03*
D26*
X88519000Y-60198000D03*
D27*
X93599000Y-60198000D03*
D44*
X83185000Y-60706000D03*
D45*
X83185000Y-63246000D03*
D24*
X63600284Y-66675000D03*
D25*
X63600284Y-71755000D03*
D24*
X66548000Y-68707000D03*
D25*
X66548000Y-73787000D03*
D24*
X69088000Y-68675500D03*
D25*
X69088000Y-73755500D03*
D24*
X76708000Y-70332500D03*
D25*
X76708000Y-75412500D03*
D24*
X71628000Y-68707000D03*
D25*
X71628000Y-73787000D03*
D24*
X74168000Y-70332500D03*
D25*
X74168000Y-75412500D03*
D33*
X321437000Y-68707000D03*
X326437000Y-68707000D03*
D24*
X61087000Y-66643500D03*
D25*
X61087000Y-71723500D03*
%LPD*%
M02*
