G04 #@! TF.GenerationSoftware,KiCad,Pcbnew,7.0.10*
G04 #@! TF.CreationDate,2024-01-29T11:03:30+01:00*
G04 #@! TF.ProjectId,discipline-pcb,64697363-6970-46c6-996e-652d7063622e,rev?*
G04 #@! TF.SameCoordinates,Original*
G04 #@! TF.FileFunction,Legend,Bot*
G04 #@! TF.FilePolarity,Positive*
%FSLAX46Y46*%
G04 Gerber Fmt 4.6, Leading zero omitted, Abs format (unit mm)*
G04 Created by KiCad (PCBNEW 7.0.10) date 2024-01-29 11:03:30*
%MOMM*%
%LPD*%
G01*
G04 APERTURE LIST*
G04 Aperture macros list*
%AMRoundRect*
0 Rectangle with rounded corners*
0 $1 Rounding radius*
0 $2 $3 $4 $5 $6 $7 $8 $9 X,Y pos of 4 corners*
0 Add a 4 corners polygon primitive as box body*
4,1,4,$2,$3,$4,$5,$6,$7,$8,$9,$2,$3,0*
0 Add four circle primitives for the rounded corners*
1,1,$1+$1,$2,$3*
1,1,$1+$1,$4,$5*
1,1,$1+$1,$6,$7*
1,1,$1+$1,$8,$9*
0 Add four rect primitives between the rounded corners*
20,1,$1+$1,$2,$3,$4,$5,0*
20,1,$1+$1,$4,$5,$6,$7,0*
20,1,$1+$1,$6,$7,$8,$9,0*
20,1,$1+$1,$8,$9,$2,$3,0*%
G04 Aperture macros list end*
%ADD10C,0.100000*%
%ADD11C,0.150000*%
%ADD12C,0.300000*%
%ADD13C,0.400000*%
%ADD14C,0.120000*%
%ADD15C,1.500000*%
%ADD16C,0.010000*%
%ADD17C,1.502000*%
%ADD18O,1.502000X1.502000*%
%ADD19C,1.802000*%
%ADD20C,4.102000*%
%ADD21C,2.302000*%
%ADD22C,3.152000*%
%ADD23C,4.502000*%
%ADD24C,4.089800*%
%ADD25C,3.150000*%
%ADD26RoundRect,0.051000X-0.800000X0.800000X-0.800000X-0.800000X0.800000X-0.800000X0.800000X0.800000X0*%
%ADD27O,1.702000X1.702000*%
%ADD28C,2.102000*%
%ADD29RoundRect,0.051000X-0.900000X-0.900000X0.900000X-0.900000X0.900000X0.900000X-0.900000X0.900000X0*%
%ADD30C,1.902000*%
%ADD31RoundRect,0.051000X0.600000X-0.600000X0.600000X0.600000X-0.600000X0.600000X-0.600000X-0.600000X0*%
%ADD32C,1.302000*%
%ADD33C,1.702000*%
%ADD34O,0.752000X1.102000*%
%ADD35O,1.002000X2.502000*%
%ADD36O,1.002000X1.802000*%
%ADD37RoundRect,0.051000X0.850000X0.850000X-0.850000X0.850000X-0.850000X-0.850000X0.850000X-0.850000X0*%
%ADD38RoundRect,0.051000X0.800000X-0.800000X0.800000X0.800000X-0.800000X0.800000X-0.800000X-0.800000X0*%
%ADD39RoundRect,0.051000X0.952500X1.000000X-0.952500X1.000000X-0.952500X-1.000000X0.952500X-1.000000X0*%
%ADD40O,2.007000X2.102000*%
%ADD41RoundRect,0.051000X-1.100000X-1.100000X1.100000X-1.100000X1.100000X1.100000X-1.100000X1.100000X0*%
%ADD42O,2.302000X2.302000*%
%ADD43C,1.602000*%
%ADD44RoundRect,0.051000X-0.850000X-0.850000X0.850000X-0.850000X0.850000X0.850000X-0.850000X0.850000X0*%
%ADD45O,1.802000X1.802000*%
G04 APERTURE END LIST*
D10*
D11*
X299989000Y-253002200D02*
X407989000Y-253002200D01*
X407989000Y-285002200D01*
X299989000Y-285002200D01*
X299989000Y-253002200D01*
D10*
D11*
X10000000Y-10000000D02*
X409989000Y-10000000D01*
X409989000Y-287002200D01*
X10000000Y-287002200D01*
X10000000Y-10000000D01*
D10*
D11*
X12000000Y-12000000D02*
X407989000Y-12000000D01*
X407989000Y-285002200D01*
X12000000Y-285002200D01*
X12000000Y-12000000D01*
D10*
D11*
X60000000Y-12000000D02*
X60000000Y-10000000D01*
D10*
D11*
X110000000Y-12000000D02*
X110000000Y-10000000D01*
D10*
D11*
X160000000Y-12000000D02*
X160000000Y-10000000D01*
D10*
D11*
X210000000Y-12000000D02*
X210000000Y-10000000D01*
D10*
D11*
X260000000Y-12000000D02*
X260000000Y-10000000D01*
D10*
D11*
X310000000Y-12000000D02*
X310000000Y-10000000D01*
D10*
D11*
X360000000Y-12000000D02*
X360000000Y-10000000D01*
D10*
D11*
X36089160Y-11593604D02*
X35346303Y-11593604D01*
X35717731Y-11593604D02*
X35717731Y-10293604D01*
X35717731Y-10293604D02*
X35593922Y-10479319D01*
X35593922Y-10479319D02*
X35470112Y-10603128D01*
X35470112Y-10603128D02*
X35346303Y-10665033D01*
D10*
D11*
X85346303Y-10417414D02*
X85408207Y-10355509D01*
X85408207Y-10355509D02*
X85532017Y-10293604D01*
X85532017Y-10293604D02*
X85841541Y-10293604D01*
X85841541Y-10293604D02*
X85965350Y-10355509D01*
X85965350Y-10355509D02*
X86027255Y-10417414D01*
X86027255Y-10417414D02*
X86089160Y-10541223D01*
X86089160Y-10541223D02*
X86089160Y-10665033D01*
X86089160Y-10665033D02*
X86027255Y-10850747D01*
X86027255Y-10850747D02*
X85284398Y-11593604D01*
X85284398Y-11593604D02*
X86089160Y-11593604D01*
D10*
D11*
X135284398Y-10293604D02*
X136089160Y-10293604D01*
X136089160Y-10293604D02*
X135655826Y-10788842D01*
X135655826Y-10788842D02*
X135841541Y-10788842D01*
X135841541Y-10788842D02*
X135965350Y-10850747D01*
X135965350Y-10850747D02*
X136027255Y-10912652D01*
X136027255Y-10912652D02*
X136089160Y-11036461D01*
X136089160Y-11036461D02*
X136089160Y-11345985D01*
X136089160Y-11345985D02*
X136027255Y-11469795D01*
X136027255Y-11469795D02*
X135965350Y-11531700D01*
X135965350Y-11531700D02*
X135841541Y-11593604D01*
X135841541Y-11593604D02*
X135470112Y-11593604D01*
X135470112Y-11593604D02*
X135346303Y-11531700D01*
X135346303Y-11531700D02*
X135284398Y-11469795D01*
D10*
D11*
X185965350Y-10726938D02*
X185965350Y-11593604D01*
X185655826Y-10231700D02*
X185346303Y-11160271D01*
X185346303Y-11160271D02*
X186151064Y-11160271D01*
D10*
D11*
X236027255Y-10293604D02*
X235408207Y-10293604D01*
X235408207Y-10293604D02*
X235346303Y-10912652D01*
X235346303Y-10912652D02*
X235408207Y-10850747D01*
X235408207Y-10850747D02*
X235532017Y-10788842D01*
X235532017Y-10788842D02*
X235841541Y-10788842D01*
X235841541Y-10788842D02*
X235965350Y-10850747D01*
X235965350Y-10850747D02*
X236027255Y-10912652D01*
X236027255Y-10912652D02*
X236089160Y-11036461D01*
X236089160Y-11036461D02*
X236089160Y-11345985D01*
X236089160Y-11345985D02*
X236027255Y-11469795D01*
X236027255Y-11469795D02*
X235965350Y-11531700D01*
X235965350Y-11531700D02*
X235841541Y-11593604D01*
X235841541Y-11593604D02*
X235532017Y-11593604D01*
X235532017Y-11593604D02*
X235408207Y-11531700D01*
X235408207Y-11531700D02*
X235346303Y-11469795D01*
D10*
D11*
X285965350Y-10293604D02*
X285717731Y-10293604D01*
X285717731Y-10293604D02*
X285593922Y-10355509D01*
X285593922Y-10355509D02*
X285532017Y-10417414D01*
X285532017Y-10417414D02*
X285408207Y-10603128D01*
X285408207Y-10603128D02*
X285346303Y-10850747D01*
X285346303Y-10850747D02*
X285346303Y-11345985D01*
X285346303Y-11345985D02*
X285408207Y-11469795D01*
X285408207Y-11469795D02*
X285470112Y-11531700D01*
X285470112Y-11531700D02*
X285593922Y-11593604D01*
X285593922Y-11593604D02*
X285841541Y-11593604D01*
X285841541Y-11593604D02*
X285965350Y-11531700D01*
X285965350Y-11531700D02*
X286027255Y-11469795D01*
X286027255Y-11469795D02*
X286089160Y-11345985D01*
X286089160Y-11345985D02*
X286089160Y-11036461D01*
X286089160Y-11036461D02*
X286027255Y-10912652D01*
X286027255Y-10912652D02*
X285965350Y-10850747D01*
X285965350Y-10850747D02*
X285841541Y-10788842D01*
X285841541Y-10788842D02*
X285593922Y-10788842D01*
X285593922Y-10788842D02*
X285470112Y-10850747D01*
X285470112Y-10850747D02*
X285408207Y-10912652D01*
X285408207Y-10912652D02*
X285346303Y-11036461D01*
D10*
D11*
X335284398Y-10293604D02*
X336151064Y-10293604D01*
X336151064Y-10293604D02*
X335593922Y-11593604D01*
D10*
D11*
X385593922Y-10850747D02*
X385470112Y-10788842D01*
X385470112Y-10788842D02*
X385408207Y-10726938D01*
X385408207Y-10726938D02*
X385346303Y-10603128D01*
X385346303Y-10603128D02*
X385346303Y-10541223D01*
X385346303Y-10541223D02*
X385408207Y-10417414D01*
X385408207Y-10417414D02*
X385470112Y-10355509D01*
X385470112Y-10355509D02*
X385593922Y-10293604D01*
X385593922Y-10293604D02*
X385841541Y-10293604D01*
X385841541Y-10293604D02*
X385965350Y-10355509D01*
X385965350Y-10355509D02*
X386027255Y-10417414D01*
X386027255Y-10417414D02*
X386089160Y-10541223D01*
X386089160Y-10541223D02*
X386089160Y-10603128D01*
X386089160Y-10603128D02*
X386027255Y-10726938D01*
X386027255Y-10726938D02*
X385965350Y-10788842D01*
X385965350Y-10788842D02*
X385841541Y-10850747D01*
X385841541Y-10850747D02*
X385593922Y-10850747D01*
X385593922Y-10850747D02*
X385470112Y-10912652D01*
X385470112Y-10912652D02*
X385408207Y-10974557D01*
X385408207Y-10974557D02*
X385346303Y-11098366D01*
X385346303Y-11098366D02*
X385346303Y-11345985D01*
X385346303Y-11345985D02*
X385408207Y-11469795D01*
X385408207Y-11469795D02*
X385470112Y-11531700D01*
X385470112Y-11531700D02*
X385593922Y-11593604D01*
X385593922Y-11593604D02*
X385841541Y-11593604D01*
X385841541Y-11593604D02*
X385965350Y-11531700D01*
X385965350Y-11531700D02*
X386027255Y-11469795D01*
X386027255Y-11469795D02*
X386089160Y-11345985D01*
X386089160Y-11345985D02*
X386089160Y-11098366D01*
X386089160Y-11098366D02*
X386027255Y-10974557D01*
X386027255Y-10974557D02*
X385965350Y-10912652D01*
X385965350Y-10912652D02*
X385841541Y-10850747D01*
D10*
D11*
X60000000Y-285002200D02*
X60000000Y-287002200D01*
D10*
D11*
X110000000Y-285002200D02*
X110000000Y-287002200D01*
D10*
D11*
X160000000Y-285002200D02*
X160000000Y-287002200D01*
D10*
D11*
X210000000Y-285002200D02*
X210000000Y-287002200D01*
D10*
D11*
X260000000Y-285002200D02*
X260000000Y-287002200D01*
D10*
D11*
X310000000Y-285002200D02*
X310000000Y-287002200D01*
D10*
D11*
X360000000Y-285002200D02*
X360000000Y-287002200D01*
D10*
D11*
X36089160Y-286595804D02*
X35346303Y-286595804D01*
X35717731Y-286595804D02*
X35717731Y-285295804D01*
X35717731Y-285295804D02*
X35593922Y-285481519D01*
X35593922Y-285481519D02*
X35470112Y-285605328D01*
X35470112Y-285605328D02*
X35346303Y-285667233D01*
D10*
D11*
X85346303Y-285419614D02*
X85408207Y-285357709D01*
X85408207Y-285357709D02*
X85532017Y-285295804D01*
X85532017Y-285295804D02*
X85841541Y-285295804D01*
X85841541Y-285295804D02*
X85965350Y-285357709D01*
X85965350Y-285357709D02*
X86027255Y-285419614D01*
X86027255Y-285419614D02*
X86089160Y-285543423D01*
X86089160Y-285543423D02*
X86089160Y-285667233D01*
X86089160Y-285667233D02*
X86027255Y-285852947D01*
X86027255Y-285852947D02*
X85284398Y-286595804D01*
X85284398Y-286595804D02*
X86089160Y-286595804D01*
D10*
D11*
X135284398Y-285295804D02*
X136089160Y-285295804D01*
X136089160Y-285295804D02*
X135655826Y-285791042D01*
X135655826Y-285791042D02*
X135841541Y-285791042D01*
X135841541Y-285791042D02*
X135965350Y-285852947D01*
X135965350Y-285852947D02*
X136027255Y-285914852D01*
X136027255Y-285914852D02*
X136089160Y-286038661D01*
X136089160Y-286038661D02*
X136089160Y-286348185D01*
X136089160Y-286348185D02*
X136027255Y-286471995D01*
X136027255Y-286471995D02*
X135965350Y-286533900D01*
X135965350Y-286533900D02*
X135841541Y-286595804D01*
X135841541Y-286595804D02*
X135470112Y-286595804D01*
X135470112Y-286595804D02*
X135346303Y-286533900D01*
X135346303Y-286533900D02*
X135284398Y-286471995D01*
D10*
D11*
X185965350Y-285729138D02*
X185965350Y-286595804D01*
X185655826Y-285233900D02*
X185346303Y-286162471D01*
X185346303Y-286162471D02*
X186151064Y-286162471D01*
D10*
D11*
X236027255Y-285295804D02*
X235408207Y-285295804D01*
X235408207Y-285295804D02*
X235346303Y-285914852D01*
X235346303Y-285914852D02*
X235408207Y-285852947D01*
X235408207Y-285852947D02*
X235532017Y-285791042D01*
X235532017Y-285791042D02*
X235841541Y-285791042D01*
X235841541Y-285791042D02*
X235965350Y-285852947D01*
X235965350Y-285852947D02*
X236027255Y-285914852D01*
X236027255Y-285914852D02*
X236089160Y-286038661D01*
X236089160Y-286038661D02*
X236089160Y-286348185D01*
X236089160Y-286348185D02*
X236027255Y-286471995D01*
X236027255Y-286471995D02*
X235965350Y-286533900D01*
X235965350Y-286533900D02*
X235841541Y-286595804D01*
X235841541Y-286595804D02*
X235532017Y-286595804D01*
X235532017Y-286595804D02*
X235408207Y-286533900D01*
X235408207Y-286533900D02*
X235346303Y-286471995D01*
D10*
D11*
X285965350Y-285295804D02*
X285717731Y-285295804D01*
X285717731Y-285295804D02*
X285593922Y-285357709D01*
X285593922Y-285357709D02*
X285532017Y-285419614D01*
X285532017Y-285419614D02*
X285408207Y-285605328D01*
X285408207Y-285605328D02*
X285346303Y-285852947D01*
X285346303Y-285852947D02*
X285346303Y-286348185D01*
X285346303Y-286348185D02*
X285408207Y-286471995D01*
X285408207Y-286471995D02*
X285470112Y-286533900D01*
X285470112Y-286533900D02*
X285593922Y-286595804D01*
X285593922Y-286595804D02*
X285841541Y-286595804D01*
X285841541Y-286595804D02*
X285965350Y-286533900D01*
X285965350Y-286533900D02*
X286027255Y-286471995D01*
X286027255Y-286471995D02*
X286089160Y-286348185D01*
X286089160Y-286348185D02*
X286089160Y-286038661D01*
X286089160Y-286038661D02*
X286027255Y-285914852D01*
X286027255Y-285914852D02*
X285965350Y-285852947D01*
X285965350Y-285852947D02*
X285841541Y-285791042D01*
X285841541Y-285791042D02*
X285593922Y-285791042D01*
X285593922Y-285791042D02*
X285470112Y-285852947D01*
X285470112Y-285852947D02*
X285408207Y-285914852D01*
X285408207Y-285914852D02*
X285346303Y-286038661D01*
D10*
D11*
X335284398Y-285295804D02*
X336151064Y-285295804D01*
X336151064Y-285295804D02*
X335593922Y-286595804D01*
D10*
D11*
X385593922Y-285852947D02*
X385470112Y-285791042D01*
X385470112Y-285791042D02*
X385408207Y-285729138D01*
X385408207Y-285729138D02*
X385346303Y-285605328D01*
X385346303Y-285605328D02*
X385346303Y-285543423D01*
X385346303Y-285543423D02*
X385408207Y-285419614D01*
X385408207Y-285419614D02*
X385470112Y-285357709D01*
X385470112Y-285357709D02*
X385593922Y-285295804D01*
X385593922Y-285295804D02*
X385841541Y-285295804D01*
X385841541Y-285295804D02*
X385965350Y-285357709D01*
X385965350Y-285357709D02*
X386027255Y-285419614D01*
X386027255Y-285419614D02*
X386089160Y-285543423D01*
X386089160Y-285543423D02*
X386089160Y-285605328D01*
X386089160Y-285605328D02*
X386027255Y-285729138D01*
X386027255Y-285729138D02*
X385965350Y-285791042D01*
X385965350Y-285791042D02*
X385841541Y-285852947D01*
X385841541Y-285852947D02*
X385593922Y-285852947D01*
X385593922Y-285852947D02*
X385470112Y-285914852D01*
X385470112Y-285914852D02*
X385408207Y-285976757D01*
X385408207Y-285976757D02*
X385346303Y-286100566D01*
X385346303Y-286100566D02*
X385346303Y-286348185D01*
X385346303Y-286348185D02*
X385408207Y-286471995D01*
X385408207Y-286471995D02*
X385470112Y-286533900D01*
X385470112Y-286533900D02*
X385593922Y-286595804D01*
X385593922Y-286595804D02*
X385841541Y-286595804D01*
X385841541Y-286595804D02*
X385965350Y-286533900D01*
X385965350Y-286533900D02*
X386027255Y-286471995D01*
X386027255Y-286471995D02*
X386089160Y-286348185D01*
X386089160Y-286348185D02*
X386089160Y-286100566D01*
X386089160Y-286100566D02*
X386027255Y-285976757D01*
X386027255Y-285976757D02*
X385965350Y-285914852D01*
X385965350Y-285914852D02*
X385841541Y-285852947D01*
D10*
D11*
X10000000Y-60000000D02*
X12000000Y-60000000D01*
D10*
D11*
X10000000Y-110000000D02*
X12000000Y-110000000D01*
D10*
D11*
X10000000Y-160000000D02*
X12000000Y-160000000D01*
D10*
D11*
X10000000Y-210000000D02*
X12000000Y-210000000D01*
D10*
D11*
X10000000Y-260000000D02*
X12000000Y-260000000D01*
D10*
D11*
X10690476Y-35222176D02*
X11309523Y-35222176D01*
X10566666Y-35593604D02*
X10999999Y-34293604D01*
X10999999Y-34293604D02*
X11433333Y-35593604D01*
D10*
D11*
X11092857Y-84912652D02*
X11278571Y-84974557D01*
X11278571Y-84974557D02*
X11340476Y-85036461D01*
X11340476Y-85036461D02*
X11402380Y-85160271D01*
X11402380Y-85160271D02*
X11402380Y-85345985D01*
X11402380Y-85345985D02*
X11340476Y-85469795D01*
X11340476Y-85469795D02*
X11278571Y-85531700D01*
X11278571Y-85531700D02*
X11154761Y-85593604D01*
X11154761Y-85593604D02*
X10659523Y-85593604D01*
X10659523Y-85593604D02*
X10659523Y-84293604D01*
X10659523Y-84293604D02*
X11092857Y-84293604D01*
X11092857Y-84293604D02*
X11216666Y-84355509D01*
X11216666Y-84355509D02*
X11278571Y-84417414D01*
X11278571Y-84417414D02*
X11340476Y-84541223D01*
X11340476Y-84541223D02*
X11340476Y-84665033D01*
X11340476Y-84665033D02*
X11278571Y-84788842D01*
X11278571Y-84788842D02*
X11216666Y-84850747D01*
X11216666Y-84850747D02*
X11092857Y-84912652D01*
X11092857Y-84912652D02*
X10659523Y-84912652D01*
D10*
D11*
X11402380Y-135469795D02*
X11340476Y-135531700D01*
X11340476Y-135531700D02*
X11154761Y-135593604D01*
X11154761Y-135593604D02*
X11030952Y-135593604D01*
X11030952Y-135593604D02*
X10845238Y-135531700D01*
X10845238Y-135531700D02*
X10721428Y-135407890D01*
X10721428Y-135407890D02*
X10659523Y-135284080D01*
X10659523Y-135284080D02*
X10597619Y-135036461D01*
X10597619Y-135036461D02*
X10597619Y-134850747D01*
X10597619Y-134850747D02*
X10659523Y-134603128D01*
X10659523Y-134603128D02*
X10721428Y-134479319D01*
X10721428Y-134479319D02*
X10845238Y-134355509D01*
X10845238Y-134355509D02*
X11030952Y-134293604D01*
X11030952Y-134293604D02*
X11154761Y-134293604D01*
X11154761Y-134293604D02*
X11340476Y-134355509D01*
X11340476Y-134355509D02*
X11402380Y-134417414D01*
D10*
D11*
X10659523Y-185593604D02*
X10659523Y-184293604D01*
X10659523Y-184293604D02*
X10969047Y-184293604D01*
X10969047Y-184293604D02*
X11154761Y-184355509D01*
X11154761Y-184355509D02*
X11278571Y-184479319D01*
X11278571Y-184479319D02*
X11340476Y-184603128D01*
X11340476Y-184603128D02*
X11402380Y-184850747D01*
X11402380Y-184850747D02*
X11402380Y-185036461D01*
X11402380Y-185036461D02*
X11340476Y-185284080D01*
X11340476Y-185284080D02*
X11278571Y-185407890D01*
X11278571Y-185407890D02*
X11154761Y-185531700D01*
X11154761Y-185531700D02*
X10969047Y-185593604D01*
X10969047Y-185593604D02*
X10659523Y-185593604D01*
D10*
D11*
X10721428Y-234912652D02*
X11154762Y-234912652D01*
X11340476Y-235593604D02*
X10721428Y-235593604D01*
X10721428Y-235593604D02*
X10721428Y-234293604D01*
X10721428Y-234293604D02*
X11340476Y-234293604D01*
D10*
D11*
X11185714Y-284912652D02*
X10752380Y-284912652D01*
X10752380Y-285593604D02*
X10752380Y-284293604D01*
X10752380Y-284293604D02*
X11371428Y-284293604D01*
D10*
D11*
X409989000Y-60000000D02*
X407989000Y-60000000D01*
D10*
D11*
X409989000Y-110000000D02*
X407989000Y-110000000D01*
D10*
D11*
X409989000Y-160000000D02*
X407989000Y-160000000D01*
D10*
D11*
X409989000Y-210000000D02*
X407989000Y-210000000D01*
D10*
D11*
X409989000Y-260000000D02*
X407989000Y-260000000D01*
D10*
D11*
X408679476Y-35222176D02*
X409298523Y-35222176D01*
X408555666Y-35593604D02*
X408988999Y-34293604D01*
X408988999Y-34293604D02*
X409422333Y-35593604D01*
D10*
D11*
X409081857Y-84912652D02*
X409267571Y-84974557D01*
X409267571Y-84974557D02*
X409329476Y-85036461D01*
X409329476Y-85036461D02*
X409391380Y-85160271D01*
X409391380Y-85160271D02*
X409391380Y-85345985D01*
X409391380Y-85345985D02*
X409329476Y-85469795D01*
X409329476Y-85469795D02*
X409267571Y-85531700D01*
X409267571Y-85531700D02*
X409143761Y-85593604D01*
X409143761Y-85593604D02*
X408648523Y-85593604D01*
X408648523Y-85593604D02*
X408648523Y-84293604D01*
X408648523Y-84293604D02*
X409081857Y-84293604D01*
X409081857Y-84293604D02*
X409205666Y-84355509D01*
X409205666Y-84355509D02*
X409267571Y-84417414D01*
X409267571Y-84417414D02*
X409329476Y-84541223D01*
X409329476Y-84541223D02*
X409329476Y-84665033D01*
X409329476Y-84665033D02*
X409267571Y-84788842D01*
X409267571Y-84788842D02*
X409205666Y-84850747D01*
X409205666Y-84850747D02*
X409081857Y-84912652D01*
X409081857Y-84912652D02*
X408648523Y-84912652D01*
D10*
D11*
X409391380Y-135469795D02*
X409329476Y-135531700D01*
X409329476Y-135531700D02*
X409143761Y-135593604D01*
X409143761Y-135593604D02*
X409019952Y-135593604D01*
X409019952Y-135593604D02*
X408834238Y-135531700D01*
X408834238Y-135531700D02*
X408710428Y-135407890D01*
X408710428Y-135407890D02*
X408648523Y-135284080D01*
X408648523Y-135284080D02*
X408586619Y-135036461D01*
X408586619Y-135036461D02*
X408586619Y-134850747D01*
X408586619Y-134850747D02*
X408648523Y-134603128D01*
X408648523Y-134603128D02*
X408710428Y-134479319D01*
X408710428Y-134479319D02*
X408834238Y-134355509D01*
X408834238Y-134355509D02*
X409019952Y-134293604D01*
X409019952Y-134293604D02*
X409143761Y-134293604D01*
X409143761Y-134293604D02*
X409329476Y-134355509D01*
X409329476Y-134355509D02*
X409391380Y-134417414D01*
D10*
D11*
X408648523Y-185593604D02*
X408648523Y-184293604D01*
X408648523Y-184293604D02*
X408958047Y-184293604D01*
X408958047Y-184293604D02*
X409143761Y-184355509D01*
X409143761Y-184355509D02*
X409267571Y-184479319D01*
X409267571Y-184479319D02*
X409329476Y-184603128D01*
X409329476Y-184603128D02*
X409391380Y-184850747D01*
X409391380Y-184850747D02*
X409391380Y-185036461D01*
X409391380Y-185036461D02*
X409329476Y-185284080D01*
X409329476Y-185284080D02*
X409267571Y-185407890D01*
X409267571Y-185407890D02*
X409143761Y-185531700D01*
X409143761Y-185531700D02*
X408958047Y-185593604D01*
X408958047Y-185593604D02*
X408648523Y-185593604D01*
D10*
D11*
X408710428Y-234912652D02*
X409143762Y-234912652D01*
X409329476Y-235593604D02*
X408710428Y-235593604D01*
X408710428Y-235593604D02*
X408710428Y-234293604D01*
X408710428Y-234293604D02*
X409329476Y-234293604D01*
D10*
D11*
X409174714Y-284912652D02*
X408741380Y-284912652D01*
X408741380Y-285593604D02*
X408741380Y-284293604D01*
X408741380Y-284293604D02*
X409360428Y-284293604D01*
D10*
D11*
X323444826Y-280788328D02*
X323444826Y-279288328D01*
X323444826Y-279288328D02*
X323801969Y-279288328D01*
X323801969Y-279288328D02*
X324016255Y-279359757D01*
X324016255Y-279359757D02*
X324159112Y-279502614D01*
X324159112Y-279502614D02*
X324230541Y-279645471D01*
X324230541Y-279645471D02*
X324301969Y-279931185D01*
X324301969Y-279931185D02*
X324301969Y-280145471D01*
X324301969Y-280145471D02*
X324230541Y-280431185D01*
X324230541Y-280431185D02*
X324159112Y-280574042D01*
X324159112Y-280574042D02*
X324016255Y-280716900D01*
X324016255Y-280716900D02*
X323801969Y-280788328D01*
X323801969Y-280788328D02*
X323444826Y-280788328D01*
X325587684Y-280788328D02*
X325587684Y-280002614D01*
X325587684Y-280002614D02*
X325516255Y-279859757D01*
X325516255Y-279859757D02*
X325373398Y-279788328D01*
X325373398Y-279788328D02*
X325087684Y-279788328D01*
X325087684Y-279788328D02*
X324944826Y-279859757D01*
X325587684Y-280716900D02*
X325444826Y-280788328D01*
X325444826Y-280788328D02*
X325087684Y-280788328D01*
X325087684Y-280788328D02*
X324944826Y-280716900D01*
X324944826Y-280716900D02*
X324873398Y-280574042D01*
X324873398Y-280574042D02*
X324873398Y-280431185D01*
X324873398Y-280431185D02*
X324944826Y-280288328D01*
X324944826Y-280288328D02*
X325087684Y-280216900D01*
X325087684Y-280216900D02*
X325444826Y-280216900D01*
X325444826Y-280216900D02*
X325587684Y-280145471D01*
X326087684Y-279788328D02*
X326659112Y-279788328D01*
X326301969Y-279288328D02*
X326301969Y-280574042D01*
X326301969Y-280574042D02*
X326373398Y-280716900D01*
X326373398Y-280716900D02*
X326516255Y-280788328D01*
X326516255Y-280788328D02*
X326659112Y-280788328D01*
X327730541Y-280716900D02*
X327587684Y-280788328D01*
X327587684Y-280788328D02*
X327301970Y-280788328D01*
X327301970Y-280788328D02*
X327159112Y-280716900D01*
X327159112Y-280716900D02*
X327087684Y-280574042D01*
X327087684Y-280574042D02*
X327087684Y-280002614D01*
X327087684Y-280002614D02*
X327159112Y-279859757D01*
X327159112Y-279859757D02*
X327301970Y-279788328D01*
X327301970Y-279788328D02*
X327587684Y-279788328D01*
X327587684Y-279788328D02*
X327730541Y-279859757D01*
X327730541Y-279859757D02*
X327801970Y-280002614D01*
X327801970Y-280002614D02*
X327801970Y-280145471D01*
X327801970Y-280145471D02*
X327087684Y-280288328D01*
X328444826Y-280645471D02*
X328516255Y-280716900D01*
X328516255Y-280716900D02*
X328444826Y-280788328D01*
X328444826Y-280788328D02*
X328373398Y-280716900D01*
X328373398Y-280716900D02*
X328444826Y-280645471D01*
X328444826Y-280645471D02*
X328444826Y-280788328D01*
X328444826Y-279859757D02*
X328516255Y-279931185D01*
X328516255Y-279931185D02*
X328444826Y-280002614D01*
X328444826Y-280002614D02*
X328373398Y-279931185D01*
X328373398Y-279931185D02*
X328444826Y-279859757D01*
X328444826Y-279859757D02*
X328444826Y-280002614D01*
D10*
D11*
X299989000Y-281502200D02*
X407989000Y-281502200D01*
D10*
D11*
X301444826Y-283588328D02*
X301444826Y-282088328D01*
X302301969Y-283588328D02*
X301659112Y-282731185D01*
X302301969Y-282088328D02*
X301444826Y-282945471D01*
X302944826Y-283588328D02*
X302944826Y-282588328D01*
X302944826Y-282088328D02*
X302873398Y-282159757D01*
X302873398Y-282159757D02*
X302944826Y-282231185D01*
X302944826Y-282231185D02*
X303016255Y-282159757D01*
X303016255Y-282159757D02*
X302944826Y-282088328D01*
X302944826Y-282088328D02*
X302944826Y-282231185D01*
X304516255Y-283445471D02*
X304444827Y-283516900D01*
X304444827Y-283516900D02*
X304230541Y-283588328D01*
X304230541Y-283588328D02*
X304087684Y-283588328D01*
X304087684Y-283588328D02*
X303873398Y-283516900D01*
X303873398Y-283516900D02*
X303730541Y-283374042D01*
X303730541Y-283374042D02*
X303659112Y-283231185D01*
X303659112Y-283231185D02*
X303587684Y-282945471D01*
X303587684Y-282945471D02*
X303587684Y-282731185D01*
X303587684Y-282731185D02*
X303659112Y-282445471D01*
X303659112Y-282445471D02*
X303730541Y-282302614D01*
X303730541Y-282302614D02*
X303873398Y-282159757D01*
X303873398Y-282159757D02*
X304087684Y-282088328D01*
X304087684Y-282088328D02*
X304230541Y-282088328D01*
X304230541Y-282088328D02*
X304444827Y-282159757D01*
X304444827Y-282159757D02*
X304516255Y-282231185D01*
X305801970Y-283588328D02*
X305801970Y-282802614D01*
X305801970Y-282802614D02*
X305730541Y-282659757D01*
X305730541Y-282659757D02*
X305587684Y-282588328D01*
X305587684Y-282588328D02*
X305301970Y-282588328D01*
X305301970Y-282588328D02*
X305159112Y-282659757D01*
X305801970Y-283516900D02*
X305659112Y-283588328D01*
X305659112Y-283588328D02*
X305301970Y-283588328D01*
X305301970Y-283588328D02*
X305159112Y-283516900D01*
X305159112Y-283516900D02*
X305087684Y-283374042D01*
X305087684Y-283374042D02*
X305087684Y-283231185D01*
X305087684Y-283231185D02*
X305159112Y-283088328D01*
X305159112Y-283088328D02*
X305301970Y-283016900D01*
X305301970Y-283016900D02*
X305659112Y-283016900D01*
X305659112Y-283016900D02*
X305801970Y-282945471D01*
X307159113Y-283588328D02*
X307159113Y-282088328D01*
X307159113Y-283516900D02*
X307016255Y-283588328D01*
X307016255Y-283588328D02*
X306730541Y-283588328D01*
X306730541Y-283588328D02*
X306587684Y-283516900D01*
X306587684Y-283516900D02*
X306516255Y-283445471D01*
X306516255Y-283445471D02*
X306444827Y-283302614D01*
X306444827Y-283302614D02*
X306444827Y-282874042D01*
X306444827Y-282874042D02*
X306516255Y-282731185D01*
X306516255Y-282731185D02*
X306587684Y-282659757D01*
X306587684Y-282659757D02*
X306730541Y-282588328D01*
X306730541Y-282588328D02*
X307016255Y-282588328D01*
X307016255Y-282588328D02*
X307159113Y-282659757D01*
X309016255Y-282802614D02*
X309516255Y-282802614D01*
X309730541Y-283588328D02*
X309016255Y-283588328D01*
X309016255Y-283588328D02*
X309016255Y-282088328D01*
X309016255Y-282088328D02*
X309730541Y-282088328D01*
X310373398Y-283445471D02*
X310444827Y-283516900D01*
X310444827Y-283516900D02*
X310373398Y-283588328D01*
X310373398Y-283588328D02*
X310301970Y-283516900D01*
X310301970Y-283516900D02*
X310373398Y-283445471D01*
X310373398Y-283445471D02*
X310373398Y-283588328D01*
X311087684Y-283588328D02*
X311087684Y-282088328D01*
X311087684Y-282088328D02*
X311444827Y-282088328D01*
X311444827Y-282088328D02*
X311659113Y-282159757D01*
X311659113Y-282159757D02*
X311801970Y-282302614D01*
X311801970Y-282302614D02*
X311873399Y-282445471D01*
X311873399Y-282445471D02*
X311944827Y-282731185D01*
X311944827Y-282731185D02*
X311944827Y-282945471D01*
X311944827Y-282945471D02*
X311873399Y-283231185D01*
X311873399Y-283231185D02*
X311801970Y-283374042D01*
X311801970Y-283374042D02*
X311659113Y-283516900D01*
X311659113Y-283516900D02*
X311444827Y-283588328D01*
X311444827Y-283588328D02*
X311087684Y-283588328D01*
X312587684Y-283445471D02*
X312659113Y-283516900D01*
X312659113Y-283516900D02*
X312587684Y-283588328D01*
X312587684Y-283588328D02*
X312516256Y-283516900D01*
X312516256Y-283516900D02*
X312587684Y-283445471D01*
X312587684Y-283445471D02*
X312587684Y-283588328D01*
X313230542Y-283159757D02*
X313944828Y-283159757D01*
X313087685Y-283588328D02*
X313587685Y-282088328D01*
X313587685Y-282088328D02*
X314087685Y-283588328D01*
X314587684Y-283445471D02*
X314659113Y-283516900D01*
X314659113Y-283516900D02*
X314587684Y-283588328D01*
X314587684Y-283588328D02*
X314516256Y-283516900D01*
X314516256Y-283516900D02*
X314587684Y-283445471D01*
X314587684Y-283445471D02*
X314587684Y-283588328D01*
X317587684Y-283588328D02*
X317587684Y-282088328D01*
X317730542Y-283016900D02*
X318159113Y-283588328D01*
X318159113Y-282588328D02*
X317587684Y-283159757D01*
X318801970Y-283588328D02*
X318801970Y-282588328D01*
X318801970Y-282088328D02*
X318730542Y-282159757D01*
X318730542Y-282159757D02*
X318801970Y-282231185D01*
X318801970Y-282231185D02*
X318873399Y-282159757D01*
X318873399Y-282159757D02*
X318801970Y-282088328D01*
X318801970Y-282088328D02*
X318801970Y-282231185D01*
X320159114Y-283516900D02*
X320016256Y-283588328D01*
X320016256Y-283588328D02*
X319730542Y-283588328D01*
X319730542Y-283588328D02*
X319587685Y-283516900D01*
X319587685Y-283516900D02*
X319516256Y-283445471D01*
X319516256Y-283445471D02*
X319444828Y-283302614D01*
X319444828Y-283302614D02*
X319444828Y-282874042D01*
X319444828Y-282874042D02*
X319516256Y-282731185D01*
X319516256Y-282731185D02*
X319587685Y-282659757D01*
X319587685Y-282659757D02*
X319730542Y-282588328D01*
X319730542Y-282588328D02*
X320016256Y-282588328D01*
X320016256Y-282588328D02*
X320159114Y-282659757D01*
X321444828Y-283588328D02*
X321444828Y-282802614D01*
X321444828Y-282802614D02*
X321373399Y-282659757D01*
X321373399Y-282659757D02*
X321230542Y-282588328D01*
X321230542Y-282588328D02*
X320944828Y-282588328D01*
X320944828Y-282588328D02*
X320801970Y-282659757D01*
X321444828Y-283516900D02*
X321301970Y-283588328D01*
X321301970Y-283588328D02*
X320944828Y-283588328D01*
X320944828Y-283588328D02*
X320801970Y-283516900D01*
X320801970Y-283516900D02*
X320730542Y-283374042D01*
X320730542Y-283374042D02*
X320730542Y-283231185D01*
X320730542Y-283231185D02*
X320801970Y-283088328D01*
X320801970Y-283088328D02*
X320944828Y-283016900D01*
X320944828Y-283016900D02*
X321301970Y-283016900D01*
X321301970Y-283016900D02*
X321444828Y-282945471D01*
X322801971Y-283588328D02*
X322801971Y-282088328D01*
X322801971Y-283516900D02*
X322659113Y-283588328D01*
X322659113Y-283588328D02*
X322373399Y-283588328D01*
X322373399Y-283588328D02*
X322230542Y-283516900D01*
X322230542Y-283516900D02*
X322159113Y-283445471D01*
X322159113Y-283445471D02*
X322087685Y-283302614D01*
X322087685Y-283302614D02*
X322087685Y-282874042D01*
X322087685Y-282874042D02*
X322159113Y-282731185D01*
X322159113Y-282731185D02*
X322230542Y-282659757D01*
X322230542Y-282659757D02*
X322373399Y-282588328D01*
X322373399Y-282588328D02*
X322659113Y-282588328D01*
X322659113Y-282588328D02*
X322801971Y-282659757D01*
X324516256Y-282088328D02*
X325516256Y-282088328D01*
X325516256Y-282088328D02*
X324873399Y-283588328D01*
X326087684Y-283445471D02*
X326159113Y-283516900D01*
X326159113Y-283516900D02*
X326087684Y-283588328D01*
X326087684Y-283588328D02*
X326016256Y-283516900D01*
X326016256Y-283516900D02*
X326087684Y-283445471D01*
X326087684Y-283445471D02*
X326087684Y-283588328D01*
X327087685Y-282088328D02*
X327230542Y-282088328D01*
X327230542Y-282088328D02*
X327373399Y-282159757D01*
X327373399Y-282159757D02*
X327444828Y-282231185D01*
X327444828Y-282231185D02*
X327516256Y-282374042D01*
X327516256Y-282374042D02*
X327587685Y-282659757D01*
X327587685Y-282659757D02*
X327587685Y-283016900D01*
X327587685Y-283016900D02*
X327516256Y-283302614D01*
X327516256Y-283302614D02*
X327444828Y-283445471D01*
X327444828Y-283445471D02*
X327373399Y-283516900D01*
X327373399Y-283516900D02*
X327230542Y-283588328D01*
X327230542Y-283588328D02*
X327087685Y-283588328D01*
X327087685Y-283588328D02*
X326944828Y-283516900D01*
X326944828Y-283516900D02*
X326873399Y-283445471D01*
X326873399Y-283445471D02*
X326801970Y-283302614D01*
X326801970Y-283302614D02*
X326730542Y-283016900D01*
X326730542Y-283016900D02*
X326730542Y-282659757D01*
X326730542Y-282659757D02*
X326801970Y-282374042D01*
X326801970Y-282374042D02*
X326873399Y-282231185D01*
X326873399Y-282231185D02*
X326944828Y-282159757D01*
X326944828Y-282159757D02*
X327087685Y-282088328D01*
X328230541Y-283445471D02*
X328301970Y-283516900D01*
X328301970Y-283516900D02*
X328230541Y-283588328D01*
X328230541Y-283588328D02*
X328159113Y-283516900D01*
X328159113Y-283516900D02*
X328230541Y-283445471D01*
X328230541Y-283445471D02*
X328230541Y-283588328D01*
X329730542Y-283588328D02*
X328873399Y-283588328D01*
X329301970Y-283588328D02*
X329301970Y-282088328D01*
X329301970Y-282088328D02*
X329159113Y-282302614D01*
X329159113Y-282302614D02*
X329016256Y-282445471D01*
X329016256Y-282445471D02*
X328873399Y-282516900D01*
X330659113Y-282088328D02*
X330801970Y-282088328D01*
X330801970Y-282088328D02*
X330944827Y-282159757D01*
X330944827Y-282159757D02*
X331016256Y-282231185D01*
X331016256Y-282231185D02*
X331087684Y-282374042D01*
X331087684Y-282374042D02*
X331159113Y-282659757D01*
X331159113Y-282659757D02*
X331159113Y-283016900D01*
X331159113Y-283016900D02*
X331087684Y-283302614D01*
X331087684Y-283302614D02*
X331016256Y-283445471D01*
X331016256Y-283445471D02*
X330944827Y-283516900D01*
X330944827Y-283516900D02*
X330801970Y-283588328D01*
X330801970Y-283588328D02*
X330659113Y-283588328D01*
X330659113Y-283588328D02*
X330516256Y-283516900D01*
X330516256Y-283516900D02*
X330444827Y-283445471D01*
X330444827Y-283445471D02*
X330373398Y-283302614D01*
X330373398Y-283302614D02*
X330301970Y-283016900D01*
X330301970Y-283016900D02*
X330301970Y-282659757D01*
X330301970Y-282659757D02*
X330373398Y-282374042D01*
X330373398Y-282374042D02*
X330444827Y-282231185D01*
X330444827Y-282231185D02*
X330516256Y-282159757D01*
X330516256Y-282159757D02*
X330659113Y-282088328D01*
D10*
D11*
X299989000Y-278502200D02*
X407989000Y-278502200D01*
D10*
D12*
X387400653Y-280780528D02*
X386900653Y-280066242D01*
X386543510Y-280780528D02*
X386543510Y-279280528D01*
X386543510Y-279280528D02*
X387114939Y-279280528D01*
X387114939Y-279280528D02*
X387257796Y-279351957D01*
X387257796Y-279351957D02*
X387329225Y-279423385D01*
X387329225Y-279423385D02*
X387400653Y-279566242D01*
X387400653Y-279566242D02*
X387400653Y-279780528D01*
X387400653Y-279780528D02*
X387329225Y-279923385D01*
X387329225Y-279923385D02*
X387257796Y-279994814D01*
X387257796Y-279994814D02*
X387114939Y-280066242D01*
X387114939Y-280066242D02*
X386543510Y-280066242D01*
X388614939Y-280709100D02*
X388472082Y-280780528D01*
X388472082Y-280780528D02*
X388186368Y-280780528D01*
X388186368Y-280780528D02*
X388043510Y-280709100D01*
X388043510Y-280709100D02*
X387972082Y-280566242D01*
X387972082Y-280566242D02*
X387972082Y-279994814D01*
X387972082Y-279994814D02*
X388043510Y-279851957D01*
X388043510Y-279851957D02*
X388186368Y-279780528D01*
X388186368Y-279780528D02*
X388472082Y-279780528D01*
X388472082Y-279780528D02*
X388614939Y-279851957D01*
X388614939Y-279851957D02*
X388686368Y-279994814D01*
X388686368Y-279994814D02*
X388686368Y-280137671D01*
X388686368Y-280137671D02*
X387972082Y-280280528D01*
X389186367Y-279780528D02*
X389543510Y-280780528D01*
X389543510Y-280780528D02*
X389900653Y-279780528D01*
X390472081Y-280637671D02*
X390543510Y-280709100D01*
X390543510Y-280709100D02*
X390472081Y-280780528D01*
X390472081Y-280780528D02*
X390400653Y-280709100D01*
X390400653Y-280709100D02*
X390472081Y-280637671D01*
X390472081Y-280637671D02*
X390472081Y-280780528D01*
X390472081Y-279851957D02*
X390543510Y-279923385D01*
X390543510Y-279923385D02*
X390472081Y-279994814D01*
X390472081Y-279994814D02*
X390400653Y-279923385D01*
X390400653Y-279923385D02*
X390472081Y-279851957D01*
X390472081Y-279851957D02*
X390472081Y-279994814D01*
D10*
D11*
X301373398Y-280716900D02*
X301587684Y-280788328D01*
X301587684Y-280788328D02*
X301944826Y-280788328D01*
X301944826Y-280788328D02*
X302087684Y-280716900D01*
X302087684Y-280716900D02*
X302159112Y-280645471D01*
X302159112Y-280645471D02*
X302230541Y-280502614D01*
X302230541Y-280502614D02*
X302230541Y-280359757D01*
X302230541Y-280359757D02*
X302159112Y-280216900D01*
X302159112Y-280216900D02*
X302087684Y-280145471D01*
X302087684Y-280145471D02*
X301944826Y-280074042D01*
X301944826Y-280074042D02*
X301659112Y-280002614D01*
X301659112Y-280002614D02*
X301516255Y-279931185D01*
X301516255Y-279931185D02*
X301444826Y-279859757D01*
X301444826Y-279859757D02*
X301373398Y-279716900D01*
X301373398Y-279716900D02*
X301373398Y-279574042D01*
X301373398Y-279574042D02*
X301444826Y-279431185D01*
X301444826Y-279431185D02*
X301516255Y-279359757D01*
X301516255Y-279359757D02*
X301659112Y-279288328D01*
X301659112Y-279288328D02*
X302016255Y-279288328D01*
X302016255Y-279288328D02*
X302230541Y-279359757D01*
X302873397Y-280788328D02*
X302873397Y-279788328D01*
X302873397Y-279288328D02*
X302801969Y-279359757D01*
X302801969Y-279359757D02*
X302873397Y-279431185D01*
X302873397Y-279431185D02*
X302944826Y-279359757D01*
X302944826Y-279359757D02*
X302873397Y-279288328D01*
X302873397Y-279288328D02*
X302873397Y-279431185D01*
X303444826Y-279788328D02*
X304230541Y-279788328D01*
X304230541Y-279788328D02*
X303444826Y-280788328D01*
X303444826Y-280788328D02*
X304230541Y-280788328D01*
X305373398Y-280716900D02*
X305230541Y-280788328D01*
X305230541Y-280788328D02*
X304944827Y-280788328D01*
X304944827Y-280788328D02*
X304801969Y-280716900D01*
X304801969Y-280716900D02*
X304730541Y-280574042D01*
X304730541Y-280574042D02*
X304730541Y-280002614D01*
X304730541Y-280002614D02*
X304801969Y-279859757D01*
X304801969Y-279859757D02*
X304944827Y-279788328D01*
X304944827Y-279788328D02*
X305230541Y-279788328D01*
X305230541Y-279788328D02*
X305373398Y-279859757D01*
X305373398Y-279859757D02*
X305444827Y-280002614D01*
X305444827Y-280002614D02*
X305444827Y-280145471D01*
X305444827Y-280145471D02*
X304730541Y-280288328D01*
X306087683Y-280645471D02*
X306159112Y-280716900D01*
X306159112Y-280716900D02*
X306087683Y-280788328D01*
X306087683Y-280788328D02*
X306016255Y-280716900D01*
X306016255Y-280716900D02*
X306087683Y-280645471D01*
X306087683Y-280645471D02*
X306087683Y-280788328D01*
X306087683Y-279859757D02*
X306159112Y-279931185D01*
X306159112Y-279931185D02*
X306087683Y-280002614D01*
X306087683Y-280002614D02*
X306016255Y-279931185D01*
X306016255Y-279931185D02*
X306087683Y-279859757D01*
X306087683Y-279859757D02*
X306087683Y-280002614D01*
X307873398Y-280359757D02*
X308587684Y-280359757D01*
X307730541Y-280788328D02*
X308230541Y-279288328D01*
X308230541Y-279288328D02*
X308730541Y-280788328D01*
X309087683Y-279288328D02*
X310016255Y-279288328D01*
X310016255Y-279288328D02*
X309516255Y-279859757D01*
X309516255Y-279859757D02*
X309730540Y-279859757D01*
X309730540Y-279859757D02*
X309873398Y-279931185D01*
X309873398Y-279931185D02*
X309944826Y-280002614D01*
X309944826Y-280002614D02*
X310016255Y-280145471D01*
X310016255Y-280145471D02*
X310016255Y-280502614D01*
X310016255Y-280502614D02*
X309944826Y-280645471D01*
X309944826Y-280645471D02*
X309873398Y-280716900D01*
X309873398Y-280716900D02*
X309730540Y-280788328D01*
X309730540Y-280788328D02*
X309301969Y-280788328D01*
X309301969Y-280788328D02*
X309159112Y-280716900D01*
X309159112Y-280716900D02*
X309087683Y-280645471D01*
D10*
D11*
X386444826Y-283588328D02*
X386444826Y-282088328D01*
X387801970Y-283588328D02*
X387801970Y-282088328D01*
X387801970Y-283516900D02*
X387659112Y-283588328D01*
X387659112Y-283588328D02*
X387373398Y-283588328D01*
X387373398Y-283588328D02*
X387230541Y-283516900D01*
X387230541Y-283516900D02*
X387159112Y-283445471D01*
X387159112Y-283445471D02*
X387087684Y-283302614D01*
X387087684Y-283302614D02*
X387087684Y-282874042D01*
X387087684Y-282874042D02*
X387159112Y-282731185D01*
X387159112Y-282731185D02*
X387230541Y-282659757D01*
X387230541Y-282659757D02*
X387373398Y-282588328D01*
X387373398Y-282588328D02*
X387659112Y-282588328D01*
X387659112Y-282588328D02*
X387801970Y-282659757D01*
X388516255Y-283445471D02*
X388587684Y-283516900D01*
X388587684Y-283516900D02*
X388516255Y-283588328D01*
X388516255Y-283588328D02*
X388444827Y-283516900D01*
X388444827Y-283516900D02*
X388516255Y-283445471D01*
X388516255Y-283445471D02*
X388516255Y-283588328D01*
X388516255Y-282659757D02*
X388587684Y-282731185D01*
X388587684Y-282731185D02*
X388516255Y-282802614D01*
X388516255Y-282802614D02*
X388444827Y-282731185D01*
X388444827Y-282731185D02*
X388516255Y-282659757D01*
X388516255Y-282659757D02*
X388516255Y-282802614D01*
X391159113Y-283588328D02*
X390301970Y-283588328D01*
X390730541Y-283588328D02*
X390730541Y-282088328D01*
X390730541Y-282088328D02*
X390587684Y-282302614D01*
X390587684Y-282302614D02*
X390444827Y-282445471D01*
X390444827Y-282445471D02*
X390301970Y-282516900D01*
X392873398Y-282016900D02*
X391587684Y-283945471D01*
X394159113Y-283588328D02*
X393301970Y-283588328D01*
X393730541Y-283588328D02*
X393730541Y-282088328D01*
X393730541Y-282088328D02*
X393587684Y-282302614D01*
X393587684Y-282302614D02*
X393444827Y-282445471D01*
X393444827Y-282445471D02*
X393301970Y-282516900D01*
D10*
D11*
X299989000Y-274502200D02*
X407989000Y-274502200D01*
D10*
D13*
X301680728Y-275206638D02*
X302823585Y-275206638D01*
X302002157Y-277206638D02*
X302252157Y-275206638D01*
X303240252Y-277206638D02*
X303406919Y-275873304D01*
X303490252Y-275206638D02*
X303383109Y-275301876D01*
X303383109Y-275301876D02*
X303466443Y-275397114D01*
X303466443Y-275397114D02*
X303573586Y-275301876D01*
X303573586Y-275301876D02*
X303490252Y-275206638D01*
X303490252Y-275206638D02*
X303466443Y-275397114D01*
X304073586Y-275873304D02*
X304835490Y-275873304D01*
X304442633Y-275206638D02*
X304228348Y-276920923D01*
X304228348Y-276920923D02*
X304299776Y-277111400D01*
X304299776Y-277111400D02*
X304478348Y-277206638D01*
X304478348Y-277206638D02*
X304668824Y-277206638D01*
X305621205Y-277206638D02*
X305442633Y-277111400D01*
X305442633Y-277111400D02*
X305371205Y-276920923D01*
X305371205Y-276920923D02*
X305585490Y-275206638D01*
X307156919Y-277111400D02*
X306954538Y-277206638D01*
X306954538Y-277206638D02*
X306573585Y-277206638D01*
X306573585Y-277206638D02*
X306395014Y-277111400D01*
X306395014Y-277111400D02*
X306323585Y-276920923D01*
X306323585Y-276920923D02*
X306418824Y-276159019D01*
X306418824Y-276159019D02*
X306537871Y-275968542D01*
X306537871Y-275968542D02*
X306740252Y-275873304D01*
X306740252Y-275873304D02*
X307121204Y-275873304D01*
X307121204Y-275873304D02*
X307299776Y-275968542D01*
X307299776Y-275968542D02*
X307371204Y-276159019D01*
X307371204Y-276159019D02*
X307347395Y-276349495D01*
X307347395Y-276349495D02*
X306371204Y-276539971D01*
X308121205Y-277016161D02*
X308204538Y-277111400D01*
X308204538Y-277111400D02*
X308097395Y-277206638D01*
X308097395Y-277206638D02*
X308014062Y-277111400D01*
X308014062Y-277111400D02*
X308121205Y-277016161D01*
X308121205Y-277016161D02*
X308097395Y-277206638D01*
X308252157Y-275968542D02*
X308335490Y-276063780D01*
X308335490Y-276063780D02*
X308228348Y-276159019D01*
X308228348Y-276159019D02*
X308145014Y-276063780D01*
X308145014Y-276063780D02*
X308252157Y-275968542D01*
X308252157Y-275968542D02*
X308228348Y-276159019D01*
D10*
D11*
X301944826Y-272602614D02*
X301444826Y-272602614D01*
X301444826Y-273388328D02*
X301444826Y-271888328D01*
X301444826Y-271888328D02*
X302159112Y-271888328D01*
X302730540Y-273388328D02*
X302730540Y-272388328D01*
X302730540Y-271888328D02*
X302659112Y-271959757D01*
X302659112Y-271959757D02*
X302730540Y-272031185D01*
X302730540Y-272031185D02*
X302801969Y-271959757D01*
X302801969Y-271959757D02*
X302730540Y-271888328D01*
X302730540Y-271888328D02*
X302730540Y-272031185D01*
X303659112Y-273388328D02*
X303516255Y-273316900D01*
X303516255Y-273316900D02*
X303444826Y-273174042D01*
X303444826Y-273174042D02*
X303444826Y-271888328D01*
X304801969Y-273316900D02*
X304659112Y-273388328D01*
X304659112Y-273388328D02*
X304373398Y-273388328D01*
X304373398Y-273388328D02*
X304230540Y-273316900D01*
X304230540Y-273316900D02*
X304159112Y-273174042D01*
X304159112Y-273174042D02*
X304159112Y-272602614D01*
X304159112Y-272602614D02*
X304230540Y-272459757D01*
X304230540Y-272459757D02*
X304373398Y-272388328D01*
X304373398Y-272388328D02*
X304659112Y-272388328D01*
X304659112Y-272388328D02*
X304801969Y-272459757D01*
X304801969Y-272459757D02*
X304873398Y-272602614D01*
X304873398Y-272602614D02*
X304873398Y-272745471D01*
X304873398Y-272745471D02*
X304159112Y-272888328D01*
X305516254Y-273245471D02*
X305587683Y-273316900D01*
X305587683Y-273316900D02*
X305516254Y-273388328D01*
X305516254Y-273388328D02*
X305444826Y-273316900D01*
X305444826Y-273316900D02*
X305516254Y-273245471D01*
X305516254Y-273245471D02*
X305516254Y-273388328D01*
X305516254Y-272459757D02*
X305587683Y-272531185D01*
X305587683Y-272531185D02*
X305516254Y-272602614D01*
X305516254Y-272602614D02*
X305444826Y-272531185D01*
X305444826Y-272531185D02*
X305516254Y-272459757D01*
X305516254Y-272459757D02*
X305516254Y-272602614D01*
X308016255Y-273388328D02*
X308016255Y-271888328D01*
X308016255Y-273316900D02*
X307873397Y-273388328D01*
X307873397Y-273388328D02*
X307587683Y-273388328D01*
X307587683Y-273388328D02*
X307444826Y-273316900D01*
X307444826Y-273316900D02*
X307373397Y-273245471D01*
X307373397Y-273245471D02*
X307301969Y-273102614D01*
X307301969Y-273102614D02*
X307301969Y-272674042D01*
X307301969Y-272674042D02*
X307373397Y-272531185D01*
X307373397Y-272531185D02*
X307444826Y-272459757D01*
X307444826Y-272459757D02*
X307587683Y-272388328D01*
X307587683Y-272388328D02*
X307873397Y-272388328D01*
X307873397Y-272388328D02*
X308016255Y-272459757D01*
X308730540Y-273388328D02*
X308730540Y-272388328D01*
X308730540Y-271888328D02*
X308659112Y-271959757D01*
X308659112Y-271959757D02*
X308730540Y-272031185D01*
X308730540Y-272031185D02*
X308801969Y-271959757D01*
X308801969Y-271959757D02*
X308730540Y-271888328D01*
X308730540Y-271888328D02*
X308730540Y-272031185D01*
X309373398Y-273316900D02*
X309516255Y-273388328D01*
X309516255Y-273388328D02*
X309801969Y-273388328D01*
X309801969Y-273388328D02*
X309944826Y-273316900D01*
X309944826Y-273316900D02*
X310016255Y-273174042D01*
X310016255Y-273174042D02*
X310016255Y-273102614D01*
X310016255Y-273102614D02*
X309944826Y-272959757D01*
X309944826Y-272959757D02*
X309801969Y-272888328D01*
X309801969Y-272888328D02*
X309587684Y-272888328D01*
X309587684Y-272888328D02*
X309444826Y-272816900D01*
X309444826Y-272816900D02*
X309373398Y-272674042D01*
X309373398Y-272674042D02*
X309373398Y-272602614D01*
X309373398Y-272602614D02*
X309444826Y-272459757D01*
X309444826Y-272459757D02*
X309587684Y-272388328D01*
X309587684Y-272388328D02*
X309801969Y-272388328D01*
X309801969Y-272388328D02*
X309944826Y-272459757D01*
X311301970Y-273316900D02*
X311159112Y-273388328D01*
X311159112Y-273388328D02*
X310873398Y-273388328D01*
X310873398Y-273388328D02*
X310730541Y-273316900D01*
X310730541Y-273316900D02*
X310659112Y-273245471D01*
X310659112Y-273245471D02*
X310587684Y-273102614D01*
X310587684Y-273102614D02*
X310587684Y-272674042D01*
X310587684Y-272674042D02*
X310659112Y-272531185D01*
X310659112Y-272531185D02*
X310730541Y-272459757D01*
X310730541Y-272459757D02*
X310873398Y-272388328D01*
X310873398Y-272388328D02*
X311159112Y-272388328D01*
X311159112Y-272388328D02*
X311301970Y-272459757D01*
X311944826Y-273388328D02*
X311944826Y-272388328D01*
X311944826Y-271888328D02*
X311873398Y-271959757D01*
X311873398Y-271959757D02*
X311944826Y-272031185D01*
X311944826Y-272031185D02*
X312016255Y-271959757D01*
X312016255Y-271959757D02*
X311944826Y-271888328D01*
X311944826Y-271888328D02*
X311944826Y-272031185D01*
X312659112Y-272388328D02*
X312659112Y-273888328D01*
X312659112Y-272459757D02*
X312801970Y-272388328D01*
X312801970Y-272388328D02*
X313087684Y-272388328D01*
X313087684Y-272388328D02*
X313230541Y-272459757D01*
X313230541Y-272459757D02*
X313301970Y-272531185D01*
X313301970Y-272531185D02*
X313373398Y-272674042D01*
X313373398Y-272674042D02*
X313373398Y-273102614D01*
X313373398Y-273102614D02*
X313301970Y-273245471D01*
X313301970Y-273245471D02*
X313230541Y-273316900D01*
X313230541Y-273316900D02*
X313087684Y-273388328D01*
X313087684Y-273388328D02*
X312801970Y-273388328D01*
X312801970Y-273388328D02*
X312659112Y-273316900D01*
X314230541Y-273388328D02*
X314087684Y-273316900D01*
X314087684Y-273316900D02*
X314016255Y-273174042D01*
X314016255Y-273174042D02*
X314016255Y-271888328D01*
X314801969Y-273388328D02*
X314801969Y-272388328D01*
X314801969Y-271888328D02*
X314730541Y-271959757D01*
X314730541Y-271959757D02*
X314801969Y-272031185D01*
X314801969Y-272031185D02*
X314873398Y-271959757D01*
X314873398Y-271959757D02*
X314801969Y-271888328D01*
X314801969Y-271888328D02*
X314801969Y-272031185D01*
X315516255Y-272388328D02*
X315516255Y-273388328D01*
X315516255Y-272531185D02*
X315587684Y-272459757D01*
X315587684Y-272459757D02*
X315730541Y-272388328D01*
X315730541Y-272388328D02*
X315944827Y-272388328D01*
X315944827Y-272388328D02*
X316087684Y-272459757D01*
X316087684Y-272459757D02*
X316159113Y-272602614D01*
X316159113Y-272602614D02*
X316159113Y-273388328D01*
X317444827Y-273316900D02*
X317301970Y-273388328D01*
X317301970Y-273388328D02*
X317016256Y-273388328D01*
X317016256Y-273388328D02*
X316873398Y-273316900D01*
X316873398Y-273316900D02*
X316801970Y-273174042D01*
X316801970Y-273174042D02*
X316801970Y-272602614D01*
X316801970Y-272602614D02*
X316873398Y-272459757D01*
X316873398Y-272459757D02*
X317016256Y-272388328D01*
X317016256Y-272388328D02*
X317301970Y-272388328D01*
X317301970Y-272388328D02*
X317444827Y-272459757D01*
X317444827Y-272459757D02*
X317516256Y-272602614D01*
X317516256Y-272602614D02*
X317516256Y-272745471D01*
X317516256Y-272745471D02*
X316801970Y-272888328D01*
X318159112Y-272816900D02*
X319301970Y-272816900D01*
X320016255Y-272388328D02*
X320016255Y-273888328D01*
X320016255Y-272459757D02*
X320159113Y-272388328D01*
X320159113Y-272388328D02*
X320444827Y-272388328D01*
X320444827Y-272388328D02*
X320587684Y-272459757D01*
X320587684Y-272459757D02*
X320659113Y-272531185D01*
X320659113Y-272531185D02*
X320730541Y-272674042D01*
X320730541Y-272674042D02*
X320730541Y-273102614D01*
X320730541Y-273102614D02*
X320659113Y-273245471D01*
X320659113Y-273245471D02*
X320587684Y-273316900D01*
X320587684Y-273316900D02*
X320444827Y-273388328D01*
X320444827Y-273388328D02*
X320159113Y-273388328D01*
X320159113Y-273388328D02*
X320016255Y-273316900D01*
X322016256Y-273316900D02*
X321873398Y-273388328D01*
X321873398Y-273388328D02*
X321587684Y-273388328D01*
X321587684Y-273388328D02*
X321444827Y-273316900D01*
X321444827Y-273316900D02*
X321373398Y-273245471D01*
X321373398Y-273245471D02*
X321301970Y-273102614D01*
X321301970Y-273102614D02*
X321301970Y-272674042D01*
X321301970Y-272674042D02*
X321373398Y-272531185D01*
X321373398Y-272531185D02*
X321444827Y-272459757D01*
X321444827Y-272459757D02*
X321587684Y-272388328D01*
X321587684Y-272388328D02*
X321873398Y-272388328D01*
X321873398Y-272388328D02*
X322016256Y-272459757D01*
X322659112Y-273388328D02*
X322659112Y-271888328D01*
X322659112Y-272459757D02*
X322801970Y-272388328D01*
X322801970Y-272388328D02*
X323087684Y-272388328D01*
X323087684Y-272388328D02*
X323230541Y-272459757D01*
X323230541Y-272459757D02*
X323301970Y-272531185D01*
X323301970Y-272531185D02*
X323373398Y-272674042D01*
X323373398Y-272674042D02*
X323373398Y-273102614D01*
X323373398Y-273102614D02*
X323301970Y-273245471D01*
X323301970Y-273245471D02*
X323230541Y-273316900D01*
X323230541Y-273316900D02*
X323087684Y-273388328D01*
X323087684Y-273388328D02*
X322801970Y-273388328D01*
X322801970Y-273388328D02*
X322659112Y-273316900D01*
X324016255Y-273245471D02*
X324087684Y-273316900D01*
X324087684Y-273316900D02*
X324016255Y-273388328D01*
X324016255Y-273388328D02*
X323944827Y-273316900D01*
X323944827Y-273316900D02*
X324016255Y-273245471D01*
X324016255Y-273245471D02*
X324016255Y-273388328D01*
X324730541Y-273388328D02*
X324730541Y-271888328D01*
X324873399Y-272816900D02*
X325301970Y-273388328D01*
X325301970Y-272388328D02*
X324730541Y-272959757D01*
X325944827Y-273388328D02*
X325944827Y-272388328D01*
X325944827Y-271888328D02*
X325873399Y-271959757D01*
X325873399Y-271959757D02*
X325944827Y-272031185D01*
X325944827Y-272031185D02*
X326016256Y-271959757D01*
X326016256Y-271959757D02*
X325944827Y-271888328D01*
X325944827Y-271888328D02*
X325944827Y-272031185D01*
X327301971Y-273316900D02*
X327159113Y-273388328D01*
X327159113Y-273388328D02*
X326873399Y-273388328D01*
X326873399Y-273388328D02*
X326730542Y-273316900D01*
X326730542Y-273316900D02*
X326659113Y-273245471D01*
X326659113Y-273245471D02*
X326587685Y-273102614D01*
X326587685Y-273102614D02*
X326587685Y-272674042D01*
X326587685Y-272674042D02*
X326659113Y-272531185D01*
X326659113Y-272531185D02*
X326730542Y-272459757D01*
X326730542Y-272459757D02*
X326873399Y-272388328D01*
X326873399Y-272388328D02*
X327159113Y-272388328D01*
X327159113Y-272388328D02*
X327301971Y-272459757D01*
X328587685Y-273388328D02*
X328587685Y-272602614D01*
X328587685Y-272602614D02*
X328516256Y-272459757D01*
X328516256Y-272459757D02*
X328373399Y-272388328D01*
X328373399Y-272388328D02*
X328087685Y-272388328D01*
X328087685Y-272388328D02*
X327944827Y-272459757D01*
X328587685Y-273316900D02*
X328444827Y-273388328D01*
X328444827Y-273388328D02*
X328087685Y-273388328D01*
X328087685Y-273388328D02*
X327944827Y-273316900D01*
X327944827Y-273316900D02*
X327873399Y-273174042D01*
X327873399Y-273174042D02*
X327873399Y-273031185D01*
X327873399Y-273031185D02*
X327944827Y-272888328D01*
X327944827Y-272888328D02*
X328087685Y-272816900D01*
X328087685Y-272816900D02*
X328444827Y-272816900D01*
X328444827Y-272816900D02*
X328587685Y-272745471D01*
X329944828Y-273388328D02*
X329944828Y-271888328D01*
X329944828Y-273316900D02*
X329801970Y-273388328D01*
X329801970Y-273388328D02*
X329516256Y-273388328D01*
X329516256Y-273388328D02*
X329373399Y-273316900D01*
X329373399Y-273316900D02*
X329301970Y-273245471D01*
X329301970Y-273245471D02*
X329230542Y-273102614D01*
X329230542Y-273102614D02*
X329230542Y-272674042D01*
X329230542Y-272674042D02*
X329301970Y-272531185D01*
X329301970Y-272531185D02*
X329373399Y-272459757D01*
X329373399Y-272459757D02*
X329516256Y-272388328D01*
X329516256Y-272388328D02*
X329801970Y-272388328D01*
X329801970Y-272388328D02*
X329944828Y-272459757D01*
X330301971Y-273531185D02*
X331444828Y-273531185D01*
X331801970Y-272388328D02*
X331801970Y-273888328D01*
X331801970Y-272459757D02*
X331944828Y-272388328D01*
X331944828Y-272388328D02*
X332230542Y-272388328D01*
X332230542Y-272388328D02*
X332373399Y-272459757D01*
X332373399Y-272459757D02*
X332444828Y-272531185D01*
X332444828Y-272531185D02*
X332516256Y-272674042D01*
X332516256Y-272674042D02*
X332516256Y-273102614D01*
X332516256Y-273102614D02*
X332444828Y-273245471D01*
X332444828Y-273245471D02*
X332373399Y-273316900D01*
X332373399Y-273316900D02*
X332230542Y-273388328D01*
X332230542Y-273388328D02*
X331944828Y-273388328D01*
X331944828Y-273388328D02*
X331801970Y-273316900D01*
X333801971Y-273316900D02*
X333659113Y-273388328D01*
X333659113Y-273388328D02*
X333373399Y-273388328D01*
X333373399Y-273388328D02*
X333230542Y-273316900D01*
X333230542Y-273316900D02*
X333159113Y-273245471D01*
X333159113Y-273245471D02*
X333087685Y-273102614D01*
X333087685Y-273102614D02*
X333087685Y-272674042D01*
X333087685Y-272674042D02*
X333159113Y-272531185D01*
X333159113Y-272531185D02*
X333230542Y-272459757D01*
X333230542Y-272459757D02*
X333373399Y-272388328D01*
X333373399Y-272388328D02*
X333659113Y-272388328D01*
X333659113Y-272388328D02*
X333801971Y-272459757D01*
X334444827Y-273388328D02*
X334444827Y-271888328D01*
X334444827Y-272459757D02*
X334587685Y-272388328D01*
X334587685Y-272388328D02*
X334873399Y-272388328D01*
X334873399Y-272388328D02*
X335016256Y-272459757D01*
X335016256Y-272459757D02*
X335087685Y-272531185D01*
X335087685Y-272531185D02*
X335159113Y-272674042D01*
X335159113Y-272674042D02*
X335159113Y-273102614D01*
X335159113Y-273102614D02*
X335087685Y-273245471D01*
X335087685Y-273245471D02*
X335016256Y-273316900D01*
X335016256Y-273316900D02*
X334873399Y-273388328D01*
X334873399Y-273388328D02*
X334587685Y-273388328D01*
X334587685Y-273388328D02*
X334444827Y-273316900D01*
D10*
D11*
X299989000Y-268502200D02*
X407989000Y-268502200D01*
D10*
D11*
X301373398Y-270616900D02*
X301587684Y-270688328D01*
X301587684Y-270688328D02*
X301944826Y-270688328D01*
X301944826Y-270688328D02*
X302087684Y-270616900D01*
X302087684Y-270616900D02*
X302159112Y-270545471D01*
X302159112Y-270545471D02*
X302230541Y-270402614D01*
X302230541Y-270402614D02*
X302230541Y-270259757D01*
X302230541Y-270259757D02*
X302159112Y-270116900D01*
X302159112Y-270116900D02*
X302087684Y-270045471D01*
X302087684Y-270045471D02*
X301944826Y-269974042D01*
X301944826Y-269974042D02*
X301659112Y-269902614D01*
X301659112Y-269902614D02*
X301516255Y-269831185D01*
X301516255Y-269831185D02*
X301444826Y-269759757D01*
X301444826Y-269759757D02*
X301373398Y-269616900D01*
X301373398Y-269616900D02*
X301373398Y-269474042D01*
X301373398Y-269474042D02*
X301444826Y-269331185D01*
X301444826Y-269331185D02*
X301516255Y-269259757D01*
X301516255Y-269259757D02*
X301659112Y-269188328D01*
X301659112Y-269188328D02*
X302016255Y-269188328D01*
X302016255Y-269188328D02*
X302230541Y-269259757D01*
X302873397Y-270688328D02*
X302873397Y-269188328D01*
X303516255Y-270688328D02*
X303516255Y-269902614D01*
X303516255Y-269902614D02*
X303444826Y-269759757D01*
X303444826Y-269759757D02*
X303301969Y-269688328D01*
X303301969Y-269688328D02*
X303087683Y-269688328D01*
X303087683Y-269688328D02*
X302944826Y-269759757D01*
X302944826Y-269759757D02*
X302873397Y-269831185D01*
X304801969Y-270616900D02*
X304659112Y-270688328D01*
X304659112Y-270688328D02*
X304373398Y-270688328D01*
X304373398Y-270688328D02*
X304230540Y-270616900D01*
X304230540Y-270616900D02*
X304159112Y-270474042D01*
X304159112Y-270474042D02*
X304159112Y-269902614D01*
X304159112Y-269902614D02*
X304230540Y-269759757D01*
X304230540Y-269759757D02*
X304373398Y-269688328D01*
X304373398Y-269688328D02*
X304659112Y-269688328D01*
X304659112Y-269688328D02*
X304801969Y-269759757D01*
X304801969Y-269759757D02*
X304873398Y-269902614D01*
X304873398Y-269902614D02*
X304873398Y-270045471D01*
X304873398Y-270045471D02*
X304159112Y-270188328D01*
X306087683Y-270616900D02*
X305944826Y-270688328D01*
X305944826Y-270688328D02*
X305659112Y-270688328D01*
X305659112Y-270688328D02*
X305516254Y-270616900D01*
X305516254Y-270616900D02*
X305444826Y-270474042D01*
X305444826Y-270474042D02*
X305444826Y-269902614D01*
X305444826Y-269902614D02*
X305516254Y-269759757D01*
X305516254Y-269759757D02*
X305659112Y-269688328D01*
X305659112Y-269688328D02*
X305944826Y-269688328D01*
X305944826Y-269688328D02*
X306087683Y-269759757D01*
X306087683Y-269759757D02*
X306159112Y-269902614D01*
X306159112Y-269902614D02*
X306159112Y-270045471D01*
X306159112Y-270045471D02*
X305444826Y-270188328D01*
X306587683Y-269688328D02*
X307159111Y-269688328D01*
X306801968Y-269188328D02*
X306801968Y-270474042D01*
X306801968Y-270474042D02*
X306873397Y-270616900D01*
X306873397Y-270616900D02*
X307016254Y-270688328D01*
X307016254Y-270688328D02*
X307159111Y-270688328D01*
X307659111Y-270545471D02*
X307730540Y-270616900D01*
X307730540Y-270616900D02*
X307659111Y-270688328D01*
X307659111Y-270688328D02*
X307587683Y-270616900D01*
X307587683Y-270616900D02*
X307659111Y-270545471D01*
X307659111Y-270545471D02*
X307659111Y-270688328D01*
X307659111Y-269759757D02*
X307730540Y-269831185D01*
X307730540Y-269831185D02*
X307659111Y-269902614D01*
X307659111Y-269902614D02*
X307587683Y-269831185D01*
X307587683Y-269831185D02*
X307659111Y-269759757D01*
X307659111Y-269759757D02*
X307659111Y-269902614D01*
D10*
D12*
D10*
D11*
D10*
D11*
D10*
D11*
D10*
D11*
D10*
D11*
X319989000Y-278502200D02*
X319989000Y-281502200D01*
D10*
D11*
X383989000Y-278502200D02*
X383989000Y-285002200D01*
X63962579Y-73584524D02*
X63162579Y-73584524D01*
X63162579Y-73584524D02*
X63162579Y-73775000D01*
X63162579Y-73775000D02*
X63200674Y-73889286D01*
X63200674Y-73889286D02*
X63276864Y-73965476D01*
X63276864Y-73965476D02*
X63353055Y-74003571D01*
X63353055Y-74003571D02*
X63505436Y-74041667D01*
X63505436Y-74041667D02*
X63619722Y-74041667D01*
X63619722Y-74041667D02*
X63772103Y-74003571D01*
X63772103Y-74003571D02*
X63848293Y-73965476D01*
X63848293Y-73965476D02*
X63924484Y-73889286D01*
X63924484Y-73889286D02*
X63962579Y-73775000D01*
X63962579Y-73775000D02*
X63962579Y-73584524D01*
X63962579Y-74803571D02*
X63962579Y-74346428D01*
X63962579Y-74575000D02*
X63162579Y-74575000D01*
X63162579Y-74575000D02*
X63276864Y-74498809D01*
X63276864Y-74498809D02*
X63353055Y-74422619D01*
X63353055Y-74422619D02*
X63391150Y-74346428D01*
X66910295Y-75235571D02*
X66110295Y-75235571D01*
X66110295Y-75235571D02*
X66110295Y-75426047D01*
X66110295Y-75426047D02*
X66148390Y-75540333D01*
X66148390Y-75540333D02*
X66224580Y-75616523D01*
X66224580Y-75616523D02*
X66300771Y-75654618D01*
X66300771Y-75654618D02*
X66453152Y-75692714D01*
X66453152Y-75692714D02*
X66567438Y-75692714D01*
X66567438Y-75692714D02*
X66719819Y-75654618D01*
X66719819Y-75654618D02*
X66796009Y-75616523D01*
X66796009Y-75616523D02*
X66872200Y-75540333D01*
X66872200Y-75540333D02*
X66910295Y-75426047D01*
X66910295Y-75426047D02*
X66910295Y-75235571D01*
X66910295Y-76454618D02*
X66910295Y-75997475D01*
X66910295Y-76226047D02*
X66110295Y-76226047D01*
X66110295Y-76226047D02*
X66224580Y-76149856D01*
X66224580Y-76149856D02*
X66300771Y-76073666D01*
X66300771Y-76073666D02*
X66338866Y-75997475D01*
X66110295Y-77140333D02*
X66110295Y-76987952D01*
X66110295Y-76987952D02*
X66148390Y-76911761D01*
X66148390Y-76911761D02*
X66186485Y-76873666D01*
X66186485Y-76873666D02*
X66300771Y-76797476D01*
X66300771Y-76797476D02*
X66453152Y-76759380D01*
X66453152Y-76759380D02*
X66757914Y-76759380D01*
X66757914Y-76759380D02*
X66834104Y-76797476D01*
X66834104Y-76797476D02*
X66872200Y-76835571D01*
X66872200Y-76835571D02*
X66910295Y-76911761D01*
X66910295Y-76911761D02*
X66910295Y-77064142D01*
X66910295Y-77064142D02*
X66872200Y-77140333D01*
X66872200Y-77140333D02*
X66834104Y-77178428D01*
X66834104Y-77178428D02*
X66757914Y-77216523D01*
X66757914Y-77216523D02*
X66567438Y-77216523D01*
X66567438Y-77216523D02*
X66491247Y-77178428D01*
X66491247Y-77178428D02*
X66453152Y-77140333D01*
X66453152Y-77140333D02*
X66415057Y-77064142D01*
X66415057Y-77064142D02*
X66415057Y-76911761D01*
X66415057Y-76911761D02*
X66453152Y-76835571D01*
X66453152Y-76835571D02*
X66491247Y-76797476D01*
X66491247Y-76797476D02*
X66567438Y-76759380D01*
X69450295Y-75204071D02*
X68650295Y-75204071D01*
X68650295Y-75204071D02*
X68650295Y-75394547D01*
X68650295Y-75394547D02*
X68688390Y-75508833D01*
X68688390Y-75508833D02*
X68764580Y-75585023D01*
X68764580Y-75585023D02*
X68840771Y-75623118D01*
X68840771Y-75623118D02*
X68993152Y-75661214D01*
X68993152Y-75661214D02*
X69107438Y-75661214D01*
X69107438Y-75661214D02*
X69259819Y-75623118D01*
X69259819Y-75623118D02*
X69336009Y-75585023D01*
X69336009Y-75585023D02*
X69412200Y-75508833D01*
X69412200Y-75508833D02*
X69450295Y-75394547D01*
X69450295Y-75394547D02*
X69450295Y-75204071D01*
X68650295Y-75927880D02*
X68650295Y-76423118D01*
X68650295Y-76423118D02*
X68955057Y-76156452D01*
X68955057Y-76156452D02*
X68955057Y-76270737D01*
X68955057Y-76270737D02*
X68993152Y-76346928D01*
X68993152Y-76346928D02*
X69031247Y-76385023D01*
X69031247Y-76385023D02*
X69107438Y-76423118D01*
X69107438Y-76423118D02*
X69297914Y-76423118D01*
X69297914Y-76423118D02*
X69374104Y-76385023D01*
X69374104Y-76385023D02*
X69412200Y-76346928D01*
X69412200Y-76346928D02*
X69450295Y-76270737D01*
X69450295Y-76270737D02*
X69450295Y-76042166D01*
X69450295Y-76042166D02*
X69412200Y-75965975D01*
X69412200Y-75965975D02*
X69374104Y-75927880D01*
X69450295Y-77185023D02*
X69450295Y-76727880D01*
X69450295Y-76956452D02*
X68650295Y-76956452D01*
X68650295Y-76956452D02*
X68764580Y-76880261D01*
X68764580Y-76880261D02*
X68840771Y-76804071D01*
X68840771Y-76804071D02*
X68878866Y-76727880D01*
X77070295Y-76861071D02*
X76270295Y-76861071D01*
X76270295Y-76861071D02*
X76270295Y-77051547D01*
X76270295Y-77051547D02*
X76308390Y-77165833D01*
X76308390Y-77165833D02*
X76384580Y-77242023D01*
X76384580Y-77242023D02*
X76460771Y-77280118D01*
X76460771Y-77280118D02*
X76613152Y-77318214D01*
X76613152Y-77318214D02*
X76727438Y-77318214D01*
X76727438Y-77318214D02*
X76879819Y-77280118D01*
X76879819Y-77280118D02*
X76956009Y-77242023D01*
X76956009Y-77242023D02*
X77032200Y-77165833D01*
X77032200Y-77165833D02*
X77070295Y-77051547D01*
X77070295Y-77051547D02*
X77070295Y-76861071D01*
X76270295Y-77584880D02*
X76270295Y-78080118D01*
X76270295Y-78080118D02*
X76575057Y-77813452D01*
X76575057Y-77813452D02*
X76575057Y-77927737D01*
X76575057Y-77927737D02*
X76613152Y-78003928D01*
X76613152Y-78003928D02*
X76651247Y-78042023D01*
X76651247Y-78042023D02*
X76727438Y-78080118D01*
X76727438Y-78080118D02*
X76917914Y-78080118D01*
X76917914Y-78080118D02*
X76994104Y-78042023D01*
X76994104Y-78042023D02*
X77032200Y-78003928D01*
X77032200Y-78003928D02*
X77070295Y-77927737D01*
X77070295Y-77927737D02*
X77070295Y-77699166D01*
X77070295Y-77699166D02*
X77032200Y-77622975D01*
X77032200Y-77622975D02*
X76994104Y-77584880D01*
X76346485Y-78384880D02*
X76308390Y-78422976D01*
X76308390Y-78422976D02*
X76270295Y-78499166D01*
X76270295Y-78499166D02*
X76270295Y-78689642D01*
X76270295Y-78689642D02*
X76308390Y-78765833D01*
X76308390Y-78765833D02*
X76346485Y-78803928D01*
X76346485Y-78803928D02*
X76422676Y-78842023D01*
X76422676Y-78842023D02*
X76498866Y-78842023D01*
X76498866Y-78842023D02*
X76613152Y-78803928D01*
X76613152Y-78803928D02*
X77070295Y-78346785D01*
X77070295Y-78346785D02*
X77070295Y-78842023D01*
X71990295Y-75235571D02*
X71190295Y-75235571D01*
X71190295Y-75235571D02*
X71190295Y-75426047D01*
X71190295Y-75426047D02*
X71228390Y-75540333D01*
X71228390Y-75540333D02*
X71304580Y-75616523D01*
X71304580Y-75616523D02*
X71380771Y-75654618D01*
X71380771Y-75654618D02*
X71533152Y-75692714D01*
X71533152Y-75692714D02*
X71647438Y-75692714D01*
X71647438Y-75692714D02*
X71799819Y-75654618D01*
X71799819Y-75654618D02*
X71876009Y-75616523D01*
X71876009Y-75616523D02*
X71952200Y-75540333D01*
X71952200Y-75540333D02*
X71990295Y-75426047D01*
X71990295Y-75426047D02*
X71990295Y-75235571D01*
X71456961Y-76378428D02*
X71990295Y-76378428D01*
X71152200Y-76187952D02*
X71723628Y-75997475D01*
X71723628Y-75997475D02*
X71723628Y-76492714D01*
X71190295Y-77178428D02*
X71190295Y-76797476D01*
X71190295Y-76797476D02*
X71571247Y-76759380D01*
X71571247Y-76759380D02*
X71533152Y-76797476D01*
X71533152Y-76797476D02*
X71495057Y-76873666D01*
X71495057Y-76873666D02*
X71495057Y-77064142D01*
X71495057Y-77064142D02*
X71533152Y-77140333D01*
X71533152Y-77140333D02*
X71571247Y-77178428D01*
X71571247Y-77178428D02*
X71647438Y-77216523D01*
X71647438Y-77216523D02*
X71837914Y-77216523D01*
X71837914Y-77216523D02*
X71914104Y-77178428D01*
X71914104Y-77178428D02*
X71952200Y-77140333D01*
X71952200Y-77140333D02*
X71990295Y-77064142D01*
X71990295Y-77064142D02*
X71990295Y-76873666D01*
X71990295Y-76873666D02*
X71952200Y-76797476D01*
X71952200Y-76797476D02*
X71914104Y-76759380D01*
X74530295Y-76861071D02*
X73730295Y-76861071D01*
X73730295Y-76861071D02*
X73730295Y-77051547D01*
X73730295Y-77051547D02*
X73768390Y-77165833D01*
X73768390Y-77165833D02*
X73844580Y-77242023D01*
X73844580Y-77242023D02*
X73920771Y-77280118D01*
X73920771Y-77280118D02*
X74073152Y-77318214D01*
X74073152Y-77318214D02*
X74187438Y-77318214D01*
X74187438Y-77318214D02*
X74339819Y-77280118D01*
X74339819Y-77280118D02*
X74416009Y-77242023D01*
X74416009Y-77242023D02*
X74492200Y-77165833D01*
X74492200Y-77165833D02*
X74530295Y-77051547D01*
X74530295Y-77051547D02*
X74530295Y-76861071D01*
X73730295Y-78003928D02*
X73730295Y-77851547D01*
X73730295Y-77851547D02*
X73768390Y-77775356D01*
X73768390Y-77775356D02*
X73806485Y-77737261D01*
X73806485Y-77737261D02*
X73920771Y-77661071D01*
X73920771Y-77661071D02*
X74073152Y-77622975D01*
X74073152Y-77622975D02*
X74377914Y-77622975D01*
X74377914Y-77622975D02*
X74454104Y-77661071D01*
X74454104Y-77661071D02*
X74492200Y-77699166D01*
X74492200Y-77699166D02*
X74530295Y-77775356D01*
X74530295Y-77775356D02*
X74530295Y-77927737D01*
X74530295Y-77927737D02*
X74492200Y-78003928D01*
X74492200Y-78003928D02*
X74454104Y-78042023D01*
X74454104Y-78042023D02*
X74377914Y-78080118D01*
X74377914Y-78080118D02*
X74187438Y-78080118D01*
X74187438Y-78080118D02*
X74111247Y-78042023D01*
X74111247Y-78042023D02*
X74073152Y-78003928D01*
X74073152Y-78003928D02*
X74035057Y-77927737D01*
X74035057Y-77927737D02*
X74035057Y-77775356D01*
X74035057Y-77775356D02*
X74073152Y-77699166D01*
X74073152Y-77699166D02*
X74111247Y-77661071D01*
X74111247Y-77661071D02*
X74187438Y-77622975D01*
X73730295Y-78575357D02*
X73730295Y-78651547D01*
X73730295Y-78651547D02*
X73768390Y-78727738D01*
X73768390Y-78727738D02*
X73806485Y-78765833D01*
X73806485Y-78765833D02*
X73882676Y-78803928D01*
X73882676Y-78803928D02*
X74035057Y-78842023D01*
X74035057Y-78842023D02*
X74225533Y-78842023D01*
X74225533Y-78842023D02*
X74377914Y-78803928D01*
X74377914Y-78803928D02*
X74454104Y-78765833D01*
X74454104Y-78765833D02*
X74492200Y-78727738D01*
X74492200Y-78727738D02*
X74530295Y-78651547D01*
X74530295Y-78651547D02*
X74530295Y-78575357D01*
X74530295Y-78575357D02*
X74492200Y-78499166D01*
X74492200Y-78499166D02*
X74454104Y-78461071D01*
X74454104Y-78461071D02*
X74377914Y-78422976D01*
X74377914Y-78422976D02*
X74225533Y-78384880D01*
X74225533Y-78384880D02*
X74035057Y-78384880D01*
X74035057Y-78384880D02*
X73882676Y-78422976D01*
X73882676Y-78422976D02*
X73806485Y-78461071D01*
X73806485Y-78461071D02*
X73768390Y-78499166D01*
X73768390Y-78499166D02*
X73730295Y-78575357D01*
X324105880Y-69084078D02*
X324153499Y-69131698D01*
X324153499Y-69131698D02*
X324296356Y-69179317D01*
X324296356Y-69179317D02*
X324391594Y-69179317D01*
X324391594Y-69179317D02*
X324534451Y-69131698D01*
X324534451Y-69131698D02*
X324629689Y-69036459D01*
X324629689Y-69036459D02*
X324677308Y-68941221D01*
X324677308Y-68941221D02*
X324724927Y-68750745D01*
X324724927Y-68750745D02*
X324724927Y-68607888D01*
X324724927Y-68607888D02*
X324677308Y-68417412D01*
X324677308Y-68417412D02*
X324629689Y-68322174D01*
X324629689Y-68322174D02*
X324534451Y-68226936D01*
X324534451Y-68226936D02*
X324391594Y-68179317D01*
X324391594Y-68179317D02*
X324296356Y-68179317D01*
X324296356Y-68179317D02*
X324153499Y-68226936D01*
X324153499Y-68226936D02*
X324105880Y-68274555D01*
X323248737Y-68512650D02*
X323248737Y-69179317D01*
X323486832Y-68131698D02*
X323724927Y-68845983D01*
X323724927Y-68845983D02*
X323105880Y-68845983D01*
X325322194Y-66168494D02*
X325226956Y-66168494D01*
X325226956Y-66168494D02*
X325131718Y-66216113D01*
X325131718Y-66216113D02*
X325084099Y-66263732D01*
X325084099Y-66263732D02*
X325036480Y-66358970D01*
X325036480Y-66358970D02*
X324988861Y-66549446D01*
X324988861Y-66549446D02*
X324988861Y-66787541D01*
X324988861Y-66787541D02*
X325036480Y-66978017D01*
X325036480Y-66978017D02*
X325084099Y-67073255D01*
X325084099Y-67073255D02*
X325131718Y-67120875D01*
X325131718Y-67120875D02*
X325226956Y-67168494D01*
X325226956Y-67168494D02*
X325322194Y-67168494D01*
X325322194Y-67168494D02*
X325417432Y-67120875D01*
X325417432Y-67120875D02*
X325465051Y-67073255D01*
X325465051Y-67073255D02*
X325512670Y-66978017D01*
X325512670Y-66978017D02*
X325560289Y-66787541D01*
X325560289Y-66787541D02*
X325560289Y-66549446D01*
X325560289Y-66549446D02*
X325512670Y-66358970D01*
X325512670Y-66358970D02*
X325465051Y-66263732D01*
X325465051Y-66263732D02*
X325417432Y-66216113D01*
X325417432Y-66216113D02*
X325322194Y-66168494D01*
X324560289Y-67073255D02*
X324512670Y-67120875D01*
X324512670Y-67120875D02*
X324560289Y-67168494D01*
X324560289Y-67168494D02*
X324607908Y-67120875D01*
X324607908Y-67120875D02*
X324560289Y-67073255D01*
X324560289Y-67073255D02*
X324560289Y-67168494D01*
X323560290Y-67168494D02*
X324131718Y-67168494D01*
X323846004Y-67168494D02*
X323846004Y-66168494D01*
X323846004Y-66168494D02*
X323941242Y-66311351D01*
X323941242Y-66311351D02*
X324036480Y-66406589D01*
X324036480Y-66406589D02*
X324131718Y-66454208D01*
X322703147Y-66501827D02*
X322703147Y-67168494D01*
X323131718Y-66501827D02*
X323131718Y-67025636D01*
X323131718Y-67025636D02*
X323084099Y-67120875D01*
X323084099Y-67120875D02*
X322988861Y-67168494D01*
X322988861Y-67168494D02*
X322846004Y-67168494D01*
X322846004Y-67168494D02*
X322750766Y-67120875D01*
X322750766Y-67120875D02*
X322703147Y-67073255D01*
X61449295Y-73172071D02*
X60649295Y-73172071D01*
X60649295Y-73172071D02*
X60649295Y-73362547D01*
X60649295Y-73362547D02*
X60687390Y-73476833D01*
X60687390Y-73476833D02*
X60763580Y-73553023D01*
X60763580Y-73553023D02*
X60839771Y-73591118D01*
X60839771Y-73591118D02*
X60992152Y-73629214D01*
X60992152Y-73629214D02*
X61106438Y-73629214D01*
X61106438Y-73629214D02*
X61258819Y-73591118D01*
X61258819Y-73591118D02*
X61335009Y-73553023D01*
X61335009Y-73553023D02*
X61411200Y-73476833D01*
X61411200Y-73476833D02*
X61449295Y-73362547D01*
X61449295Y-73362547D02*
X61449295Y-73172071D01*
X60649295Y-73895880D02*
X60649295Y-74429214D01*
X60649295Y-74429214D02*
X61449295Y-74086356D01*
X61449295Y-75153023D02*
X61449295Y-74695880D01*
X61449295Y-74924452D02*
X60649295Y-74924452D01*
X60649295Y-74924452D02*
X60763580Y-74848261D01*
X60763580Y-74848261D02*
X60839771Y-74772071D01*
X60839771Y-74772071D02*
X60877866Y-74695880D01*
D14*
X63590284Y-67475000D02*
X63590284Y-68755000D01*
X64600284Y-67735000D02*
X62600284Y-67735000D01*
X62600284Y-67735000D02*
X62610284Y-70725000D01*
X64600284Y-67745000D02*
X64600284Y-70715000D01*
X64130284Y-68765000D02*
X63050284Y-68765000D01*
X63590284Y-68865000D02*
X63050284Y-69815000D01*
X63600284Y-68875000D02*
X64130284Y-69785000D01*
X64130284Y-69815000D02*
X63050284Y-69815000D01*
X64600284Y-70725000D02*
X62610284Y-70725000D01*
X63590284Y-70935000D02*
X63590284Y-69815000D01*
X66538000Y-69507000D02*
X66538000Y-70787000D01*
X67548000Y-69767000D02*
X65548000Y-69767000D01*
X65548000Y-69767000D02*
X65558000Y-72757000D01*
X67548000Y-69777000D02*
X67548000Y-72747000D01*
X67078000Y-70797000D02*
X65998000Y-70797000D01*
X66538000Y-70897000D02*
X65998000Y-71847000D01*
X66548000Y-70907000D02*
X67078000Y-71817000D01*
X67078000Y-71847000D02*
X65998000Y-71847000D01*
X67548000Y-72757000D02*
X65558000Y-72757000D01*
X66538000Y-72967000D02*
X66538000Y-71847000D01*
X69078000Y-69475500D02*
X69078000Y-70755500D01*
X70088000Y-69735500D02*
X68088000Y-69735500D01*
X68088000Y-69735500D02*
X68098000Y-72725500D01*
X70088000Y-69745500D02*
X70088000Y-72715500D01*
X69618000Y-70765500D02*
X68538000Y-70765500D01*
X69078000Y-70865500D02*
X68538000Y-71815500D01*
X69088000Y-70875500D02*
X69618000Y-71785500D01*
X69618000Y-71815500D02*
X68538000Y-71815500D01*
X70088000Y-72725500D02*
X68098000Y-72725500D01*
X69078000Y-72935500D02*
X69078000Y-71815500D01*
X76698000Y-71132500D02*
X76698000Y-72412500D01*
X77708000Y-71392500D02*
X75708000Y-71392500D01*
X75708000Y-71392500D02*
X75718000Y-74382500D01*
X77708000Y-71402500D02*
X77708000Y-74372500D01*
X77238000Y-72422500D02*
X76158000Y-72422500D01*
X76698000Y-72522500D02*
X76158000Y-73472500D01*
X76708000Y-72532500D02*
X77238000Y-73442500D01*
X77238000Y-73472500D02*
X76158000Y-73472500D01*
X77708000Y-74382500D02*
X75718000Y-74382500D01*
X76698000Y-74592500D02*
X76698000Y-73472500D01*
X71618000Y-69507000D02*
X71618000Y-70787000D01*
X72628000Y-69767000D02*
X70628000Y-69767000D01*
X70628000Y-69767000D02*
X70638000Y-72757000D01*
X72628000Y-69777000D02*
X72628000Y-72747000D01*
X72158000Y-70797000D02*
X71078000Y-70797000D01*
X71618000Y-70897000D02*
X71078000Y-71847000D01*
X71628000Y-70907000D02*
X72158000Y-71817000D01*
X72158000Y-71847000D02*
X71078000Y-71847000D01*
X72628000Y-72757000D02*
X70638000Y-72757000D01*
X71618000Y-72967000D02*
X71618000Y-71847000D01*
X74158000Y-71132500D02*
X74158000Y-72412500D01*
X75168000Y-71392500D02*
X73168000Y-71392500D01*
X73168000Y-71392500D02*
X73178000Y-74382500D01*
X75168000Y-71402500D02*
X75168000Y-74372500D01*
X74698000Y-72422500D02*
X73618000Y-72422500D01*
X74158000Y-72522500D02*
X73618000Y-73472500D01*
X74168000Y-72532500D02*
X74698000Y-73442500D01*
X74698000Y-73472500D02*
X73618000Y-73472500D01*
X75168000Y-74382500D02*
X73178000Y-74382500D01*
X74158000Y-74592500D02*
X74158000Y-73472500D01*
X321667000Y-67637000D02*
X326207000Y-67637000D01*
X321667000Y-67652000D02*
X321667000Y-67637000D01*
X321667000Y-69777000D02*
X321667000Y-69762000D01*
X321667000Y-69777000D02*
X326207000Y-69777000D01*
X326207000Y-67652000D02*
X326207000Y-67637000D01*
X326207000Y-69777000D02*
X326207000Y-69762000D01*
X61077000Y-67443500D02*
X61077000Y-68723500D01*
X62087000Y-67703500D02*
X60087000Y-67703500D01*
X60087000Y-67703500D02*
X60097000Y-70693500D01*
X62087000Y-67713500D02*
X62087000Y-70683500D01*
X61617000Y-68733500D02*
X60537000Y-68733500D01*
X61077000Y-68833500D02*
X60537000Y-69783500D01*
X61087000Y-68843500D02*
X61617000Y-69753500D01*
X61617000Y-69783500D02*
X60537000Y-69783500D01*
X62087000Y-70693500D02*
X60097000Y-70693500D01*
X61077000Y-70903500D02*
X61077000Y-69783500D01*
%LPC*%
D15*
X98425000Y-61976000D02*
X223254308Y-61976000D01*
X98425000Y-64516000D02*
X223254308Y-64516000D01*
X98425000Y-59436000D02*
X223254308Y-59436000D01*
G36*
X158842419Y-169382905D02*
G01*
X158842419Y-169508979D01*
X158693189Y-169508979D01*
X158543959Y-169508979D01*
X158543959Y-169761126D01*
X158543959Y-170013274D01*
X158711200Y-170013274D01*
X158878441Y-170013274D01*
X158878441Y-170139347D01*
X158878441Y-170265421D01*
X158428177Y-170265421D01*
X157977914Y-170265421D01*
X157977914Y-170139347D01*
X157977914Y-170013274D01*
X158121998Y-170013274D01*
X158266082Y-170013274D01*
X158266082Y-169635052D01*
X158266082Y-169256831D01*
X158554251Y-169256831D01*
X158842419Y-169256831D01*
X158842419Y-169382905D01*
G37*
G36*
X154015596Y-169382905D02*
G01*
X154015596Y-169508979D01*
X153866366Y-169508979D01*
X153717136Y-169508979D01*
X153717136Y-169761126D01*
X153717136Y-170013274D01*
X153884377Y-170013274D01*
X154051617Y-170013274D01*
X154051617Y-170139347D01*
X154051617Y-170265421D01*
X153601354Y-170265421D01*
X153151090Y-170265421D01*
X153151090Y-170139347D01*
X153151090Y-170013274D01*
X153295175Y-170013274D01*
X153439259Y-170013274D01*
X153439259Y-169635052D01*
X153439259Y-169256831D01*
X153727428Y-169256831D01*
X154015596Y-169256831D01*
X154015596Y-169382905D01*
G37*
G36*
X151921228Y-169382905D02*
G01*
X151921228Y-169508979D01*
X151774571Y-169508979D01*
X151627914Y-169508979D01*
X151627914Y-169761126D01*
X151627914Y-170013274D01*
X151792582Y-170013274D01*
X151957249Y-170013274D01*
X151957249Y-170139347D01*
X151957249Y-170265421D01*
X151509559Y-170265421D01*
X151061868Y-170265421D01*
X151061868Y-170139347D01*
X151061868Y-170013274D01*
X151205953Y-170013274D01*
X151350037Y-170013274D01*
X151350037Y-169635052D01*
X151350037Y-169256831D01*
X151635633Y-169256831D01*
X151921228Y-169256831D01*
X151921228Y-169382905D01*
G37*
G36*
X156125402Y-169596458D02*
G01*
X156125402Y-170265421D01*
X155711159Y-170265421D01*
X155296917Y-170265421D01*
X155296917Y-170144493D01*
X155296917Y-170023565D01*
X155574794Y-170023565D01*
X155852671Y-170023565D01*
X155852671Y-169858898D01*
X155852671Y-169694230D01*
X155608242Y-169694230D01*
X155363813Y-169694230D01*
X155363813Y-169578448D01*
X155363813Y-169462666D01*
X155608242Y-169462666D01*
X155852671Y-169462666D01*
X155852671Y-169316009D01*
X155852671Y-169169351D01*
X155574794Y-169169351D01*
X155296917Y-169169351D01*
X155296917Y-169048423D01*
X155296917Y-168927496D01*
X155711159Y-168927496D01*
X156125402Y-168927496D01*
X156125402Y-169596458D01*
G37*
G36*
X147770524Y-169471041D02*
G01*
X147805768Y-169476760D01*
X147834484Y-169489235D01*
X147857897Y-169508915D01*
X147873450Y-169530992D01*
X147884461Y-169562375D01*
X147886320Y-169597798D01*
X147878939Y-169636731D01*
X147876822Y-169643126D01*
X147861536Y-169671098D01*
X147839069Y-169692773D01*
X147810945Y-169706587D01*
X147776592Y-169713166D01*
X147738827Y-169713472D01*
X147703697Y-169707235D01*
X147687934Y-169701074D01*
X147662685Y-169683406D01*
X147643449Y-169658937D01*
X147630969Y-169629140D01*
X147625987Y-169595488D01*
X147629245Y-169559454D01*
X147638877Y-169531028D01*
X147657038Y-169505258D01*
X147682472Y-169486339D01*
X147714658Y-169474644D01*
X147753076Y-169470547D01*
X147770524Y-169471041D01*
G37*
G36*
X153605880Y-168815293D02*
G01*
X153630665Y-168816709D01*
X153651201Y-168819215D01*
X153667037Y-168823223D01*
X153681115Y-168829282D01*
X153686725Y-168832255D01*
X153716764Y-168853023D01*
X153737969Y-168878079D01*
X153751165Y-168908691D01*
X153757177Y-168946129D01*
X153757600Y-168964532D01*
X153752445Y-169002559D01*
X153738813Y-169034759D01*
X153716765Y-169061048D01*
X153686363Y-169081345D01*
X153647667Y-169095564D01*
X153635068Y-169098017D01*
X153608850Y-169100260D01*
X153579510Y-169100040D01*
X153571285Y-169099488D01*
X153528641Y-169092076D01*
X153492983Y-169077638D01*
X153464678Y-169056523D01*
X153444099Y-169029081D01*
X153431613Y-168995661D01*
X153427592Y-168956612D01*
X153429296Y-168929200D01*
X153436363Y-168900257D01*
X153449979Y-168875705D01*
X153471295Y-168852814D01*
X153487685Y-168839607D01*
X153510494Y-168826696D01*
X153536273Y-168818764D01*
X153567307Y-168815175D01*
X153605880Y-168815293D01*
G37*
G36*
X158439896Y-168815622D02*
G01*
X158464058Y-168817276D01*
X158481817Y-168819951D01*
X158496269Y-168824260D01*
X158510511Y-168830820D01*
X158515448Y-168833479D01*
X158546014Y-168855529D01*
X158567693Y-168882727D01*
X158580640Y-168915329D01*
X158585013Y-168953595D01*
X158584834Y-168963458D01*
X158579109Y-169002361D01*
X158565285Y-169034928D01*
X158543289Y-169061256D01*
X158513049Y-169081437D01*
X158474490Y-169095564D01*
X158460291Y-169098418D01*
X158428647Y-169100771D01*
X158394786Y-169099213D01*
X158362724Y-169094036D01*
X158336479Y-169085531D01*
X158320644Y-169077375D01*
X158291470Y-169055309D01*
X158270928Y-169027770D01*
X158258818Y-168994437D01*
X158254937Y-168954986D01*
X158256061Y-168933085D01*
X158263027Y-168901816D01*
X158277271Y-168875300D01*
X158299844Y-168851107D01*
X158307813Y-168844506D01*
X158331891Y-168829507D01*
X158359284Y-168820013D01*
X158392071Y-168815461D01*
X158432334Y-168815289D01*
X158439896Y-168815622D01*
G37*
G36*
X151533775Y-168816022D02*
G01*
X151573137Y-168823747D01*
X151605332Y-168837972D01*
X151631081Y-168859043D01*
X151651104Y-168887304D01*
X151658268Y-168901641D01*
X151663139Y-168916166D01*
X151665466Y-168932850D01*
X151666142Y-168955747D01*
X151666091Y-168966605D01*
X151664752Y-168988183D01*
X151661124Y-169005064D01*
X151654507Y-169021182D01*
X151644573Y-169038276D01*
X151620141Y-169064985D01*
X151588150Y-169084726D01*
X151548633Y-169097477D01*
X151535395Y-169099426D01*
X151508183Y-169100450D01*
X151478076Y-169098981D01*
X151449414Y-169095296D01*
X151426538Y-169089673D01*
X151417087Y-169085842D01*
X151389972Y-169069476D01*
X151366140Y-169047674D01*
X151349088Y-169023428D01*
X151340964Y-169001544D01*
X151335830Y-168969951D01*
X151336216Y-168936974D01*
X151342363Y-168906778D01*
X151343564Y-168903315D01*
X151360049Y-168872004D01*
X151384255Y-168847168D01*
X151415716Y-168829086D01*
X151453962Y-168818032D01*
X151498526Y-168814287D01*
X151533775Y-168816022D01*
G37*
G36*
X146755111Y-169914548D02*
G01*
X146786264Y-169922576D01*
X146813453Y-169936418D01*
X146839763Y-169957290D01*
X146853030Y-169971011D01*
X146875932Y-170005031D01*
X146890731Y-170043884D01*
X146896918Y-170085961D01*
X146893990Y-170129654D01*
X146886009Y-170162061D01*
X146868314Y-170201112D01*
X146843026Y-170233281D01*
X146810280Y-170258404D01*
X146770215Y-170276318D01*
X146764223Y-170277473D01*
X146748503Y-170278766D01*
X146727251Y-170279413D01*
X146703319Y-170279289D01*
X146678671Y-170278175D01*
X146649800Y-170274317D01*
X146625910Y-170266849D01*
X146603966Y-170254720D01*
X146580932Y-170236878D01*
X146579755Y-170235858D01*
X146555825Y-170208356D01*
X146538505Y-170174817D01*
X146527976Y-170137163D01*
X146524416Y-170097314D01*
X146528004Y-170057192D01*
X146538920Y-170018718D01*
X146557342Y-169983813D01*
X146569376Y-169968145D01*
X146599006Y-169941379D01*
X146634517Y-169923015D01*
X146675962Y-169913029D01*
X146723397Y-169911397D01*
X146755111Y-169914548D01*
G37*
G36*
X145915313Y-169036351D02*
G01*
X146070377Y-169145207D01*
X146070377Y-169298791D01*
X146070366Y-169312522D01*
X146070216Y-169350000D01*
X146069910Y-169383492D01*
X146069470Y-169411736D01*
X146068919Y-169433472D01*
X146068280Y-169447438D01*
X146067577Y-169452374D01*
X146067090Y-169452148D01*
X146060308Y-169447690D01*
X146046350Y-169438016D01*
X146026128Y-169423774D01*
X146000551Y-169405607D01*
X145970528Y-169384162D01*
X145936969Y-169360084D01*
X145900785Y-169334019D01*
X145890652Y-169326710D01*
X145855085Y-169301123D01*
X145822385Y-169277701D01*
X145793462Y-169257090D01*
X145769229Y-169239935D01*
X145750595Y-169226882D01*
X145738472Y-169218576D01*
X145733772Y-169215664D01*
X145733661Y-169215932D01*
X145733188Y-169223190D01*
X145732739Y-169239779D01*
X145732322Y-169264916D01*
X145731940Y-169297817D01*
X145731601Y-169337701D01*
X145731311Y-169383785D01*
X145731074Y-169435287D01*
X145730898Y-169491423D01*
X145730788Y-169551411D01*
X145730750Y-169614469D01*
X145730750Y-170013274D01*
X145900564Y-170013274D01*
X146070377Y-170013274D01*
X146070377Y-170139347D01*
X146070377Y-170265421D01*
X145630406Y-170265421D01*
X145190434Y-170265421D01*
X145190434Y-170139347D01*
X145190434Y-170013274D01*
X145321654Y-170013274D01*
X145452873Y-170013274D01*
X145452873Y-169470385D01*
X145452873Y-168927496D01*
X145606561Y-168927496D01*
X145760249Y-168927496D01*
X145915313Y-169036351D01*
G37*
G36*
X163144364Y-169053569D02*
G01*
X163144364Y-169179643D01*
X162985077Y-169179643D01*
X162825790Y-169179643D01*
X162824085Y-169579734D01*
X162823893Y-169625844D01*
X162823603Y-169695946D01*
X162823301Y-169756966D01*
X162822929Y-169809663D01*
X162822426Y-169854795D01*
X162821732Y-169893122D01*
X162820787Y-169925404D01*
X162819532Y-169952400D01*
X162817906Y-169974868D01*
X162815850Y-169993568D01*
X162813303Y-170009260D01*
X162810205Y-170022702D01*
X162806497Y-170034654D01*
X162802119Y-170045875D01*
X162797010Y-170057124D01*
X162791111Y-170069160D01*
X162784362Y-170082743D01*
X162774911Y-170100571D01*
X162742649Y-170147210D01*
X162703302Y-170186642D01*
X162657467Y-170218427D01*
X162605738Y-170242123D01*
X162548712Y-170257290D01*
X162544166Y-170258045D01*
X162526247Y-170260152D01*
X162502376Y-170261837D01*
X162471687Y-170263130D01*
X162433311Y-170264061D01*
X162386381Y-170264661D01*
X162330031Y-170264959D01*
X162151212Y-170265421D01*
X162151212Y-170139347D01*
X162151212Y-170013274D01*
X162305753Y-170013274D01*
X162332320Y-170013250D01*
X162372948Y-170013066D01*
X162405094Y-170012654D01*
X162429924Y-170011961D01*
X162448600Y-170010933D01*
X162462288Y-170009518D01*
X162472152Y-170007661D01*
X162479356Y-170005309D01*
X162493431Y-169998326D01*
X162515799Y-169980185D01*
X162533793Y-169954096D01*
X162544871Y-169933513D01*
X162546303Y-169430504D01*
X162547735Y-168927496D01*
X162846050Y-168927496D01*
X163144364Y-168927496D01*
X163144364Y-169053569D01*
G37*
G36*
X160467397Y-169239745D02*
G01*
X160500781Y-169242886D01*
X160527691Y-169248448D01*
X160549380Y-169255975D01*
X160593986Y-169278173D01*
X160633650Y-169307243D01*
X160666728Y-169341859D01*
X160691574Y-169380692D01*
X160705223Y-169408082D01*
X160705223Y-169332457D01*
X160705223Y-169256831D01*
X160841589Y-169256831D01*
X160977954Y-169256831D01*
X160977954Y-169761126D01*
X160977954Y-170265421D01*
X160839258Y-170265421D01*
X160700562Y-170265421D01*
X160699033Y-169929126D01*
X160697505Y-169592831D01*
X160679494Y-169557954D01*
X160666081Y-169535443D01*
X160645665Y-169512733D01*
X160620178Y-169496688D01*
X160587215Y-169485420D01*
X160550039Y-169480151D01*
X160512033Y-169483430D01*
X160476990Y-169495215D01*
X160446293Y-169514833D01*
X160421324Y-169541610D01*
X160403465Y-169574874D01*
X160402188Y-169578488D01*
X160400500Y-169584643D01*
X160399053Y-169592407D01*
X160397822Y-169602571D01*
X160396785Y-169615923D01*
X160395915Y-169633252D01*
X160395190Y-169655348D01*
X160394585Y-169683000D01*
X160394075Y-169716998D01*
X160393637Y-169758130D01*
X160393247Y-169807186D01*
X160392880Y-169864955D01*
X160392511Y-169932226D01*
X160390775Y-170265421D01*
X160252112Y-170265421D01*
X160113449Y-170265421D01*
X160113449Y-169933310D01*
X160113450Y-169922198D01*
X160113518Y-169848541D01*
X160113725Y-169784255D01*
X160114107Y-169728532D01*
X160114706Y-169680565D01*
X160115561Y-169639545D01*
X160116710Y-169604665D01*
X160118194Y-169575119D01*
X160120051Y-169550097D01*
X160122322Y-169528792D01*
X160125045Y-169510398D01*
X160128260Y-169494106D01*
X160132007Y-169479109D01*
X160136324Y-169464598D01*
X160149544Y-169429287D01*
X160176526Y-169378806D01*
X160210562Y-169334739D01*
X160250911Y-169297842D01*
X160296833Y-169268874D01*
X160347586Y-169248593D01*
X160363666Y-169244817D01*
X160395312Y-169240713D01*
X160431065Y-169239021D01*
X160467397Y-169239745D01*
G37*
G36*
X152811463Y-169115320D02*
G01*
X152811463Y-169256831D01*
X152947829Y-169256831D01*
X153084194Y-169256831D01*
X153084194Y-169382905D01*
X153084194Y-169508979D01*
X152947829Y-169508979D01*
X152811463Y-169508979D01*
X152811463Y-169751105D01*
X152811449Y-169784961D01*
X152811338Y-169838206D01*
X152811095Y-169882679D01*
X152810691Y-169919355D01*
X152810097Y-169949208D01*
X152809284Y-169973214D01*
X152808224Y-169992348D01*
X152806888Y-170007585D01*
X152805248Y-170019900D01*
X152803275Y-170030268D01*
X152792682Y-170067673D01*
X152770278Y-170117120D01*
X152740054Y-170160276D01*
X152702542Y-170196655D01*
X152658275Y-170225770D01*
X152607782Y-170247136D01*
X152551597Y-170260267D01*
X152542232Y-170261082D01*
X152523159Y-170261963D01*
X152496369Y-170262776D01*
X152463227Y-170263494D01*
X152425097Y-170264086D01*
X152383343Y-170264524D01*
X152339330Y-170264779D01*
X152152792Y-170265421D01*
X152152792Y-170139550D01*
X152152792Y-170013678D01*
X152319665Y-170012189D01*
X152338905Y-170012015D01*
X152381132Y-170011580D01*
X152414652Y-170011100D01*
X152440603Y-170010497D01*
X152460123Y-170009695D01*
X152474348Y-170008619D01*
X152484416Y-170007192D01*
X152491466Y-170005337D01*
X152496633Y-170002980D01*
X152501056Y-170000043D01*
X152508362Y-169994560D01*
X152514645Y-169989015D01*
X152519786Y-169982633D01*
X152523901Y-169974468D01*
X152527102Y-169963577D01*
X152529506Y-169949012D01*
X152531225Y-169929828D01*
X152532376Y-169905080D01*
X152533072Y-169873823D01*
X152533428Y-169835110D01*
X152533559Y-169787997D01*
X152533578Y-169731537D01*
X152533586Y-169508979D01*
X152338043Y-169508979D01*
X152142501Y-169508979D01*
X152142501Y-169382905D01*
X152142501Y-169256831D01*
X152338043Y-169256831D01*
X152533586Y-169256831D01*
X152533586Y-169115320D01*
X152533586Y-168973808D01*
X152672525Y-168973808D01*
X152811463Y-168973808D01*
X152811463Y-169115320D01*
G37*
G36*
X149363477Y-169239559D02*
G01*
X149389763Y-169241306D01*
X149411928Y-169244803D01*
X149433415Y-169250458D01*
X149443732Y-169253865D01*
X149489805Y-169275217D01*
X149530347Y-169304430D01*
X149564184Y-169340515D01*
X149590142Y-169382483D01*
X149605325Y-169413780D01*
X149605457Y-169335306D01*
X149605588Y-169256831D01*
X149739381Y-169256831D01*
X149873173Y-169256831D01*
X149873173Y-169761126D01*
X149873173Y-170265421D01*
X149734409Y-170265421D01*
X149595646Y-170265421D01*
X149594184Y-169924507D01*
X149592723Y-169583594D01*
X149579052Y-169557864D01*
X149570114Y-169542714D01*
X149546914Y-169515218D01*
X149518603Y-169496128D01*
X149484392Y-169485001D01*
X149443493Y-169481391D01*
X149423316Y-169482345D01*
X149384794Y-169490607D01*
X149352122Y-169507244D01*
X149325516Y-169532126D01*
X149305186Y-169565123D01*
X149303445Y-169569005D01*
X149301514Y-169574051D01*
X149299867Y-169579968D01*
X149298477Y-169587542D01*
X149297318Y-169597557D01*
X149296361Y-169610798D01*
X149295581Y-169628051D01*
X149294950Y-169650100D01*
X149294442Y-169677730D01*
X149294029Y-169711727D01*
X149293686Y-169752875D01*
X149293385Y-169801960D01*
X149293099Y-169859767D01*
X149292801Y-169927080D01*
X149291339Y-170265421D01*
X149152354Y-170265421D01*
X149013370Y-170265421D01*
X149015084Y-169893632D01*
X149015393Y-169825179D01*
X149015705Y-169760705D01*
X149016063Y-169704981D01*
X149016533Y-169657209D01*
X149017181Y-169616591D01*
X149018075Y-169582327D01*
X149019280Y-169553618D01*
X149020864Y-169529667D01*
X149022893Y-169509675D01*
X149025434Y-169492842D01*
X149028553Y-169478370D01*
X149032318Y-169465460D01*
X149036794Y-169453315D01*
X149042049Y-169441134D01*
X149048149Y-169428120D01*
X149055160Y-169413473D01*
X149060325Y-169403287D01*
X149082817Y-169367705D01*
X149110690Y-169333475D01*
X149141389Y-169303492D01*
X149172362Y-169280651D01*
X149201721Y-169264974D01*
X149242431Y-169250119D01*
X149287026Y-169241719D01*
X149338003Y-169239148D01*
X149363477Y-169239559D01*
G37*
G36*
X155116546Y-169761126D02*
G01*
X155116231Y-169819465D01*
X155115054Y-169874940D01*
X155112842Y-169922493D01*
X155109426Y-169963351D01*
X155104636Y-169998743D01*
X155098303Y-170029896D01*
X155090256Y-170058040D01*
X155080327Y-170084402D01*
X155068346Y-170110211D01*
X155047997Y-170145584D01*
X155013225Y-170189815D01*
X154972209Y-170225960D01*
X154925183Y-170253821D01*
X154872383Y-170273205D01*
X154853560Y-170276812D01*
X154824544Y-170279494D01*
X154791620Y-170280415D01*
X154758180Y-170279583D01*
X154727614Y-170277011D01*
X154703312Y-170272707D01*
X154689118Y-170268439D01*
X154664210Y-170259071D01*
X154641999Y-170248776D01*
X154624772Y-170237980D01*
X154597816Y-170215864D01*
X154571429Y-170188886D01*
X154548255Y-170159837D01*
X154530934Y-170131507D01*
X154514745Y-170099109D01*
X154514745Y-170182265D01*
X154514745Y-170265421D01*
X154380953Y-170265421D01*
X154247160Y-170265421D01*
X154247160Y-169758553D01*
X154527610Y-169758553D01*
X154527635Y-169794131D01*
X154527776Y-169833414D01*
X154528098Y-169864542D01*
X154528664Y-169888738D01*
X154529537Y-169907222D01*
X154530778Y-169921214D01*
X154532452Y-169931936D01*
X154534619Y-169940609D01*
X154537343Y-169948454D01*
X154538548Y-169951455D01*
X154555162Y-169980644D01*
X154578107Y-170006248D01*
X154604447Y-170024919D01*
X154612391Y-170028592D01*
X154627602Y-170033127D01*
X154647258Y-170035842D01*
X154674267Y-170037251D01*
X154685327Y-170037463D01*
X154707369Y-170037227D01*
X154725305Y-170036186D01*
X154736051Y-170034477D01*
X154748606Y-170029833D01*
X154781085Y-170011132D01*
X154806326Y-169985120D01*
X154824283Y-169951840D01*
X154826700Y-169945277D01*
X154829673Y-169935350D01*
X154831970Y-169924026D01*
X154833715Y-169909823D01*
X154835037Y-169891259D01*
X154836062Y-169866851D01*
X154836917Y-169835117D01*
X154837727Y-169794574D01*
X154838311Y-169745858D01*
X154837917Y-169693437D01*
X154836112Y-169649540D01*
X154832723Y-169613216D01*
X154827575Y-169583517D01*
X154820494Y-169559493D01*
X154811306Y-169540193D01*
X154799836Y-169524670D01*
X154785911Y-169511972D01*
X154769019Y-169501340D01*
X154736532Y-169488749D01*
X154699949Y-169482008D01*
X154662245Y-169481565D01*
X154626396Y-169487871D01*
X154604204Y-169497542D01*
X154578548Y-169516140D01*
X154556163Y-169540061D01*
X154539887Y-169566718D01*
X154537571Y-169571924D01*
X154534642Y-169579315D01*
X154532353Y-169587179D01*
X154530623Y-169596742D01*
X154529375Y-169609233D01*
X154528530Y-169625878D01*
X154528010Y-169647905D01*
X154527735Y-169676542D01*
X154527628Y-169713015D01*
X154527610Y-169758553D01*
X154247160Y-169758553D01*
X154247160Y-169596458D01*
X154247160Y-168927496D01*
X154386932Y-168927496D01*
X154526703Y-168927496D01*
X154523527Y-169168065D01*
X154520351Y-169408634D01*
X154536845Y-169377849D01*
X154554684Y-169350051D01*
X154586136Y-169315203D01*
X154623978Y-169285154D01*
X154666074Y-169261527D01*
X154710288Y-169245946D01*
X154721890Y-169243583D01*
X154751696Y-169240259D01*
X154785749Y-169239149D01*
X154820463Y-169240198D01*
X154852251Y-169243350D01*
X154877529Y-169248548D01*
X154927173Y-169268394D01*
X154973173Y-169297263D01*
X155013815Y-169334057D01*
X155048340Y-169377960D01*
X155075990Y-169428155D01*
X155096009Y-169483827D01*
X155096341Y-169485047D01*
X155102264Y-169510102D01*
X155107018Y-169537845D01*
X155110698Y-169569540D01*
X155113397Y-169606451D01*
X155115209Y-169649843D01*
X155116227Y-169700980D01*
X155116465Y-169745858D01*
X155116546Y-169761126D01*
G37*
G36*
X150933166Y-169777593D02*
G01*
X150932572Y-169821540D01*
X150931505Y-169862999D01*
X150929976Y-169900021D01*
X150927996Y-169930658D01*
X150925576Y-169952961D01*
X150924206Y-169961522D01*
X150909500Y-170021786D01*
X150886645Y-170076051D01*
X150855299Y-170124988D01*
X150815118Y-170169271D01*
X150777653Y-170200618D01*
X150729402Y-170230695D01*
X150675429Y-170253916D01*
X150614178Y-170271068D01*
X150608454Y-170272237D01*
X150576172Y-170276637D01*
X150537440Y-170279189D01*
X150495029Y-170279945D01*
X150451711Y-170278955D01*
X150410256Y-170276271D01*
X150373436Y-170271945D01*
X150344020Y-170266030D01*
X150326866Y-170261057D01*
X150266333Y-170237327D01*
X150212561Y-170205857D01*
X150165706Y-170166795D01*
X150125927Y-170120292D01*
X150093382Y-170066495D01*
X150068228Y-170005555D01*
X150067978Y-170004799D01*
X150064912Y-169995123D01*
X150062417Y-169985709D01*
X150060422Y-169975384D01*
X150058855Y-169962976D01*
X150057644Y-169947311D01*
X150056719Y-169927218D01*
X150056007Y-169901524D01*
X150055438Y-169869055D01*
X150054940Y-169828641D01*
X150054933Y-169827972D01*
X150331672Y-169827972D01*
X150332049Y-169864001D01*
X150333076Y-169892967D01*
X150334898Y-169916064D01*
X150337661Y-169934485D01*
X150341508Y-169949425D01*
X150346584Y-169962078D01*
X150353035Y-169973638D01*
X150361006Y-169985300D01*
X150368798Y-169994257D01*
X150385433Y-170008779D01*
X150403594Y-170020830D01*
X150413406Y-170025973D01*
X150426454Y-170031416D01*
X150440281Y-170034710D01*
X150458060Y-170036522D01*
X150482958Y-170037517D01*
X150511942Y-170037503D01*
X150542653Y-170034453D01*
X150567602Y-170027293D01*
X150589130Y-170015289D01*
X150609578Y-169997704D01*
X150620432Y-169986442D01*
X150629561Y-169975320D01*
X150636793Y-169963525D01*
X150642350Y-169949855D01*
X150646449Y-169933107D01*
X150649310Y-169912079D01*
X150651154Y-169885569D01*
X150652199Y-169852375D01*
X150652665Y-169811295D01*
X150652772Y-169761126D01*
X150652693Y-169725113D01*
X150652262Y-169678893D01*
X150651443Y-169642127D01*
X150650217Y-169614314D01*
X150648567Y-169594954D01*
X150646475Y-169583546D01*
X150634559Y-169555280D01*
X150612638Y-169525328D01*
X150584003Y-169502275D01*
X150549903Y-169487366D01*
X150534278Y-169484259D01*
X150508105Y-169482026D01*
X150479272Y-169481852D01*
X150451979Y-169483727D01*
X150430430Y-169487642D01*
X150424194Y-169489646D01*
X150395266Y-169504743D01*
X150369366Y-169527429D01*
X150349166Y-169555474D01*
X150333728Y-169583594D01*
X150332114Y-169747104D01*
X150331801Y-169783684D01*
X150331672Y-169827972D01*
X150054933Y-169827972D01*
X150054442Y-169779107D01*
X150054405Y-169775199D01*
X150053996Y-169723369D01*
X150053856Y-169680622D01*
X150054016Y-169645833D01*
X150054503Y-169617872D01*
X150055347Y-169595614D01*
X150056577Y-169577929D01*
X150058223Y-169563691D01*
X150060313Y-169551773D01*
X150070397Y-169512461D01*
X150092976Y-169455545D01*
X150124085Y-169404069D01*
X150164087Y-169357348D01*
X150172299Y-169349349D01*
X150214545Y-169314499D01*
X150260806Y-169286717D01*
X150312341Y-169265462D01*
X150370407Y-169250193D01*
X150436263Y-169240371D01*
X150437916Y-169240202D01*
X150475849Y-169237421D01*
X150510912Y-169237544D01*
X150549472Y-169240583D01*
X150549475Y-169240583D01*
X150590371Y-169245689D01*
X150624429Y-169251997D01*
X150655097Y-169260460D01*
X150685827Y-169272029D01*
X150720067Y-169287657D01*
X150727247Y-169291219D01*
X150780270Y-169323650D01*
X150825927Y-169363092D01*
X150863862Y-169409040D01*
X150893718Y-169460991D01*
X150915137Y-169518441D01*
X150927762Y-169580886D01*
X150928624Y-169588739D01*
X150930572Y-169615896D01*
X150931988Y-169650309D01*
X150932885Y-169690029D01*
X150933274Y-169733106D01*
X150933206Y-169761126D01*
X150933166Y-169777593D01*
G37*
G36*
X159943261Y-169799526D02*
G01*
X159942979Y-169839660D01*
X159942173Y-169875819D01*
X159940811Y-169906360D01*
X159938862Y-169929639D01*
X159938492Y-169932723D01*
X159928197Y-169991950D01*
X159912327Y-170043780D01*
X159890089Y-170089867D01*
X159860695Y-170131864D01*
X159823354Y-170171424D01*
X159790291Y-170199103D01*
X159741541Y-170229802D01*
X159686732Y-170253577D01*
X159624591Y-170271068D01*
X159618867Y-170272237D01*
X159586585Y-170276637D01*
X159547853Y-170279189D01*
X159505443Y-170279945D01*
X159462125Y-170278955D01*
X159420670Y-170276271D01*
X159383849Y-170271945D01*
X159354433Y-170266030D01*
X159337279Y-170261057D01*
X159276746Y-170237327D01*
X159222974Y-170205857D01*
X159176119Y-170166795D01*
X159136340Y-170120292D01*
X159103795Y-170066495D01*
X159078642Y-170005555D01*
X159078391Y-170004799D01*
X159075325Y-169995123D01*
X159072831Y-169985709D01*
X159070835Y-169975384D01*
X159069268Y-169962976D01*
X159068058Y-169947311D01*
X159067132Y-169927218D01*
X159066421Y-169901524D01*
X159065852Y-169869055D01*
X159065354Y-169828641D01*
X159065347Y-169827972D01*
X159342085Y-169827972D01*
X159342462Y-169864001D01*
X159343489Y-169892967D01*
X159345312Y-169916064D01*
X159348074Y-169934485D01*
X159351921Y-169949425D01*
X159356998Y-169962078D01*
X159363449Y-169973638D01*
X159371419Y-169985300D01*
X159379211Y-169994257D01*
X159395846Y-170008779D01*
X159414008Y-170020830D01*
X159423820Y-170025973D01*
X159436867Y-170031416D01*
X159450695Y-170034710D01*
X159468473Y-170036522D01*
X159493372Y-170037517D01*
X159522356Y-170037503D01*
X159553067Y-170034453D01*
X159578016Y-170027293D01*
X159599543Y-170015289D01*
X159619991Y-169997704D01*
X159630845Y-169986442D01*
X159639974Y-169975320D01*
X159647207Y-169963525D01*
X159652763Y-169949855D01*
X159656862Y-169933107D01*
X159659724Y-169912079D01*
X159661567Y-169885569D01*
X159662613Y-169852375D01*
X159663079Y-169811295D01*
X159663185Y-169761126D01*
X159663106Y-169725113D01*
X159662676Y-169678893D01*
X159661857Y-169642127D01*
X159660631Y-169614314D01*
X159658981Y-169594954D01*
X159656888Y-169583546D01*
X159644973Y-169555280D01*
X159623051Y-169525328D01*
X159594416Y-169502275D01*
X159560316Y-169487366D01*
X159544691Y-169484259D01*
X159518518Y-169482026D01*
X159489685Y-169481852D01*
X159462393Y-169483727D01*
X159440843Y-169487642D01*
X159434607Y-169489646D01*
X159405679Y-169504743D01*
X159379780Y-169527429D01*
X159359579Y-169555474D01*
X159344142Y-169583594D01*
X159342528Y-169747104D01*
X159342214Y-169783684D01*
X159342085Y-169827972D01*
X159065347Y-169827972D01*
X159064855Y-169779107D01*
X159064818Y-169775199D01*
X159064409Y-169723369D01*
X159064270Y-169680622D01*
X159064429Y-169645833D01*
X159064916Y-169617872D01*
X159065760Y-169595614D01*
X159066991Y-169577929D01*
X159068636Y-169563691D01*
X159070726Y-169551773D01*
X159080810Y-169512461D01*
X159103390Y-169455545D01*
X159134498Y-169404069D01*
X159174501Y-169357348D01*
X159182712Y-169349349D01*
X159224958Y-169314499D01*
X159271219Y-169286717D01*
X159322754Y-169265462D01*
X159380821Y-169250193D01*
X159446676Y-169240371D01*
X159448329Y-169240202D01*
X159486262Y-169237421D01*
X159521325Y-169237544D01*
X159559885Y-169240583D01*
X159559889Y-169240583D01*
X159600785Y-169245689D01*
X159634842Y-169251997D01*
X159665510Y-169260460D01*
X159696240Y-169272029D01*
X159730480Y-169287657D01*
X159749801Y-169297649D01*
X159801380Y-169331758D01*
X159845623Y-169372975D01*
X159882231Y-169420931D01*
X159910901Y-169475253D01*
X159931335Y-169535571D01*
X159933195Y-169545342D01*
X159935703Y-169567283D01*
X159937907Y-169596754D01*
X159939775Y-169632111D01*
X159941276Y-169671710D01*
X159942378Y-169713908D01*
X159943050Y-169757061D01*
X159943070Y-169761126D01*
X159943261Y-169799526D01*
G37*
G36*
X162032266Y-169681768D02*
G01*
X162032183Y-169728504D01*
X162031675Y-169784282D01*
X162031210Y-169823332D01*
X162030508Y-169868428D01*
X162029550Y-169905522D01*
X162028142Y-169935932D01*
X162026093Y-169960977D01*
X162023208Y-169981977D01*
X162019295Y-170000250D01*
X162014161Y-170017115D01*
X162007613Y-170033891D01*
X161999457Y-170051897D01*
X161989501Y-170072451D01*
X161983270Y-170084527D01*
X161951335Y-170132854D01*
X161911399Y-170175214D01*
X161864025Y-170211230D01*
X161809781Y-170240524D01*
X161749230Y-170262718D01*
X161682938Y-170277433D01*
X161679312Y-170277940D01*
X161657657Y-170279614D01*
X161629164Y-170280374D01*
X161596616Y-170280286D01*
X161562796Y-170279413D01*
X161530487Y-170277822D01*
X161502471Y-170275576D01*
X161481531Y-170272741D01*
X161432851Y-170260705D01*
X161374560Y-170238036D01*
X161321500Y-170207835D01*
X161274513Y-170170791D01*
X161234441Y-170127589D01*
X161202126Y-170078917D01*
X161178411Y-170025463D01*
X161173976Y-170012126D01*
X161169917Y-169998753D01*
X161168351Y-169991884D01*
X161173024Y-169990758D01*
X161186679Y-169989715D01*
X161207982Y-169988830D01*
X161235591Y-169988144D01*
X161268167Y-169987701D01*
X161304370Y-169987544D01*
X161326101Y-169987551D01*
X161362336Y-169987633D01*
X161390052Y-169987878D01*
X161410429Y-169988372D01*
X161424648Y-169989198D01*
X161433890Y-169990441D01*
X161439334Y-169992186D01*
X161442162Y-169994517D01*
X161443555Y-169997519D01*
X161452175Y-170011277D01*
X161468197Y-170025556D01*
X161488970Y-170038366D01*
X161511861Y-170047771D01*
X161524800Y-170051090D01*
X161555935Y-170055413D01*
X161595458Y-170056821D01*
X161595904Y-170056821D01*
X161621017Y-170056568D01*
X161639132Y-170055416D01*
X161653487Y-170052770D01*
X161667323Y-170048039D01*
X161683879Y-170040628D01*
X161707383Y-170027509D01*
X161728408Y-170009739D01*
X161744256Y-169987506D01*
X161755658Y-169959414D01*
X161763347Y-169924070D01*
X161768053Y-169880078D01*
X161771744Y-169828022D01*
X161461768Y-169828022D01*
X161151792Y-169828022D01*
X161154242Y-169695516D01*
X161154678Y-169672991D01*
X161155066Y-169656532D01*
X161419153Y-169656532D01*
X161524030Y-169659930D01*
X161555565Y-169660863D01*
X161595652Y-169661849D01*
X161635250Y-169662633D01*
X161671094Y-169663151D01*
X161699918Y-169663341D01*
X161770929Y-169663355D01*
X161767738Y-169631193D01*
X161760794Y-169583590D01*
X161749578Y-169543284D01*
X161733713Y-169511011D01*
X161712670Y-169485954D01*
X161685920Y-169467299D01*
X161652934Y-169454231D01*
X161630827Y-169449587D01*
X161597330Y-169447192D01*
X161562735Y-169448976D01*
X161530639Y-169454698D01*
X161504640Y-169464119D01*
X161491141Y-169472018D01*
X161463360Y-169496504D01*
X161442526Y-169528531D01*
X161428680Y-169568026D01*
X161421862Y-169614917D01*
X161419153Y-169656532D01*
X161155066Y-169656532D01*
X161155553Y-169635832D01*
X161156560Y-169606601D01*
X161157827Y-169583730D01*
X161159479Y-169565657D01*
X161161641Y-169550813D01*
X161164441Y-169537635D01*
X161168003Y-169524557D01*
X161179708Y-169490271D01*
X161207014Y-169433980D01*
X161242313Y-169383901D01*
X161285207Y-169340412D01*
X161335293Y-169303893D01*
X161392171Y-169274721D01*
X161455440Y-169253275D01*
X161468281Y-169250005D01*
X161487912Y-169245716D01*
X161506954Y-169242831D01*
X161528127Y-169241075D01*
X161554149Y-169240172D01*
X161587740Y-169239846D01*
X161591520Y-169239838D01*
X161638927Y-169240724D01*
X161679210Y-169243781D01*
X161715191Y-169249443D01*
X161749692Y-169258145D01*
X161785535Y-169270322D01*
X161805375Y-169278362D01*
X161860204Y-169307513D01*
X161908645Y-169344126D01*
X161950010Y-169387518D01*
X161983610Y-169437006D01*
X162008758Y-169491909D01*
X162012726Y-169503281D01*
X162018355Y-169521560D01*
X162022877Y-169540172D01*
X162026387Y-169560361D01*
X162028983Y-169583370D01*
X162030763Y-169610445D01*
X162031825Y-169642829D01*
X162032057Y-169663355D01*
X162032266Y-169681768D01*
G37*
G36*
X157846678Y-169704869D02*
G01*
X157846694Y-169758553D01*
X157846657Y-169814009D01*
X157846447Y-169863845D01*
X157845926Y-169905603D01*
X157844955Y-169940423D01*
X157843395Y-169969443D01*
X157841107Y-169993804D01*
X157837951Y-170014643D01*
X157833789Y-170033101D01*
X157828481Y-170050317D01*
X157821889Y-170067429D01*
X157813873Y-170085576D01*
X157804295Y-170105899D01*
X157792046Y-170130079D01*
X157778653Y-170151815D01*
X157762853Y-170171760D01*
X157741780Y-170193956D01*
X157721920Y-170212709D01*
X157688952Y-170238148D01*
X157654415Y-170256974D01*
X157615130Y-170271123D01*
X157600247Y-170274566D01*
X157570016Y-170278525D01*
X157535438Y-170280410D01*
X157500072Y-170280178D01*
X157467478Y-170277788D01*
X157441216Y-170273196D01*
X157435620Y-170271660D01*
X157397830Y-170257656D01*
X157361336Y-170238478D01*
X157330629Y-170216433D01*
X157326369Y-170212569D01*
X157307978Y-170192697D01*
X157288938Y-170168109D01*
X157272004Y-170142567D01*
X157259926Y-170119831D01*
X157259019Y-170117803D01*
X157256574Y-170113578D01*
X157254848Y-170113967D01*
X157253713Y-170120106D01*
X157253037Y-170133129D01*
X157252692Y-170154173D01*
X157252548Y-170184374D01*
X157252347Y-170265421D01*
X157115981Y-170265421D01*
X156979616Y-170265421D01*
X156979616Y-169745273D01*
X157258108Y-169745273D01*
X157258673Y-169791512D01*
X157259302Y-169822817D01*
X157260138Y-169856022D01*
X157261112Y-169881611D01*
X157262358Y-169901102D01*
X157264016Y-169916015D01*
X157266221Y-169927868D01*
X157269110Y-169938180D01*
X157272821Y-169948471D01*
X157280467Y-169965264D01*
X157300741Y-169994637D01*
X157326342Y-170017044D01*
X157355722Y-170030943D01*
X157358005Y-170031595D01*
X157386651Y-170036720D01*
X157419419Y-170038350D01*
X157451708Y-170036478D01*
X157478922Y-170031099D01*
X157485920Y-170028654D01*
X157514321Y-170012638D01*
X157538704Y-169989231D01*
X157556509Y-169960752D01*
X157557880Y-169957691D01*
X157561066Y-169949960D01*
X157563587Y-169941991D01*
X157565535Y-169932527D01*
X157567006Y-169920313D01*
X157568093Y-169904091D01*
X157568890Y-169882604D01*
X157569491Y-169854597D01*
X157569990Y-169818811D01*
X157570482Y-169773991D01*
X157570833Y-169733061D01*
X157570880Y-169688201D01*
X157570311Y-169651569D01*
X157568959Y-169622001D01*
X157566656Y-169598334D01*
X157563236Y-169579405D01*
X157558529Y-169564052D01*
X157552370Y-169551111D01*
X157544590Y-169539420D01*
X157535021Y-169527815D01*
X157515997Y-169509656D01*
X157488759Y-169493539D01*
X157456243Y-169484287D01*
X157416747Y-169481230D01*
X157416219Y-169481228D01*
X157392597Y-169481651D01*
X157375243Y-169483630D01*
X157360236Y-169487921D01*
X157343655Y-169495274D01*
X157331554Y-169501771D01*
X157304589Y-169522325D01*
X157284484Y-169548616D01*
X157270503Y-169581793D01*
X157261914Y-169623000D01*
X157260331Y-169639637D01*
X157258965Y-169667831D01*
X157258215Y-169703544D01*
X157258108Y-169745273D01*
X156979616Y-169745273D01*
X156979616Y-169596458D01*
X156979616Y-168927496D01*
X157119060Y-168927496D01*
X157258504Y-168927496D01*
X157256712Y-169168830D01*
X157254919Y-169410164D01*
X157270198Y-169381686D01*
X157274603Y-169373828D01*
X157304044Y-169333131D01*
X157340861Y-169298005D01*
X157383213Y-169269967D01*
X157429261Y-169250535D01*
X157437361Y-169248154D01*
X157461330Y-169242833D01*
X157487527Y-169239975D01*
X157519932Y-169239077D01*
X157539037Y-169239334D01*
X157587556Y-169243601D01*
X157629874Y-169253782D01*
X157668159Y-169270755D01*
X157704583Y-169295399D01*
X157741316Y-169328590D01*
X157751397Y-169338983D01*
X157779928Y-169372809D01*
X157802229Y-169407937D01*
X157819981Y-169447341D01*
X157834865Y-169493995D01*
X157837709Y-169504708D01*
X157840075Y-169514893D01*
X157841985Y-169525545D01*
X157843488Y-169537755D01*
X157844631Y-169552615D01*
X157845465Y-169571216D01*
X157846038Y-169594650D01*
X157846398Y-169624009D01*
X157846595Y-169660385D01*
X157846647Y-169688201D01*
X157846678Y-169704869D01*
G37*
G36*
X164126072Y-169792851D02*
G01*
X164125807Y-169810127D01*
X164124823Y-169858347D01*
X164123432Y-169898237D01*
X164121398Y-169931284D01*
X164118489Y-169958979D01*
X164114470Y-169982809D01*
X164109107Y-170004263D01*
X164102166Y-170024830D01*
X164093412Y-170045998D01*
X164082613Y-170069257D01*
X164079414Y-170075844D01*
X164067033Y-170099174D01*
X164054261Y-170118533D01*
X164038572Y-170137414D01*
X164017437Y-170159309D01*
X164003239Y-170172937D01*
X163960500Y-170207789D01*
X163915345Y-170234930D01*
X163865405Y-170255629D01*
X163808314Y-170271150D01*
X163802415Y-170272338D01*
X163770121Y-170276668D01*
X163731384Y-170279176D01*
X163688975Y-170279913D01*
X163645664Y-170278929D01*
X163604222Y-170276277D01*
X163567418Y-170272006D01*
X163538023Y-170266167D01*
X163520285Y-170261067D01*
X163460052Y-170237473D01*
X163406456Y-170206044D01*
X163359688Y-170166960D01*
X163319935Y-170120398D01*
X163287386Y-170066537D01*
X163262231Y-170005555D01*
X163262076Y-170005087D01*
X163258990Y-169995364D01*
X163256478Y-169985932D01*
X163254469Y-169975614D01*
X163252890Y-169963234D01*
X163251670Y-169947617D01*
X163250737Y-169927587D01*
X163250019Y-169901969D01*
X163249444Y-169869586D01*
X163248940Y-169829263D01*
X163248436Y-169779824D01*
X163248254Y-169758210D01*
X163525159Y-169758210D01*
X163525178Y-169781633D01*
X163525415Y-169826821D01*
X163526058Y-169863515D01*
X163527273Y-169892954D01*
X163529228Y-169916376D01*
X163532089Y-169935019D01*
X163536023Y-169950124D01*
X163541198Y-169962928D01*
X163547779Y-169974671D01*
X163555935Y-169986591D01*
X163558515Y-169989939D01*
X163576570Y-170007481D01*
X163598439Y-170021879D01*
X163604600Y-170024959D01*
X163618451Y-170030662D01*
X163632997Y-170034196D01*
X163651434Y-170036187D01*
X163676962Y-170037262D01*
X163690531Y-170037482D01*
X163712792Y-170037188D01*
X163730698Y-170036140D01*
X163741285Y-170034468D01*
X163763738Y-170025362D01*
X163791683Y-170008591D01*
X163812977Y-169988980D01*
X163814273Y-169987399D01*
X163823292Y-169975180D01*
X163830441Y-169962324D01*
X163835965Y-169947451D01*
X163840114Y-169929183D01*
X163843135Y-169906141D01*
X163845276Y-169876944D01*
X163846785Y-169840215D01*
X163847910Y-169794574D01*
X163848663Y-169740543D01*
X163848435Y-169691844D01*
X163846967Y-169651344D01*
X163844082Y-169617982D01*
X163839603Y-169590698D01*
X163833352Y-169568431D01*
X163825153Y-169550122D01*
X163814828Y-169534709D01*
X163802200Y-169521133D01*
X163792724Y-169512777D01*
X163772489Y-169499187D01*
X163749076Y-169489806D01*
X163718953Y-169483015D01*
X163696770Y-169480312D01*
X163656202Y-169481451D01*
X163618755Y-169490339D01*
X163586107Y-169506487D01*
X163559935Y-169529405D01*
X163554318Y-169536157D01*
X163546228Y-169547221D01*
X163539781Y-169558852D01*
X163534793Y-169572263D01*
X163531079Y-169588671D01*
X163528455Y-169609292D01*
X163526736Y-169635340D01*
X163525736Y-169668032D01*
X163525272Y-169708584D01*
X163525159Y-169758210D01*
X163248254Y-169758210D01*
X163248049Y-169733859D01*
X163247894Y-169684349D01*
X163248242Y-169642955D01*
X163249235Y-169608468D01*
X163251016Y-169579677D01*
X163253727Y-169555373D01*
X163257510Y-169534346D01*
X163262508Y-169515385D01*
X163268864Y-169497281D01*
X163276719Y-169478823D01*
X163286216Y-169458802D01*
X163286311Y-169458607D01*
X163317931Y-169404424D01*
X163356016Y-169358150D01*
X163400950Y-169319391D01*
X163453116Y-169287756D01*
X163489484Y-169271767D01*
X163548084Y-169253733D01*
X163611291Y-169242288D01*
X163676866Y-169237796D01*
X163742571Y-169240622D01*
X163751605Y-169241582D01*
X163798590Y-169248398D01*
X163839969Y-169258222D01*
X163879613Y-169272149D01*
X163921390Y-169291275D01*
X163930250Y-169295876D01*
X163978799Y-169327451D01*
X164022129Y-169366554D01*
X164059004Y-169411711D01*
X164088189Y-169461451D01*
X164108448Y-169514299D01*
X164109195Y-169516959D01*
X164114945Y-169541227D01*
X164119455Y-169568539D01*
X164122801Y-169600097D01*
X164125060Y-169637104D01*
X164126307Y-169680763D01*
X164126619Y-169732278D01*
X164126544Y-169740543D01*
X164126072Y-169792851D01*
G37*
G36*
X164826290Y-168914657D02*
G01*
X164890628Y-168926979D01*
X164950564Y-168946110D01*
X164980601Y-168959687D01*
X165030001Y-168990371D01*
X165073518Y-169028537D01*
X165110172Y-169073099D01*
X165138985Y-169122972D01*
X165158976Y-169177070D01*
X165162599Y-169193044D01*
X165167365Y-169226772D01*
X165170109Y-169265140D01*
X165170722Y-169304671D01*
X165169096Y-169341888D01*
X165165120Y-169373311D01*
X165157248Y-169406696D01*
X165135887Y-169463782D01*
X165105770Y-169516010D01*
X165067344Y-169562870D01*
X165021058Y-169603854D01*
X164967360Y-169638455D01*
X164906698Y-169666165D01*
X164901723Y-169667933D01*
X164882727Y-169673898D01*
X164856532Y-169681421D01*
X164825174Y-169689942D01*
X164790690Y-169698904D01*
X164755117Y-169707747D01*
X164720927Y-169716272D01*
X164683671Y-169726213D01*
X164653385Y-169735093D01*
X164631113Y-169742603D01*
X164617897Y-169748434D01*
X164608827Y-169754188D01*
X164580249Y-169779749D01*
X164559187Y-169811632D01*
X164546258Y-169848690D01*
X164542076Y-169889773D01*
X164542535Y-169901250D01*
X164549831Y-169938721D01*
X164565947Y-169970894D01*
X164590854Y-169997721D01*
X164624524Y-170019159D01*
X164638725Y-170025814D01*
X164653278Y-170031203D01*
X164668509Y-170034579D01*
X164687623Y-170036616D01*
X164713824Y-170037991D01*
X164723281Y-170038348D01*
X164748809Y-170038694D01*
X164768701Y-170037525D01*
X164786482Y-170034508D01*
X164805674Y-170029309D01*
X164824730Y-170022586D01*
X164860763Y-170003078D01*
X164888842Y-169977105D01*
X164908863Y-169944776D01*
X164920725Y-169906201D01*
X164926651Y-169874335D01*
X165059535Y-169874335D01*
X165192419Y-169874335D01*
X165192419Y-169908054D01*
X165192276Y-169916153D01*
X165186895Y-169962032D01*
X165174561Y-170009953D01*
X165156401Y-170056907D01*
X165133542Y-170099883D01*
X165107110Y-170135872D01*
X165082933Y-170160851D01*
X165034343Y-170199771D01*
X164978657Y-170231482D01*
X164915710Y-170256075D01*
X164845333Y-170273635D01*
X164827134Y-170276218D01*
X164797423Y-170278289D01*
X164759069Y-170279134D01*
X164711281Y-170278785D01*
X164705257Y-170278675D01*
X164670073Y-170277835D01*
X164642580Y-170276658D01*
X164620512Y-170274916D01*
X164601606Y-170272384D01*
X164583598Y-170268833D01*
X164564223Y-170264037D01*
X164527050Y-170252677D01*
X164467597Y-170226980D01*
X164415133Y-170194014D01*
X164369947Y-170154055D01*
X164332330Y-170107378D01*
X164302571Y-170054258D01*
X164280961Y-169994972D01*
X164278135Y-169983643D01*
X164272115Y-169946232D01*
X164269059Y-169903699D01*
X164269014Y-169859554D01*
X164272026Y-169817309D01*
X164278142Y-169780475D01*
X164297812Y-169716967D01*
X164325993Y-169658139D01*
X164361952Y-169605199D01*
X164405089Y-169558794D01*
X164454802Y-169519570D01*
X164510491Y-169488172D01*
X164571554Y-169465247D01*
X164585643Y-169461446D01*
X164607890Y-169455831D01*
X164635846Y-169449011D01*
X164667318Y-169441519D01*
X164700112Y-169433892D01*
X164708736Y-169431894D01*
X164755423Y-169420294D01*
X164793120Y-169409296D01*
X164822895Y-169398465D01*
X164845815Y-169387367D01*
X164862947Y-169375570D01*
X164875358Y-169362638D01*
X164882082Y-169353291D01*
X164892745Y-169333354D01*
X164898210Y-169311668D01*
X164899748Y-169284135D01*
X164899691Y-169279461D01*
X164894715Y-169244464D01*
X164881303Y-169214682D01*
X164858877Y-169188765D01*
X164851503Y-169182304D01*
X164834239Y-169169316D01*
X164816974Y-169160555D01*
X164797150Y-169155224D01*
X164772206Y-169152527D01*
X164739583Y-169151667D01*
X164716392Y-169151718D01*
X164695709Y-169152505D01*
X164680337Y-169154433D01*
X164667564Y-169157869D01*
X164654676Y-169163183D01*
X164627051Y-169179223D01*
X164600056Y-169204451D01*
X164581306Y-169234922D01*
X164571547Y-169269679D01*
X164568371Y-169292852D01*
X164432182Y-169292852D01*
X164295994Y-169292852D01*
X164299686Y-169255545D01*
X164302125Y-169235155D01*
X164315400Y-169173185D01*
X164336905Y-169117394D01*
X164366652Y-169067761D01*
X164404655Y-169024267D01*
X164450930Y-168986890D01*
X164505488Y-168955612D01*
X164509645Y-168953646D01*
X164565534Y-168932579D01*
X164627173Y-168918103D01*
X164692533Y-168910262D01*
X164759582Y-168909099D01*
X164826290Y-168914657D01*
G37*
G36*
X148193042Y-169710605D02*
G01*
X148192959Y-169767909D01*
X148192742Y-169817055D01*
X148192327Y-169858849D01*
X148191652Y-169894098D01*
X148190654Y-169923608D01*
X148189271Y-169948185D01*
X148187441Y-169968638D01*
X148185101Y-169985771D01*
X148182189Y-170000391D01*
X148178643Y-170013306D01*
X148174399Y-170025321D01*
X148169396Y-170037244D01*
X148163571Y-170049880D01*
X148156862Y-170064036D01*
X148146392Y-170084371D01*
X148113685Y-170132689D01*
X148073074Y-170175330D01*
X148025393Y-170211717D01*
X147971477Y-170241273D01*
X147912159Y-170263420D01*
X147848274Y-170277581D01*
X147840446Y-170278161D01*
X147823291Y-170278614D01*
X147799531Y-170278795D01*
X147771170Y-170278691D01*
X147740211Y-170278288D01*
X147711594Y-170277591D01*
X147672204Y-170275563D01*
X147639152Y-170271964D01*
X147610011Y-170266275D01*
X147582356Y-170257975D01*
X147553760Y-170246545D01*
X147521797Y-170231465D01*
X147514078Y-170227583D01*
X147490967Y-170214832D01*
X147471265Y-170201456D01*
X147451657Y-170185015D01*
X147428823Y-170163069D01*
X147403945Y-170136262D01*
X147372843Y-170094020D01*
X147348781Y-170047874D01*
X147330086Y-169994972D01*
X147318250Y-169954096D01*
X147318250Y-169638295D01*
X147578114Y-169638295D01*
X147578135Y-169700539D01*
X147578251Y-169753787D01*
X147578538Y-169798845D01*
X147579072Y-169836519D01*
X147579930Y-169867614D01*
X147581187Y-169892936D01*
X147582918Y-169913291D01*
X147585200Y-169929485D01*
X147588109Y-169942324D01*
X147591720Y-169952614D01*
X147596110Y-169961160D01*
X147601354Y-169968769D01*
X147607527Y-169976246D01*
X147614707Y-169984397D01*
X147623269Y-169993045D01*
X147643494Y-170009229D01*
X147664493Y-170021945D01*
X147674280Y-170026521D01*
X147688258Y-170031717D01*
X147703098Y-170034903D01*
X147721941Y-170036668D01*
X147747930Y-170037601D01*
X147786937Y-170036957D01*
X147820404Y-170032269D01*
X147848235Y-170022756D01*
X147872518Y-170007692D01*
X147895339Y-169986351D01*
X147900929Y-169980322D01*
X147908092Y-169972386D01*
X147914201Y-169964694D01*
X147919338Y-169956437D01*
X147923587Y-169946803D01*
X147927033Y-169934982D01*
X147929759Y-169920164D01*
X147931851Y-169901538D01*
X147933390Y-169878294D01*
X147934463Y-169849621D01*
X147935152Y-169814709D01*
X147935541Y-169772747D01*
X147935716Y-169722925D01*
X147935759Y-169664432D01*
X147935754Y-169596458D01*
X147935755Y-169561386D01*
X147935732Y-169498014D01*
X147935615Y-169443725D01*
X147935328Y-169397709D01*
X147934796Y-169359159D01*
X147933944Y-169327266D01*
X147932695Y-169301221D01*
X147930976Y-169280217D01*
X147928710Y-169263444D01*
X147925823Y-169250096D01*
X147922239Y-169239362D01*
X147917882Y-169230435D01*
X147912679Y-169222506D01*
X147906552Y-169214767D01*
X147899428Y-169206410D01*
X147875030Y-169184810D01*
X147842576Y-169167652D01*
X147804771Y-169156449D01*
X147763510Y-169151757D01*
X147720687Y-169154128D01*
X147701290Y-169157830D01*
X147663281Y-169171392D01*
X147630986Y-169191930D01*
X147605610Y-169218567D01*
X147588359Y-169250425D01*
X147588323Y-169250520D01*
X147586227Y-169256495D01*
X147584439Y-169262880D01*
X147582935Y-169270499D01*
X147581690Y-169280177D01*
X147580679Y-169292735D01*
X147579879Y-169308998D01*
X147579265Y-169329790D01*
X147578812Y-169355932D01*
X147578497Y-169388250D01*
X147578294Y-169427565D01*
X147578179Y-169474702D01*
X147578128Y-169530484D01*
X147578116Y-169595735D01*
X147578114Y-169638295D01*
X147318250Y-169638295D01*
X147318250Y-169596458D01*
X147318250Y-169238821D01*
X147330086Y-169197945D01*
X147339927Y-169167611D01*
X147362224Y-169117554D01*
X147391362Y-169072520D01*
X147428990Y-169029703D01*
X147444409Y-169014505D01*
X147463308Y-168997462D01*
X147481139Y-168984138D01*
X147501246Y-168972120D01*
X147526971Y-168958996D01*
X147536727Y-168954317D01*
X147577537Y-168937002D01*
X147617001Y-168924578D01*
X147657953Y-168916444D01*
X147703225Y-168912004D01*
X147755649Y-168910656D01*
X147801356Y-168911709D01*
X147849714Y-168916090D01*
X147893142Y-168924382D01*
X147934345Y-168937129D01*
X147976023Y-168954873D01*
X148009944Y-168972463D01*
X148056241Y-169002838D01*
X148094820Y-169037567D01*
X148127126Y-169078031D01*
X148154604Y-169125611D01*
X148159791Y-169136043D01*
X148166224Y-169149152D01*
X148171769Y-169161286D01*
X148176494Y-169173250D01*
X148180463Y-169185848D01*
X148183742Y-169199885D01*
X148186397Y-169216166D01*
X148188494Y-169235495D01*
X148190098Y-169258679D01*
X148191275Y-169286520D01*
X148192090Y-169319824D01*
X148192610Y-169359396D01*
X148192900Y-169406041D01*
X148193026Y-169460563D01*
X148193053Y-169523767D01*
X148193048Y-169596458D01*
X148193051Y-169644336D01*
X148193048Y-169664432D01*
X148193042Y-169710605D01*
G37*
D13*
X166325144Y-167154210D02*
X144025144Y-167154210D01*
X166305144Y-160474210D02*
X144025144Y-160474210D01*
X166335144Y-167154210D02*
G75*
G03*
X166335144Y-160474210I0J3340000D01*
G01*
X144035144Y-160474210D02*
G75*
G03*
X144035144Y-167154210I0J-3340000D01*
G01*
D16*
X150591802Y-164650234D02*
X150346944Y-164629968D01*
X150346944Y-162671099D01*
X150469373Y-162660967D01*
X150591802Y-162650834D01*
X150591802Y-164650234D01*
G36*
X150591802Y-164650234D02*
G01*
X150346944Y-164629968D01*
X150346944Y-162671099D01*
X150469373Y-162660967D01*
X150591802Y-162650834D01*
X150591802Y-164650234D01*
G37*
X162467958Y-163617489D02*
X162468441Y-163673398D01*
X162469827Y-163913238D01*
X162470004Y-164130887D01*
X162469043Y-164317724D01*
X162467013Y-164465130D01*
X162463982Y-164564485D01*
X162460021Y-164607170D01*
X162423078Y-164635155D01*
X162337078Y-164640216D01*
X162230748Y-164629968D01*
X162230748Y-162671099D01*
X162459283Y-162671099D01*
X162467958Y-163617489D01*
G36*
X162467958Y-163617489D02*
G01*
X162468441Y-163673398D01*
X162469827Y-163913238D01*
X162470004Y-164130887D01*
X162469043Y-164317724D01*
X162467013Y-164465130D01*
X162463982Y-164564485D01*
X162460021Y-164607170D01*
X162423078Y-164635155D01*
X162337078Y-164640216D01*
X162230748Y-164629968D01*
X162230748Y-162671099D01*
X162459283Y-162671099D01*
X162467958Y-163617489D01*
G37*
X156329656Y-162660967D02*
X156452085Y-162671099D01*
X156460760Y-163617489D01*
X156461248Y-163673761D01*
X156462669Y-163913418D01*
X156462931Y-164130761D01*
X156462095Y-164317194D01*
X156460224Y-164464122D01*
X156457379Y-164562951D01*
X156453623Y-164605085D01*
X156451013Y-164609863D01*
X156403405Y-164635741D01*
X156322518Y-164646292D01*
X156207226Y-164646292D01*
X156207226Y-162650834D01*
X156329656Y-162660967D01*
G36*
X156329656Y-162660967D02*
G01*
X156452085Y-162671099D01*
X156460760Y-163617489D01*
X156461248Y-163673761D01*
X156462669Y-163913418D01*
X156462931Y-164130761D01*
X156462095Y-164317194D01*
X156460224Y-164464122D01*
X156457379Y-164562951D01*
X156453623Y-164605085D01*
X156451013Y-164609863D01*
X156403405Y-164635741D01*
X156322518Y-164646292D01*
X156207226Y-164646292D01*
X156207226Y-162650834D01*
X156329656Y-162660967D01*
G37*
X152615967Y-163626798D02*
X152615882Y-163711488D01*
X152614684Y-163951478D01*
X152612215Y-164167387D01*
X152608662Y-164350974D01*
X152604212Y-164493994D01*
X152599050Y-164588205D01*
X152593365Y-164625364D01*
X152584530Y-164628668D01*
X152522200Y-164635199D01*
X152411792Y-164639315D01*
X152265492Y-164640682D01*
X152095486Y-164638967D01*
X151620208Y-164629968D01*
X151620208Y-164434081D01*
X152353722Y-164415629D01*
X152371108Y-162671099D01*
X152493537Y-162660967D01*
X152615967Y-162650834D01*
X152615967Y-163626798D01*
G36*
X152615967Y-163626798D02*
G01*
X152615882Y-163711488D01*
X152614684Y-163951478D01*
X152612215Y-164167387D01*
X152608662Y-164350974D01*
X152604212Y-164493994D01*
X152599050Y-164588205D01*
X152593365Y-164625364D01*
X152584530Y-164628668D01*
X152522200Y-164635199D01*
X152411792Y-164639315D01*
X152265492Y-164640682D01*
X152095486Y-164638967D01*
X151620208Y-164629968D01*
X151620208Y-164434081D01*
X152353722Y-164415629D01*
X152371108Y-162671099D01*
X152493537Y-162660967D01*
X152615967Y-162650834D01*
X152615967Y-163626798D01*
G37*
X147726475Y-162660833D02*
X147833062Y-162671099D01*
X147865710Y-164246351D01*
X148257483Y-163527999D01*
X148339741Y-163377872D01*
X148445656Y-163186666D01*
X148540674Y-163017470D01*
X148619765Y-162879148D01*
X148677901Y-162780561D01*
X148710050Y-162730572D01*
X148759094Y-162681279D01*
X148821471Y-162660739D01*
X148922261Y-162661298D01*
X149073679Y-162671099D01*
X149082323Y-163660800D01*
X149090966Y-164650501D01*
X148984379Y-164640235D01*
X148877792Y-164629968D01*
X148869054Y-163798057D01*
X148860315Y-162966146D01*
X148417744Y-163765409D01*
X148405926Y-163786732D01*
X148289105Y-163995362D01*
X148180508Y-164185608D01*
X148084740Y-164349678D01*
X148006403Y-164479783D01*
X147950103Y-164568132D01*
X147920441Y-164606936D01*
X147917123Y-164609338D01*
X147844999Y-164634566D01*
X147751442Y-164639583D01*
X147637175Y-164629968D01*
X147628531Y-163640268D01*
X147619887Y-162650567D01*
X147726475Y-162660833D01*
G36*
X147726475Y-162660833D02*
G01*
X147833062Y-162671099D01*
X147865710Y-164246351D01*
X148257483Y-163527999D01*
X148339741Y-163377872D01*
X148445656Y-163186666D01*
X148540674Y-163017470D01*
X148619765Y-162879148D01*
X148677901Y-162780561D01*
X148710050Y-162730572D01*
X148759094Y-162681279D01*
X148821471Y-162660739D01*
X148922261Y-162661298D01*
X149073679Y-162671099D01*
X149082323Y-163660800D01*
X149090966Y-164650501D01*
X148984379Y-164640235D01*
X148877792Y-164629968D01*
X148869054Y-163798057D01*
X148860315Y-162966146D01*
X148417744Y-163765409D01*
X148405926Y-163786732D01*
X148289105Y-163995362D01*
X148180508Y-164185608D01*
X148084740Y-164349678D01*
X148006403Y-164479783D01*
X147950103Y-164568132D01*
X147920441Y-164606936D01*
X147917123Y-164609338D01*
X147844999Y-164634566D01*
X147751442Y-164639583D01*
X147637175Y-164629968D01*
X147628531Y-163640268D01*
X147619887Y-162650567D01*
X147726475Y-162660833D01*
G37*
X145814376Y-162654779D02*
X146034918Y-162657231D01*
X146193908Y-162664409D01*
X146294802Y-162676565D01*
X146341057Y-162693953D01*
X146349475Y-162716699D01*
X146360386Y-162798616D01*
X146369158Y-162928651D01*
X146375798Y-163096495D01*
X146380309Y-163291842D01*
X146382695Y-163504386D01*
X146382961Y-163723818D01*
X146381110Y-163939834D01*
X146377148Y-164142124D01*
X146371078Y-164320384D01*
X146362905Y-164464305D01*
X146352632Y-164563582D01*
X146340265Y-164607907D01*
X146327528Y-164616111D01*
X146269615Y-164629900D01*
X146165499Y-164638059D01*
X146008869Y-164640947D01*
X145793414Y-164638922D01*
X145286532Y-164629968D01*
X145286532Y-164434081D01*
X146119052Y-164415807D01*
X146119052Y-163699506D01*
X145400800Y-163699506D01*
X145400800Y-163505828D01*
X145751764Y-163496561D01*
X146102728Y-163487295D01*
X146112115Y-163185303D01*
X146121502Y-162883310D01*
X145715672Y-162883310D01*
X145694926Y-162883300D01*
X145528478Y-162881902D01*
X145415438Y-162877197D01*
X145345058Y-162867835D01*
X145306590Y-162852466D01*
X145289285Y-162829739D01*
X145281579Y-162794519D01*
X145287992Y-162715472D01*
X145289449Y-162711174D01*
X145303281Y-162689070D01*
X145332655Y-162673607D01*
X145387521Y-162663614D01*
X145477829Y-162657925D01*
X145613528Y-162655368D01*
X145804568Y-162654776D01*
X145814376Y-162654779D01*
G36*
X145814376Y-162654779D02*
G01*
X146034918Y-162657231D01*
X146193908Y-162664409D01*
X146294802Y-162676565D01*
X146341057Y-162693953D01*
X146349475Y-162716699D01*
X146360386Y-162798616D01*
X146369158Y-162928651D01*
X146375798Y-163096495D01*
X146380309Y-163291842D01*
X146382695Y-163504386D01*
X146382961Y-163723818D01*
X146381110Y-163939834D01*
X146377148Y-164142124D01*
X146371078Y-164320384D01*
X146362905Y-164464305D01*
X146352632Y-164563582D01*
X146340265Y-164607907D01*
X146327528Y-164616111D01*
X146269615Y-164629900D01*
X146165499Y-164638059D01*
X146008869Y-164640947D01*
X145793414Y-164638922D01*
X145286532Y-164629968D01*
X145286532Y-164434081D01*
X146119052Y-164415807D01*
X146119052Y-163699506D01*
X145400800Y-163699506D01*
X145400800Y-163505828D01*
X145751764Y-163496561D01*
X146102728Y-163487295D01*
X146112115Y-163185303D01*
X146121502Y-162883310D01*
X145715672Y-162883310D01*
X145694926Y-162883300D01*
X145528478Y-162881902D01*
X145415438Y-162877197D01*
X145345058Y-162867835D01*
X145306590Y-162852466D01*
X145289285Y-162829739D01*
X145281579Y-162794519D01*
X145287992Y-162715472D01*
X145289449Y-162711174D01*
X145303281Y-162689070D01*
X145332655Y-162673607D01*
X145387521Y-162663614D01*
X145477829Y-162657925D01*
X145613528Y-162655368D01*
X145804568Y-162654776D01*
X145814376Y-162654779D01*
G37*
X165112431Y-163617489D02*
X165112911Y-163673092D01*
X165114265Y-163913086D01*
X165114372Y-164130992D01*
X165113305Y-164318171D01*
X165111141Y-164465980D01*
X165107953Y-164565780D01*
X165103818Y-164608931D01*
X165096591Y-164617610D01*
X165037341Y-164636671D01*
X164932077Y-164646834D01*
X164794618Y-164648785D01*
X164638781Y-164643212D01*
X164478383Y-164630801D01*
X164327241Y-164612240D01*
X164199174Y-164588215D01*
X164107998Y-164559414D01*
X163926600Y-164449859D01*
X163782652Y-164296471D01*
X163681188Y-164098167D01*
X163618869Y-163850102D01*
X163610806Y-163734335D01*
X163886448Y-163734335D01*
X163910112Y-163927864D01*
X163969737Y-164109937D01*
X164066807Y-164246591D01*
X164204697Y-164344300D01*
X164227373Y-164355341D01*
X164329965Y-164393063D01*
X164447425Y-164412346D01*
X164604633Y-164417758D01*
X164858897Y-164417758D01*
X164858897Y-162883310D01*
X164612990Y-162883310D01*
X164426331Y-162892618D01*
X164277628Y-162926035D01*
X164158409Y-162989823D01*
X164051728Y-163090229D01*
X163995265Y-163164100D01*
X163922865Y-163316878D01*
X163887629Y-163502917D01*
X163886448Y-163734335D01*
X163610806Y-163734335D01*
X163600760Y-163590101D01*
X163629620Y-163346453D01*
X163702555Y-163130150D01*
X163816407Y-162950535D01*
X163968020Y-162816950D01*
X163975173Y-162812457D01*
X164128105Y-162736457D01*
X164304699Y-162687634D01*
X164517808Y-162663531D01*
X164780284Y-162661693D01*
X165103756Y-162671099D01*
X165105702Y-162883310D01*
X165112431Y-163617489D01*
G36*
X165112431Y-163617489D02*
G01*
X165112911Y-163673092D01*
X165114265Y-163913086D01*
X165114372Y-164130992D01*
X165113305Y-164318171D01*
X165111141Y-164465980D01*
X165107953Y-164565780D01*
X165103818Y-164608931D01*
X165096591Y-164617610D01*
X165037341Y-164636671D01*
X164932077Y-164646834D01*
X164794618Y-164648785D01*
X164638781Y-164643212D01*
X164478383Y-164630801D01*
X164327241Y-164612240D01*
X164199174Y-164588215D01*
X164107998Y-164559414D01*
X163926600Y-164449859D01*
X163782652Y-164296471D01*
X163681188Y-164098167D01*
X163618869Y-163850102D01*
X163610806Y-163734335D01*
X163886448Y-163734335D01*
X163910112Y-163927864D01*
X163969737Y-164109937D01*
X164066807Y-164246591D01*
X164204697Y-164344300D01*
X164227373Y-164355341D01*
X164329965Y-164393063D01*
X164447425Y-164412346D01*
X164604633Y-164417758D01*
X164858897Y-164417758D01*
X164858897Y-162883310D01*
X164612990Y-162883310D01*
X164426331Y-162892618D01*
X164277628Y-162926035D01*
X164158409Y-162989823D01*
X164051728Y-163090229D01*
X163995265Y-163164100D01*
X163922865Y-163316878D01*
X163887629Y-163502917D01*
X163886448Y-163734335D01*
X163610806Y-163734335D01*
X163600760Y-163590101D01*
X163629620Y-163346453D01*
X163702555Y-163130150D01*
X163816407Y-162950535D01*
X163968020Y-162816950D01*
X163975173Y-162812457D01*
X164128105Y-162736457D01*
X164304699Y-162687634D01*
X164517808Y-162663531D01*
X164780284Y-162661693D01*
X165103756Y-162671099D01*
X165105702Y-162883310D01*
X165112431Y-163617489D01*
G37*
X158394655Y-162687333D02*
X158586516Y-162789979D01*
X158699359Y-162897078D01*
X158815123Y-163078068D01*
X158896236Y-163300088D01*
X158937841Y-163552590D01*
X158938822Y-163799878D01*
X158897561Y-164050050D01*
X158814756Y-164266117D01*
X158693729Y-164441890D01*
X158537799Y-164571180D01*
X158350288Y-164647796D01*
X158244618Y-164665847D01*
X158055395Y-164669959D01*
X157869350Y-164643959D01*
X157706153Y-164591254D01*
X157585478Y-164515256D01*
X157565744Y-164492776D01*
X157529579Y-164421166D01*
X157512684Y-164343086D01*
X157518111Y-164280286D01*
X157548909Y-164254519D01*
X157551220Y-164254634D01*
X157603164Y-164274662D01*
X157674782Y-164318677D01*
X157776751Y-164378891D01*
X157956897Y-164435479D01*
X158137995Y-164438527D01*
X158307800Y-164390362D01*
X158454067Y-164293309D01*
X158564552Y-164149694D01*
X158586015Y-164106793D01*
X158613343Y-164033021D01*
X158629527Y-163946696D01*
X158637283Y-163830258D01*
X158639326Y-163666152D01*
X158638419Y-163536793D01*
X158632723Y-163412270D01*
X158619110Y-163320306D01*
X158594535Y-163242415D01*
X158555951Y-163160111D01*
X158496213Y-163061565D01*
X158373017Y-162938547D01*
X158219538Y-162872186D01*
X158030294Y-162859344D01*
X158009659Y-162860803D01*
X157849010Y-162891158D01*
X157710835Y-162959858D01*
X157660679Y-162991031D01*
X157575871Y-163026512D01*
X157528111Y-163012693D01*
X157513139Y-162949349D01*
X157525844Y-162860616D01*
X157578113Y-162784344D01*
X157682638Y-162716878D01*
X157741356Y-162690119D01*
X157954214Y-162635959D01*
X158177934Y-162635512D01*
X158394655Y-162687333D01*
G36*
X158394655Y-162687333D02*
G01*
X158586516Y-162789979D01*
X158699359Y-162897078D01*
X158815123Y-163078068D01*
X158896236Y-163300088D01*
X158937841Y-163552590D01*
X158938822Y-163799878D01*
X158897561Y-164050050D01*
X158814756Y-164266117D01*
X158693729Y-164441890D01*
X158537799Y-164571180D01*
X158350288Y-164647796D01*
X158244618Y-164665847D01*
X158055395Y-164669959D01*
X157869350Y-164643959D01*
X157706153Y-164591254D01*
X157585478Y-164515256D01*
X157565744Y-164492776D01*
X157529579Y-164421166D01*
X157512684Y-164343086D01*
X157518111Y-164280286D01*
X157548909Y-164254519D01*
X157551220Y-164254634D01*
X157603164Y-164274662D01*
X157674782Y-164318677D01*
X157776751Y-164378891D01*
X157956897Y-164435479D01*
X158137995Y-164438527D01*
X158307800Y-164390362D01*
X158454067Y-164293309D01*
X158564552Y-164149694D01*
X158586015Y-164106793D01*
X158613343Y-164033021D01*
X158629527Y-163946696D01*
X158637283Y-163830258D01*
X158639326Y-163666152D01*
X158638419Y-163536793D01*
X158632723Y-163412270D01*
X158619110Y-163320306D01*
X158594535Y-163242415D01*
X158555951Y-163160111D01*
X158496213Y-163061565D01*
X158373017Y-162938547D01*
X158219538Y-162872186D01*
X158030294Y-162859344D01*
X158009659Y-162860803D01*
X157849010Y-162891158D01*
X157710835Y-162959858D01*
X157660679Y-162991031D01*
X157575871Y-163026512D01*
X157528111Y-163012693D01*
X157513139Y-162949349D01*
X157525844Y-162860616D01*
X157578113Y-162784344D01*
X157682638Y-162716878D01*
X157741356Y-162690119D01*
X157954214Y-162635959D01*
X158177934Y-162635512D01*
X158394655Y-162687333D01*
G37*
X154961626Y-162999379D02*
X154964628Y-163167721D01*
X154966172Y-163387409D01*
X154966609Y-163665414D01*
X154966576Y-163717340D01*
X154965551Y-163954668D01*
X154963232Y-164168760D01*
X154959811Y-164351203D01*
X154955479Y-164493586D01*
X154950426Y-164587498D01*
X154944844Y-164624527D01*
X154943370Y-164625812D01*
X154894923Y-164640319D01*
X154814253Y-164646292D01*
X154705427Y-164646292D01*
X154705427Y-163903782D01*
X154450225Y-163889009D01*
X154366147Y-163881960D01*
X154144328Y-163835080D01*
X153974128Y-163748994D01*
X153854154Y-163622394D01*
X153783009Y-163453977D01*
X153759299Y-163242436D01*
X153761913Y-163185561D01*
X154021132Y-163185561D01*
X154026708Y-163292377D01*
X154033096Y-163346643D01*
X154080919Y-163497595D01*
X154172297Y-163602535D01*
X154311229Y-163666725D01*
X154316399Y-163668137D01*
X154425690Y-163689223D01*
X154538225Y-163698293D01*
X154631662Y-163694686D01*
X154683662Y-163677740D01*
X154691947Y-163640207D01*
X154698950Y-163550448D01*
X154703686Y-163422368D01*
X154705427Y-163269643D01*
X154705427Y-162883310D01*
X154473627Y-162883310D01*
X154423184Y-162883466D01*
X154317530Y-162887790D01*
X154247496Y-162903537D01*
X154191221Y-162937956D01*
X154126842Y-162998296D01*
X154071603Y-163056290D01*
X154032974Y-163116034D01*
X154021132Y-163185561D01*
X153761913Y-163185561D01*
X153764624Y-163126571D01*
X153801397Y-162971445D01*
X153879408Y-162851186D01*
X154005997Y-162751175D01*
X154053149Y-162724684D01*
X154121607Y-162698121D01*
X154208260Y-162680525D01*
X154328807Y-162669015D01*
X154498950Y-162660711D01*
X154633129Y-162656887D01*
X154777155Y-162658270D01*
X154869382Y-162668250D01*
X154917510Y-162687318D01*
X154928045Y-162699996D01*
X154940377Y-162732690D01*
X154949851Y-162788836D01*
X154956817Y-162875408D01*
X154957124Y-162883310D01*
X154961626Y-162999379D01*
G36*
X154961626Y-162999379D02*
G01*
X154964628Y-163167721D01*
X154966172Y-163387409D01*
X154966609Y-163665414D01*
X154966576Y-163717340D01*
X154965551Y-163954668D01*
X154963232Y-164168760D01*
X154959811Y-164351203D01*
X154955479Y-164493586D01*
X154950426Y-164587498D01*
X154944844Y-164624527D01*
X154943370Y-164625812D01*
X154894923Y-164640319D01*
X154814253Y-164646292D01*
X154705427Y-164646292D01*
X154705427Y-163903782D01*
X154450225Y-163889009D01*
X154366147Y-163881960D01*
X154144328Y-163835080D01*
X153974128Y-163748994D01*
X153854154Y-163622394D01*
X153783009Y-163453977D01*
X153759299Y-163242436D01*
X153761913Y-163185561D01*
X154021132Y-163185561D01*
X154026708Y-163292377D01*
X154033096Y-163346643D01*
X154080919Y-163497595D01*
X154172297Y-163602535D01*
X154311229Y-163666725D01*
X154316399Y-163668137D01*
X154425690Y-163689223D01*
X154538225Y-163698293D01*
X154631662Y-163694686D01*
X154683662Y-163677740D01*
X154691947Y-163640207D01*
X154698950Y-163550448D01*
X154703686Y-163422368D01*
X154705427Y-163269643D01*
X154705427Y-162883310D01*
X154473627Y-162883310D01*
X154423184Y-162883466D01*
X154317530Y-162887790D01*
X154247496Y-162903537D01*
X154191221Y-162937956D01*
X154126842Y-162998296D01*
X154071603Y-163056290D01*
X154032974Y-163116034D01*
X154021132Y-163185561D01*
X153761913Y-163185561D01*
X153764624Y-163126571D01*
X153801397Y-162971445D01*
X153879408Y-162851186D01*
X154005997Y-162751175D01*
X154053149Y-162724684D01*
X154121607Y-162698121D01*
X154208260Y-162680525D01*
X154328807Y-162669015D01*
X154498950Y-162660711D01*
X154633129Y-162656887D01*
X154777155Y-162658270D01*
X154869382Y-162668250D01*
X154917510Y-162687318D01*
X154928045Y-162699996D01*
X154940377Y-162732690D01*
X154949851Y-162788836D01*
X154956817Y-162875408D01*
X154957124Y-162883310D01*
X154961626Y-162999379D01*
G37*
X160569122Y-162631877D02*
X160665380Y-162646681D01*
X160842339Y-162710107D01*
X160969422Y-162815336D01*
X161046077Y-162961799D01*
X161071751Y-163148930D01*
X161071701Y-163159409D01*
X161057855Y-163297144D01*
X161013799Y-163411095D01*
X160931324Y-163511457D01*
X160802221Y-163608427D01*
X160618283Y-163712201D01*
X160576322Y-163734206D01*
X160399495Y-163838044D01*
X160279731Y-163932090D01*
X160211747Y-164021260D01*
X160190260Y-164110470D01*
X160192267Y-164148378D01*
X160233993Y-164274064D01*
X160322175Y-164367761D01*
X160446829Y-164426186D01*
X160597972Y-164446056D01*
X160765621Y-164424087D01*
X160939792Y-164356995D01*
X160983487Y-164335935D01*
X161061885Y-164307535D01*
X161106550Y-164304820D01*
X161111144Y-164308359D01*
X161132748Y-164361057D01*
X161133370Y-164437173D01*
X161112061Y-164502652D01*
X161109427Y-164506351D01*
X161045629Y-164558593D01*
X160943481Y-164610095D01*
X160826892Y-164648620D01*
X160636489Y-164675603D01*
X160426856Y-164660265D01*
X160239843Y-164598390D01*
X160086250Y-164493769D01*
X159976876Y-164350194D01*
X159971011Y-164338078D01*
X159937654Y-164214800D01*
X159930175Y-164068767D01*
X159947881Y-163927832D01*
X159990080Y-163819849D01*
X160073448Y-163724770D01*
X160236766Y-163606298D01*
X160463980Y-163490354D01*
X160583396Y-163431459D01*
X160713307Y-163340158D01*
X160787179Y-163240997D01*
X160810568Y-163128169D01*
X160800786Y-163052629D01*
X160743677Y-162948617D01*
X160645003Y-162878974D01*
X160515671Y-162847564D01*
X160366587Y-162858251D01*
X160208658Y-162914901D01*
X160175184Y-162930900D01*
X160098499Y-162958916D01*
X160054840Y-162961945D01*
X160035111Y-162931595D01*
X160028328Y-162857763D01*
X160046194Y-162773391D01*
X160088420Y-162728554D01*
X160180909Y-162684296D01*
X160303980Y-162650150D01*
X160439446Y-162631036D01*
X160569122Y-162631877D01*
G36*
X160569122Y-162631877D02*
G01*
X160665380Y-162646681D01*
X160842339Y-162710107D01*
X160969422Y-162815336D01*
X161046077Y-162961799D01*
X161071751Y-163148930D01*
X161071701Y-163159409D01*
X161057855Y-163297144D01*
X161013799Y-163411095D01*
X160931324Y-163511457D01*
X160802221Y-163608427D01*
X160618283Y-163712201D01*
X160576322Y-163734206D01*
X160399495Y-163838044D01*
X160279731Y-163932090D01*
X160211747Y-164021260D01*
X160190260Y-164110470D01*
X160192267Y-164148378D01*
X160233993Y-164274064D01*
X160322175Y-164367761D01*
X160446829Y-164426186D01*
X160597972Y-164446056D01*
X160765621Y-164424087D01*
X160939792Y-164356995D01*
X160983487Y-164335935D01*
X161061885Y-164307535D01*
X161106550Y-164304820D01*
X161111144Y-164308359D01*
X161132748Y-164361057D01*
X161133370Y-164437173D01*
X161112061Y-164502652D01*
X161109427Y-164506351D01*
X161045629Y-164558593D01*
X160943481Y-164610095D01*
X160826892Y-164648620D01*
X160636489Y-164675603D01*
X160426856Y-164660265D01*
X160239843Y-164598390D01*
X160086250Y-164493769D01*
X159976876Y-164350194D01*
X159971011Y-164338078D01*
X159937654Y-164214800D01*
X159930175Y-164068767D01*
X159947881Y-163927832D01*
X159990080Y-163819849D01*
X160073448Y-163724770D01*
X160236766Y-163606298D01*
X160463980Y-163490354D01*
X160583396Y-163431459D01*
X160713307Y-163340158D01*
X160787179Y-163240997D01*
X160810568Y-163128169D01*
X160800786Y-163052629D01*
X160743677Y-162948617D01*
X160645003Y-162878974D01*
X160515671Y-162847564D01*
X160366587Y-162858251D01*
X160208658Y-162914901D01*
X160175184Y-162930900D01*
X160098499Y-162958916D01*
X160054840Y-162961945D01*
X160035111Y-162931595D01*
X160028328Y-162857763D01*
X160046194Y-162773391D01*
X160088420Y-162728554D01*
X160180909Y-162684296D01*
X160303980Y-162650150D01*
X160439446Y-162631036D01*
X160569122Y-162631877D01*
G37*
D17*
X88519000Y-60198000D03*
D18*
X93599000Y-60198000D03*
D17*
X290026316Y-68060499D03*
D18*
X295106316Y-68060499D03*
D17*
X295106316Y-63073204D03*
D18*
X290026316Y-63073204D03*
D17*
X295106316Y-78138982D03*
D18*
X290026316Y-78138982D03*
D17*
X290026316Y-65567034D03*
D18*
X295106316Y-65567034D03*
D17*
X290026316Y-70580211D03*
D18*
X295106316Y-70580211D03*
D17*
X295106316Y-75645517D03*
D18*
X290026316Y-75645517D03*
D17*
X295106316Y-73152052D03*
D18*
X290026316Y-73152052D03*
D19*
X58261250Y-94773750D03*
D20*
X63341250Y-94773750D03*
D19*
X68421250Y-94773750D03*
D21*
X65881250Y-89693750D03*
X59531250Y-92233750D03*
D19*
X77311250Y-94773750D03*
D20*
X82391250Y-94773750D03*
D19*
X87471250Y-94773750D03*
D21*
X84931250Y-89693750D03*
X78581250Y-92233750D03*
D19*
X96361250Y-94773750D03*
D20*
X101441250Y-94773750D03*
D19*
X106521250Y-94773750D03*
D21*
X103981250Y-89693750D03*
X97631250Y-92233750D03*
D19*
X115411250Y-94773750D03*
D20*
X120491250Y-94773750D03*
D19*
X125571250Y-94773750D03*
D21*
X123031250Y-89693750D03*
X116681250Y-92233750D03*
D19*
X134461250Y-94773750D03*
D20*
X139541250Y-94773750D03*
D19*
X144621250Y-94773750D03*
D21*
X142081250Y-89693750D03*
X135731250Y-92233750D03*
D19*
X153511250Y-94773750D03*
D20*
X158591250Y-94773750D03*
D19*
X163671250Y-94773750D03*
D21*
X161131250Y-89693750D03*
X154781250Y-92233750D03*
D19*
X172561250Y-94773750D03*
D20*
X177641250Y-94773750D03*
D19*
X182721250Y-94773750D03*
D21*
X180181250Y-89693750D03*
X173831250Y-92233750D03*
D19*
X191611250Y-94773750D03*
D20*
X196691250Y-94773750D03*
D19*
X201771250Y-94773750D03*
D21*
X199231250Y-89693750D03*
X192881250Y-92233750D03*
D19*
X210661250Y-94773750D03*
D20*
X215741250Y-94773750D03*
D19*
X220821250Y-94773750D03*
D21*
X218281250Y-89693750D03*
X211931250Y-92233750D03*
D19*
X229711250Y-94773750D03*
D20*
X234791250Y-94773750D03*
D19*
X239871250Y-94773750D03*
D21*
X237331250Y-89693750D03*
X230981250Y-92233750D03*
D19*
X248761250Y-94773750D03*
D20*
X253841250Y-94773750D03*
D19*
X258921250Y-94773750D03*
D21*
X256381250Y-89693750D03*
X250031250Y-92233750D03*
D19*
X267811250Y-94773750D03*
D20*
X272891250Y-94773750D03*
D19*
X277971250Y-94773750D03*
D21*
X275431250Y-89693750D03*
X269081250Y-92233750D03*
D19*
X286861250Y-94773750D03*
D20*
X291941250Y-94773750D03*
D19*
X297021250Y-94773750D03*
D21*
X294481250Y-89693750D03*
X288131250Y-92233750D03*
D19*
X344011250Y-94773750D03*
D20*
X349091250Y-94773750D03*
D19*
X354171250Y-94773750D03*
D21*
X351631250Y-89693750D03*
X345281250Y-92233750D03*
D19*
X86836250Y-113823750D03*
D20*
X91916250Y-113823750D03*
D19*
X96996250Y-113823750D03*
D21*
X94456250Y-108743750D03*
X88106250Y-111283750D03*
D19*
X105886250Y-113823750D03*
D20*
X110966250Y-113823750D03*
D19*
X116046250Y-113823750D03*
D21*
X113506250Y-108743750D03*
X107156250Y-111283750D03*
D19*
X124936250Y-113823750D03*
D20*
X130016250Y-113823750D03*
D19*
X135096250Y-113823750D03*
D21*
X132556250Y-108743750D03*
X126206250Y-111283750D03*
D19*
X143986250Y-113823750D03*
D20*
X149066250Y-113823750D03*
D19*
X154146250Y-113823750D03*
D21*
X151606250Y-108743750D03*
X145256250Y-111283750D03*
D19*
X163036250Y-113823750D03*
D20*
X168116250Y-113823750D03*
D19*
X173196250Y-113823750D03*
D21*
X170656250Y-108743750D03*
X164306250Y-111283750D03*
D19*
X182086250Y-113823750D03*
D20*
X187166250Y-113823750D03*
D19*
X192246250Y-113823750D03*
D21*
X189706250Y-108743750D03*
X183356250Y-111283750D03*
D19*
X201136250Y-113823750D03*
D20*
X206216250Y-113823750D03*
D19*
X211296250Y-113823750D03*
D21*
X208756250Y-108743750D03*
X202406250Y-111283750D03*
D19*
X220186250Y-113823750D03*
D20*
X225266250Y-113823750D03*
D19*
X230346250Y-113823750D03*
D21*
X227806250Y-108743750D03*
X221456250Y-111283750D03*
D19*
X239236250Y-113823750D03*
D20*
X244316250Y-113823750D03*
D19*
X249396250Y-113823750D03*
D21*
X246856250Y-108743750D03*
X240506250Y-111283750D03*
D19*
X258286250Y-113823750D03*
D20*
X263366250Y-113823750D03*
D19*
X268446250Y-113823750D03*
D21*
X265906250Y-108743750D03*
X259556250Y-111283750D03*
D19*
X277336250Y-113823750D03*
D20*
X282416250Y-113823750D03*
D19*
X287496250Y-113823750D03*
D21*
X284956250Y-108743750D03*
X278606250Y-111283750D03*
D19*
X296386250Y-113823750D03*
D20*
X301466250Y-113823750D03*
D19*
X306546250Y-113823750D03*
D21*
X304006250Y-108743750D03*
X297656250Y-111283750D03*
D19*
X344011250Y-113823750D03*
D20*
X349091250Y-113823750D03*
D19*
X354171250Y-113823750D03*
D21*
X351631250Y-108743750D03*
X345281250Y-111283750D03*
D19*
X91598750Y-132873750D03*
D20*
X96678750Y-132873750D03*
D19*
X101758750Y-132873750D03*
D21*
X99218750Y-127793750D03*
X92868750Y-130333750D03*
D19*
X110648750Y-132873750D03*
D20*
X115728750Y-132873750D03*
D19*
X120808750Y-132873750D03*
D21*
X118268750Y-127793750D03*
X111918750Y-130333750D03*
D19*
X129698750Y-132873750D03*
D20*
X134778750Y-132873750D03*
D19*
X139858750Y-132873750D03*
D21*
X137318750Y-127793750D03*
X130968750Y-130333750D03*
D19*
X148748250Y-132873750D03*
D20*
X153828250Y-132873750D03*
D19*
X158908250Y-132873750D03*
D21*
X156368250Y-127793750D03*
X150018250Y-130333750D03*
D19*
X167798250Y-132873750D03*
D20*
X172878250Y-132873750D03*
D19*
X177958250Y-132873750D03*
D21*
X175418250Y-127793750D03*
X169068250Y-130333750D03*
D19*
X186848250Y-132873750D03*
D20*
X191928250Y-132873750D03*
D19*
X197008250Y-132873750D03*
D21*
X194468250Y-127793750D03*
X188118250Y-130333750D03*
D19*
X205898250Y-132873750D03*
D20*
X210978250Y-132873750D03*
D19*
X216058250Y-132873750D03*
D21*
X213518250Y-127793750D03*
X207168250Y-130333750D03*
D19*
X224948250Y-132873750D03*
D20*
X230028250Y-132873750D03*
D19*
X235108250Y-132873750D03*
D21*
X232568250Y-127793750D03*
X226218250Y-130333750D03*
D19*
X243998250Y-132873750D03*
D20*
X249078250Y-132873750D03*
D19*
X254158250Y-132873750D03*
D21*
X251618250Y-127793750D03*
X245268250Y-130333750D03*
D19*
X263048250Y-132873750D03*
D20*
X268128250Y-132873750D03*
D19*
X273208250Y-132873750D03*
D21*
X270668250Y-127793750D03*
X264318250Y-130333750D03*
D19*
X282098250Y-132873750D03*
D20*
X287178250Y-132873750D03*
D19*
X292258250Y-132873750D03*
D21*
X289718250Y-127793750D03*
X283368250Y-130333750D03*
D19*
X344011250Y-132873750D03*
D20*
X349091250Y-132873750D03*
D19*
X354171250Y-132873750D03*
D21*
X351631250Y-127793750D03*
X345281250Y-130333750D03*
D19*
X101123750Y-151923750D03*
D20*
X106203750Y-151923750D03*
D19*
X111283750Y-151923750D03*
D21*
X108743750Y-146843750D03*
X102393750Y-149383750D03*
D19*
X120173750Y-151923750D03*
D20*
X125253750Y-151923750D03*
D19*
X130333750Y-151923750D03*
D21*
X127793750Y-146843750D03*
X121443750Y-149383750D03*
D19*
X139223750Y-151923750D03*
D20*
X144303750Y-151923750D03*
D19*
X149383750Y-151923750D03*
D21*
X146843750Y-146843750D03*
X140493750Y-149383750D03*
D19*
X158274250Y-151923750D03*
D20*
X163354250Y-151923750D03*
D19*
X168434250Y-151923750D03*
D21*
X165894250Y-146843750D03*
X159544250Y-149383750D03*
D19*
X177324250Y-151923750D03*
D20*
X182404250Y-151923750D03*
D19*
X187484250Y-151923750D03*
D21*
X184944250Y-146843750D03*
X178594250Y-149383750D03*
D19*
X196374250Y-151923750D03*
D20*
X201454250Y-151923750D03*
D19*
X206534250Y-151923750D03*
D21*
X203994250Y-146843750D03*
X197644250Y-149383750D03*
D19*
X215424250Y-151923750D03*
D20*
X220504250Y-151923750D03*
D19*
X225584250Y-151923750D03*
D21*
X223044250Y-146843750D03*
X216694250Y-149383750D03*
D19*
X234474250Y-151923750D03*
D20*
X239554250Y-151923750D03*
D19*
X244634250Y-151923750D03*
D21*
X242094250Y-146843750D03*
X235744250Y-149383750D03*
D19*
X253524250Y-151923750D03*
D20*
X258604250Y-151923750D03*
D19*
X263684250Y-151923750D03*
D21*
X261144250Y-146843750D03*
X254794250Y-149383750D03*
D19*
X272574250Y-151923750D03*
D20*
X277654250Y-151923750D03*
D19*
X282734250Y-151923750D03*
D21*
X280194250Y-146843750D03*
X273844250Y-149383750D03*
D19*
X324961250Y-151923750D03*
D20*
X330041250Y-151923750D03*
D19*
X335121250Y-151923750D03*
D21*
X332581250Y-146843750D03*
X326231250Y-149383750D03*
D19*
X344011250Y-151923750D03*
D20*
X349091250Y-151923750D03*
D19*
X354171250Y-151923750D03*
D21*
X351631250Y-146843750D03*
X345281250Y-149383750D03*
D19*
X179705250Y-170973750D03*
D20*
X184785250Y-170973750D03*
D19*
X189865250Y-170973750D03*
D21*
X187325250Y-165893750D03*
X180975250Y-168433750D03*
D19*
X305911250Y-170973750D03*
D20*
X310991250Y-170973750D03*
D19*
X316071250Y-170973750D03*
D21*
X313531250Y-165893750D03*
X307181250Y-168433750D03*
D19*
X324961250Y-170973750D03*
D20*
X330041250Y-170973750D03*
D19*
X335121250Y-170973750D03*
D21*
X332581250Y-165893750D03*
X326231250Y-168433750D03*
D19*
X344011250Y-170973750D03*
D20*
X349091250Y-170973750D03*
D19*
X354171250Y-170973750D03*
D21*
X351631250Y-165893750D03*
X345281250Y-168433750D03*
D22*
X308616250Y-87773750D03*
D20*
X308616250Y-103013750D03*
D19*
X315436250Y-94773750D03*
D20*
X320516250Y-94773750D03*
D19*
X325596250Y-94773750D03*
D22*
X332416250Y-87773750D03*
D20*
X332416250Y-103013750D03*
D21*
X323056250Y-89693750D03*
X316706250Y-92233750D03*
D19*
X320198250Y-113823750D03*
D20*
X325278250Y-113823750D03*
D19*
X330358250Y-113823750D03*
D21*
X327818250Y-108743750D03*
X321468250Y-111283750D03*
D19*
X65405050Y-132863620D03*
D20*
X70485050Y-132863620D03*
D19*
X75565050Y-132863620D03*
D21*
X73025050Y-127783620D03*
X66675050Y-130323620D03*
D22*
X306235250Y-125873750D03*
D20*
X306235250Y-141113750D03*
D19*
X313055250Y-132873750D03*
D20*
X318135250Y-132873750D03*
D19*
X323215250Y-132873750D03*
D22*
X330035250Y-125873750D03*
D20*
X330035250Y-141113750D03*
D21*
X320675250Y-127793750D03*
X314325250Y-130333750D03*
D22*
X63347450Y-144923750D03*
D20*
X63347450Y-160163750D03*
D19*
X70167450Y-151923750D03*
D20*
X75247450Y-151923750D03*
D19*
X80327450Y-151923750D03*
D22*
X87147450Y-144923750D03*
D20*
X87147450Y-160163750D03*
D21*
X77787450Y-146843750D03*
X71437450Y-149383750D03*
D19*
X298767250Y-151923750D03*
D20*
X303847250Y-151923750D03*
D19*
X308927250Y-151923750D03*
D21*
X306387250Y-146843750D03*
X300037250Y-149383750D03*
D19*
X60642450Y-170963620D03*
D20*
X65722450Y-170963620D03*
D19*
X70802450Y-170963620D03*
D21*
X68262450Y-165883620D03*
X61912450Y-168423620D03*
D19*
X84455050Y-170973750D03*
D20*
X89535050Y-170973750D03*
D19*
X94615050Y-170973750D03*
D21*
X92075050Y-165893750D03*
X85725050Y-168433750D03*
D19*
X108267450Y-170963620D03*
D20*
X113347450Y-170963620D03*
D19*
X118427450Y-170963620D03*
D21*
X115887450Y-165883620D03*
X109537450Y-168423620D03*
D23*
X57766382Y-80444750D03*
X57766382Y-61694750D03*
X354660309Y-61694750D03*
X354660309Y-80444750D03*
X96565888Y-161146960D03*
X315860803Y-161146960D03*
X113754723Y-104302994D03*
X298671968Y-104302994D03*
X206213345Y-104302994D03*
D24*
X120517573Y-162726640D03*
D25*
X120517573Y-177966640D03*
D24*
X234817573Y-162726640D03*
D25*
X234817573Y-177966640D03*
D23*
X206213345Y-166958110D03*
D19*
X286901528Y-170963620D03*
D20*
X291981528Y-170963620D03*
D19*
X297061528Y-170963620D03*
D21*
X294521528Y-165883620D03*
X288171528Y-168423620D03*
D26*
X85786525Y-72436199D03*
D27*
X85786525Y-77516199D03*
D26*
X88955988Y-67475612D03*
D27*
X88955988Y-72555612D03*
D26*
X101633840Y-67475612D03*
D27*
X101633840Y-72555612D03*
D26*
X114311692Y-67475612D03*
D27*
X114311692Y-72555612D03*
D26*
X126989544Y-67475612D03*
D27*
X126989544Y-72555612D03*
D26*
X139667396Y-67475612D03*
D27*
X139667396Y-72555612D03*
D26*
X152345248Y-67475612D03*
D27*
X152345248Y-72555612D03*
D26*
X165023100Y-67475612D03*
D27*
X165023100Y-72555612D03*
D26*
X177700952Y-67475612D03*
D27*
X177700952Y-72555612D03*
D26*
X190378804Y-67475612D03*
D27*
X190378804Y-72555612D03*
D26*
X203056656Y-67475612D03*
D27*
X203056656Y-72555612D03*
D26*
X215734508Y-67475612D03*
D27*
X215734508Y-72555612D03*
D26*
X228342376Y-67475612D03*
D27*
X228342376Y-72555612D03*
D26*
X275541929Y-72436199D03*
D27*
X275541929Y-77516199D03*
D26*
X82617062Y-70782670D03*
D27*
X82617062Y-75862670D03*
D26*
X92125451Y-69129141D03*
D27*
X92125451Y-74209141D03*
D26*
X104803303Y-69129141D03*
D27*
X104803303Y-74209141D03*
D26*
X117481155Y-69129141D03*
D27*
X117481155Y-74209141D03*
D26*
X130159007Y-69129141D03*
D27*
X130159007Y-74209141D03*
D26*
X142836859Y-69129141D03*
D27*
X142836859Y-74209141D03*
D26*
X155514711Y-69129141D03*
D27*
X155514711Y-74209141D03*
D26*
X168192563Y-69129141D03*
D27*
X168192563Y-74209141D03*
D26*
X180870415Y-69129141D03*
D27*
X180870415Y-74209141D03*
D26*
X193548267Y-69129141D03*
D27*
X193548267Y-74209141D03*
D26*
X206226119Y-69129141D03*
D27*
X206226119Y-74209141D03*
D26*
X218886475Y-69129141D03*
D27*
X218886475Y-74209141D03*
D26*
X231493149Y-69129141D03*
D27*
X231493149Y-74209141D03*
D26*
X272453205Y-70782670D03*
D27*
X272453205Y-75862670D03*
D26*
X95294914Y-70782670D03*
D27*
X95294914Y-75862670D03*
D26*
X107972766Y-70782670D03*
D27*
X107972766Y-75862670D03*
D26*
X120650618Y-70782670D03*
D27*
X120650618Y-75862670D03*
D26*
X133328470Y-70782670D03*
D27*
X133328470Y-75862670D03*
D26*
X146006322Y-70782670D03*
D27*
X146006322Y-75862670D03*
D26*
X158684174Y-70782670D03*
D27*
X158684174Y-75862670D03*
D26*
X171362026Y-70782670D03*
D27*
X171362026Y-75862670D03*
D26*
X184039878Y-70782670D03*
D27*
X184039878Y-75862670D03*
D26*
X196717730Y-70782670D03*
D27*
X196717730Y-75862670D03*
D26*
X209395582Y-70782670D03*
D27*
X209395582Y-75862670D03*
D26*
X234643922Y-70782670D03*
D27*
X234643922Y-75862670D03*
D26*
X269364481Y-69129141D03*
D27*
X269364481Y-74209141D03*
D26*
X98464377Y-72436199D03*
D27*
X98464377Y-77516199D03*
D26*
X111142229Y-72436199D03*
D27*
X111142229Y-77516199D03*
D26*
X123820081Y-72436199D03*
D27*
X123820081Y-77516199D03*
D26*
X136497933Y-72436199D03*
D27*
X136497933Y-77516199D03*
D26*
X149175785Y-72436199D03*
D27*
X149175785Y-77516199D03*
D26*
X161853637Y-72436199D03*
D27*
X161853637Y-77516199D03*
D26*
X174531489Y-72436199D03*
D27*
X174531489Y-77516199D03*
D26*
X187209341Y-72436199D03*
D27*
X187209341Y-77516199D03*
D26*
X199887193Y-72436199D03*
D27*
X199887193Y-77516199D03*
D26*
X212565045Y-72436199D03*
D27*
X212565045Y-77516199D03*
D26*
X222038442Y-70782670D03*
D27*
X222038442Y-75862670D03*
D26*
X237794695Y-72436199D03*
D27*
X237794695Y-77516199D03*
D26*
X266089606Y-67475612D03*
D27*
X266089606Y-72555612D03*
D26*
X259788058Y-70782670D03*
D27*
X259788058Y-75862670D03*
D26*
X256637284Y-69129141D03*
D27*
X256637284Y-74209141D03*
D26*
X253486511Y-67475612D03*
D27*
X253486511Y-72555612D03*
D26*
X250335738Y-72436199D03*
D27*
X250335738Y-77516199D03*
D26*
X225190409Y-72436199D03*
D27*
X225190409Y-77516199D03*
D26*
X244096241Y-69129141D03*
D27*
X244096241Y-74209141D03*
D26*
X240945468Y-67475612D03*
D27*
X240945468Y-72555612D03*
D26*
X262938832Y-72436199D03*
D27*
X262938832Y-77516199D03*
D26*
X247184965Y-70782670D03*
D27*
X247184965Y-75862670D03*
D28*
X226485732Y-59836074D03*
X232985732Y-59836074D03*
X226485732Y-64336074D03*
X232985732Y-64336074D03*
D29*
X284127716Y-61970830D03*
D30*
X286667716Y-61970830D03*
D28*
X238485732Y-59836074D03*
X244985732Y-59836074D03*
X238485732Y-64336074D03*
X244985732Y-64336074D03*
D17*
X270047614Y-64450838D03*
X270047614Y-59350838D03*
D31*
X284477676Y-70404866D03*
D32*
X284477676Y-68904866D03*
D33*
X320471062Y-78716416D03*
X325471062Y-78716416D03*
D19*
X248790884Y-170963620D03*
D20*
X253870884Y-170963620D03*
D19*
X258950884Y-170963620D03*
D21*
X256410884Y-165883620D03*
X250060884Y-168423620D03*
D19*
X267846206Y-170973750D03*
D20*
X272926206Y-170973750D03*
D19*
X278006206Y-170973750D03*
D21*
X275466206Y-165893750D03*
X269116206Y-168433750D03*
D34*
X280523468Y-66391022D03*
X279673468Y-66391022D03*
X278823468Y-66391022D03*
X277973468Y-66391022D03*
X277123468Y-66391022D03*
X276273468Y-66391022D03*
X275423468Y-66391022D03*
X274573468Y-66391022D03*
X274568468Y-65066022D03*
X275418468Y-65066022D03*
X276268468Y-65066022D03*
X277118468Y-65066022D03*
X277968468Y-65066022D03*
X278818468Y-65066022D03*
X279668468Y-65066022D03*
X280523468Y-65066022D03*
D35*
X281873468Y-65411022D03*
D36*
X281873468Y-62031022D03*
D35*
X273223468Y-65411022D03*
D36*
X273223468Y-62031022D03*
D33*
X342011000Y-82006040D03*
X342011000Y-79506040D03*
X327680238Y-82006040D03*
X327680238Y-79506040D03*
D26*
X286174982Y-73162196D03*
D27*
X286174982Y-78242196D03*
D26*
X283305310Y-73162196D03*
D27*
X283305310Y-78242196D03*
D24*
X134811423Y-162726640D03*
D25*
X134811423Y-177966640D03*
D24*
X234811223Y-162726640D03*
D25*
X234811223Y-177966640D03*
D37*
X255293830Y-60350870D03*
D19*
X255293830Y-62890870D03*
X252753830Y-60350870D03*
X252753830Y-62890870D03*
X250213830Y-60350870D03*
X250213830Y-62890870D03*
X60642500Y-132863620D03*
D20*
X65722500Y-132863620D03*
D19*
X70802500Y-132863620D03*
D21*
X68262500Y-127783620D03*
X61912500Y-130323620D03*
D19*
X63023700Y-170963620D03*
D20*
X68103700Y-170963620D03*
D19*
X73183700Y-170963620D03*
D21*
X70643700Y-165883620D03*
X64293700Y-168423620D03*
D19*
X91623031Y-170969819D03*
D20*
X96703031Y-170969819D03*
D19*
X101783031Y-170969819D03*
D21*
X99243031Y-165889819D03*
X92893031Y-168429819D03*
D19*
X172587573Y-170981640D03*
D20*
X177667573Y-170981640D03*
D19*
X182747573Y-170981640D03*
D21*
X180207573Y-165901640D03*
X173857573Y-168441640D03*
D19*
X253563936Y-170973750D03*
D20*
X258643936Y-170973750D03*
D19*
X263723936Y-170973750D03*
D21*
X261183936Y-165893750D03*
X254833936Y-168433750D03*
D19*
X282120128Y-170973750D03*
D20*
X287200128Y-170973750D03*
D19*
X292280128Y-170973750D03*
D21*
X289740128Y-165893750D03*
X283390128Y-168433750D03*
D19*
X63023750Y-113823750D03*
D20*
X68103750Y-113823750D03*
D19*
X73183750Y-113823750D03*
D21*
X70643750Y-108743750D03*
X64293750Y-111283750D03*
D38*
X299753430Y-76389182D03*
D27*
X302293430Y-76389182D03*
X304833430Y-76389182D03*
X307373430Y-76389182D03*
X309913430Y-76389182D03*
X312453430Y-76389182D03*
X314993430Y-76389182D03*
X317533430Y-76389182D03*
X320073430Y-76389182D03*
X322613430Y-76389182D03*
X325153430Y-76389182D03*
X327693430Y-76389182D03*
X330233430Y-76389182D03*
X332773430Y-76389182D03*
X335313430Y-76389182D03*
X337853430Y-76389182D03*
X340393430Y-76389182D03*
X342933430Y-76389182D03*
X345473430Y-76389182D03*
X348013430Y-76389182D03*
X348013430Y-61149182D03*
X345473430Y-61149182D03*
X342933430Y-61149182D03*
X340393430Y-61149182D03*
X337853430Y-61149182D03*
X335313430Y-61149182D03*
X332773430Y-61149182D03*
X330233430Y-61149182D03*
X327693430Y-61149182D03*
X325153430Y-61149182D03*
X322613430Y-61149182D03*
X320073430Y-61149182D03*
X317533430Y-61149182D03*
X314993430Y-61149182D03*
X312453430Y-61149182D03*
X309913430Y-61149182D03*
X307373430Y-61149182D03*
X304833430Y-61149182D03*
X302293430Y-61149182D03*
X299753430Y-61149182D03*
D23*
X206213345Y-80444750D03*
X206213345Y-61694750D03*
D19*
X82073750Y-151923750D03*
D20*
X87153750Y-151923750D03*
D19*
X92233750Y-151923750D03*
D21*
X89693750Y-146843750D03*
X83343750Y-149383750D03*
D20*
X319420000Y-111448750D03*
X319420000Y-135248750D03*
D19*
X322580000Y-123348750D03*
D20*
X327660000Y-123348750D03*
D19*
X332740000Y-123348750D03*
D22*
X334660000Y-111448750D03*
X334660000Y-135248750D03*
D21*
X330200000Y-118268750D03*
X323850000Y-120808750D03*
D19*
X301148750Y-132873750D03*
D20*
X306228750Y-132873750D03*
D19*
X311308750Y-132873750D03*
D21*
X308768750Y-127793750D03*
X302418750Y-130333750D03*
D19*
X60642500Y-151923750D03*
D20*
X65722500Y-151923750D03*
D19*
X70802500Y-151923750D03*
D21*
X68262500Y-146843750D03*
X61912500Y-149383750D03*
D39*
X71628000Y-60650000D03*
D40*
X69088000Y-60650000D03*
X66548000Y-60650000D03*
D41*
X87249000Y-63373000D03*
D42*
X94869000Y-63373000D03*
D43*
X332432000Y-80772000D03*
X337312000Y-80772000D03*
D44*
X83185000Y-60706000D03*
D45*
X83185000Y-63246000D03*
D26*
X63600284Y-66675000D03*
D27*
X63600284Y-71755000D03*
D26*
X66548000Y-68707000D03*
D27*
X66548000Y-73787000D03*
D26*
X69088000Y-68675500D03*
D27*
X69088000Y-73755500D03*
D26*
X76708000Y-70332500D03*
D27*
X76708000Y-75412500D03*
D26*
X71628000Y-68707000D03*
D27*
X71628000Y-73787000D03*
D26*
X74168000Y-70332500D03*
D27*
X74168000Y-75412500D03*
D33*
X321437000Y-68707000D03*
X326437000Y-68707000D03*
D26*
X61087000Y-66643500D03*
D27*
X61087000Y-71723500D03*
%LPD*%
M02*
