%TF.GenerationSoftware,KiCad,Pcbnew,7.0.10*%
%TF.CreationDate,2024-01-29T11:03:34+01:00*%
%TF.ProjectId,discipline-pcb,64697363-6970-46c6-996e-652d7063622e,rev?*%
%TF.SameCoordinates,Original*%
%TF.FileFunction,Drillmap*%
%TF.FilePolarity,Positive*%
%FSLAX45Y45*%
G04 Gerber Fmt 4.5, Leading zero omitted, Abs format (unit mm)*
G04 Created by KiCad (PCBNEW 7.0.10) date 2024-01-29 11:03:34*
%MOMM*%
%LPD*%
G01*
G04 APERTURE LIST*
%ADD10C,0.150000*%
%ADD11C,0.120000*%
%ADD12C,0.200000*%
%ADD13C,0.170000*%
%ADD14C,0.304800*%
%ADD15C,0.305000*%
%ADD16C,0.398780*%
%ADD17C,0.400000*%
G04 APERTURE END LIST*
D10*
X5376638Y-17719816D02*
G75*
G03*
X5707644Y-18050222I330702J296D01*
G01*
X35535325Y-18050221D02*
G75*
G03*
X35866031Y-17719516I5J330701D01*
G01*
X35866035Y-6100181D02*
G75*
G03*
X35535325Y-5769475I-330705J1D01*
G01*
X35866031Y-6100181D02*
X35866031Y-17719516D01*
X5707344Y-5769478D02*
G75*
G03*
X5376638Y-6100181I-4J-330702D01*
G01*
X5707344Y-5769475D02*
X35535325Y-5769475D01*
X5376638Y-17719816D02*
X5376638Y-6100181D01*
X35535325Y-18050222D02*
X5707644Y-18050222D01*
D11*
X6518800Y-7399300D02*
G75*
G03*
X6298800Y-7399300I-110000J0D01*
G01*
X6298800Y-7399300D02*
G75*
G03*
X6518800Y-7399300I110000J0D01*
G01*
X7518800Y-6799300D02*
G75*
G03*
X7298800Y-6799300I-110000J0D01*
G01*
X7298800Y-6799300D02*
G75*
G03*
X7518800Y-6799300I110000J0D01*
G01*
D12*
D13*
X5741125Y-9392375D02*
X5911125Y-9562375D01*
X5911125Y-9392375D02*
X5741125Y-9562375D01*
X5979245Y-17011362D02*
X6149245Y-17181362D01*
X6149245Y-17011362D02*
X5979245Y-17181362D01*
X5979250Y-13201362D02*
X6149250Y-13371362D01*
X6149250Y-13201362D02*
X5979250Y-13371362D01*
X5979250Y-15107375D02*
X6149250Y-15277375D01*
X6149250Y-15107375D02*
X5979250Y-15277375D01*
X6217370Y-17011362D02*
X6387370Y-17181362D01*
X6387370Y-17011362D02*
X6217370Y-17181362D01*
X6217375Y-11297375D02*
X6387375Y-11467375D01*
X6387375Y-11297375D02*
X6217375Y-11467375D01*
X6455505Y-13201362D02*
X6625505Y-13371362D01*
X6625505Y-13201362D02*
X6455505Y-13371362D01*
X6757125Y-9392375D02*
X6927125Y-9562375D01*
X6927125Y-9392375D02*
X6757125Y-9562375D01*
X6931745Y-15107375D02*
X7101745Y-15277375D01*
X7101745Y-15107375D02*
X6931745Y-15277375D01*
X6995245Y-17011362D02*
X7165245Y-17181362D01*
X7165245Y-17011362D02*
X6995245Y-17181362D01*
X6995250Y-13201362D02*
X7165250Y-13371362D01*
X7165250Y-13201362D02*
X6995250Y-13371362D01*
X6995250Y-15107375D02*
X7165250Y-15277375D01*
X7165250Y-15107375D02*
X6995250Y-15277375D01*
X7233370Y-17011362D02*
X7403370Y-17181362D01*
X7403370Y-17011362D02*
X7233370Y-17181362D01*
X7233375Y-11297375D02*
X7403375Y-11467375D01*
X7403375Y-11297375D02*
X7233375Y-11467375D01*
X7471505Y-13201362D02*
X7641505Y-13371362D01*
X7641505Y-13201362D02*
X7471505Y-13371362D01*
X7646125Y-9392375D02*
X7816125Y-9562375D01*
X7816125Y-9392375D02*
X7646125Y-9562375D01*
X7947745Y-15107375D02*
X8117745Y-15277375D01*
X8117745Y-15107375D02*
X7947745Y-15277375D01*
X8122375Y-15107375D02*
X8292375Y-15277375D01*
X8292375Y-15107375D02*
X8122375Y-15277375D01*
X8360505Y-17012375D02*
X8530505Y-17182375D01*
X8530505Y-17012375D02*
X8360505Y-17182375D01*
X8598625Y-11297375D02*
X8768625Y-11467375D01*
X8768625Y-11297375D02*
X8598625Y-11467375D01*
X8662125Y-9392375D02*
X8832125Y-9562375D01*
X8832125Y-9392375D02*
X8662125Y-9562375D01*
X9074875Y-13202375D02*
X9244875Y-13372375D01*
X9244875Y-13202375D02*
X9074875Y-13372375D01*
X9077303Y-17011982D02*
X9247303Y-17181982D01*
X9247303Y-17011982D02*
X9077303Y-17181982D01*
X9138375Y-15107375D02*
X9308375Y-15277375D01*
X9308375Y-15107375D02*
X9138375Y-15277375D01*
X9376505Y-17012375D02*
X9546505Y-17182375D01*
X9546505Y-17012375D02*
X9376505Y-17182375D01*
X9551125Y-9392375D02*
X9721125Y-9562375D01*
X9721125Y-9392375D02*
X9551125Y-9562375D01*
X9614625Y-11297375D02*
X9784625Y-11467375D01*
X9784625Y-11297375D02*
X9614625Y-11467375D01*
X10027375Y-15107375D02*
X10197375Y-15277375D01*
X10197375Y-15107375D02*
X10027375Y-15277375D01*
X10090875Y-13202375D02*
X10260875Y-13372375D01*
X10260875Y-13202375D02*
X10090875Y-13372375D01*
X10093303Y-17011982D02*
X10263303Y-17181982D01*
X10263303Y-17011982D02*
X10093303Y-17181982D01*
X10503625Y-11297375D02*
X10673625Y-11467375D01*
X10673625Y-11297375D02*
X10503625Y-11467375D01*
X10567125Y-9392375D02*
X10737125Y-9562375D01*
X10737125Y-9392375D02*
X10567125Y-9562375D01*
X10741745Y-17011362D02*
X10911745Y-17181362D01*
X10911745Y-17011362D02*
X10741745Y-17181362D01*
X10979875Y-13202375D02*
X11149875Y-13372375D01*
X11149875Y-13202375D02*
X10979875Y-13372375D01*
X11043375Y-15107375D02*
X11213375Y-15277375D01*
X11213375Y-15107375D02*
X11043375Y-15277375D01*
X11456125Y-9392375D02*
X11626125Y-9562375D01*
X11626125Y-9392375D02*
X11456125Y-9562375D01*
X11519625Y-11297375D02*
X11689625Y-11467375D01*
X11689625Y-11297375D02*
X11519625Y-11467375D01*
X11757745Y-17011362D02*
X11927745Y-17181362D01*
X11927745Y-17011362D02*
X11757745Y-17181362D01*
X11932375Y-15107375D02*
X12102375Y-15277375D01*
X12102375Y-15107375D02*
X11932375Y-15277375D01*
X11995875Y-13202375D02*
X12165875Y-13372375D01*
X12165875Y-13202375D02*
X11995875Y-13372375D01*
X12408625Y-11297375D02*
X12578625Y-11467375D01*
X12578625Y-11297375D02*
X12408625Y-11467375D01*
X12472125Y-9392375D02*
X12642125Y-9562375D01*
X12642125Y-9392375D02*
X12472125Y-9562375D01*
X12884875Y-13202375D02*
X13054875Y-13372375D01*
X13054875Y-13202375D02*
X12884875Y-13372375D01*
X12948375Y-15107375D02*
X13118375Y-15277375D01*
X13118375Y-15107375D02*
X12948375Y-15277375D01*
X13361125Y-9392375D02*
X13531125Y-9562375D01*
X13531125Y-9392375D02*
X13361125Y-9562375D01*
X13424625Y-11297375D02*
X13594625Y-11467375D01*
X13594625Y-11297375D02*
X13424625Y-11467375D01*
X13837375Y-15107375D02*
X14007375Y-15277375D01*
X14007375Y-15107375D02*
X13837375Y-15277375D01*
X13900875Y-13202375D02*
X14070875Y-13372375D01*
X14070875Y-13202375D02*
X13900875Y-13372375D01*
X14313625Y-11297375D02*
X14483625Y-11467375D01*
X14483625Y-11297375D02*
X14313625Y-11467375D01*
X14377125Y-9392375D02*
X14547125Y-9562375D01*
X14547125Y-9392375D02*
X14377125Y-9562375D01*
X14789825Y-13202375D02*
X14959825Y-13372375D01*
X14959825Y-13202375D02*
X14789825Y-13372375D01*
X14853375Y-15107375D02*
X15023375Y-15277375D01*
X15023375Y-15107375D02*
X14853375Y-15277375D01*
X15266125Y-9392375D02*
X15436125Y-9562375D01*
X15436125Y-9392375D02*
X15266125Y-9562375D01*
X15329625Y-11297375D02*
X15499625Y-11467375D01*
X15499625Y-11297375D02*
X15329625Y-11467375D01*
X15742425Y-15107375D02*
X15912425Y-15277375D01*
X15912425Y-15107375D02*
X15742425Y-15277375D01*
X15805825Y-13202375D02*
X15975825Y-13372375D01*
X15975825Y-13202375D02*
X15805825Y-13372375D01*
X16218625Y-11297375D02*
X16388625Y-11467375D01*
X16388625Y-11297375D02*
X16218625Y-11467375D01*
X16282125Y-9392375D02*
X16452125Y-9562375D01*
X16452125Y-9392375D02*
X16282125Y-9562375D01*
X16694825Y-13202375D02*
X16864825Y-13372375D01*
X16864825Y-13202375D02*
X16694825Y-13372375D01*
X16758425Y-15107375D02*
X16928425Y-15277375D01*
X16928425Y-15107375D02*
X16758425Y-15277375D01*
X17171125Y-9392375D02*
X17341125Y-9562375D01*
X17341125Y-9392375D02*
X17171125Y-9562375D01*
X17173757Y-17013164D02*
X17343757Y-17183164D01*
X17343757Y-17013164D02*
X17173757Y-17183164D01*
X17234625Y-11297375D02*
X17404625Y-11467375D01*
X17404625Y-11297375D02*
X17234625Y-11467375D01*
X17647425Y-15107375D02*
X17817425Y-15277375D01*
X17817425Y-15107375D02*
X17647425Y-15277375D01*
X17710825Y-13202375D02*
X17880825Y-13372375D01*
X17880825Y-13202375D02*
X17710825Y-13372375D01*
X17885525Y-17012375D02*
X18055525Y-17182375D01*
X18055525Y-17012375D02*
X17885525Y-17182375D01*
X18123625Y-11297375D02*
X18293625Y-11467375D01*
X18293625Y-11297375D02*
X18123625Y-11467375D01*
X18187125Y-9392375D02*
X18357125Y-9562375D01*
X18357125Y-9392375D02*
X18187125Y-9562375D01*
X18189757Y-17013164D02*
X18359757Y-17183164D01*
X18359757Y-17013164D02*
X18189757Y-17183164D01*
X18599825Y-13202375D02*
X18769825Y-13372375D01*
X18769825Y-13202375D02*
X18599825Y-13372375D01*
X18663425Y-15107375D02*
X18833425Y-15277375D01*
X18833425Y-15107375D02*
X18663425Y-15277375D01*
X18901525Y-17012375D02*
X19071525Y-17182375D01*
X19071525Y-17012375D02*
X18901525Y-17182375D01*
X19076125Y-9392375D02*
X19246125Y-9562375D01*
X19246125Y-9392375D02*
X19076125Y-9562375D01*
X19139625Y-11297375D02*
X19309625Y-11467375D01*
X19309625Y-11297375D02*
X19139625Y-11467375D01*
X19552425Y-15107375D02*
X19722425Y-15277375D01*
X19722425Y-15107375D02*
X19552425Y-15277375D01*
X19615825Y-13202375D02*
X19785825Y-13372375D01*
X19785825Y-13202375D02*
X19615825Y-13372375D01*
X20028625Y-11297375D02*
X20198625Y-11467375D01*
X20198625Y-11297375D02*
X20028625Y-11467375D01*
X20092125Y-9392375D02*
X20262125Y-9562375D01*
X20262125Y-9392375D02*
X20092125Y-9562375D01*
X20504825Y-13202375D02*
X20674825Y-13372375D01*
X20674825Y-13202375D02*
X20504825Y-13372375D01*
X20568425Y-15107375D02*
X20738425Y-15277375D01*
X20738425Y-15107375D02*
X20568425Y-15277375D01*
X20981125Y-9392375D02*
X21151125Y-9562375D01*
X21151125Y-9392375D02*
X20981125Y-9562375D01*
X21044625Y-11297375D02*
X21214625Y-11467375D01*
X21214625Y-11297375D02*
X21044625Y-11467375D01*
X21457425Y-15107375D02*
X21627425Y-15277375D01*
X21627425Y-15107375D02*
X21457425Y-15277375D01*
X21520825Y-13202375D02*
X21690825Y-13372375D01*
X21690825Y-13202375D02*
X21520825Y-13372375D01*
X21933625Y-11297375D02*
X22103625Y-11467375D01*
X22103625Y-11297375D02*
X21933625Y-11467375D01*
X21997125Y-9392375D02*
X22167125Y-9562375D01*
X22167125Y-9392375D02*
X21997125Y-9562375D01*
X22409825Y-13202375D02*
X22579825Y-13372375D01*
X22579825Y-13202375D02*
X22409825Y-13372375D01*
X22473425Y-15107375D02*
X22643425Y-15277375D01*
X22643425Y-15107375D02*
X22473425Y-15277375D01*
X22886125Y-9392375D02*
X23056125Y-9562375D01*
X23056125Y-9392375D02*
X22886125Y-9562375D01*
X22949625Y-11297375D02*
X23119625Y-11467375D01*
X23119625Y-11297375D02*
X22949625Y-11467375D01*
X23362425Y-15107375D02*
X23532425Y-15277375D01*
X23532425Y-15107375D02*
X23362425Y-15277375D01*
X23425825Y-13202375D02*
X23595825Y-13372375D01*
X23595825Y-13202375D02*
X23425825Y-13372375D01*
X23838625Y-11297375D02*
X24008625Y-11467375D01*
X24008625Y-11297375D02*
X23838625Y-11467375D01*
X23902125Y-9392375D02*
X24072125Y-9562375D01*
X24072125Y-9392375D02*
X23902125Y-9562375D01*
X24314825Y-13202375D02*
X24484825Y-13372375D01*
X24484825Y-13202375D02*
X24314825Y-13372375D01*
X24378425Y-15107375D02*
X24548425Y-15277375D01*
X24548425Y-15107375D02*
X24378425Y-15277375D01*
X24791125Y-9392375D02*
X24961125Y-9562375D01*
X24961125Y-9392375D02*
X24791125Y-9562375D01*
X24794088Y-17011362D02*
X24964088Y-17181362D01*
X24964088Y-17011362D02*
X24794088Y-17181362D01*
X24854625Y-11297375D02*
X25024625Y-11467375D01*
X25024625Y-11297375D02*
X24854625Y-11467375D01*
X25267425Y-15107375D02*
X25437425Y-15277375D01*
X25437425Y-15107375D02*
X25267425Y-15277375D01*
X25271394Y-17012375D02*
X25441394Y-17182375D01*
X25441394Y-17012375D02*
X25271394Y-17182375D01*
X25330825Y-13202375D02*
X25500825Y-13372375D01*
X25500825Y-13202375D02*
X25330825Y-13372375D01*
X25743625Y-11297375D02*
X25913625Y-11467375D01*
X25913625Y-11297375D02*
X25743625Y-11467375D01*
X25807125Y-9392375D02*
X25977125Y-9562375D01*
X25977125Y-9392375D02*
X25807125Y-9562375D01*
X25810088Y-17011362D02*
X25980088Y-17181362D01*
X25980088Y-17011362D02*
X25810088Y-17181362D01*
X26219825Y-13202375D02*
X26389825Y-13372375D01*
X26389825Y-13202375D02*
X26219825Y-13372375D01*
X26283425Y-15107375D02*
X26453425Y-15277375D01*
X26453425Y-15107375D02*
X26283425Y-15277375D01*
X26287394Y-17012375D02*
X26457394Y-17182375D01*
X26457394Y-17012375D02*
X26287394Y-17182375D01*
X26696125Y-9392375D02*
X26866125Y-9562375D01*
X26866125Y-9392375D02*
X26696125Y-9562375D01*
X26699621Y-17012375D02*
X26869621Y-17182375D01*
X26869621Y-17012375D02*
X26699621Y-17182375D01*
X26759625Y-11297375D02*
X26929625Y-11467375D01*
X26929625Y-11297375D02*
X26759625Y-11467375D01*
X27172425Y-15107375D02*
X27342425Y-15277375D01*
X27342425Y-15107375D02*
X27172425Y-15277375D01*
X27235825Y-13202375D02*
X27405825Y-13372375D01*
X27405825Y-13202375D02*
X27235825Y-13372375D01*
X27648625Y-11297375D02*
X27818625Y-11467375D01*
X27818625Y-11297375D02*
X27648625Y-11467375D01*
X27712125Y-9392375D02*
X27882125Y-9562375D01*
X27882125Y-9392375D02*
X27712125Y-9562375D01*
X27715621Y-17012375D02*
X27885621Y-17182375D01*
X27885621Y-17012375D02*
X27715621Y-17182375D01*
X28124825Y-13202375D02*
X28294825Y-13372375D01*
X28294825Y-13202375D02*
X28124825Y-13372375D01*
X28127013Y-17012375D02*
X28297013Y-17182375D01*
X28297013Y-17012375D02*
X28127013Y-17182375D01*
X28188425Y-15107375D02*
X28358425Y-15277375D01*
X28358425Y-15107375D02*
X28188425Y-15277375D01*
X28601125Y-9392375D02*
X28771125Y-9562375D01*
X28771125Y-9392375D02*
X28601125Y-9562375D01*
X28605153Y-17011362D02*
X28775153Y-17181362D01*
X28775153Y-17011362D02*
X28605153Y-17181362D01*
X28664625Y-11297375D02*
X28834625Y-11467375D01*
X28834625Y-11297375D02*
X28664625Y-11467375D01*
X29140825Y-13202375D02*
X29310825Y-13372375D01*
X29310825Y-13202375D02*
X29140825Y-13372375D01*
X29143013Y-17012375D02*
X29313013Y-17182375D01*
X29313013Y-17012375D02*
X29143013Y-17182375D01*
X29553625Y-11297375D02*
X29723625Y-11467375D01*
X29723625Y-11297375D02*
X29553625Y-11467375D01*
X29617125Y-9392375D02*
X29787125Y-9562375D01*
X29787125Y-9392375D02*
X29617125Y-9562375D01*
X29621153Y-17011362D02*
X29791153Y-17181362D01*
X29791153Y-17011362D02*
X29621153Y-17181362D01*
X29791725Y-15107375D02*
X29961725Y-15277375D01*
X29961725Y-15107375D02*
X29791725Y-15277375D01*
X30029875Y-13202375D02*
X30199875Y-13372375D01*
X30199875Y-13202375D02*
X30029875Y-13372375D01*
X30506125Y-17012375D02*
X30676125Y-17182375D01*
X30676125Y-17012375D02*
X30506125Y-17182375D01*
X30569625Y-11297375D02*
X30739625Y-11467375D01*
X30739625Y-11297375D02*
X30569625Y-11467375D01*
X30807725Y-15107375D02*
X30977725Y-15277375D01*
X30977725Y-15107375D02*
X30807725Y-15277375D01*
X31045875Y-13202375D02*
X31215875Y-13372375D01*
X31215875Y-13202375D02*
X31045875Y-13372375D01*
X31220525Y-13202375D02*
X31390525Y-13372375D01*
X31390525Y-13202375D02*
X31220525Y-13372375D01*
X31458625Y-9392375D02*
X31628625Y-9562375D01*
X31628625Y-9392375D02*
X31458625Y-9562375D01*
X31522125Y-17012375D02*
X31692125Y-17182375D01*
X31692125Y-17012375D02*
X31522125Y-17182375D01*
X31934825Y-11297375D02*
X32104825Y-11467375D01*
X32104825Y-11297375D02*
X31934825Y-11467375D01*
X32173000Y-12249875D02*
X32343000Y-12419875D01*
X32343000Y-12249875D02*
X32173000Y-12419875D01*
X32236525Y-13202375D02*
X32406525Y-13372375D01*
X32406525Y-13202375D02*
X32236525Y-13372375D01*
X32411125Y-15107375D02*
X32581125Y-15277375D01*
X32581125Y-15107375D02*
X32411125Y-15277375D01*
X32411125Y-17012375D02*
X32581125Y-17182375D01*
X32581125Y-17012375D02*
X32411125Y-17182375D01*
X32474625Y-9392375D02*
X32644625Y-9562375D01*
X32644625Y-9392375D02*
X32474625Y-9562375D01*
X32950825Y-11297375D02*
X33120825Y-11467375D01*
X33120825Y-11297375D02*
X32950825Y-11467375D01*
X33189000Y-12249875D02*
X33359000Y-12419875D01*
X33359000Y-12249875D02*
X33189000Y-12419875D01*
X33427125Y-15107375D02*
X33597125Y-15277375D01*
X33597125Y-15107375D02*
X33427125Y-15277375D01*
X33427125Y-17012375D02*
X33597125Y-17182375D01*
X33597125Y-17012375D02*
X33427125Y-17182375D01*
X34316125Y-9392375D02*
X34486125Y-9562375D01*
X34486125Y-9392375D02*
X34316125Y-9562375D01*
X34316125Y-11297375D02*
X34486125Y-11467375D01*
X34486125Y-11297375D02*
X34316125Y-11467375D01*
X34316125Y-13202375D02*
X34486125Y-13372375D01*
X34486125Y-13202375D02*
X34316125Y-13372375D01*
X34316125Y-15107375D02*
X34486125Y-15277375D01*
X34486125Y-15107375D02*
X34316125Y-15277375D01*
X34316125Y-17012375D02*
X34486125Y-17182375D01*
X34486125Y-17012375D02*
X34316125Y-17182375D01*
X35332125Y-9392375D02*
X35502125Y-9562375D01*
X35502125Y-9392375D02*
X35332125Y-9562375D01*
X35332125Y-11297375D02*
X35502125Y-11467375D01*
X35502125Y-11297375D02*
X35332125Y-11467375D01*
X35332125Y-13202375D02*
X35502125Y-13372375D01*
X35502125Y-13202375D02*
X35332125Y-13372375D01*
X35332125Y-15107375D02*
X35502125Y-15277375D01*
X35502125Y-15107375D02*
X35332125Y-15277375D01*
X35332125Y-17012375D02*
X35502125Y-17182375D01*
X35502125Y-17012375D02*
X35332125Y-17182375D01*
D14*
X12204157Y-17796664D02*
G75*
G03*
X11899357Y-17796664I-152400J0D01*
G01*
X11899357Y-17796664D02*
G75*
G03*
X12204157Y-17796664I152400J0D01*
G01*
X13633542Y-17796664D02*
G75*
G03*
X13328742Y-17796664I-152400J0D01*
G01*
X13328742Y-17796664D02*
G75*
G03*
X13633542Y-17796664I152400J0D01*
G01*
X23633522Y-17796664D02*
G75*
G03*
X23328722Y-17796664I-152400J0D01*
G01*
X23328722Y-17796664D02*
G75*
G03*
X23633522Y-17796664I152400J0D01*
G01*
X23634157Y-17796664D02*
G75*
G03*
X23329357Y-17796664I-152400J0D01*
G01*
X23329357Y-17796664D02*
G75*
G03*
X23634157Y-17796664I152400J0D01*
G01*
D15*
X6334745Y-14339875D02*
X6334745Y-14644875D01*
X6182245Y-14492375D02*
X6487245Y-14492375D01*
X8714745Y-14339875D02*
X8714745Y-14644875D01*
X8562245Y-14492375D02*
X8867245Y-14492375D01*
X30623525Y-12434875D02*
X30623525Y-12739875D01*
X30471025Y-12587375D02*
X30776025Y-12587375D01*
X30861625Y-8624875D02*
X30861625Y-8929875D01*
X30709125Y-8777375D02*
X31014125Y-8777375D01*
X33003525Y-12434875D02*
X33003525Y-12739875D01*
X32851025Y-12587375D02*
X33156025Y-12587375D01*
X33241625Y-8624875D02*
X33241625Y-8929875D01*
X33089125Y-8777375D02*
X33394125Y-8777375D01*
X33466000Y-10992375D02*
X33466000Y-11297375D01*
X33313500Y-11144875D02*
X33618500Y-11144875D01*
X33466000Y-13372375D02*
X33466000Y-13677375D01*
X33313500Y-13524875D02*
X33618500Y-13524875D01*
D16*
X12192749Y-16413655D02*
X12192749Y-16131673D01*
X11910766Y-16131673D01*
X11910766Y-16413655D01*
X12192749Y-16413655D01*
X13622134Y-16413655D02*
X13622134Y-16131673D01*
X13340151Y-16131673D01*
X13340151Y-16413655D01*
X13622134Y-16413655D01*
X23622114Y-16413655D02*
X23622114Y-16131673D01*
X23340131Y-16131673D01*
X23340131Y-16413655D01*
X23622114Y-16413655D01*
X23622749Y-16413655D02*
X23622749Y-16131673D01*
X23340766Y-16131673D01*
X23340766Y-16413655D01*
X23622749Y-16413655D01*
D17*
X6334125Y-9677375D02*
X6534125Y-9477375D01*
X6334125Y-9277375D01*
X6134125Y-9477375D01*
X6334125Y-9677375D01*
X6334745Y-16216375D02*
X6534745Y-16016375D01*
X6334745Y-15816375D01*
X6134745Y-16016375D01*
X6334745Y-16216375D01*
X6572245Y-17296362D02*
X6772245Y-17096362D01*
X6572245Y-16896362D01*
X6372245Y-17096362D01*
X6572245Y-17296362D01*
X6572250Y-13486362D02*
X6772250Y-13286362D01*
X6572250Y-13086362D01*
X6372250Y-13286362D01*
X6572250Y-13486362D01*
X6572250Y-15392375D02*
X6772250Y-15192375D01*
X6572250Y-14992375D01*
X6372250Y-15192375D01*
X6572250Y-15392375D01*
X6810370Y-17296362D02*
X7010370Y-17096362D01*
X6810370Y-16896362D01*
X6610370Y-17096362D01*
X6810370Y-17296362D01*
X6810375Y-11582375D02*
X7010375Y-11382375D01*
X6810375Y-11182375D01*
X6610375Y-11382375D01*
X6810375Y-11582375D01*
X7048505Y-13486362D02*
X7248505Y-13286362D01*
X7048505Y-13086362D01*
X6848505Y-13286362D01*
X7048505Y-13486362D01*
X7524745Y-15392375D02*
X7724745Y-15192375D01*
X7524745Y-14992375D01*
X7324745Y-15192375D01*
X7524745Y-15392375D01*
X8239125Y-9677375D02*
X8439125Y-9477375D01*
X8239125Y-9277375D01*
X8039125Y-9477375D01*
X8239125Y-9677375D01*
X8714745Y-16216375D02*
X8914745Y-16016375D01*
X8714745Y-15816375D01*
X8514745Y-16016375D01*
X8714745Y-16216375D01*
X8715375Y-15392375D02*
X8915375Y-15192375D01*
X8715375Y-14992375D01*
X8515375Y-15192375D01*
X8715375Y-15392375D01*
X8953505Y-17297375D02*
X9153505Y-17097375D01*
X8953505Y-16897375D01*
X8753505Y-17097375D01*
X8953505Y-17297375D01*
X9191625Y-11582375D02*
X9391625Y-11382375D01*
X9191625Y-11182375D01*
X8991625Y-11382375D01*
X9191625Y-11582375D01*
X9667875Y-13487375D02*
X9867875Y-13287375D01*
X9667875Y-13087375D01*
X9467875Y-13287375D01*
X9667875Y-13487375D01*
X9670303Y-17296982D02*
X9870303Y-17096982D01*
X9670303Y-16896982D01*
X9470303Y-17096982D01*
X9670303Y-17296982D01*
X10144125Y-9677375D02*
X10344125Y-9477375D01*
X10144125Y-9277375D01*
X9944125Y-9477375D01*
X10144125Y-9677375D01*
X10620375Y-15392375D02*
X10820375Y-15192375D01*
X10620375Y-14992375D01*
X10420375Y-15192375D01*
X10620375Y-15392375D01*
X11096625Y-11582375D02*
X11296625Y-11382375D01*
X11096625Y-11182375D01*
X10896625Y-11382375D01*
X11096625Y-11582375D01*
X11334745Y-17296362D02*
X11534745Y-17096362D01*
X11334745Y-16896362D01*
X11134745Y-17096362D01*
X11334745Y-17296362D01*
X11572875Y-13487375D02*
X11772875Y-13287375D01*
X11572875Y-13087375D01*
X11372875Y-13287375D01*
X11572875Y-13487375D01*
X12049125Y-9677375D02*
X12249125Y-9477375D01*
X12049125Y-9277375D01*
X11849125Y-9477375D01*
X12049125Y-9677375D01*
X12525375Y-15392375D02*
X12725375Y-15192375D01*
X12525375Y-14992375D01*
X12325375Y-15192375D01*
X12525375Y-15392375D01*
X13001625Y-11582375D02*
X13201625Y-11382375D01*
X13001625Y-11182375D01*
X12801625Y-11382375D01*
X13001625Y-11582375D01*
X13477875Y-13487375D02*
X13677875Y-13287375D01*
X13477875Y-13087375D01*
X13277875Y-13287375D01*
X13477875Y-13487375D01*
X13954125Y-9677375D02*
X14154125Y-9477375D01*
X13954125Y-9277375D01*
X13754125Y-9477375D01*
X13954125Y-9677375D01*
X14430375Y-15392375D02*
X14630375Y-15192375D01*
X14430375Y-14992375D01*
X14230375Y-15192375D01*
X14430375Y-15392375D01*
X14906625Y-11582375D02*
X15106625Y-11382375D01*
X14906625Y-11182375D01*
X14706625Y-11382375D01*
X14906625Y-11582375D01*
X15382825Y-13487375D02*
X15582825Y-13287375D01*
X15382825Y-13087375D01*
X15182825Y-13287375D01*
X15382825Y-13487375D01*
X15859125Y-9677375D02*
X16059125Y-9477375D01*
X15859125Y-9277375D01*
X15659125Y-9477375D01*
X15859125Y-9677375D01*
X16335425Y-15392375D02*
X16535425Y-15192375D01*
X16335425Y-14992375D01*
X16135425Y-15192375D01*
X16335425Y-15392375D01*
X16811625Y-11582375D02*
X17011625Y-11382375D01*
X16811625Y-11182375D01*
X16611625Y-11382375D01*
X16811625Y-11582375D01*
X17287825Y-13487375D02*
X17487825Y-13287375D01*
X17287825Y-13087375D01*
X17087825Y-13287375D01*
X17287825Y-13487375D01*
X17764125Y-9677375D02*
X17964125Y-9477375D01*
X17764125Y-9277375D01*
X17564125Y-9477375D01*
X17764125Y-9677375D01*
X17766757Y-17298164D02*
X17966757Y-17098164D01*
X17766757Y-16898164D01*
X17566757Y-17098164D01*
X17766757Y-17298164D01*
X18240425Y-15392375D02*
X18440425Y-15192375D01*
X18240425Y-14992375D01*
X18040425Y-15192375D01*
X18240425Y-15392375D01*
X18478525Y-17297375D02*
X18678525Y-17097375D01*
X18478525Y-16897375D01*
X18278525Y-17097375D01*
X18478525Y-17297375D01*
X18716625Y-11582375D02*
X18916625Y-11382375D01*
X18716625Y-11182375D01*
X18516625Y-11382375D01*
X18716625Y-11582375D01*
X19192825Y-13487375D02*
X19392825Y-13287375D01*
X19192825Y-13087375D01*
X18992825Y-13287375D01*
X19192825Y-13487375D01*
X19669125Y-9677375D02*
X19869125Y-9477375D01*
X19669125Y-9277375D01*
X19469125Y-9477375D01*
X19669125Y-9677375D01*
X20145425Y-15392375D02*
X20345425Y-15192375D01*
X20145425Y-14992375D01*
X19945425Y-15192375D01*
X20145425Y-15392375D01*
X20621625Y-11582375D02*
X20821625Y-11382375D01*
X20621625Y-11182375D01*
X20421625Y-11382375D01*
X20621625Y-11582375D01*
X21097825Y-13487375D02*
X21297825Y-13287375D01*
X21097825Y-13087375D01*
X20897825Y-13287375D01*
X21097825Y-13487375D01*
X21574125Y-9677375D02*
X21774125Y-9477375D01*
X21574125Y-9277375D01*
X21374125Y-9477375D01*
X21574125Y-9677375D01*
X22050425Y-15392375D02*
X22250425Y-15192375D01*
X22050425Y-14992375D01*
X21850425Y-15192375D01*
X22050425Y-15392375D01*
X22526625Y-11582375D02*
X22726625Y-11382375D01*
X22526625Y-11182375D01*
X22326625Y-11382375D01*
X22526625Y-11582375D01*
X23002825Y-13487375D02*
X23202825Y-13287375D01*
X23002825Y-13087375D01*
X22802825Y-13287375D01*
X23002825Y-13487375D01*
X23479125Y-9677375D02*
X23679125Y-9477375D01*
X23479125Y-9277375D01*
X23279125Y-9477375D01*
X23479125Y-9677375D01*
X23955425Y-15392375D02*
X24155425Y-15192375D01*
X23955425Y-14992375D01*
X23755425Y-15192375D01*
X23955425Y-15392375D01*
X24431625Y-11582375D02*
X24631625Y-11382375D01*
X24431625Y-11182375D01*
X24231625Y-11382375D01*
X24431625Y-11582375D01*
X24907825Y-13487375D02*
X25107825Y-13287375D01*
X24907825Y-13087375D01*
X24707825Y-13287375D01*
X24907825Y-13487375D01*
X25384125Y-9677375D02*
X25584125Y-9477375D01*
X25384125Y-9277375D01*
X25184125Y-9477375D01*
X25384125Y-9677375D01*
X25387088Y-17296362D02*
X25587088Y-17096362D01*
X25387088Y-16896362D01*
X25187088Y-17096362D01*
X25387088Y-17296362D01*
X25860425Y-15392375D02*
X26060425Y-15192375D01*
X25860425Y-14992375D01*
X25660425Y-15192375D01*
X25860425Y-15392375D01*
X25864394Y-17297375D02*
X26064394Y-17097375D01*
X25864394Y-16897375D01*
X25664394Y-17097375D01*
X25864394Y-17297375D01*
X26336625Y-11582375D02*
X26536625Y-11382375D01*
X26336625Y-11182375D01*
X26136625Y-11382375D01*
X26336625Y-11582375D01*
X26812825Y-13487375D02*
X27012825Y-13287375D01*
X26812825Y-13087375D01*
X26612825Y-13287375D01*
X26812825Y-13487375D01*
X27289125Y-9677375D02*
X27489125Y-9477375D01*
X27289125Y-9277375D01*
X27089125Y-9477375D01*
X27289125Y-9677375D01*
X27292621Y-17297375D02*
X27492621Y-17097375D01*
X27292621Y-16897375D01*
X27092621Y-17097375D01*
X27292621Y-17297375D01*
X27765425Y-15392375D02*
X27965425Y-15192375D01*
X27765425Y-14992375D01*
X27565425Y-15192375D01*
X27765425Y-15392375D01*
X28241625Y-11582375D02*
X28441625Y-11382375D01*
X28241625Y-11182375D01*
X28041625Y-11382375D01*
X28241625Y-11582375D01*
X28717825Y-13487375D02*
X28917825Y-13287375D01*
X28717825Y-13087375D01*
X28517825Y-13287375D01*
X28717825Y-13487375D01*
X28720013Y-17297375D02*
X28920013Y-17097375D01*
X28720013Y-16897375D01*
X28520013Y-17097375D01*
X28720013Y-17297375D01*
X29194125Y-9677375D02*
X29394125Y-9477375D01*
X29194125Y-9277375D01*
X28994125Y-9477375D01*
X29194125Y-9677375D01*
X29198153Y-17296362D02*
X29398153Y-17096362D01*
X29198153Y-16896362D01*
X28998153Y-17096362D01*
X29198153Y-17296362D01*
X30146625Y-11582375D02*
X30346625Y-11382375D01*
X30146625Y-11182375D01*
X29946625Y-11382375D01*
X30146625Y-11582375D01*
X30384725Y-15392375D02*
X30584725Y-15192375D01*
X30384725Y-14992375D01*
X30184725Y-15192375D01*
X30384725Y-15392375D01*
X30622875Y-13487375D02*
X30822875Y-13287375D01*
X30622875Y-13087375D01*
X30422875Y-13287375D01*
X30622875Y-13487375D01*
X30623525Y-14311375D02*
X30823525Y-14111375D01*
X30623525Y-13911375D01*
X30423525Y-14111375D01*
X30623525Y-14311375D01*
X30861625Y-10501375D02*
X31061625Y-10301375D01*
X30861625Y-10101375D01*
X30661625Y-10301375D01*
X30861625Y-10501375D01*
X31099125Y-17297375D02*
X31299125Y-17097375D01*
X31099125Y-16897375D01*
X30899125Y-17097375D01*
X31099125Y-17297375D01*
X31813525Y-13487375D02*
X32013525Y-13287375D01*
X31813525Y-13087375D01*
X31613525Y-13287375D01*
X31813525Y-13487375D01*
X31942000Y-11344875D02*
X32142000Y-11144875D01*
X31942000Y-10944875D01*
X31742000Y-11144875D01*
X31942000Y-11344875D01*
X31942000Y-13724875D02*
X32142000Y-13524875D01*
X31942000Y-13324875D01*
X31742000Y-13524875D01*
X31942000Y-13724875D01*
X32051625Y-9677375D02*
X32251625Y-9477375D01*
X32051625Y-9277375D01*
X31851625Y-9477375D01*
X32051625Y-9677375D01*
X32527825Y-11582375D02*
X32727825Y-11382375D01*
X32527825Y-11182375D01*
X32327825Y-11382375D01*
X32527825Y-11582375D01*
X32766000Y-12534875D02*
X32966000Y-12334875D01*
X32766000Y-12134875D01*
X32566000Y-12334875D01*
X32766000Y-12534875D01*
X33003525Y-14311375D02*
X33203525Y-14111375D01*
X33003525Y-13911375D01*
X32803525Y-14111375D01*
X33003525Y-14311375D01*
X33004125Y-15392375D02*
X33204125Y-15192375D01*
X33004125Y-14992375D01*
X32804125Y-15192375D01*
X33004125Y-15392375D01*
X33004125Y-17297375D02*
X33204125Y-17097375D01*
X33004125Y-16897375D01*
X32804125Y-17097375D01*
X33004125Y-17297375D01*
X33241625Y-10501375D02*
X33441625Y-10301375D01*
X33241625Y-10101375D01*
X33041625Y-10301375D01*
X33241625Y-10501375D01*
X34909125Y-9677375D02*
X35109125Y-9477375D01*
X34909125Y-9277375D01*
X34709125Y-9477375D01*
X34909125Y-9677375D01*
X34909125Y-11582375D02*
X35109125Y-11382375D01*
X34909125Y-11182375D01*
X34709125Y-11382375D01*
X34909125Y-11582375D01*
X34909125Y-13487375D02*
X35109125Y-13287375D01*
X34909125Y-13087375D01*
X34709125Y-13287375D01*
X34909125Y-13487375D01*
X34909125Y-15392375D02*
X35109125Y-15192375D01*
X34909125Y-14992375D01*
X34709125Y-15192375D01*
X34909125Y-15392375D01*
X34909125Y-17297375D02*
X35109125Y-17097375D01*
X34909125Y-16897375D01*
X34709125Y-17097375D01*
X34909125Y-17297375D01*
D12*
X5629915Y-18369206D02*
X5629915Y-18169206D01*
X5629915Y-18169206D02*
X5677534Y-18169206D01*
X5677534Y-18169206D02*
X5706105Y-18178730D01*
X5706105Y-18178730D02*
X5725153Y-18197777D01*
X5725153Y-18197777D02*
X5734677Y-18216825D01*
X5734677Y-18216825D02*
X5744201Y-18254920D01*
X5744201Y-18254920D02*
X5744201Y-18283491D01*
X5744201Y-18283491D02*
X5734677Y-18321587D01*
X5734677Y-18321587D02*
X5725153Y-18340634D01*
X5725153Y-18340634D02*
X5706105Y-18359682D01*
X5706105Y-18359682D02*
X5677534Y-18369206D01*
X5677534Y-18369206D02*
X5629915Y-18369206D01*
X5829915Y-18369206D02*
X5829915Y-18235872D01*
X5829915Y-18273968D02*
X5839439Y-18254920D01*
X5839439Y-18254920D02*
X5848963Y-18245396D01*
X5848963Y-18245396D02*
X5868010Y-18235872D01*
X5868010Y-18235872D02*
X5887058Y-18235872D01*
X5953724Y-18369206D02*
X5953724Y-18235872D01*
X5953724Y-18169206D02*
X5944201Y-18178730D01*
X5944201Y-18178730D02*
X5953724Y-18188253D01*
X5953724Y-18188253D02*
X5963248Y-18178730D01*
X5963248Y-18178730D02*
X5953724Y-18169206D01*
X5953724Y-18169206D02*
X5953724Y-18188253D01*
X6077534Y-18369206D02*
X6058486Y-18359682D01*
X6058486Y-18359682D02*
X6048963Y-18340634D01*
X6048963Y-18340634D02*
X6048963Y-18169206D01*
X6182296Y-18369206D02*
X6163248Y-18359682D01*
X6163248Y-18359682D02*
X6153724Y-18340634D01*
X6153724Y-18340634D02*
X6153724Y-18169206D01*
X6410867Y-18369206D02*
X6410867Y-18169206D01*
X6410867Y-18169206D02*
X6477534Y-18312063D01*
X6477534Y-18312063D02*
X6544201Y-18169206D01*
X6544201Y-18169206D02*
X6544201Y-18369206D01*
X6725153Y-18369206D02*
X6725153Y-18264444D01*
X6725153Y-18264444D02*
X6715629Y-18245396D01*
X6715629Y-18245396D02*
X6696582Y-18235872D01*
X6696582Y-18235872D02*
X6658486Y-18235872D01*
X6658486Y-18235872D02*
X6639439Y-18245396D01*
X6725153Y-18359682D02*
X6706105Y-18369206D01*
X6706105Y-18369206D02*
X6658486Y-18369206D01*
X6658486Y-18369206D02*
X6639439Y-18359682D01*
X6639439Y-18359682D02*
X6629915Y-18340634D01*
X6629915Y-18340634D02*
X6629915Y-18321587D01*
X6629915Y-18321587D02*
X6639439Y-18302539D01*
X6639439Y-18302539D02*
X6658486Y-18293015D01*
X6658486Y-18293015D02*
X6706105Y-18293015D01*
X6706105Y-18293015D02*
X6725153Y-18283491D01*
X6820391Y-18235872D02*
X6820391Y-18435872D01*
X6820391Y-18245396D02*
X6839439Y-18235872D01*
X6839439Y-18235872D02*
X6877534Y-18235872D01*
X6877534Y-18235872D02*
X6896582Y-18245396D01*
X6896582Y-18245396D02*
X6906105Y-18254920D01*
X6906105Y-18254920D02*
X6915629Y-18273968D01*
X6915629Y-18273968D02*
X6915629Y-18331110D01*
X6915629Y-18331110D02*
X6906105Y-18350158D01*
X6906105Y-18350158D02*
X6896582Y-18359682D01*
X6896582Y-18359682D02*
X6877534Y-18369206D01*
X6877534Y-18369206D02*
X6839439Y-18369206D01*
X6839439Y-18369206D02*
X6820391Y-18359682D01*
X7001344Y-18350158D02*
X7010867Y-18359682D01*
X7010867Y-18359682D02*
X7001344Y-18369206D01*
X7001344Y-18369206D02*
X6991820Y-18359682D01*
X6991820Y-18359682D02*
X7001344Y-18350158D01*
X7001344Y-18350158D02*
X7001344Y-18369206D01*
X7001344Y-18245396D02*
X7010867Y-18254920D01*
X7010867Y-18254920D02*
X7001344Y-18264444D01*
X7001344Y-18264444D02*
X6991820Y-18254920D01*
X6991820Y-18254920D02*
X7001344Y-18245396D01*
X7001344Y-18245396D02*
X7001344Y-18264444D01*
D13*
X5199138Y-18612722D02*
X5369138Y-18782722D01*
X5369138Y-18612722D02*
X5199138Y-18782722D01*
D12*
X5734677Y-18789206D02*
X5620391Y-18789206D01*
X5677534Y-18789206D02*
X5677534Y-18589206D01*
X5677534Y-18589206D02*
X5658486Y-18617777D01*
X5658486Y-18617777D02*
X5639439Y-18636825D01*
X5639439Y-18636825D02*
X5620391Y-18646349D01*
X5820391Y-18770158D02*
X5829915Y-18779682D01*
X5829915Y-18779682D02*
X5820391Y-18789206D01*
X5820391Y-18789206D02*
X5810867Y-18779682D01*
X5810867Y-18779682D02*
X5820391Y-18770158D01*
X5820391Y-18770158D02*
X5820391Y-18789206D01*
X5896582Y-18589206D02*
X6029915Y-18589206D01*
X6029915Y-18589206D02*
X5944201Y-18789206D01*
X6144201Y-18589206D02*
X6163248Y-18589206D01*
X6163248Y-18589206D02*
X6182296Y-18598730D01*
X6182296Y-18598730D02*
X6191820Y-18608253D01*
X6191820Y-18608253D02*
X6201344Y-18627301D01*
X6201344Y-18627301D02*
X6210867Y-18665396D01*
X6210867Y-18665396D02*
X6210867Y-18713015D01*
X6210867Y-18713015D02*
X6201344Y-18751110D01*
X6201344Y-18751110D02*
X6191820Y-18770158D01*
X6191820Y-18770158D02*
X6182296Y-18779682D01*
X6182296Y-18779682D02*
X6163248Y-18789206D01*
X6163248Y-18789206D02*
X6144201Y-18789206D01*
X6144201Y-18789206D02*
X6125153Y-18779682D01*
X6125153Y-18779682D02*
X6115629Y-18770158D01*
X6115629Y-18770158D02*
X6106105Y-18751110D01*
X6106105Y-18751110D02*
X6096582Y-18713015D01*
X6096582Y-18713015D02*
X6096582Y-18665396D01*
X6096582Y-18665396D02*
X6106105Y-18627301D01*
X6106105Y-18627301D02*
X6115629Y-18608253D01*
X6115629Y-18608253D02*
X6125153Y-18598730D01*
X6125153Y-18598730D02*
X6144201Y-18589206D01*
X6334677Y-18589206D02*
X6353725Y-18589206D01*
X6353725Y-18589206D02*
X6372772Y-18598730D01*
X6372772Y-18598730D02*
X6382296Y-18608253D01*
X6382296Y-18608253D02*
X6391820Y-18627301D01*
X6391820Y-18627301D02*
X6401344Y-18665396D01*
X6401344Y-18665396D02*
X6401344Y-18713015D01*
X6401344Y-18713015D02*
X6391820Y-18751110D01*
X6391820Y-18751110D02*
X6382296Y-18770158D01*
X6382296Y-18770158D02*
X6372772Y-18779682D01*
X6372772Y-18779682D02*
X6353725Y-18789206D01*
X6353725Y-18789206D02*
X6334677Y-18789206D01*
X6334677Y-18789206D02*
X6315629Y-18779682D01*
X6315629Y-18779682D02*
X6306105Y-18770158D01*
X6306105Y-18770158D02*
X6296582Y-18751110D01*
X6296582Y-18751110D02*
X6287058Y-18713015D01*
X6287058Y-18713015D02*
X6287058Y-18665396D01*
X6287058Y-18665396D02*
X6296582Y-18627301D01*
X6296582Y-18627301D02*
X6306105Y-18608253D01*
X6306105Y-18608253D02*
X6315629Y-18598730D01*
X6315629Y-18598730D02*
X6334677Y-18589206D01*
X6487058Y-18789206D02*
X6487058Y-18655872D01*
X6487058Y-18674920D02*
X6496582Y-18665396D01*
X6496582Y-18665396D02*
X6515629Y-18655872D01*
X6515629Y-18655872D02*
X6544201Y-18655872D01*
X6544201Y-18655872D02*
X6563248Y-18665396D01*
X6563248Y-18665396D02*
X6572772Y-18684444D01*
X6572772Y-18684444D02*
X6572772Y-18789206D01*
X6572772Y-18684444D02*
X6582296Y-18665396D01*
X6582296Y-18665396D02*
X6601344Y-18655872D01*
X6601344Y-18655872D02*
X6629915Y-18655872D01*
X6629915Y-18655872D02*
X6648963Y-18665396D01*
X6648963Y-18665396D02*
X6658486Y-18684444D01*
X6658486Y-18684444D02*
X6658486Y-18789206D01*
X6753725Y-18789206D02*
X6753725Y-18655872D01*
X6753725Y-18674920D02*
X6763248Y-18665396D01*
X6763248Y-18665396D02*
X6782296Y-18655872D01*
X6782296Y-18655872D02*
X6810867Y-18655872D01*
X6810867Y-18655872D02*
X6829915Y-18665396D01*
X6829915Y-18665396D02*
X6839439Y-18684444D01*
X6839439Y-18684444D02*
X6839439Y-18789206D01*
X6839439Y-18684444D02*
X6848963Y-18665396D01*
X6848963Y-18665396D02*
X6868010Y-18655872D01*
X6868010Y-18655872D02*
X6896582Y-18655872D01*
X6896582Y-18655872D02*
X6915629Y-18665396D01*
X6915629Y-18665396D02*
X6925153Y-18684444D01*
X6925153Y-18684444D02*
X6925153Y-18789206D01*
X7315629Y-18579682D02*
X7144201Y-18836825D01*
X7572772Y-18589206D02*
X7591820Y-18589206D01*
X7591820Y-18589206D02*
X7610868Y-18598730D01*
X7610868Y-18598730D02*
X7620391Y-18608253D01*
X7620391Y-18608253D02*
X7629915Y-18627301D01*
X7629915Y-18627301D02*
X7639439Y-18665396D01*
X7639439Y-18665396D02*
X7639439Y-18713015D01*
X7639439Y-18713015D02*
X7629915Y-18751110D01*
X7629915Y-18751110D02*
X7620391Y-18770158D01*
X7620391Y-18770158D02*
X7610868Y-18779682D01*
X7610868Y-18779682D02*
X7591820Y-18789206D01*
X7591820Y-18789206D02*
X7572772Y-18789206D01*
X7572772Y-18789206D02*
X7553725Y-18779682D01*
X7553725Y-18779682D02*
X7544201Y-18770158D01*
X7544201Y-18770158D02*
X7534677Y-18751110D01*
X7534677Y-18751110D02*
X7525153Y-18713015D01*
X7525153Y-18713015D02*
X7525153Y-18665396D01*
X7525153Y-18665396D02*
X7534677Y-18627301D01*
X7534677Y-18627301D02*
X7544201Y-18608253D01*
X7544201Y-18608253D02*
X7553725Y-18598730D01*
X7553725Y-18598730D02*
X7572772Y-18589206D01*
X7725153Y-18770158D02*
X7734677Y-18779682D01*
X7734677Y-18779682D02*
X7725153Y-18789206D01*
X7725153Y-18789206D02*
X7715629Y-18779682D01*
X7715629Y-18779682D02*
X7725153Y-18770158D01*
X7725153Y-18770158D02*
X7725153Y-18789206D01*
X7858487Y-18589206D02*
X7877534Y-18589206D01*
X7877534Y-18589206D02*
X7896582Y-18598730D01*
X7896582Y-18598730D02*
X7906106Y-18608253D01*
X7906106Y-18608253D02*
X7915629Y-18627301D01*
X7915629Y-18627301D02*
X7925153Y-18665396D01*
X7925153Y-18665396D02*
X7925153Y-18713015D01*
X7925153Y-18713015D02*
X7915629Y-18751110D01*
X7915629Y-18751110D02*
X7906106Y-18770158D01*
X7906106Y-18770158D02*
X7896582Y-18779682D01*
X7896582Y-18779682D02*
X7877534Y-18789206D01*
X7877534Y-18789206D02*
X7858487Y-18789206D01*
X7858487Y-18789206D02*
X7839439Y-18779682D01*
X7839439Y-18779682D02*
X7829915Y-18770158D01*
X7829915Y-18770158D02*
X7820391Y-18751110D01*
X7820391Y-18751110D02*
X7810868Y-18713015D01*
X7810868Y-18713015D02*
X7810868Y-18665396D01*
X7810868Y-18665396D02*
X7820391Y-18627301D01*
X7820391Y-18627301D02*
X7829915Y-18608253D01*
X7829915Y-18608253D02*
X7839439Y-18598730D01*
X7839439Y-18598730D02*
X7858487Y-18589206D01*
X8096582Y-18589206D02*
X8058487Y-18589206D01*
X8058487Y-18589206D02*
X8039439Y-18598730D01*
X8039439Y-18598730D02*
X8029915Y-18608253D01*
X8029915Y-18608253D02*
X8010868Y-18636825D01*
X8010868Y-18636825D02*
X8001344Y-18674920D01*
X8001344Y-18674920D02*
X8001344Y-18751110D01*
X8001344Y-18751110D02*
X8010868Y-18770158D01*
X8010868Y-18770158D02*
X8020391Y-18779682D01*
X8020391Y-18779682D02*
X8039439Y-18789206D01*
X8039439Y-18789206D02*
X8077534Y-18789206D01*
X8077534Y-18789206D02*
X8096582Y-18779682D01*
X8096582Y-18779682D02*
X8106106Y-18770158D01*
X8106106Y-18770158D02*
X8115629Y-18751110D01*
X8115629Y-18751110D02*
X8115629Y-18703491D01*
X8115629Y-18703491D02*
X8106106Y-18684444D01*
X8106106Y-18684444D02*
X8096582Y-18674920D01*
X8096582Y-18674920D02*
X8077534Y-18665396D01*
X8077534Y-18665396D02*
X8039439Y-18665396D01*
X8039439Y-18665396D02*
X8020391Y-18674920D01*
X8020391Y-18674920D02*
X8010868Y-18684444D01*
X8010868Y-18684444D02*
X8001344Y-18703491D01*
X8287058Y-18589206D02*
X8248963Y-18589206D01*
X8248963Y-18589206D02*
X8229915Y-18598730D01*
X8229915Y-18598730D02*
X8220391Y-18608253D01*
X8220391Y-18608253D02*
X8201344Y-18636825D01*
X8201344Y-18636825D02*
X8191820Y-18674920D01*
X8191820Y-18674920D02*
X8191820Y-18751110D01*
X8191820Y-18751110D02*
X8201344Y-18770158D01*
X8201344Y-18770158D02*
X8210868Y-18779682D01*
X8210868Y-18779682D02*
X8229915Y-18789206D01*
X8229915Y-18789206D02*
X8268010Y-18789206D01*
X8268010Y-18789206D02*
X8287058Y-18779682D01*
X8287058Y-18779682D02*
X8296582Y-18770158D01*
X8296582Y-18770158D02*
X8306106Y-18751110D01*
X8306106Y-18751110D02*
X8306106Y-18703491D01*
X8306106Y-18703491D02*
X8296582Y-18684444D01*
X8296582Y-18684444D02*
X8287058Y-18674920D01*
X8287058Y-18674920D02*
X8268010Y-18665396D01*
X8268010Y-18665396D02*
X8229915Y-18665396D01*
X8229915Y-18665396D02*
X8210868Y-18674920D01*
X8210868Y-18674920D02*
X8201344Y-18684444D01*
X8201344Y-18684444D02*
X8191820Y-18703491D01*
X8401344Y-18789206D02*
X8439439Y-18789206D01*
X8439439Y-18789206D02*
X8458487Y-18779682D01*
X8458487Y-18779682D02*
X8468011Y-18770158D01*
X8468011Y-18770158D02*
X8487058Y-18741587D01*
X8487058Y-18741587D02*
X8496582Y-18703491D01*
X8496582Y-18703491D02*
X8496582Y-18627301D01*
X8496582Y-18627301D02*
X8487058Y-18608253D01*
X8487058Y-18608253D02*
X8477534Y-18598730D01*
X8477534Y-18598730D02*
X8458487Y-18589206D01*
X8458487Y-18589206D02*
X8420391Y-18589206D01*
X8420391Y-18589206D02*
X8401344Y-18598730D01*
X8401344Y-18598730D02*
X8391820Y-18608253D01*
X8391820Y-18608253D02*
X8382296Y-18627301D01*
X8382296Y-18627301D02*
X8382296Y-18674920D01*
X8382296Y-18674920D02*
X8391820Y-18693968D01*
X8391820Y-18693968D02*
X8401344Y-18703491D01*
X8401344Y-18703491D02*
X8420391Y-18713015D01*
X8420391Y-18713015D02*
X8458487Y-18713015D01*
X8458487Y-18713015D02*
X8477534Y-18703491D01*
X8477534Y-18703491D02*
X8487058Y-18693968D01*
X8487058Y-18693968D02*
X8496582Y-18674920D01*
X8572772Y-18589206D02*
X8572772Y-18627301D01*
X8648963Y-18589206D02*
X8648963Y-18627301D01*
X8944201Y-18865396D02*
X8934677Y-18855872D01*
X8934677Y-18855872D02*
X8915630Y-18827301D01*
X8915630Y-18827301D02*
X8906106Y-18808253D01*
X8906106Y-18808253D02*
X8896582Y-18779682D01*
X8896582Y-18779682D02*
X8887058Y-18732063D01*
X8887058Y-18732063D02*
X8887058Y-18693968D01*
X8887058Y-18693968D02*
X8896582Y-18646349D01*
X8896582Y-18646349D02*
X8906106Y-18617777D01*
X8906106Y-18617777D02*
X8915630Y-18598730D01*
X8915630Y-18598730D02*
X8934677Y-18570158D01*
X8934677Y-18570158D02*
X8944201Y-18560634D01*
X9125153Y-18789206D02*
X9010868Y-18789206D01*
X9068011Y-18789206D02*
X9068011Y-18589206D01*
X9068011Y-18589206D02*
X9048963Y-18617777D01*
X9048963Y-18617777D02*
X9029915Y-18636825D01*
X9029915Y-18636825D02*
X9010868Y-18646349D01*
X9306106Y-18589206D02*
X9210868Y-18589206D01*
X9210868Y-18589206D02*
X9201344Y-18684444D01*
X9201344Y-18684444D02*
X9210868Y-18674920D01*
X9210868Y-18674920D02*
X9229915Y-18665396D01*
X9229915Y-18665396D02*
X9277534Y-18665396D01*
X9277534Y-18665396D02*
X9296582Y-18674920D01*
X9296582Y-18674920D02*
X9306106Y-18684444D01*
X9306106Y-18684444D02*
X9315630Y-18703491D01*
X9315630Y-18703491D02*
X9315630Y-18751110D01*
X9315630Y-18751110D02*
X9306106Y-18770158D01*
X9306106Y-18770158D02*
X9296582Y-18779682D01*
X9296582Y-18779682D02*
X9277534Y-18789206D01*
X9277534Y-18789206D02*
X9229915Y-18789206D01*
X9229915Y-18789206D02*
X9210868Y-18779682D01*
X9210868Y-18779682D02*
X9201344Y-18770158D01*
X9487058Y-18589206D02*
X9448963Y-18589206D01*
X9448963Y-18589206D02*
X9429915Y-18598730D01*
X9429915Y-18598730D02*
X9420392Y-18608253D01*
X9420392Y-18608253D02*
X9401344Y-18636825D01*
X9401344Y-18636825D02*
X9391820Y-18674920D01*
X9391820Y-18674920D02*
X9391820Y-18751110D01*
X9391820Y-18751110D02*
X9401344Y-18770158D01*
X9401344Y-18770158D02*
X9410868Y-18779682D01*
X9410868Y-18779682D02*
X9429915Y-18789206D01*
X9429915Y-18789206D02*
X9468011Y-18789206D01*
X9468011Y-18789206D02*
X9487058Y-18779682D01*
X9487058Y-18779682D02*
X9496582Y-18770158D01*
X9496582Y-18770158D02*
X9506106Y-18751110D01*
X9506106Y-18751110D02*
X9506106Y-18703491D01*
X9506106Y-18703491D02*
X9496582Y-18684444D01*
X9496582Y-18684444D02*
X9487058Y-18674920D01*
X9487058Y-18674920D02*
X9468011Y-18665396D01*
X9468011Y-18665396D02*
X9429915Y-18665396D01*
X9429915Y-18665396D02*
X9410868Y-18674920D01*
X9410868Y-18674920D02*
X9401344Y-18684444D01*
X9401344Y-18684444D02*
X9391820Y-18703491D01*
X9744201Y-18789206D02*
X9744201Y-18589206D01*
X9829915Y-18789206D02*
X9829915Y-18684444D01*
X9829915Y-18684444D02*
X9820392Y-18665396D01*
X9820392Y-18665396D02*
X9801344Y-18655872D01*
X9801344Y-18655872D02*
X9772773Y-18655872D01*
X9772773Y-18655872D02*
X9753725Y-18665396D01*
X9753725Y-18665396D02*
X9744201Y-18674920D01*
X9953725Y-18789206D02*
X9934677Y-18779682D01*
X9934677Y-18779682D02*
X9925154Y-18770158D01*
X9925154Y-18770158D02*
X9915630Y-18751110D01*
X9915630Y-18751110D02*
X9915630Y-18693968D01*
X9915630Y-18693968D02*
X9925154Y-18674920D01*
X9925154Y-18674920D02*
X9934677Y-18665396D01*
X9934677Y-18665396D02*
X9953725Y-18655872D01*
X9953725Y-18655872D02*
X9982296Y-18655872D01*
X9982296Y-18655872D02*
X10001344Y-18665396D01*
X10001344Y-18665396D02*
X10010868Y-18674920D01*
X10010868Y-18674920D02*
X10020392Y-18693968D01*
X10020392Y-18693968D02*
X10020392Y-18751110D01*
X10020392Y-18751110D02*
X10010868Y-18770158D01*
X10010868Y-18770158D02*
X10001344Y-18779682D01*
X10001344Y-18779682D02*
X9982296Y-18789206D01*
X9982296Y-18789206D02*
X9953725Y-18789206D01*
X10134677Y-18789206D02*
X10115630Y-18779682D01*
X10115630Y-18779682D02*
X10106106Y-18760634D01*
X10106106Y-18760634D02*
X10106106Y-18589206D01*
X10287058Y-18779682D02*
X10268011Y-18789206D01*
X10268011Y-18789206D02*
X10229915Y-18789206D01*
X10229915Y-18789206D02*
X10210868Y-18779682D01*
X10210868Y-18779682D02*
X10201344Y-18760634D01*
X10201344Y-18760634D02*
X10201344Y-18684444D01*
X10201344Y-18684444D02*
X10210868Y-18665396D01*
X10210868Y-18665396D02*
X10229915Y-18655872D01*
X10229915Y-18655872D02*
X10268011Y-18655872D01*
X10268011Y-18655872D02*
X10287058Y-18665396D01*
X10287058Y-18665396D02*
X10296582Y-18684444D01*
X10296582Y-18684444D02*
X10296582Y-18703491D01*
X10296582Y-18703491D02*
X10201344Y-18722539D01*
X10372773Y-18779682D02*
X10391820Y-18789206D01*
X10391820Y-18789206D02*
X10429915Y-18789206D01*
X10429915Y-18789206D02*
X10448963Y-18779682D01*
X10448963Y-18779682D02*
X10458487Y-18760634D01*
X10458487Y-18760634D02*
X10458487Y-18751110D01*
X10458487Y-18751110D02*
X10448963Y-18732063D01*
X10448963Y-18732063D02*
X10429915Y-18722539D01*
X10429915Y-18722539D02*
X10401344Y-18722539D01*
X10401344Y-18722539D02*
X10382296Y-18713015D01*
X10382296Y-18713015D02*
X10372773Y-18693968D01*
X10372773Y-18693968D02*
X10372773Y-18684444D01*
X10372773Y-18684444D02*
X10382296Y-18665396D01*
X10382296Y-18665396D02*
X10401344Y-18655872D01*
X10401344Y-18655872D02*
X10429915Y-18655872D01*
X10429915Y-18655872D02*
X10448963Y-18665396D01*
X10525154Y-18865396D02*
X10534677Y-18855872D01*
X10534677Y-18855872D02*
X10553725Y-18827301D01*
X10553725Y-18827301D02*
X10563249Y-18808253D01*
X10563249Y-18808253D02*
X10572773Y-18779682D01*
X10572773Y-18779682D02*
X10582296Y-18732063D01*
X10582296Y-18732063D02*
X10582296Y-18693968D01*
X10582296Y-18693968D02*
X10572773Y-18646349D01*
X10572773Y-18646349D02*
X10563249Y-18617777D01*
X10563249Y-18617777D02*
X10553725Y-18598730D01*
X10553725Y-18598730D02*
X10534677Y-18570158D01*
X10534677Y-18570158D02*
X10525154Y-18560634D01*
X10887058Y-18865396D02*
X10877535Y-18855872D01*
X10877535Y-18855872D02*
X10858487Y-18827301D01*
X10858487Y-18827301D02*
X10848963Y-18808253D01*
X10848963Y-18808253D02*
X10839439Y-18779682D01*
X10839439Y-18779682D02*
X10829916Y-18732063D01*
X10829916Y-18732063D02*
X10829916Y-18693968D01*
X10829916Y-18693968D02*
X10839439Y-18646349D01*
X10839439Y-18646349D02*
X10848963Y-18617777D01*
X10848963Y-18617777D02*
X10858487Y-18598730D01*
X10858487Y-18598730D02*
X10877535Y-18570158D01*
X10877535Y-18570158D02*
X10887058Y-18560634D01*
X10963249Y-18655872D02*
X10963249Y-18789206D01*
X10963249Y-18674920D02*
X10972773Y-18665396D01*
X10972773Y-18665396D02*
X10991820Y-18655872D01*
X10991820Y-18655872D02*
X11020392Y-18655872D01*
X11020392Y-18655872D02*
X11039439Y-18665396D01*
X11039439Y-18665396D02*
X11048963Y-18684444D01*
X11048963Y-18684444D02*
X11048963Y-18789206D01*
X11172773Y-18789206D02*
X11153725Y-18779682D01*
X11153725Y-18779682D02*
X11144201Y-18770158D01*
X11144201Y-18770158D02*
X11134677Y-18751110D01*
X11134677Y-18751110D02*
X11134677Y-18693968D01*
X11134677Y-18693968D02*
X11144201Y-18674920D01*
X11144201Y-18674920D02*
X11153725Y-18665396D01*
X11153725Y-18665396D02*
X11172773Y-18655872D01*
X11172773Y-18655872D02*
X11201344Y-18655872D01*
X11201344Y-18655872D02*
X11220392Y-18665396D01*
X11220392Y-18665396D02*
X11229915Y-18674920D01*
X11229915Y-18674920D02*
X11239439Y-18693968D01*
X11239439Y-18693968D02*
X11239439Y-18751110D01*
X11239439Y-18751110D02*
X11229915Y-18770158D01*
X11229915Y-18770158D02*
X11220392Y-18779682D01*
X11220392Y-18779682D02*
X11201344Y-18789206D01*
X11201344Y-18789206D02*
X11172773Y-18789206D01*
X11296582Y-18655872D02*
X11372773Y-18655872D01*
X11325154Y-18589206D02*
X11325154Y-18760634D01*
X11325154Y-18760634D02*
X11334677Y-18779682D01*
X11334677Y-18779682D02*
X11353725Y-18789206D01*
X11353725Y-18789206D02*
X11372773Y-18789206D01*
X11591820Y-18655872D02*
X11591820Y-18855872D01*
X11591820Y-18665396D02*
X11610868Y-18655872D01*
X11610868Y-18655872D02*
X11648963Y-18655872D01*
X11648963Y-18655872D02*
X11668011Y-18665396D01*
X11668011Y-18665396D02*
X11677535Y-18674920D01*
X11677535Y-18674920D02*
X11687058Y-18693968D01*
X11687058Y-18693968D02*
X11687058Y-18751110D01*
X11687058Y-18751110D02*
X11677535Y-18770158D01*
X11677535Y-18770158D02*
X11668011Y-18779682D01*
X11668011Y-18779682D02*
X11648963Y-18789206D01*
X11648963Y-18789206D02*
X11610868Y-18789206D01*
X11610868Y-18789206D02*
X11591820Y-18779682D01*
X11801344Y-18789206D02*
X11782296Y-18779682D01*
X11782296Y-18779682D02*
X11772773Y-18760634D01*
X11772773Y-18760634D02*
X11772773Y-18589206D01*
X11963249Y-18789206D02*
X11963249Y-18684444D01*
X11963249Y-18684444D02*
X11953725Y-18665396D01*
X11953725Y-18665396D02*
X11934677Y-18655872D01*
X11934677Y-18655872D02*
X11896582Y-18655872D01*
X11896582Y-18655872D02*
X11877535Y-18665396D01*
X11963249Y-18779682D02*
X11944201Y-18789206D01*
X11944201Y-18789206D02*
X11896582Y-18789206D01*
X11896582Y-18789206D02*
X11877535Y-18779682D01*
X11877535Y-18779682D02*
X11868011Y-18760634D01*
X11868011Y-18760634D02*
X11868011Y-18741587D01*
X11868011Y-18741587D02*
X11877535Y-18722539D01*
X11877535Y-18722539D02*
X11896582Y-18713015D01*
X11896582Y-18713015D02*
X11944201Y-18713015D01*
X11944201Y-18713015D02*
X11963249Y-18703491D01*
X12029916Y-18655872D02*
X12106106Y-18655872D01*
X12058487Y-18589206D02*
X12058487Y-18760634D01*
X12058487Y-18760634D02*
X12068011Y-18779682D01*
X12068011Y-18779682D02*
X12087058Y-18789206D01*
X12087058Y-18789206D02*
X12106106Y-18789206D01*
X12248963Y-18779682D02*
X12229916Y-18789206D01*
X12229916Y-18789206D02*
X12191820Y-18789206D01*
X12191820Y-18789206D02*
X12172773Y-18779682D01*
X12172773Y-18779682D02*
X12163249Y-18760634D01*
X12163249Y-18760634D02*
X12163249Y-18684444D01*
X12163249Y-18684444D02*
X12172773Y-18665396D01*
X12172773Y-18665396D02*
X12191820Y-18655872D01*
X12191820Y-18655872D02*
X12229916Y-18655872D01*
X12229916Y-18655872D02*
X12248963Y-18665396D01*
X12248963Y-18665396D02*
X12258487Y-18684444D01*
X12258487Y-18684444D02*
X12258487Y-18703491D01*
X12258487Y-18703491D02*
X12163249Y-18722539D01*
X12429916Y-18789206D02*
X12429916Y-18589206D01*
X12429916Y-18779682D02*
X12410868Y-18789206D01*
X12410868Y-18789206D02*
X12372773Y-18789206D01*
X12372773Y-18789206D02*
X12353725Y-18779682D01*
X12353725Y-18779682D02*
X12344201Y-18770158D01*
X12344201Y-18770158D02*
X12334677Y-18751110D01*
X12334677Y-18751110D02*
X12334677Y-18693968D01*
X12334677Y-18693968D02*
X12344201Y-18674920D01*
X12344201Y-18674920D02*
X12353725Y-18665396D01*
X12353725Y-18665396D02*
X12372773Y-18655872D01*
X12372773Y-18655872D02*
X12410868Y-18655872D01*
X12410868Y-18655872D02*
X12429916Y-18665396D01*
X12506106Y-18865396D02*
X12515630Y-18855872D01*
X12515630Y-18855872D02*
X12534677Y-18827301D01*
X12534677Y-18827301D02*
X12544201Y-18808253D01*
X12544201Y-18808253D02*
X12553725Y-18779682D01*
X12553725Y-18779682D02*
X12563249Y-18732063D01*
X12563249Y-18732063D02*
X12563249Y-18693968D01*
X12563249Y-18693968D02*
X12553725Y-18646349D01*
X12553725Y-18646349D02*
X12544201Y-18617777D01*
X12544201Y-18617777D02*
X12534677Y-18598730D01*
X12534677Y-18598730D02*
X12515630Y-18570158D01*
X12515630Y-18570158D02*
X12506106Y-18560634D01*
X5369138Y-18987722D02*
G75*
G03*
X5169138Y-18987722I-100000J0D01*
G01*
X5169138Y-18987722D02*
G75*
G03*
X5369138Y-18987722I100000J0D01*
G01*
X5610867Y-18879206D02*
X5734677Y-18879206D01*
X5734677Y-18879206D02*
X5668010Y-18955396D01*
X5668010Y-18955396D02*
X5696582Y-18955396D01*
X5696582Y-18955396D02*
X5715629Y-18964920D01*
X5715629Y-18964920D02*
X5725153Y-18974444D01*
X5725153Y-18974444D02*
X5734677Y-18993491D01*
X5734677Y-18993491D02*
X5734677Y-19041110D01*
X5734677Y-19041110D02*
X5725153Y-19060158D01*
X5725153Y-19060158D02*
X5715629Y-19069682D01*
X5715629Y-19069682D02*
X5696582Y-19079206D01*
X5696582Y-19079206D02*
X5639439Y-19079206D01*
X5639439Y-19079206D02*
X5620391Y-19069682D01*
X5620391Y-19069682D02*
X5610867Y-19060158D01*
X5820391Y-19060158D02*
X5829915Y-19069682D01*
X5829915Y-19069682D02*
X5820391Y-19079206D01*
X5820391Y-19079206D02*
X5810867Y-19069682D01*
X5810867Y-19069682D02*
X5820391Y-19060158D01*
X5820391Y-19060158D02*
X5820391Y-19079206D01*
X5953724Y-18879206D02*
X5972772Y-18879206D01*
X5972772Y-18879206D02*
X5991820Y-18888730D01*
X5991820Y-18888730D02*
X6001344Y-18898253D01*
X6001344Y-18898253D02*
X6010867Y-18917301D01*
X6010867Y-18917301D02*
X6020391Y-18955396D01*
X6020391Y-18955396D02*
X6020391Y-19003015D01*
X6020391Y-19003015D02*
X6010867Y-19041110D01*
X6010867Y-19041110D02*
X6001344Y-19060158D01*
X6001344Y-19060158D02*
X5991820Y-19069682D01*
X5991820Y-19069682D02*
X5972772Y-19079206D01*
X5972772Y-19079206D02*
X5953724Y-19079206D01*
X5953724Y-19079206D02*
X5934677Y-19069682D01*
X5934677Y-19069682D02*
X5925153Y-19060158D01*
X5925153Y-19060158D02*
X5915629Y-19041110D01*
X5915629Y-19041110D02*
X5906105Y-19003015D01*
X5906105Y-19003015D02*
X5906105Y-18955396D01*
X5906105Y-18955396D02*
X5915629Y-18917301D01*
X5915629Y-18917301D02*
X5925153Y-18898253D01*
X5925153Y-18898253D02*
X5934677Y-18888730D01*
X5934677Y-18888730D02*
X5953724Y-18879206D01*
X6191820Y-18945872D02*
X6191820Y-19079206D01*
X6144201Y-18869682D02*
X6096582Y-19012539D01*
X6096582Y-19012539D02*
X6220391Y-19012539D01*
X6325153Y-18964920D02*
X6306105Y-18955396D01*
X6306105Y-18955396D02*
X6296582Y-18945872D01*
X6296582Y-18945872D02*
X6287058Y-18926825D01*
X6287058Y-18926825D02*
X6287058Y-18917301D01*
X6287058Y-18917301D02*
X6296582Y-18898253D01*
X6296582Y-18898253D02*
X6306105Y-18888730D01*
X6306105Y-18888730D02*
X6325153Y-18879206D01*
X6325153Y-18879206D02*
X6363248Y-18879206D01*
X6363248Y-18879206D02*
X6382296Y-18888730D01*
X6382296Y-18888730D02*
X6391820Y-18898253D01*
X6391820Y-18898253D02*
X6401344Y-18917301D01*
X6401344Y-18917301D02*
X6401344Y-18926825D01*
X6401344Y-18926825D02*
X6391820Y-18945872D01*
X6391820Y-18945872D02*
X6382296Y-18955396D01*
X6382296Y-18955396D02*
X6363248Y-18964920D01*
X6363248Y-18964920D02*
X6325153Y-18964920D01*
X6325153Y-18964920D02*
X6306105Y-18974444D01*
X6306105Y-18974444D02*
X6296582Y-18983968D01*
X6296582Y-18983968D02*
X6287058Y-19003015D01*
X6287058Y-19003015D02*
X6287058Y-19041110D01*
X6287058Y-19041110D02*
X6296582Y-19060158D01*
X6296582Y-19060158D02*
X6306105Y-19069682D01*
X6306105Y-19069682D02*
X6325153Y-19079206D01*
X6325153Y-19079206D02*
X6363248Y-19079206D01*
X6363248Y-19079206D02*
X6382296Y-19069682D01*
X6382296Y-19069682D02*
X6391820Y-19060158D01*
X6391820Y-19060158D02*
X6401344Y-19041110D01*
X6401344Y-19041110D02*
X6401344Y-19003015D01*
X6401344Y-19003015D02*
X6391820Y-18983968D01*
X6391820Y-18983968D02*
X6382296Y-18974444D01*
X6382296Y-18974444D02*
X6363248Y-18964920D01*
X6487058Y-19079206D02*
X6487058Y-18945872D01*
X6487058Y-18964920D02*
X6496582Y-18955396D01*
X6496582Y-18955396D02*
X6515629Y-18945872D01*
X6515629Y-18945872D02*
X6544201Y-18945872D01*
X6544201Y-18945872D02*
X6563248Y-18955396D01*
X6563248Y-18955396D02*
X6572772Y-18974444D01*
X6572772Y-18974444D02*
X6572772Y-19079206D01*
X6572772Y-18974444D02*
X6582296Y-18955396D01*
X6582296Y-18955396D02*
X6601344Y-18945872D01*
X6601344Y-18945872D02*
X6629915Y-18945872D01*
X6629915Y-18945872D02*
X6648963Y-18955396D01*
X6648963Y-18955396D02*
X6658486Y-18974444D01*
X6658486Y-18974444D02*
X6658486Y-19079206D01*
X6753725Y-19079206D02*
X6753725Y-18945872D01*
X6753725Y-18964920D02*
X6763248Y-18955396D01*
X6763248Y-18955396D02*
X6782296Y-18945872D01*
X6782296Y-18945872D02*
X6810867Y-18945872D01*
X6810867Y-18945872D02*
X6829915Y-18955396D01*
X6829915Y-18955396D02*
X6839439Y-18974444D01*
X6839439Y-18974444D02*
X6839439Y-19079206D01*
X6839439Y-18974444D02*
X6848963Y-18955396D01*
X6848963Y-18955396D02*
X6868010Y-18945872D01*
X6868010Y-18945872D02*
X6896582Y-18945872D01*
X6896582Y-18945872D02*
X6915629Y-18955396D01*
X6915629Y-18955396D02*
X6925153Y-18974444D01*
X6925153Y-18974444D02*
X6925153Y-19079206D01*
X7315629Y-18869682D02*
X7144201Y-19126825D01*
X7572772Y-18879206D02*
X7591820Y-18879206D01*
X7591820Y-18879206D02*
X7610868Y-18888730D01*
X7610868Y-18888730D02*
X7620391Y-18898253D01*
X7620391Y-18898253D02*
X7629915Y-18917301D01*
X7629915Y-18917301D02*
X7639439Y-18955396D01*
X7639439Y-18955396D02*
X7639439Y-19003015D01*
X7639439Y-19003015D02*
X7629915Y-19041110D01*
X7629915Y-19041110D02*
X7620391Y-19060158D01*
X7620391Y-19060158D02*
X7610868Y-19069682D01*
X7610868Y-19069682D02*
X7591820Y-19079206D01*
X7591820Y-19079206D02*
X7572772Y-19079206D01*
X7572772Y-19079206D02*
X7553725Y-19069682D01*
X7553725Y-19069682D02*
X7544201Y-19060158D01*
X7544201Y-19060158D02*
X7534677Y-19041110D01*
X7534677Y-19041110D02*
X7525153Y-19003015D01*
X7525153Y-19003015D02*
X7525153Y-18955396D01*
X7525153Y-18955396D02*
X7534677Y-18917301D01*
X7534677Y-18917301D02*
X7544201Y-18898253D01*
X7544201Y-18898253D02*
X7553725Y-18888730D01*
X7553725Y-18888730D02*
X7572772Y-18879206D01*
X7725153Y-19060158D02*
X7734677Y-19069682D01*
X7734677Y-19069682D02*
X7725153Y-19079206D01*
X7725153Y-19079206D02*
X7715629Y-19069682D01*
X7715629Y-19069682D02*
X7725153Y-19060158D01*
X7725153Y-19060158D02*
X7725153Y-19079206D01*
X7925153Y-19079206D02*
X7810868Y-19079206D01*
X7868010Y-19079206D02*
X7868010Y-18879206D01*
X7868010Y-18879206D02*
X7848963Y-18907777D01*
X7848963Y-18907777D02*
X7829915Y-18926825D01*
X7829915Y-18926825D02*
X7810868Y-18936349D01*
X8001344Y-18898253D02*
X8010868Y-18888730D01*
X8010868Y-18888730D02*
X8029915Y-18879206D01*
X8029915Y-18879206D02*
X8077534Y-18879206D01*
X8077534Y-18879206D02*
X8096582Y-18888730D01*
X8096582Y-18888730D02*
X8106106Y-18898253D01*
X8106106Y-18898253D02*
X8115629Y-18917301D01*
X8115629Y-18917301D02*
X8115629Y-18936349D01*
X8115629Y-18936349D02*
X8106106Y-18964920D01*
X8106106Y-18964920D02*
X7991820Y-19079206D01*
X7991820Y-19079206D02*
X8115629Y-19079206D01*
X8239439Y-18879206D02*
X8258487Y-18879206D01*
X8258487Y-18879206D02*
X8277534Y-18888730D01*
X8277534Y-18888730D02*
X8287058Y-18898253D01*
X8287058Y-18898253D02*
X8296582Y-18917301D01*
X8296582Y-18917301D02*
X8306106Y-18955396D01*
X8306106Y-18955396D02*
X8306106Y-19003015D01*
X8306106Y-19003015D02*
X8296582Y-19041110D01*
X8296582Y-19041110D02*
X8287058Y-19060158D01*
X8287058Y-19060158D02*
X8277534Y-19069682D01*
X8277534Y-19069682D02*
X8258487Y-19079206D01*
X8258487Y-19079206D02*
X8239439Y-19079206D01*
X8239439Y-19079206D02*
X8220391Y-19069682D01*
X8220391Y-19069682D02*
X8210868Y-19060158D01*
X8210868Y-19060158D02*
X8201344Y-19041110D01*
X8201344Y-19041110D02*
X8191820Y-19003015D01*
X8191820Y-19003015D02*
X8191820Y-18955396D01*
X8191820Y-18955396D02*
X8201344Y-18917301D01*
X8201344Y-18917301D02*
X8210868Y-18898253D01*
X8210868Y-18898253D02*
X8220391Y-18888730D01*
X8220391Y-18888730D02*
X8239439Y-18879206D01*
X8429915Y-18879206D02*
X8448963Y-18879206D01*
X8448963Y-18879206D02*
X8468011Y-18888730D01*
X8468011Y-18888730D02*
X8477534Y-18898253D01*
X8477534Y-18898253D02*
X8487058Y-18917301D01*
X8487058Y-18917301D02*
X8496582Y-18955396D01*
X8496582Y-18955396D02*
X8496582Y-19003015D01*
X8496582Y-19003015D02*
X8487058Y-19041110D01*
X8487058Y-19041110D02*
X8477534Y-19060158D01*
X8477534Y-19060158D02*
X8468011Y-19069682D01*
X8468011Y-19069682D02*
X8448963Y-19079206D01*
X8448963Y-19079206D02*
X8429915Y-19079206D01*
X8429915Y-19079206D02*
X8410868Y-19069682D01*
X8410868Y-19069682D02*
X8401344Y-19060158D01*
X8401344Y-19060158D02*
X8391820Y-19041110D01*
X8391820Y-19041110D02*
X8382296Y-19003015D01*
X8382296Y-19003015D02*
X8382296Y-18955396D01*
X8382296Y-18955396D02*
X8391820Y-18917301D01*
X8391820Y-18917301D02*
X8401344Y-18898253D01*
X8401344Y-18898253D02*
X8410868Y-18888730D01*
X8410868Y-18888730D02*
X8429915Y-18879206D01*
X8572772Y-18879206D02*
X8572772Y-18917301D01*
X8648963Y-18879206D02*
X8648963Y-18917301D01*
X8944201Y-19155396D02*
X8934677Y-19145872D01*
X8934677Y-19145872D02*
X8915630Y-19117301D01*
X8915630Y-19117301D02*
X8906106Y-19098253D01*
X8906106Y-19098253D02*
X8896582Y-19069682D01*
X8896582Y-19069682D02*
X8887058Y-19022063D01*
X8887058Y-19022063D02*
X8887058Y-18983968D01*
X8887058Y-18983968D02*
X8896582Y-18936349D01*
X8896582Y-18936349D02*
X8906106Y-18907777D01*
X8906106Y-18907777D02*
X8915630Y-18888730D01*
X8915630Y-18888730D02*
X8934677Y-18860158D01*
X8934677Y-18860158D02*
X8944201Y-18850634D01*
X9106106Y-18945872D02*
X9106106Y-19079206D01*
X9058487Y-18869682D02*
X9010868Y-19012539D01*
X9010868Y-19012539D02*
X9134677Y-19012539D01*
X9363249Y-19079206D02*
X9363249Y-18879206D01*
X9448963Y-19079206D02*
X9448963Y-18974444D01*
X9448963Y-18974444D02*
X9439439Y-18955396D01*
X9439439Y-18955396D02*
X9420392Y-18945872D01*
X9420392Y-18945872D02*
X9391820Y-18945872D01*
X9391820Y-18945872D02*
X9372773Y-18955396D01*
X9372773Y-18955396D02*
X9363249Y-18964920D01*
X9572773Y-19079206D02*
X9553725Y-19069682D01*
X9553725Y-19069682D02*
X9544201Y-19060158D01*
X9544201Y-19060158D02*
X9534677Y-19041110D01*
X9534677Y-19041110D02*
X9534677Y-18983968D01*
X9534677Y-18983968D02*
X9544201Y-18964920D01*
X9544201Y-18964920D02*
X9553725Y-18955396D01*
X9553725Y-18955396D02*
X9572773Y-18945872D01*
X9572773Y-18945872D02*
X9601344Y-18945872D01*
X9601344Y-18945872D02*
X9620392Y-18955396D01*
X9620392Y-18955396D02*
X9629915Y-18964920D01*
X9629915Y-18964920D02*
X9639439Y-18983968D01*
X9639439Y-18983968D02*
X9639439Y-19041110D01*
X9639439Y-19041110D02*
X9629915Y-19060158D01*
X9629915Y-19060158D02*
X9620392Y-19069682D01*
X9620392Y-19069682D02*
X9601344Y-19079206D01*
X9601344Y-19079206D02*
X9572773Y-19079206D01*
X9753725Y-19079206D02*
X9734677Y-19069682D01*
X9734677Y-19069682D02*
X9725154Y-19050634D01*
X9725154Y-19050634D02*
X9725154Y-18879206D01*
X9906106Y-19069682D02*
X9887058Y-19079206D01*
X9887058Y-19079206D02*
X9848963Y-19079206D01*
X9848963Y-19079206D02*
X9829915Y-19069682D01*
X9829915Y-19069682D02*
X9820392Y-19050634D01*
X9820392Y-19050634D02*
X9820392Y-18974444D01*
X9820392Y-18974444D02*
X9829915Y-18955396D01*
X9829915Y-18955396D02*
X9848963Y-18945872D01*
X9848963Y-18945872D02*
X9887058Y-18945872D01*
X9887058Y-18945872D02*
X9906106Y-18955396D01*
X9906106Y-18955396D02*
X9915630Y-18974444D01*
X9915630Y-18974444D02*
X9915630Y-18993491D01*
X9915630Y-18993491D02*
X9820392Y-19012539D01*
X9991820Y-19069682D02*
X10010868Y-19079206D01*
X10010868Y-19079206D02*
X10048963Y-19079206D01*
X10048963Y-19079206D02*
X10068011Y-19069682D01*
X10068011Y-19069682D02*
X10077535Y-19050634D01*
X10077535Y-19050634D02*
X10077535Y-19041110D01*
X10077535Y-19041110D02*
X10068011Y-19022063D01*
X10068011Y-19022063D02*
X10048963Y-19012539D01*
X10048963Y-19012539D02*
X10020392Y-19012539D01*
X10020392Y-19012539D02*
X10001344Y-19003015D01*
X10001344Y-19003015D02*
X9991820Y-18983968D01*
X9991820Y-18983968D02*
X9991820Y-18974444D01*
X9991820Y-18974444D02*
X10001344Y-18955396D01*
X10001344Y-18955396D02*
X10020392Y-18945872D01*
X10020392Y-18945872D02*
X10048963Y-18945872D01*
X10048963Y-18945872D02*
X10068011Y-18955396D01*
X10144201Y-19155396D02*
X10153725Y-19145872D01*
X10153725Y-19145872D02*
X10172773Y-19117301D01*
X10172773Y-19117301D02*
X10182296Y-19098253D01*
X10182296Y-19098253D02*
X10191820Y-19069682D01*
X10191820Y-19069682D02*
X10201344Y-19022063D01*
X10201344Y-19022063D02*
X10201344Y-18983968D01*
X10201344Y-18983968D02*
X10191820Y-18936349D01*
X10191820Y-18936349D02*
X10182296Y-18907777D01*
X10182296Y-18907777D02*
X10172773Y-18888730D01*
X10172773Y-18888730D02*
X10153725Y-18860158D01*
X10153725Y-18860158D02*
X10144201Y-18850634D01*
X10506106Y-19155396D02*
X10496582Y-19145872D01*
X10496582Y-19145872D02*
X10477535Y-19117301D01*
X10477535Y-19117301D02*
X10468011Y-19098253D01*
X10468011Y-19098253D02*
X10458487Y-19069682D01*
X10458487Y-19069682D02*
X10448963Y-19022063D01*
X10448963Y-19022063D02*
X10448963Y-18983968D01*
X10448963Y-18983968D02*
X10458487Y-18936349D01*
X10458487Y-18936349D02*
X10468011Y-18907777D01*
X10468011Y-18907777D02*
X10477535Y-18888730D01*
X10477535Y-18888730D02*
X10496582Y-18860158D01*
X10496582Y-18860158D02*
X10506106Y-18850634D01*
X10582296Y-18945872D02*
X10582296Y-19079206D01*
X10582296Y-18964920D02*
X10591820Y-18955396D01*
X10591820Y-18955396D02*
X10610868Y-18945872D01*
X10610868Y-18945872D02*
X10639439Y-18945872D01*
X10639439Y-18945872D02*
X10658487Y-18955396D01*
X10658487Y-18955396D02*
X10668011Y-18974444D01*
X10668011Y-18974444D02*
X10668011Y-19079206D01*
X10791820Y-19079206D02*
X10772773Y-19069682D01*
X10772773Y-19069682D02*
X10763249Y-19060158D01*
X10763249Y-19060158D02*
X10753725Y-19041110D01*
X10753725Y-19041110D02*
X10753725Y-18983968D01*
X10753725Y-18983968D02*
X10763249Y-18964920D01*
X10763249Y-18964920D02*
X10772773Y-18955396D01*
X10772773Y-18955396D02*
X10791820Y-18945872D01*
X10791820Y-18945872D02*
X10820392Y-18945872D01*
X10820392Y-18945872D02*
X10839439Y-18955396D01*
X10839439Y-18955396D02*
X10848963Y-18964920D01*
X10848963Y-18964920D02*
X10858487Y-18983968D01*
X10858487Y-18983968D02*
X10858487Y-19041110D01*
X10858487Y-19041110D02*
X10848963Y-19060158D01*
X10848963Y-19060158D02*
X10839439Y-19069682D01*
X10839439Y-19069682D02*
X10820392Y-19079206D01*
X10820392Y-19079206D02*
X10791820Y-19079206D01*
X10915630Y-18945872D02*
X10991820Y-18945872D01*
X10944201Y-18879206D02*
X10944201Y-19050634D01*
X10944201Y-19050634D02*
X10953725Y-19069682D01*
X10953725Y-19069682D02*
X10972773Y-19079206D01*
X10972773Y-19079206D02*
X10991820Y-19079206D01*
X11210868Y-18945872D02*
X11210868Y-19145872D01*
X11210868Y-18955396D02*
X11229915Y-18945872D01*
X11229915Y-18945872D02*
X11268011Y-18945872D01*
X11268011Y-18945872D02*
X11287058Y-18955396D01*
X11287058Y-18955396D02*
X11296582Y-18964920D01*
X11296582Y-18964920D02*
X11306106Y-18983968D01*
X11306106Y-18983968D02*
X11306106Y-19041110D01*
X11306106Y-19041110D02*
X11296582Y-19060158D01*
X11296582Y-19060158D02*
X11287058Y-19069682D01*
X11287058Y-19069682D02*
X11268011Y-19079206D01*
X11268011Y-19079206D02*
X11229915Y-19079206D01*
X11229915Y-19079206D02*
X11210868Y-19069682D01*
X11420392Y-19079206D02*
X11401344Y-19069682D01*
X11401344Y-19069682D02*
X11391820Y-19050634D01*
X11391820Y-19050634D02*
X11391820Y-18879206D01*
X11582296Y-19079206D02*
X11582296Y-18974444D01*
X11582296Y-18974444D02*
X11572773Y-18955396D01*
X11572773Y-18955396D02*
X11553725Y-18945872D01*
X11553725Y-18945872D02*
X11515630Y-18945872D01*
X11515630Y-18945872D02*
X11496582Y-18955396D01*
X11582296Y-19069682D02*
X11563249Y-19079206D01*
X11563249Y-19079206D02*
X11515630Y-19079206D01*
X11515630Y-19079206D02*
X11496582Y-19069682D01*
X11496582Y-19069682D02*
X11487058Y-19050634D01*
X11487058Y-19050634D02*
X11487058Y-19031587D01*
X11487058Y-19031587D02*
X11496582Y-19012539D01*
X11496582Y-19012539D02*
X11515630Y-19003015D01*
X11515630Y-19003015D02*
X11563249Y-19003015D01*
X11563249Y-19003015D02*
X11582296Y-18993491D01*
X11648963Y-18945872D02*
X11725154Y-18945872D01*
X11677535Y-18879206D02*
X11677535Y-19050634D01*
X11677535Y-19050634D02*
X11687058Y-19069682D01*
X11687058Y-19069682D02*
X11706106Y-19079206D01*
X11706106Y-19079206D02*
X11725154Y-19079206D01*
X11868011Y-19069682D02*
X11848963Y-19079206D01*
X11848963Y-19079206D02*
X11810868Y-19079206D01*
X11810868Y-19079206D02*
X11791820Y-19069682D01*
X11791820Y-19069682D02*
X11782296Y-19050634D01*
X11782296Y-19050634D02*
X11782296Y-18974444D01*
X11782296Y-18974444D02*
X11791820Y-18955396D01*
X11791820Y-18955396D02*
X11810868Y-18945872D01*
X11810868Y-18945872D02*
X11848963Y-18945872D01*
X11848963Y-18945872D02*
X11868011Y-18955396D01*
X11868011Y-18955396D02*
X11877535Y-18974444D01*
X11877535Y-18974444D02*
X11877535Y-18993491D01*
X11877535Y-18993491D02*
X11782296Y-19012539D01*
X12048963Y-19079206D02*
X12048963Y-18879206D01*
X12048963Y-19069682D02*
X12029916Y-19079206D01*
X12029916Y-19079206D02*
X11991820Y-19079206D01*
X11991820Y-19079206D02*
X11972773Y-19069682D01*
X11972773Y-19069682D02*
X11963249Y-19060158D01*
X11963249Y-19060158D02*
X11953725Y-19041110D01*
X11953725Y-19041110D02*
X11953725Y-18983968D01*
X11953725Y-18983968D02*
X11963249Y-18964920D01*
X11963249Y-18964920D02*
X11972773Y-18955396D01*
X11972773Y-18955396D02*
X11991820Y-18945872D01*
X11991820Y-18945872D02*
X12029916Y-18945872D01*
X12029916Y-18945872D02*
X12048963Y-18955396D01*
X12125154Y-19155396D02*
X12134677Y-19145872D01*
X12134677Y-19145872D02*
X12153725Y-19117301D01*
X12153725Y-19117301D02*
X12163249Y-19098253D01*
X12163249Y-19098253D02*
X12172773Y-19069682D01*
X12172773Y-19069682D02*
X12182296Y-19022063D01*
X12182296Y-19022063D02*
X12182296Y-18983968D01*
X12182296Y-18983968D02*
X12172773Y-18936349D01*
X12172773Y-18936349D02*
X12163249Y-18907777D01*
X12163249Y-18907777D02*
X12153725Y-18888730D01*
X12153725Y-18888730D02*
X12134677Y-18860158D01*
X12134677Y-18860158D02*
X12125154Y-18850634D01*
X5269138Y-19207722D02*
X5269138Y-19407722D01*
X5169138Y-19307722D02*
X5369138Y-19307722D01*
X5610867Y-19199206D02*
X5734677Y-19199206D01*
X5734677Y-19199206D02*
X5668010Y-19275396D01*
X5668010Y-19275396D02*
X5696582Y-19275396D01*
X5696582Y-19275396D02*
X5715629Y-19284920D01*
X5715629Y-19284920D02*
X5725153Y-19294444D01*
X5725153Y-19294444D02*
X5734677Y-19313491D01*
X5734677Y-19313491D02*
X5734677Y-19361110D01*
X5734677Y-19361110D02*
X5725153Y-19380158D01*
X5725153Y-19380158D02*
X5715629Y-19389682D01*
X5715629Y-19389682D02*
X5696582Y-19399206D01*
X5696582Y-19399206D02*
X5639439Y-19399206D01*
X5639439Y-19399206D02*
X5620391Y-19389682D01*
X5620391Y-19389682D02*
X5610867Y-19380158D01*
X5820391Y-19380158D02*
X5829915Y-19389682D01*
X5829915Y-19389682D02*
X5820391Y-19399206D01*
X5820391Y-19399206D02*
X5810867Y-19389682D01*
X5810867Y-19389682D02*
X5820391Y-19380158D01*
X5820391Y-19380158D02*
X5820391Y-19399206D01*
X5953724Y-19199206D02*
X5972772Y-19199206D01*
X5972772Y-19199206D02*
X5991820Y-19208730D01*
X5991820Y-19208730D02*
X6001344Y-19218253D01*
X6001344Y-19218253D02*
X6010867Y-19237301D01*
X6010867Y-19237301D02*
X6020391Y-19275396D01*
X6020391Y-19275396D02*
X6020391Y-19323015D01*
X6020391Y-19323015D02*
X6010867Y-19361110D01*
X6010867Y-19361110D02*
X6001344Y-19380158D01*
X6001344Y-19380158D02*
X5991820Y-19389682D01*
X5991820Y-19389682D02*
X5972772Y-19399206D01*
X5972772Y-19399206D02*
X5953724Y-19399206D01*
X5953724Y-19399206D02*
X5934677Y-19389682D01*
X5934677Y-19389682D02*
X5925153Y-19380158D01*
X5925153Y-19380158D02*
X5915629Y-19361110D01*
X5915629Y-19361110D02*
X5906105Y-19323015D01*
X5906105Y-19323015D02*
X5906105Y-19275396D01*
X5906105Y-19275396D02*
X5915629Y-19237301D01*
X5915629Y-19237301D02*
X5925153Y-19218253D01*
X5925153Y-19218253D02*
X5934677Y-19208730D01*
X5934677Y-19208730D02*
X5953724Y-19199206D01*
X6201344Y-19199206D02*
X6106105Y-19199206D01*
X6106105Y-19199206D02*
X6096582Y-19294444D01*
X6096582Y-19294444D02*
X6106105Y-19284920D01*
X6106105Y-19284920D02*
X6125153Y-19275396D01*
X6125153Y-19275396D02*
X6172772Y-19275396D01*
X6172772Y-19275396D02*
X6191820Y-19284920D01*
X6191820Y-19284920D02*
X6201344Y-19294444D01*
X6201344Y-19294444D02*
X6210867Y-19313491D01*
X6210867Y-19313491D02*
X6210867Y-19361110D01*
X6210867Y-19361110D02*
X6201344Y-19380158D01*
X6201344Y-19380158D02*
X6191820Y-19389682D01*
X6191820Y-19389682D02*
X6172772Y-19399206D01*
X6172772Y-19399206D02*
X6125153Y-19399206D01*
X6125153Y-19399206D02*
X6106105Y-19389682D01*
X6106105Y-19389682D02*
X6096582Y-19380158D01*
X6334677Y-19199206D02*
X6353725Y-19199206D01*
X6353725Y-19199206D02*
X6372772Y-19208730D01*
X6372772Y-19208730D02*
X6382296Y-19218253D01*
X6382296Y-19218253D02*
X6391820Y-19237301D01*
X6391820Y-19237301D02*
X6401344Y-19275396D01*
X6401344Y-19275396D02*
X6401344Y-19323015D01*
X6401344Y-19323015D02*
X6391820Y-19361110D01*
X6391820Y-19361110D02*
X6382296Y-19380158D01*
X6382296Y-19380158D02*
X6372772Y-19389682D01*
X6372772Y-19389682D02*
X6353725Y-19399206D01*
X6353725Y-19399206D02*
X6334677Y-19399206D01*
X6334677Y-19399206D02*
X6315629Y-19389682D01*
X6315629Y-19389682D02*
X6306105Y-19380158D01*
X6306105Y-19380158D02*
X6296582Y-19361110D01*
X6296582Y-19361110D02*
X6287058Y-19323015D01*
X6287058Y-19323015D02*
X6287058Y-19275396D01*
X6287058Y-19275396D02*
X6296582Y-19237301D01*
X6296582Y-19237301D02*
X6306105Y-19218253D01*
X6306105Y-19218253D02*
X6315629Y-19208730D01*
X6315629Y-19208730D02*
X6334677Y-19199206D01*
X6487058Y-19399206D02*
X6487058Y-19265872D01*
X6487058Y-19284920D02*
X6496582Y-19275396D01*
X6496582Y-19275396D02*
X6515629Y-19265872D01*
X6515629Y-19265872D02*
X6544201Y-19265872D01*
X6544201Y-19265872D02*
X6563248Y-19275396D01*
X6563248Y-19275396D02*
X6572772Y-19294444D01*
X6572772Y-19294444D02*
X6572772Y-19399206D01*
X6572772Y-19294444D02*
X6582296Y-19275396D01*
X6582296Y-19275396D02*
X6601344Y-19265872D01*
X6601344Y-19265872D02*
X6629915Y-19265872D01*
X6629915Y-19265872D02*
X6648963Y-19275396D01*
X6648963Y-19275396D02*
X6658486Y-19294444D01*
X6658486Y-19294444D02*
X6658486Y-19399206D01*
X6753725Y-19399206D02*
X6753725Y-19265872D01*
X6753725Y-19284920D02*
X6763248Y-19275396D01*
X6763248Y-19275396D02*
X6782296Y-19265872D01*
X6782296Y-19265872D02*
X6810867Y-19265872D01*
X6810867Y-19265872D02*
X6829915Y-19275396D01*
X6829915Y-19275396D02*
X6839439Y-19294444D01*
X6839439Y-19294444D02*
X6839439Y-19399206D01*
X6839439Y-19294444D02*
X6848963Y-19275396D01*
X6848963Y-19275396D02*
X6868010Y-19265872D01*
X6868010Y-19265872D02*
X6896582Y-19265872D01*
X6896582Y-19265872D02*
X6915629Y-19275396D01*
X6915629Y-19275396D02*
X6925153Y-19294444D01*
X6925153Y-19294444D02*
X6925153Y-19399206D01*
X7315629Y-19189682D02*
X7144201Y-19446825D01*
X7572772Y-19199206D02*
X7591820Y-19199206D01*
X7591820Y-19199206D02*
X7610868Y-19208730D01*
X7610868Y-19208730D02*
X7620391Y-19218253D01*
X7620391Y-19218253D02*
X7629915Y-19237301D01*
X7629915Y-19237301D02*
X7639439Y-19275396D01*
X7639439Y-19275396D02*
X7639439Y-19323015D01*
X7639439Y-19323015D02*
X7629915Y-19361110D01*
X7629915Y-19361110D02*
X7620391Y-19380158D01*
X7620391Y-19380158D02*
X7610868Y-19389682D01*
X7610868Y-19389682D02*
X7591820Y-19399206D01*
X7591820Y-19399206D02*
X7572772Y-19399206D01*
X7572772Y-19399206D02*
X7553725Y-19389682D01*
X7553725Y-19389682D02*
X7544201Y-19380158D01*
X7544201Y-19380158D02*
X7534677Y-19361110D01*
X7534677Y-19361110D02*
X7525153Y-19323015D01*
X7525153Y-19323015D02*
X7525153Y-19275396D01*
X7525153Y-19275396D02*
X7534677Y-19237301D01*
X7534677Y-19237301D02*
X7544201Y-19218253D01*
X7544201Y-19218253D02*
X7553725Y-19208730D01*
X7553725Y-19208730D02*
X7572772Y-19199206D01*
X7725153Y-19380158D02*
X7734677Y-19389682D01*
X7734677Y-19389682D02*
X7725153Y-19399206D01*
X7725153Y-19399206D02*
X7715629Y-19389682D01*
X7715629Y-19389682D02*
X7725153Y-19380158D01*
X7725153Y-19380158D02*
X7725153Y-19399206D01*
X7925153Y-19399206D02*
X7810868Y-19399206D01*
X7868010Y-19399206D02*
X7868010Y-19199206D01*
X7868010Y-19199206D02*
X7848963Y-19227777D01*
X7848963Y-19227777D02*
X7829915Y-19246825D01*
X7829915Y-19246825D02*
X7810868Y-19256349D01*
X8001344Y-19218253D02*
X8010868Y-19208730D01*
X8010868Y-19208730D02*
X8029915Y-19199206D01*
X8029915Y-19199206D02*
X8077534Y-19199206D01*
X8077534Y-19199206D02*
X8096582Y-19208730D01*
X8096582Y-19208730D02*
X8106106Y-19218253D01*
X8106106Y-19218253D02*
X8115629Y-19237301D01*
X8115629Y-19237301D02*
X8115629Y-19256349D01*
X8115629Y-19256349D02*
X8106106Y-19284920D01*
X8106106Y-19284920D02*
X7991820Y-19399206D01*
X7991820Y-19399206D02*
X8115629Y-19399206D01*
X8239439Y-19199206D02*
X8258487Y-19199206D01*
X8258487Y-19199206D02*
X8277534Y-19208730D01*
X8277534Y-19208730D02*
X8287058Y-19218253D01*
X8287058Y-19218253D02*
X8296582Y-19237301D01*
X8296582Y-19237301D02*
X8306106Y-19275396D01*
X8306106Y-19275396D02*
X8306106Y-19323015D01*
X8306106Y-19323015D02*
X8296582Y-19361110D01*
X8296582Y-19361110D02*
X8287058Y-19380158D01*
X8287058Y-19380158D02*
X8277534Y-19389682D01*
X8277534Y-19389682D02*
X8258487Y-19399206D01*
X8258487Y-19399206D02*
X8239439Y-19399206D01*
X8239439Y-19399206D02*
X8220391Y-19389682D01*
X8220391Y-19389682D02*
X8210868Y-19380158D01*
X8210868Y-19380158D02*
X8201344Y-19361110D01*
X8201344Y-19361110D02*
X8191820Y-19323015D01*
X8191820Y-19323015D02*
X8191820Y-19275396D01*
X8191820Y-19275396D02*
X8201344Y-19237301D01*
X8201344Y-19237301D02*
X8210868Y-19218253D01*
X8210868Y-19218253D02*
X8220391Y-19208730D01*
X8220391Y-19208730D02*
X8239439Y-19199206D01*
X8496582Y-19399206D02*
X8382296Y-19399206D01*
X8439439Y-19399206D02*
X8439439Y-19199206D01*
X8439439Y-19199206D02*
X8420391Y-19227777D01*
X8420391Y-19227777D02*
X8401344Y-19246825D01*
X8401344Y-19246825D02*
X8382296Y-19256349D01*
X8572772Y-19199206D02*
X8572772Y-19237301D01*
X8648963Y-19199206D02*
X8648963Y-19237301D01*
X8944201Y-19475396D02*
X8934677Y-19465872D01*
X8934677Y-19465872D02*
X8915630Y-19437301D01*
X8915630Y-19437301D02*
X8906106Y-19418253D01*
X8906106Y-19418253D02*
X8896582Y-19389682D01*
X8896582Y-19389682D02*
X8887058Y-19342063D01*
X8887058Y-19342063D02*
X8887058Y-19303968D01*
X8887058Y-19303968D02*
X8896582Y-19256349D01*
X8896582Y-19256349D02*
X8906106Y-19227777D01*
X8906106Y-19227777D02*
X8915630Y-19208730D01*
X8915630Y-19208730D02*
X8934677Y-19180158D01*
X8934677Y-19180158D02*
X8944201Y-19170634D01*
X9048963Y-19284920D02*
X9029915Y-19275396D01*
X9029915Y-19275396D02*
X9020392Y-19265872D01*
X9020392Y-19265872D02*
X9010868Y-19246825D01*
X9010868Y-19246825D02*
X9010868Y-19237301D01*
X9010868Y-19237301D02*
X9020392Y-19218253D01*
X9020392Y-19218253D02*
X9029915Y-19208730D01*
X9029915Y-19208730D02*
X9048963Y-19199206D01*
X9048963Y-19199206D02*
X9087058Y-19199206D01*
X9087058Y-19199206D02*
X9106106Y-19208730D01*
X9106106Y-19208730D02*
X9115630Y-19218253D01*
X9115630Y-19218253D02*
X9125153Y-19237301D01*
X9125153Y-19237301D02*
X9125153Y-19246825D01*
X9125153Y-19246825D02*
X9115630Y-19265872D01*
X9115630Y-19265872D02*
X9106106Y-19275396D01*
X9106106Y-19275396D02*
X9087058Y-19284920D01*
X9087058Y-19284920D02*
X9048963Y-19284920D01*
X9048963Y-19284920D02*
X9029915Y-19294444D01*
X9029915Y-19294444D02*
X9020392Y-19303968D01*
X9020392Y-19303968D02*
X9010868Y-19323015D01*
X9010868Y-19323015D02*
X9010868Y-19361110D01*
X9010868Y-19361110D02*
X9020392Y-19380158D01*
X9020392Y-19380158D02*
X9029915Y-19389682D01*
X9029915Y-19389682D02*
X9048963Y-19399206D01*
X9048963Y-19399206D02*
X9087058Y-19399206D01*
X9087058Y-19399206D02*
X9106106Y-19389682D01*
X9106106Y-19389682D02*
X9115630Y-19380158D01*
X9115630Y-19380158D02*
X9125153Y-19361110D01*
X9125153Y-19361110D02*
X9125153Y-19323015D01*
X9125153Y-19323015D02*
X9115630Y-19303968D01*
X9115630Y-19303968D02*
X9106106Y-19294444D01*
X9106106Y-19294444D02*
X9087058Y-19284920D01*
X9363249Y-19399206D02*
X9363249Y-19199206D01*
X9448963Y-19399206D02*
X9448963Y-19294444D01*
X9448963Y-19294444D02*
X9439439Y-19275396D01*
X9439439Y-19275396D02*
X9420392Y-19265872D01*
X9420392Y-19265872D02*
X9391820Y-19265872D01*
X9391820Y-19265872D02*
X9372773Y-19275396D01*
X9372773Y-19275396D02*
X9363249Y-19284920D01*
X9572773Y-19399206D02*
X9553725Y-19389682D01*
X9553725Y-19389682D02*
X9544201Y-19380158D01*
X9544201Y-19380158D02*
X9534677Y-19361110D01*
X9534677Y-19361110D02*
X9534677Y-19303968D01*
X9534677Y-19303968D02*
X9544201Y-19284920D01*
X9544201Y-19284920D02*
X9553725Y-19275396D01*
X9553725Y-19275396D02*
X9572773Y-19265872D01*
X9572773Y-19265872D02*
X9601344Y-19265872D01*
X9601344Y-19265872D02*
X9620392Y-19275396D01*
X9620392Y-19275396D02*
X9629915Y-19284920D01*
X9629915Y-19284920D02*
X9639439Y-19303968D01*
X9639439Y-19303968D02*
X9639439Y-19361110D01*
X9639439Y-19361110D02*
X9629915Y-19380158D01*
X9629915Y-19380158D02*
X9620392Y-19389682D01*
X9620392Y-19389682D02*
X9601344Y-19399206D01*
X9601344Y-19399206D02*
X9572773Y-19399206D01*
X9753725Y-19399206D02*
X9734677Y-19389682D01*
X9734677Y-19389682D02*
X9725154Y-19370634D01*
X9725154Y-19370634D02*
X9725154Y-19199206D01*
X9906106Y-19389682D02*
X9887058Y-19399206D01*
X9887058Y-19399206D02*
X9848963Y-19399206D01*
X9848963Y-19399206D02*
X9829915Y-19389682D01*
X9829915Y-19389682D02*
X9820392Y-19370634D01*
X9820392Y-19370634D02*
X9820392Y-19294444D01*
X9820392Y-19294444D02*
X9829915Y-19275396D01*
X9829915Y-19275396D02*
X9848963Y-19265872D01*
X9848963Y-19265872D02*
X9887058Y-19265872D01*
X9887058Y-19265872D02*
X9906106Y-19275396D01*
X9906106Y-19275396D02*
X9915630Y-19294444D01*
X9915630Y-19294444D02*
X9915630Y-19313491D01*
X9915630Y-19313491D02*
X9820392Y-19332539D01*
X9991820Y-19389682D02*
X10010868Y-19399206D01*
X10010868Y-19399206D02*
X10048963Y-19399206D01*
X10048963Y-19399206D02*
X10068011Y-19389682D01*
X10068011Y-19389682D02*
X10077535Y-19370634D01*
X10077535Y-19370634D02*
X10077535Y-19361110D01*
X10077535Y-19361110D02*
X10068011Y-19342063D01*
X10068011Y-19342063D02*
X10048963Y-19332539D01*
X10048963Y-19332539D02*
X10020392Y-19332539D01*
X10020392Y-19332539D02*
X10001344Y-19323015D01*
X10001344Y-19323015D02*
X9991820Y-19303968D01*
X9991820Y-19303968D02*
X9991820Y-19294444D01*
X9991820Y-19294444D02*
X10001344Y-19275396D01*
X10001344Y-19275396D02*
X10020392Y-19265872D01*
X10020392Y-19265872D02*
X10048963Y-19265872D01*
X10048963Y-19265872D02*
X10068011Y-19275396D01*
X10144201Y-19475396D02*
X10153725Y-19465872D01*
X10153725Y-19465872D02*
X10172773Y-19437301D01*
X10172773Y-19437301D02*
X10182296Y-19418253D01*
X10182296Y-19418253D02*
X10191820Y-19389682D01*
X10191820Y-19389682D02*
X10201344Y-19342063D01*
X10201344Y-19342063D02*
X10201344Y-19303968D01*
X10201344Y-19303968D02*
X10191820Y-19256349D01*
X10191820Y-19256349D02*
X10182296Y-19227777D01*
X10182296Y-19227777D02*
X10172773Y-19208730D01*
X10172773Y-19208730D02*
X10153725Y-19180158D01*
X10153725Y-19180158D02*
X10144201Y-19170634D01*
X10506106Y-19475396D02*
X10496582Y-19465872D01*
X10496582Y-19465872D02*
X10477535Y-19437301D01*
X10477535Y-19437301D02*
X10468011Y-19418253D01*
X10468011Y-19418253D02*
X10458487Y-19389682D01*
X10458487Y-19389682D02*
X10448963Y-19342063D01*
X10448963Y-19342063D02*
X10448963Y-19303968D01*
X10448963Y-19303968D02*
X10458487Y-19256349D01*
X10458487Y-19256349D02*
X10468011Y-19227777D01*
X10468011Y-19227777D02*
X10477535Y-19208730D01*
X10477535Y-19208730D02*
X10496582Y-19180158D01*
X10496582Y-19180158D02*
X10506106Y-19170634D01*
X10582296Y-19265872D02*
X10582296Y-19399206D01*
X10582296Y-19284920D02*
X10591820Y-19275396D01*
X10591820Y-19275396D02*
X10610868Y-19265872D01*
X10610868Y-19265872D02*
X10639439Y-19265872D01*
X10639439Y-19265872D02*
X10658487Y-19275396D01*
X10658487Y-19275396D02*
X10668011Y-19294444D01*
X10668011Y-19294444D02*
X10668011Y-19399206D01*
X10791820Y-19399206D02*
X10772773Y-19389682D01*
X10772773Y-19389682D02*
X10763249Y-19380158D01*
X10763249Y-19380158D02*
X10753725Y-19361110D01*
X10753725Y-19361110D02*
X10753725Y-19303968D01*
X10753725Y-19303968D02*
X10763249Y-19284920D01*
X10763249Y-19284920D02*
X10772773Y-19275396D01*
X10772773Y-19275396D02*
X10791820Y-19265872D01*
X10791820Y-19265872D02*
X10820392Y-19265872D01*
X10820392Y-19265872D02*
X10839439Y-19275396D01*
X10839439Y-19275396D02*
X10848963Y-19284920D01*
X10848963Y-19284920D02*
X10858487Y-19303968D01*
X10858487Y-19303968D02*
X10858487Y-19361110D01*
X10858487Y-19361110D02*
X10848963Y-19380158D01*
X10848963Y-19380158D02*
X10839439Y-19389682D01*
X10839439Y-19389682D02*
X10820392Y-19399206D01*
X10820392Y-19399206D02*
X10791820Y-19399206D01*
X10915630Y-19265872D02*
X10991820Y-19265872D01*
X10944201Y-19199206D02*
X10944201Y-19370634D01*
X10944201Y-19370634D02*
X10953725Y-19389682D01*
X10953725Y-19389682D02*
X10972773Y-19399206D01*
X10972773Y-19399206D02*
X10991820Y-19399206D01*
X11210868Y-19265872D02*
X11210868Y-19465872D01*
X11210868Y-19275396D02*
X11229915Y-19265872D01*
X11229915Y-19265872D02*
X11268011Y-19265872D01*
X11268011Y-19265872D02*
X11287058Y-19275396D01*
X11287058Y-19275396D02*
X11296582Y-19284920D01*
X11296582Y-19284920D02*
X11306106Y-19303968D01*
X11306106Y-19303968D02*
X11306106Y-19361110D01*
X11306106Y-19361110D02*
X11296582Y-19380158D01*
X11296582Y-19380158D02*
X11287058Y-19389682D01*
X11287058Y-19389682D02*
X11268011Y-19399206D01*
X11268011Y-19399206D02*
X11229915Y-19399206D01*
X11229915Y-19399206D02*
X11210868Y-19389682D01*
X11420392Y-19399206D02*
X11401344Y-19389682D01*
X11401344Y-19389682D02*
X11391820Y-19370634D01*
X11391820Y-19370634D02*
X11391820Y-19199206D01*
X11582296Y-19399206D02*
X11582296Y-19294444D01*
X11582296Y-19294444D02*
X11572773Y-19275396D01*
X11572773Y-19275396D02*
X11553725Y-19265872D01*
X11553725Y-19265872D02*
X11515630Y-19265872D01*
X11515630Y-19265872D02*
X11496582Y-19275396D01*
X11582296Y-19389682D02*
X11563249Y-19399206D01*
X11563249Y-19399206D02*
X11515630Y-19399206D01*
X11515630Y-19399206D02*
X11496582Y-19389682D01*
X11496582Y-19389682D02*
X11487058Y-19370634D01*
X11487058Y-19370634D02*
X11487058Y-19351587D01*
X11487058Y-19351587D02*
X11496582Y-19332539D01*
X11496582Y-19332539D02*
X11515630Y-19323015D01*
X11515630Y-19323015D02*
X11563249Y-19323015D01*
X11563249Y-19323015D02*
X11582296Y-19313491D01*
X11648963Y-19265872D02*
X11725154Y-19265872D01*
X11677535Y-19199206D02*
X11677535Y-19370634D01*
X11677535Y-19370634D02*
X11687058Y-19389682D01*
X11687058Y-19389682D02*
X11706106Y-19399206D01*
X11706106Y-19399206D02*
X11725154Y-19399206D01*
X11868011Y-19389682D02*
X11848963Y-19399206D01*
X11848963Y-19399206D02*
X11810868Y-19399206D01*
X11810868Y-19399206D02*
X11791820Y-19389682D01*
X11791820Y-19389682D02*
X11782296Y-19370634D01*
X11782296Y-19370634D02*
X11782296Y-19294444D01*
X11782296Y-19294444D02*
X11791820Y-19275396D01*
X11791820Y-19275396D02*
X11810868Y-19265872D01*
X11810868Y-19265872D02*
X11848963Y-19265872D01*
X11848963Y-19265872D02*
X11868011Y-19275396D01*
X11868011Y-19275396D02*
X11877535Y-19294444D01*
X11877535Y-19294444D02*
X11877535Y-19313491D01*
X11877535Y-19313491D02*
X11782296Y-19332539D01*
X12048963Y-19399206D02*
X12048963Y-19199206D01*
X12048963Y-19389682D02*
X12029916Y-19399206D01*
X12029916Y-19399206D02*
X11991820Y-19399206D01*
X11991820Y-19399206D02*
X11972773Y-19389682D01*
X11972773Y-19389682D02*
X11963249Y-19380158D01*
X11963249Y-19380158D02*
X11953725Y-19361110D01*
X11953725Y-19361110D02*
X11953725Y-19303968D01*
X11953725Y-19303968D02*
X11963249Y-19284920D01*
X11963249Y-19284920D02*
X11972773Y-19275396D01*
X11972773Y-19275396D02*
X11991820Y-19265872D01*
X11991820Y-19265872D02*
X12029916Y-19265872D01*
X12029916Y-19265872D02*
X12048963Y-19275396D01*
X12125154Y-19475396D02*
X12134677Y-19465872D01*
X12134677Y-19465872D02*
X12153725Y-19437301D01*
X12153725Y-19437301D02*
X12163249Y-19418253D01*
X12163249Y-19418253D02*
X12172773Y-19389682D01*
X12172773Y-19389682D02*
X12182296Y-19342063D01*
X12182296Y-19342063D02*
X12182296Y-19303968D01*
X12182296Y-19303968D02*
X12172773Y-19256349D01*
X12172773Y-19256349D02*
X12163249Y-19227777D01*
X12163249Y-19227777D02*
X12153725Y-19208730D01*
X12153725Y-19208730D02*
X12134677Y-19180158D01*
X12134677Y-19180158D02*
X12125154Y-19170634D01*
X5339850Y-19698433D02*
X5339850Y-19557011D01*
X5198427Y-19557011D01*
X5198427Y-19698433D01*
X5339850Y-19698433D01*
X5610867Y-19519206D02*
X5734677Y-19519206D01*
X5734677Y-19519206D02*
X5668010Y-19595396D01*
X5668010Y-19595396D02*
X5696582Y-19595396D01*
X5696582Y-19595396D02*
X5715629Y-19604920D01*
X5715629Y-19604920D02*
X5725153Y-19614444D01*
X5725153Y-19614444D02*
X5734677Y-19633491D01*
X5734677Y-19633491D02*
X5734677Y-19681110D01*
X5734677Y-19681110D02*
X5725153Y-19700158D01*
X5725153Y-19700158D02*
X5715629Y-19709682D01*
X5715629Y-19709682D02*
X5696582Y-19719206D01*
X5696582Y-19719206D02*
X5639439Y-19719206D01*
X5639439Y-19719206D02*
X5620391Y-19709682D01*
X5620391Y-19709682D02*
X5610867Y-19700158D01*
X5820391Y-19700158D02*
X5829915Y-19709682D01*
X5829915Y-19709682D02*
X5820391Y-19719206D01*
X5820391Y-19719206D02*
X5810867Y-19709682D01*
X5810867Y-19709682D02*
X5820391Y-19700158D01*
X5820391Y-19700158D02*
X5820391Y-19719206D01*
X5925153Y-19719206D02*
X5963248Y-19719206D01*
X5963248Y-19719206D02*
X5982296Y-19709682D01*
X5982296Y-19709682D02*
X5991820Y-19700158D01*
X5991820Y-19700158D02*
X6010867Y-19671587D01*
X6010867Y-19671587D02*
X6020391Y-19633491D01*
X6020391Y-19633491D02*
X6020391Y-19557301D01*
X6020391Y-19557301D02*
X6010867Y-19538253D01*
X6010867Y-19538253D02*
X6001344Y-19528730D01*
X6001344Y-19528730D02*
X5982296Y-19519206D01*
X5982296Y-19519206D02*
X5944201Y-19519206D01*
X5944201Y-19519206D02*
X5925153Y-19528730D01*
X5925153Y-19528730D02*
X5915629Y-19538253D01*
X5915629Y-19538253D02*
X5906105Y-19557301D01*
X5906105Y-19557301D02*
X5906105Y-19604920D01*
X5906105Y-19604920D02*
X5915629Y-19623968D01*
X5915629Y-19623968D02*
X5925153Y-19633491D01*
X5925153Y-19633491D02*
X5944201Y-19643015D01*
X5944201Y-19643015D02*
X5982296Y-19643015D01*
X5982296Y-19643015D02*
X6001344Y-19633491D01*
X6001344Y-19633491D02*
X6010867Y-19623968D01*
X6010867Y-19623968D02*
X6020391Y-19604920D01*
X6134677Y-19604920D02*
X6115629Y-19595396D01*
X6115629Y-19595396D02*
X6106105Y-19585872D01*
X6106105Y-19585872D02*
X6096582Y-19566825D01*
X6096582Y-19566825D02*
X6096582Y-19557301D01*
X6096582Y-19557301D02*
X6106105Y-19538253D01*
X6106105Y-19538253D02*
X6115629Y-19528730D01*
X6115629Y-19528730D02*
X6134677Y-19519206D01*
X6134677Y-19519206D02*
X6172772Y-19519206D01*
X6172772Y-19519206D02*
X6191820Y-19528730D01*
X6191820Y-19528730D02*
X6201344Y-19538253D01*
X6201344Y-19538253D02*
X6210867Y-19557301D01*
X6210867Y-19557301D02*
X6210867Y-19566825D01*
X6210867Y-19566825D02*
X6201344Y-19585872D01*
X6201344Y-19585872D02*
X6191820Y-19595396D01*
X6191820Y-19595396D02*
X6172772Y-19604920D01*
X6172772Y-19604920D02*
X6134677Y-19604920D01*
X6134677Y-19604920D02*
X6115629Y-19614444D01*
X6115629Y-19614444D02*
X6106105Y-19623968D01*
X6106105Y-19623968D02*
X6096582Y-19643015D01*
X6096582Y-19643015D02*
X6096582Y-19681110D01*
X6096582Y-19681110D02*
X6106105Y-19700158D01*
X6106105Y-19700158D02*
X6115629Y-19709682D01*
X6115629Y-19709682D02*
X6134677Y-19719206D01*
X6134677Y-19719206D02*
X6172772Y-19719206D01*
X6172772Y-19719206D02*
X6191820Y-19709682D01*
X6191820Y-19709682D02*
X6201344Y-19700158D01*
X6201344Y-19700158D02*
X6210867Y-19681110D01*
X6210867Y-19681110D02*
X6210867Y-19643015D01*
X6210867Y-19643015D02*
X6201344Y-19623968D01*
X6201344Y-19623968D02*
X6191820Y-19614444D01*
X6191820Y-19614444D02*
X6172772Y-19604920D01*
X6325153Y-19604920D02*
X6306105Y-19595396D01*
X6306105Y-19595396D02*
X6296582Y-19585872D01*
X6296582Y-19585872D02*
X6287058Y-19566825D01*
X6287058Y-19566825D02*
X6287058Y-19557301D01*
X6287058Y-19557301D02*
X6296582Y-19538253D01*
X6296582Y-19538253D02*
X6306105Y-19528730D01*
X6306105Y-19528730D02*
X6325153Y-19519206D01*
X6325153Y-19519206D02*
X6363248Y-19519206D01*
X6363248Y-19519206D02*
X6382296Y-19528730D01*
X6382296Y-19528730D02*
X6391820Y-19538253D01*
X6391820Y-19538253D02*
X6401344Y-19557301D01*
X6401344Y-19557301D02*
X6401344Y-19566825D01*
X6401344Y-19566825D02*
X6391820Y-19585872D01*
X6391820Y-19585872D02*
X6382296Y-19595396D01*
X6382296Y-19595396D02*
X6363248Y-19604920D01*
X6363248Y-19604920D02*
X6325153Y-19604920D01*
X6325153Y-19604920D02*
X6306105Y-19614444D01*
X6306105Y-19614444D02*
X6296582Y-19623968D01*
X6296582Y-19623968D02*
X6287058Y-19643015D01*
X6287058Y-19643015D02*
X6287058Y-19681110D01*
X6287058Y-19681110D02*
X6296582Y-19700158D01*
X6296582Y-19700158D02*
X6306105Y-19709682D01*
X6306105Y-19709682D02*
X6325153Y-19719206D01*
X6325153Y-19719206D02*
X6363248Y-19719206D01*
X6363248Y-19719206D02*
X6382296Y-19709682D01*
X6382296Y-19709682D02*
X6391820Y-19700158D01*
X6391820Y-19700158D02*
X6401344Y-19681110D01*
X6401344Y-19681110D02*
X6401344Y-19643015D01*
X6401344Y-19643015D02*
X6391820Y-19623968D01*
X6391820Y-19623968D02*
X6382296Y-19614444D01*
X6382296Y-19614444D02*
X6363248Y-19604920D01*
X6487058Y-19719206D02*
X6487058Y-19585872D01*
X6487058Y-19604920D02*
X6496582Y-19595396D01*
X6496582Y-19595396D02*
X6515629Y-19585872D01*
X6515629Y-19585872D02*
X6544201Y-19585872D01*
X6544201Y-19585872D02*
X6563248Y-19595396D01*
X6563248Y-19595396D02*
X6572772Y-19614444D01*
X6572772Y-19614444D02*
X6572772Y-19719206D01*
X6572772Y-19614444D02*
X6582296Y-19595396D01*
X6582296Y-19595396D02*
X6601344Y-19585872D01*
X6601344Y-19585872D02*
X6629915Y-19585872D01*
X6629915Y-19585872D02*
X6648963Y-19595396D01*
X6648963Y-19595396D02*
X6658486Y-19614444D01*
X6658486Y-19614444D02*
X6658486Y-19719206D01*
X6753725Y-19719206D02*
X6753725Y-19585872D01*
X6753725Y-19604920D02*
X6763248Y-19595396D01*
X6763248Y-19595396D02*
X6782296Y-19585872D01*
X6782296Y-19585872D02*
X6810867Y-19585872D01*
X6810867Y-19585872D02*
X6829915Y-19595396D01*
X6829915Y-19595396D02*
X6839439Y-19614444D01*
X6839439Y-19614444D02*
X6839439Y-19719206D01*
X6839439Y-19614444D02*
X6848963Y-19595396D01*
X6848963Y-19595396D02*
X6868010Y-19585872D01*
X6868010Y-19585872D02*
X6896582Y-19585872D01*
X6896582Y-19585872D02*
X6915629Y-19595396D01*
X6915629Y-19595396D02*
X6925153Y-19614444D01*
X6925153Y-19614444D02*
X6925153Y-19719206D01*
X7315629Y-19509682D02*
X7144201Y-19766825D01*
X7572772Y-19519206D02*
X7591820Y-19519206D01*
X7591820Y-19519206D02*
X7610868Y-19528730D01*
X7610868Y-19528730D02*
X7620391Y-19538253D01*
X7620391Y-19538253D02*
X7629915Y-19557301D01*
X7629915Y-19557301D02*
X7639439Y-19595396D01*
X7639439Y-19595396D02*
X7639439Y-19643015D01*
X7639439Y-19643015D02*
X7629915Y-19681110D01*
X7629915Y-19681110D02*
X7620391Y-19700158D01*
X7620391Y-19700158D02*
X7610868Y-19709682D01*
X7610868Y-19709682D02*
X7591820Y-19719206D01*
X7591820Y-19719206D02*
X7572772Y-19719206D01*
X7572772Y-19719206D02*
X7553725Y-19709682D01*
X7553725Y-19709682D02*
X7544201Y-19700158D01*
X7544201Y-19700158D02*
X7534677Y-19681110D01*
X7534677Y-19681110D02*
X7525153Y-19643015D01*
X7525153Y-19643015D02*
X7525153Y-19595396D01*
X7525153Y-19595396D02*
X7534677Y-19557301D01*
X7534677Y-19557301D02*
X7544201Y-19538253D01*
X7544201Y-19538253D02*
X7553725Y-19528730D01*
X7553725Y-19528730D02*
X7572772Y-19519206D01*
X7725153Y-19700158D02*
X7734677Y-19709682D01*
X7734677Y-19709682D02*
X7725153Y-19719206D01*
X7725153Y-19719206D02*
X7715629Y-19709682D01*
X7715629Y-19709682D02*
X7725153Y-19700158D01*
X7725153Y-19700158D02*
X7725153Y-19719206D01*
X7925153Y-19719206D02*
X7810868Y-19719206D01*
X7868010Y-19719206D02*
X7868010Y-19519206D01*
X7868010Y-19519206D02*
X7848963Y-19547777D01*
X7848963Y-19547777D02*
X7829915Y-19566825D01*
X7829915Y-19566825D02*
X7810868Y-19576349D01*
X8106106Y-19519206D02*
X8010868Y-19519206D01*
X8010868Y-19519206D02*
X8001344Y-19614444D01*
X8001344Y-19614444D02*
X8010868Y-19604920D01*
X8010868Y-19604920D02*
X8029915Y-19595396D01*
X8029915Y-19595396D02*
X8077534Y-19595396D01*
X8077534Y-19595396D02*
X8096582Y-19604920D01*
X8096582Y-19604920D02*
X8106106Y-19614444D01*
X8106106Y-19614444D02*
X8115629Y-19633491D01*
X8115629Y-19633491D02*
X8115629Y-19681110D01*
X8115629Y-19681110D02*
X8106106Y-19700158D01*
X8106106Y-19700158D02*
X8096582Y-19709682D01*
X8096582Y-19709682D02*
X8077534Y-19719206D01*
X8077534Y-19719206D02*
X8029915Y-19719206D01*
X8029915Y-19719206D02*
X8010868Y-19709682D01*
X8010868Y-19709682D02*
X8001344Y-19700158D01*
X8182296Y-19519206D02*
X8315629Y-19519206D01*
X8315629Y-19519206D02*
X8229915Y-19719206D01*
X8429915Y-19519206D02*
X8448963Y-19519206D01*
X8448963Y-19519206D02*
X8468011Y-19528730D01*
X8468011Y-19528730D02*
X8477534Y-19538253D01*
X8477534Y-19538253D02*
X8487058Y-19557301D01*
X8487058Y-19557301D02*
X8496582Y-19595396D01*
X8496582Y-19595396D02*
X8496582Y-19643015D01*
X8496582Y-19643015D02*
X8487058Y-19681110D01*
X8487058Y-19681110D02*
X8477534Y-19700158D01*
X8477534Y-19700158D02*
X8468011Y-19709682D01*
X8468011Y-19709682D02*
X8448963Y-19719206D01*
X8448963Y-19719206D02*
X8429915Y-19719206D01*
X8429915Y-19719206D02*
X8410868Y-19709682D01*
X8410868Y-19709682D02*
X8401344Y-19700158D01*
X8401344Y-19700158D02*
X8391820Y-19681110D01*
X8391820Y-19681110D02*
X8382296Y-19643015D01*
X8382296Y-19643015D02*
X8382296Y-19595396D01*
X8382296Y-19595396D02*
X8391820Y-19557301D01*
X8391820Y-19557301D02*
X8401344Y-19538253D01*
X8401344Y-19538253D02*
X8410868Y-19528730D01*
X8410868Y-19528730D02*
X8429915Y-19519206D01*
X8572772Y-19519206D02*
X8572772Y-19557301D01*
X8648963Y-19519206D02*
X8648963Y-19557301D01*
X8944201Y-19795396D02*
X8934677Y-19785872D01*
X8934677Y-19785872D02*
X8915630Y-19757301D01*
X8915630Y-19757301D02*
X8906106Y-19738253D01*
X8906106Y-19738253D02*
X8896582Y-19709682D01*
X8896582Y-19709682D02*
X8887058Y-19662063D01*
X8887058Y-19662063D02*
X8887058Y-19623968D01*
X8887058Y-19623968D02*
X8896582Y-19576349D01*
X8896582Y-19576349D02*
X8906106Y-19547777D01*
X8906106Y-19547777D02*
X8915630Y-19528730D01*
X8915630Y-19528730D02*
X8934677Y-19500158D01*
X8934677Y-19500158D02*
X8944201Y-19490634D01*
X9106106Y-19585872D02*
X9106106Y-19719206D01*
X9058487Y-19509682D02*
X9010868Y-19652539D01*
X9010868Y-19652539D02*
X9134677Y-19652539D01*
X9363249Y-19719206D02*
X9363249Y-19519206D01*
X9448963Y-19719206D02*
X9448963Y-19614444D01*
X9448963Y-19614444D02*
X9439439Y-19595396D01*
X9439439Y-19595396D02*
X9420392Y-19585872D01*
X9420392Y-19585872D02*
X9391820Y-19585872D01*
X9391820Y-19585872D02*
X9372773Y-19595396D01*
X9372773Y-19595396D02*
X9363249Y-19604920D01*
X9572773Y-19719206D02*
X9553725Y-19709682D01*
X9553725Y-19709682D02*
X9544201Y-19700158D01*
X9544201Y-19700158D02*
X9534677Y-19681110D01*
X9534677Y-19681110D02*
X9534677Y-19623968D01*
X9534677Y-19623968D02*
X9544201Y-19604920D01*
X9544201Y-19604920D02*
X9553725Y-19595396D01*
X9553725Y-19595396D02*
X9572773Y-19585872D01*
X9572773Y-19585872D02*
X9601344Y-19585872D01*
X9601344Y-19585872D02*
X9620392Y-19595396D01*
X9620392Y-19595396D02*
X9629915Y-19604920D01*
X9629915Y-19604920D02*
X9639439Y-19623968D01*
X9639439Y-19623968D02*
X9639439Y-19681110D01*
X9639439Y-19681110D02*
X9629915Y-19700158D01*
X9629915Y-19700158D02*
X9620392Y-19709682D01*
X9620392Y-19709682D02*
X9601344Y-19719206D01*
X9601344Y-19719206D02*
X9572773Y-19719206D01*
X9753725Y-19719206D02*
X9734677Y-19709682D01*
X9734677Y-19709682D02*
X9725154Y-19690634D01*
X9725154Y-19690634D02*
X9725154Y-19519206D01*
X9906106Y-19709682D02*
X9887058Y-19719206D01*
X9887058Y-19719206D02*
X9848963Y-19719206D01*
X9848963Y-19719206D02*
X9829915Y-19709682D01*
X9829915Y-19709682D02*
X9820392Y-19690634D01*
X9820392Y-19690634D02*
X9820392Y-19614444D01*
X9820392Y-19614444D02*
X9829915Y-19595396D01*
X9829915Y-19595396D02*
X9848963Y-19585872D01*
X9848963Y-19585872D02*
X9887058Y-19585872D01*
X9887058Y-19585872D02*
X9906106Y-19595396D01*
X9906106Y-19595396D02*
X9915630Y-19614444D01*
X9915630Y-19614444D02*
X9915630Y-19633491D01*
X9915630Y-19633491D02*
X9820392Y-19652539D01*
X9991820Y-19709682D02*
X10010868Y-19719206D01*
X10010868Y-19719206D02*
X10048963Y-19719206D01*
X10048963Y-19719206D02*
X10068011Y-19709682D01*
X10068011Y-19709682D02*
X10077535Y-19690634D01*
X10077535Y-19690634D02*
X10077535Y-19681110D01*
X10077535Y-19681110D02*
X10068011Y-19662063D01*
X10068011Y-19662063D02*
X10048963Y-19652539D01*
X10048963Y-19652539D02*
X10020392Y-19652539D01*
X10020392Y-19652539D02*
X10001344Y-19643015D01*
X10001344Y-19643015D02*
X9991820Y-19623968D01*
X9991820Y-19623968D02*
X9991820Y-19614444D01*
X9991820Y-19614444D02*
X10001344Y-19595396D01*
X10001344Y-19595396D02*
X10020392Y-19585872D01*
X10020392Y-19585872D02*
X10048963Y-19585872D01*
X10048963Y-19585872D02*
X10068011Y-19595396D01*
X10144201Y-19795396D02*
X10153725Y-19785872D01*
X10153725Y-19785872D02*
X10172773Y-19757301D01*
X10172773Y-19757301D02*
X10182296Y-19738253D01*
X10182296Y-19738253D02*
X10191820Y-19709682D01*
X10191820Y-19709682D02*
X10201344Y-19662063D01*
X10201344Y-19662063D02*
X10201344Y-19623968D01*
X10201344Y-19623968D02*
X10191820Y-19576349D01*
X10191820Y-19576349D02*
X10182296Y-19547777D01*
X10182296Y-19547777D02*
X10172773Y-19528730D01*
X10172773Y-19528730D02*
X10153725Y-19500158D01*
X10153725Y-19500158D02*
X10144201Y-19490634D01*
X10506106Y-19795396D02*
X10496582Y-19785872D01*
X10496582Y-19785872D02*
X10477535Y-19757301D01*
X10477535Y-19757301D02*
X10468011Y-19738253D01*
X10468011Y-19738253D02*
X10458487Y-19709682D01*
X10458487Y-19709682D02*
X10448963Y-19662063D01*
X10448963Y-19662063D02*
X10448963Y-19623968D01*
X10448963Y-19623968D02*
X10458487Y-19576349D01*
X10458487Y-19576349D02*
X10468011Y-19547777D01*
X10468011Y-19547777D02*
X10477535Y-19528730D01*
X10477535Y-19528730D02*
X10496582Y-19500158D01*
X10496582Y-19500158D02*
X10506106Y-19490634D01*
X10582296Y-19585872D02*
X10582296Y-19719206D01*
X10582296Y-19604920D02*
X10591820Y-19595396D01*
X10591820Y-19595396D02*
X10610868Y-19585872D01*
X10610868Y-19585872D02*
X10639439Y-19585872D01*
X10639439Y-19585872D02*
X10658487Y-19595396D01*
X10658487Y-19595396D02*
X10668011Y-19614444D01*
X10668011Y-19614444D02*
X10668011Y-19719206D01*
X10791820Y-19719206D02*
X10772773Y-19709682D01*
X10772773Y-19709682D02*
X10763249Y-19700158D01*
X10763249Y-19700158D02*
X10753725Y-19681110D01*
X10753725Y-19681110D02*
X10753725Y-19623968D01*
X10753725Y-19623968D02*
X10763249Y-19604920D01*
X10763249Y-19604920D02*
X10772773Y-19595396D01*
X10772773Y-19595396D02*
X10791820Y-19585872D01*
X10791820Y-19585872D02*
X10820392Y-19585872D01*
X10820392Y-19585872D02*
X10839439Y-19595396D01*
X10839439Y-19595396D02*
X10848963Y-19604920D01*
X10848963Y-19604920D02*
X10858487Y-19623968D01*
X10858487Y-19623968D02*
X10858487Y-19681110D01*
X10858487Y-19681110D02*
X10848963Y-19700158D01*
X10848963Y-19700158D02*
X10839439Y-19709682D01*
X10839439Y-19709682D02*
X10820392Y-19719206D01*
X10820392Y-19719206D02*
X10791820Y-19719206D01*
X10915630Y-19585872D02*
X10991820Y-19585872D01*
X10944201Y-19519206D02*
X10944201Y-19690634D01*
X10944201Y-19690634D02*
X10953725Y-19709682D01*
X10953725Y-19709682D02*
X10972773Y-19719206D01*
X10972773Y-19719206D02*
X10991820Y-19719206D01*
X11210868Y-19585872D02*
X11210868Y-19785872D01*
X11210868Y-19595396D02*
X11229915Y-19585872D01*
X11229915Y-19585872D02*
X11268011Y-19585872D01*
X11268011Y-19585872D02*
X11287058Y-19595396D01*
X11287058Y-19595396D02*
X11296582Y-19604920D01*
X11296582Y-19604920D02*
X11306106Y-19623968D01*
X11306106Y-19623968D02*
X11306106Y-19681110D01*
X11306106Y-19681110D02*
X11296582Y-19700158D01*
X11296582Y-19700158D02*
X11287058Y-19709682D01*
X11287058Y-19709682D02*
X11268011Y-19719206D01*
X11268011Y-19719206D02*
X11229915Y-19719206D01*
X11229915Y-19719206D02*
X11210868Y-19709682D01*
X11420392Y-19719206D02*
X11401344Y-19709682D01*
X11401344Y-19709682D02*
X11391820Y-19690634D01*
X11391820Y-19690634D02*
X11391820Y-19519206D01*
X11582296Y-19719206D02*
X11582296Y-19614444D01*
X11582296Y-19614444D02*
X11572773Y-19595396D01*
X11572773Y-19595396D02*
X11553725Y-19585872D01*
X11553725Y-19585872D02*
X11515630Y-19585872D01*
X11515630Y-19585872D02*
X11496582Y-19595396D01*
X11582296Y-19709682D02*
X11563249Y-19719206D01*
X11563249Y-19719206D02*
X11515630Y-19719206D01*
X11515630Y-19719206D02*
X11496582Y-19709682D01*
X11496582Y-19709682D02*
X11487058Y-19690634D01*
X11487058Y-19690634D02*
X11487058Y-19671587D01*
X11487058Y-19671587D02*
X11496582Y-19652539D01*
X11496582Y-19652539D02*
X11515630Y-19643015D01*
X11515630Y-19643015D02*
X11563249Y-19643015D01*
X11563249Y-19643015D02*
X11582296Y-19633491D01*
X11648963Y-19585872D02*
X11725154Y-19585872D01*
X11677535Y-19519206D02*
X11677535Y-19690634D01*
X11677535Y-19690634D02*
X11687058Y-19709682D01*
X11687058Y-19709682D02*
X11706106Y-19719206D01*
X11706106Y-19719206D02*
X11725154Y-19719206D01*
X11868011Y-19709682D02*
X11848963Y-19719206D01*
X11848963Y-19719206D02*
X11810868Y-19719206D01*
X11810868Y-19719206D02*
X11791820Y-19709682D01*
X11791820Y-19709682D02*
X11782296Y-19690634D01*
X11782296Y-19690634D02*
X11782296Y-19614444D01*
X11782296Y-19614444D02*
X11791820Y-19595396D01*
X11791820Y-19595396D02*
X11810868Y-19585872D01*
X11810868Y-19585872D02*
X11848963Y-19585872D01*
X11848963Y-19585872D02*
X11868011Y-19595396D01*
X11868011Y-19595396D02*
X11877535Y-19614444D01*
X11877535Y-19614444D02*
X11877535Y-19633491D01*
X11877535Y-19633491D02*
X11782296Y-19652539D01*
X12048963Y-19719206D02*
X12048963Y-19519206D01*
X12048963Y-19709682D02*
X12029916Y-19719206D01*
X12029916Y-19719206D02*
X11991820Y-19719206D01*
X11991820Y-19719206D02*
X11972773Y-19709682D01*
X11972773Y-19709682D02*
X11963249Y-19700158D01*
X11963249Y-19700158D02*
X11953725Y-19681110D01*
X11953725Y-19681110D02*
X11953725Y-19623968D01*
X11953725Y-19623968D02*
X11963249Y-19604920D01*
X11963249Y-19604920D02*
X11972773Y-19595396D01*
X11972773Y-19595396D02*
X11991820Y-19585872D01*
X11991820Y-19585872D02*
X12029916Y-19585872D01*
X12029916Y-19585872D02*
X12048963Y-19595396D01*
X12125154Y-19795396D02*
X12134677Y-19785872D01*
X12134677Y-19785872D02*
X12153725Y-19757301D01*
X12153725Y-19757301D02*
X12163249Y-19738253D01*
X12163249Y-19738253D02*
X12172773Y-19709682D01*
X12172773Y-19709682D02*
X12182296Y-19662063D01*
X12182296Y-19662063D02*
X12182296Y-19623968D01*
X12182296Y-19623968D02*
X12172773Y-19576349D01*
X12172773Y-19576349D02*
X12163249Y-19547777D01*
X12163249Y-19547777D02*
X12153725Y-19528730D01*
X12153725Y-19528730D02*
X12134677Y-19500158D01*
X12134677Y-19500158D02*
X12125154Y-19490634D01*
X5269138Y-20047722D02*
X5369138Y-19947722D01*
X5269138Y-19847722D01*
X5169138Y-19947722D01*
X5269138Y-20047722D01*
X5715629Y-19905872D02*
X5715629Y-20039206D01*
X5668010Y-19829682D02*
X5620391Y-19972539D01*
X5620391Y-19972539D02*
X5744201Y-19972539D01*
X5820391Y-20020158D02*
X5829915Y-20029682D01*
X5829915Y-20029682D02*
X5820391Y-20039206D01*
X5820391Y-20039206D02*
X5810867Y-20029682D01*
X5810867Y-20029682D02*
X5820391Y-20020158D01*
X5820391Y-20020158D02*
X5820391Y-20039206D01*
X5953724Y-19839206D02*
X5972772Y-19839206D01*
X5972772Y-19839206D02*
X5991820Y-19848730D01*
X5991820Y-19848730D02*
X6001344Y-19858253D01*
X6001344Y-19858253D02*
X6010867Y-19877301D01*
X6010867Y-19877301D02*
X6020391Y-19915396D01*
X6020391Y-19915396D02*
X6020391Y-19963015D01*
X6020391Y-19963015D02*
X6010867Y-20001110D01*
X6010867Y-20001110D02*
X6001344Y-20020158D01*
X6001344Y-20020158D02*
X5991820Y-20029682D01*
X5991820Y-20029682D02*
X5972772Y-20039206D01*
X5972772Y-20039206D02*
X5953724Y-20039206D01*
X5953724Y-20039206D02*
X5934677Y-20029682D01*
X5934677Y-20029682D02*
X5925153Y-20020158D01*
X5925153Y-20020158D02*
X5915629Y-20001110D01*
X5915629Y-20001110D02*
X5906105Y-19963015D01*
X5906105Y-19963015D02*
X5906105Y-19915396D01*
X5906105Y-19915396D02*
X5915629Y-19877301D01*
X5915629Y-19877301D02*
X5925153Y-19858253D01*
X5925153Y-19858253D02*
X5934677Y-19848730D01*
X5934677Y-19848730D02*
X5953724Y-19839206D01*
X6144201Y-19839206D02*
X6163248Y-19839206D01*
X6163248Y-19839206D02*
X6182296Y-19848730D01*
X6182296Y-19848730D02*
X6191820Y-19858253D01*
X6191820Y-19858253D02*
X6201344Y-19877301D01*
X6201344Y-19877301D02*
X6210867Y-19915396D01*
X6210867Y-19915396D02*
X6210867Y-19963015D01*
X6210867Y-19963015D02*
X6201344Y-20001110D01*
X6201344Y-20001110D02*
X6191820Y-20020158D01*
X6191820Y-20020158D02*
X6182296Y-20029682D01*
X6182296Y-20029682D02*
X6163248Y-20039206D01*
X6163248Y-20039206D02*
X6144201Y-20039206D01*
X6144201Y-20039206D02*
X6125153Y-20029682D01*
X6125153Y-20029682D02*
X6115629Y-20020158D01*
X6115629Y-20020158D02*
X6106105Y-20001110D01*
X6106105Y-20001110D02*
X6096582Y-19963015D01*
X6096582Y-19963015D02*
X6096582Y-19915396D01*
X6096582Y-19915396D02*
X6106105Y-19877301D01*
X6106105Y-19877301D02*
X6115629Y-19858253D01*
X6115629Y-19858253D02*
X6125153Y-19848730D01*
X6125153Y-19848730D02*
X6144201Y-19839206D01*
X6334677Y-19839206D02*
X6353725Y-19839206D01*
X6353725Y-19839206D02*
X6372772Y-19848730D01*
X6372772Y-19848730D02*
X6382296Y-19858253D01*
X6382296Y-19858253D02*
X6391820Y-19877301D01*
X6391820Y-19877301D02*
X6401344Y-19915396D01*
X6401344Y-19915396D02*
X6401344Y-19963015D01*
X6401344Y-19963015D02*
X6391820Y-20001110D01*
X6391820Y-20001110D02*
X6382296Y-20020158D01*
X6382296Y-20020158D02*
X6372772Y-20029682D01*
X6372772Y-20029682D02*
X6353725Y-20039206D01*
X6353725Y-20039206D02*
X6334677Y-20039206D01*
X6334677Y-20039206D02*
X6315629Y-20029682D01*
X6315629Y-20029682D02*
X6306105Y-20020158D01*
X6306105Y-20020158D02*
X6296582Y-20001110D01*
X6296582Y-20001110D02*
X6287058Y-19963015D01*
X6287058Y-19963015D02*
X6287058Y-19915396D01*
X6287058Y-19915396D02*
X6296582Y-19877301D01*
X6296582Y-19877301D02*
X6306105Y-19858253D01*
X6306105Y-19858253D02*
X6315629Y-19848730D01*
X6315629Y-19848730D02*
X6334677Y-19839206D01*
X6487058Y-20039206D02*
X6487058Y-19905872D01*
X6487058Y-19924920D02*
X6496582Y-19915396D01*
X6496582Y-19915396D02*
X6515629Y-19905872D01*
X6515629Y-19905872D02*
X6544201Y-19905872D01*
X6544201Y-19905872D02*
X6563248Y-19915396D01*
X6563248Y-19915396D02*
X6572772Y-19934444D01*
X6572772Y-19934444D02*
X6572772Y-20039206D01*
X6572772Y-19934444D02*
X6582296Y-19915396D01*
X6582296Y-19915396D02*
X6601344Y-19905872D01*
X6601344Y-19905872D02*
X6629915Y-19905872D01*
X6629915Y-19905872D02*
X6648963Y-19915396D01*
X6648963Y-19915396D02*
X6658486Y-19934444D01*
X6658486Y-19934444D02*
X6658486Y-20039206D01*
X6753725Y-20039206D02*
X6753725Y-19905872D01*
X6753725Y-19924920D02*
X6763248Y-19915396D01*
X6763248Y-19915396D02*
X6782296Y-19905872D01*
X6782296Y-19905872D02*
X6810867Y-19905872D01*
X6810867Y-19905872D02*
X6829915Y-19915396D01*
X6829915Y-19915396D02*
X6839439Y-19934444D01*
X6839439Y-19934444D02*
X6839439Y-20039206D01*
X6839439Y-19934444D02*
X6848963Y-19915396D01*
X6848963Y-19915396D02*
X6868010Y-19905872D01*
X6868010Y-19905872D02*
X6896582Y-19905872D01*
X6896582Y-19905872D02*
X6915629Y-19915396D01*
X6915629Y-19915396D02*
X6925153Y-19934444D01*
X6925153Y-19934444D02*
X6925153Y-20039206D01*
X7315629Y-19829682D02*
X7144201Y-20086825D01*
X7572772Y-19839206D02*
X7591820Y-19839206D01*
X7591820Y-19839206D02*
X7610868Y-19848730D01*
X7610868Y-19848730D02*
X7620391Y-19858253D01*
X7620391Y-19858253D02*
X7629915Y-19877301D01*
X7629915Y-19877301D02*
X7639439Y-19915396D01*
X7639439Y-19915396D02*
X7639439Y-19963015D01*
X7639439Y-19963015D02*
X7629915Y-20001110D01*
X7629915Y-20001110D02*
X7620391Y-20020158D01*
X7620391Y-20020158D02*
X7610868Y-20029682D01*
X7610868Y-20029682D02*
X7591820Y-20039206D01*
X7591820Y-20039206D02*
X7572772Y-20039206D01*
X7572772Y-20039206D02*
X7553725Y-20029682D01*
X7553725Y-20029682D02*
X7544201Y-20020158D01*
X7544201Y-20020158D02*
X7534677Y-20001110D01*
X7534677Y-20001110D02*
X7525153Y-19963015D01*
X7525153Y-19963015D02*
X7525153Y-19915396D01*
X7525153Y-19915396D02*
X7534677Y-19877301D01*
X7534677Y-19877301D02*
X7544201Y-19858253D01*
X7544201Y-19858253D02*
X7553725Y-19848730D01*
X7553725Y-19848730D02*
X7572772Y-19839206D01*
X7725153Y-20020158D02*
X7734677Y-20029682D01*
X7734677Y-20029682D02*
X7725153Y-20039206D01*
X7725153Y-20039206D02*
X7715629Y-20029682D01*
X7715629Y-20029682D02*
X7725153Y-20020158D01*
X7725153Y-20020158D02*
X7725153Y-20039206D01*
X7925153Y-20039206D02*
X7810868Y-20039206D01*
X7868010Y-20039206D02*
X7868010Y-19839206D01*
X7868010Y-19839206D02*
X7848963Y-19867777D01*
X7848963Y-19867777D02*
X7829915Y-19886825D01*
X7829915Y-19886825D02*
X7810868Y-19896349D01*
X8106106Y-19839206D02*
X8010868Y-19839206D01*
X8010868Y-19839206D02*
X8001344Y-19934444D01*
X8001344Y-19934444D02*
X8010868Y-19924920D01*
X8010868Y-19924920D02*
X8029915Y-19915396D01*
X8029915Y-19915396D02*
X8077534Y-19915396D01*
X8077534Y-19915396D02*
X8096582Y-19924920D01*
X8096582Y-19924920D02*
X8106106Y-19934444D01*
X8106106Y-19934444D02*
X8115629Y-19953491D01*
X8115629Y-19953491D02*
X8115629Y-20001110D01*
X8115629Y-20001110D02*
X8106106Y-20020158D01*
X8106106Y-20020158D02*
X8096582Y-20029682D01*
X8096582Y-20029682D02*
X8077534Y-20039206D01*
X8077534Y-20039206D02*
X8029915Y-20039206D01*
X8029915Y-20039206D02*
X8010868Y-20029682D01*
X8010868Y-20029682D02*
X8001344Y-20020158D01*
X8182296Y-19839206D02*
X8315629Y-19839206D01*
X8315629Y-19839206D02*
X8229915Y-20039206D01*
X8487058Y-19839206D02*
X8391820Y-19839206D01*
X8391820Y-19839206D02*
X8382296Y-19934444D01*
X8382296Y-19934444D02*
X8391820Y-19924920D01*
X8391820Y-19924920D02*
X8410868Y-19915396D01*
X8410868Y-19915396D02*
X8458487Y-19915396D01*
X8458487Y-19915396D02*
X8477534Y-19924920D01*
X8477534Y-19924920D02*
X8487058Y-19934444D01*
X8487058Y-19934444D02*
X8496582Y-19953491D01*
X8496582Y-19953491D02*
X8496582Y-20001110D01*
X8496582Y-20001110D02*
X8487058Y-20020158D01*
X8487058Y-20020158D02*
X8477534Y-20029682D01*
X8477534Y-20029682D02*
X8458487Y-20039206D01*
X8458487Y-20039206D02*
X8410868Y-20039206D01*
X8410868Y-20039206D02*
X8391820Y-20029682D01*
X8391820Y-20029682D02*
X8382296Y-20020158D01*
X8572772Y-19839206D02*
X8572772Y-19877301D01*
X8648963Y-19839206D02*
X8648963Y-19877301D01*
X8944201Y-20115396D02*
X8934677Y-20105872D01*
X8934677Y-20105872D02*
X8915630Y-20077301D01*
X8915630Y-20077301D02*
X8906106Y-20058253D01*
X8906106Y-20058253D02*
X8896582Y-20029682D01*
X8896582Y-20029682D02*
X8887058Y-19982063D01*
X8887058Y-19982063D02*
X8887058Y-19943968D01*
X8887058Y-19943968D02*
X8896582Y-19896349D01*
X8896582Y-19896349D02*
X8906106Y-19867777D01*
X8906106Y-19867777D02*
X8915630Y-19848730D01*
X8915630Y-19848730D02*
X8934677Y-19820158D01*
X8934677Y-19820158D02*
X8944201Y-19810634D01*
X9048963Y-19924920D02*
X9029915Y-19915396D01*
X9029915Y-19915396D02*
X9020392Y-19905872D01*
X9020392Y-19905872D02*
X9010868Y-19886825D01*
X9010868Y-19886825D02*
X9010868Y-19877301D01*
X9010868Y-19877301D02*
X9020392Y-19858253D01*
X9020392Y-19858253D02*
X9029915Y-19848730D01*
X9029915Y-19848730D02*
X9048963Y-19839206D01*
X9048963Y-19839206D02*
X9087058Y-19839206D01*
X9087058Y-19839206D02*
X9106106Y-19848730D01*
X9106106Y-19848730D02*
X9115630Y-19858253D01*
X9115630Y-19858253D02*
X9125153Y-19877301D01*
X9125153Y-19877301D02*
X9125153Y-19886825D01*
X9125153Y-19886825D02*
X9115630Y-19905872D01*
X9115630Y-19905872D02*
X9106106Y-19915396D01*
X9106106Y-19915396D02*
X9087058Y-19924920D01*
X9087058Y-19924920D02*
X9048963Y-19924920D01*
X9048963Y-19924920D02*
X9029915Y-19934444D01*
X9029915Y-19934444D02*
X9020392Y-19943968D01*
X9020392Y-19943968D02*
X9010868Y-19963015D01*
X9010868Y-19963015D02*
X9010868Y-20001110D01*
X9010868Y-20001110D02*
X9020392Y-20020158D01*
X9020392Y-20020158D02*
X9029915Y-20029682D01*
X9029915Y-20029682D02*
X9048963Y-20039206D01*
X9048963Y-20039206D02*
X9087058Y-20039206D01*
X9087058Y-20039206D02*
X9106106Y-20029682D01*
X9106106Y-20029682D02*
X9115630Y-20020158D01*
X9115630Y-20020158D02*
X9125153Y-20001110D01*
X9125153Y-20001110D02*
X9125153Y-19963015D01*
X9125153Y-19963015D02*
X9115630Y-19943968D01*
X9115630Y-19943968D02*
X9106106Y-19934444D01*
X9106106Y-19934444D02*
X9087058Y-19924920D01*
X9296582Y-19839206D02*
X9258487Y-19839206D01*
X9258487Y-19839206D02*
X9239439Y-19848730D01*
X9239439Y-19848730D02*
X9229915Y-19858253D01*
X9229915Y-19858253D02*
X9210868Y-19886825D01*
X9210868Y-19886825D02*
X9201344Y-19924920D01*
X9201344Y-19924920D02*
X9201344Y-20001110D01*
X9201344Y-20001110D02*
X9210868Y-20020158D01*
X9210868Y-20020158D02*
X9220392Y-20029682D01*
X9220392Y-20029682D02*
X9239439Y-20039206D01*
X9239439Y-20039206D02*
X9277534Y-20039206D01*
X9277534Y-20039206D02*
X9296582Y-20029682D01*
X9296582Y-20029682D02*
X9306106Y-20020158D01*
X9306106Y-20020158D02*
X9315630Y-20001110D01*
X9315630Y-20001110D02*
X9315630Y-19953491D01*
X9315630Y-19953491D02*
X9306106Y-19934444D01*
X9306106Y-19934444D02*
X9296582Y-19924920D01*
X9296582Y-19924920D02*
X9277534Y-19915396D01*
X9277534Y-19915396D02*
X9239439Y-19915396D01*
X9239439Y-19915396D02*
X9220392Y-19924920D01*
X9220392Y-19924920D02*
X9210868Y-19934444D01*
X9210868Y-19934444D02*
X9201344Y-19953491D01*
X9553725Y-20039206D02*
X9553725Y-19839206D01*
X9639439Y-20039206D02*
X9639439Y-19934444D01*
X9639439Y-19934444D02*
X9629915Y-19915396D01*
X9629915Y-19915396D02*
X9610868Y-19905872D01*
X9610868Y-19905872D02*
X9582296Y-19905872D01*
X9582296Y-19905872D02*
X9563249Y-19915396D01*
X9563249Y-19915396D02*
X9553725Y-19924920D01*
X9763249Y-20039206D02*
X9744201Y-20029682D01*
X9744201Y-20029682D02*
X9734677Y-20020158D01*
X9734677Y-20020158D02*
X9725154Y-20001110D01*
X9725154Y-20001110D02*
X9725154Y-19943968D01*
X9725154Y-19943968D02*
X9734677Y-19924920D01*
X9734677Y-19924920D02*
X9744201Y-19915396D01*
X9744201Y-19915396D02*
X9763249Y-19905872D01*
X9763249Y-19905872D02*
X9791820Y-19905872D01*
X9791820Y-19905872D02*
X9810868Y-19915396D01*
X9810868Y-19915396D02*
X9820392Y-19924920D01*
X9820392Y-19924920D02*
X9829915Y-19943968D01*
X9829915Y-19943968D02*
X9829915Y-20001110D01*
X9829915Y-20001110D02*
X9820392Y-20020158D01*
X9820392Y-20020158D02*
X9810868Y-20029682D01*
X9810868Y-20029682D02*
X9791820Y-20039206D01*
X9791820Y-20039206D02*
X9763249Y-20039206D01*
X9944201Y-20039206D02*
X9925154Y-20029682D01*
X9925154Y-20029682D02*
X9915630Y-20010634D01*
X9915630Y-20010634D02*
X9915630Y-19839206D01*
X10096582Y-20029682D02*
X10077535Y-20039206D01*
X10077535Y-20039206D02*
X10039439Y-20039206D01*
X10039439Y-20039206D02*
X10020392Y-20029682D01*
X10020392Y-20029682D02*
X10010868Y-20010634D01*
X10010868Y-20010634D02*
X10010868Y-19934444D01*
X10010868Y-19934444D02*
X10020392Y-19915396D01*
X10020392Y-19915396D02*
X10039439Y-19905872D01*
X10039439Y-19905872D02*
X10077535Y-19905872D01*
X10077535Y-19905872D02*
X10096582Y-19915396D01*
X10096582Y-19915396D02*
X10106106Y-19934444D01*
X10106106Y-19934444D02*
X10106106Y-19953491D01*
X10106106Y-19953491D02*
X10010868Y-19972539D01*
X10182296Y-20029682D02*
X10201344Y-20039206D01*
X10201344Y-20039206D02*
X10239439Y-20039206D01*
X10239439Y-20039206D02*
X10258487Y-20029682D01*
X10258487Y-20029682D02*
X10268011Y-20010634D01*
X10268011Y-20010634D02*
X10268011Y-20001110D01*
X10268011Y-20001110D02*
X10258487Y-19982063D01*
X10258487Y-19982063D02*
X10239439Y-19972539D01*
X10239439Y-19972539D02*
X10210868Y-19972539D01*
X10210868Y-19972539D02*
X10191820Y-19963015D01*
X10191820Y-19963015D02*
X10182296Y-19943968D01*
X10182296Y-19943968D02*
X10182296Y-19934444D01*
X10182296Y-19934444D02*
X10191820Y-19915396D01*
X10191820Y-19915396D02*
X10210868Y-19905872D01*
X10210868Y-19905872D02*
X10239439Y-19905872D01*
X10239439Y-19905872D02*
X10258487Y-19915396D01*
X10334677Y-20115396D02*
X10344201Y-20105872D01*
X10344201Y-20105872D02*
X10363249Y-20077301D01*
X10363249Y-20077301D02*
X10372773Y-20058253D01*
X10372773Y-20058253D02*
X10382296Y-20029682D01*
X10382296Y-20029682D02*
X10391820Y-19982063D01*
X10391820Y-19982063D02*
X10391820Y-19943968D01*
X10391820Y-19943968D02*
X10382296Y-19896349D01*
X10382296Y-19896349D02*
X10372773Y-19867777D01*
X10372773Y-19867777D02*
X10363249Y-19848730D01*
X10363249Y-19848730D02*
X10344201Y-19820158D01*
X10344201Y-19820158D02*
X10334677Y-19810634D01*
X10696582Y-20115396D02*
X10687058Y-20105872D01*
X10687058Y-20105872D02*
X10668011Y-20077301D01*
X10668011Y-20077301D02*
X10658487Y-20058253D01*
X10658487Y-20058253D02*
X10648963Y-20029682D01*
X10648963Y-20029682D02*
X10639439Y-19982063D01*
X10639439Y-19982063D02*
X10639439Y-19943968D01*
X10639439Y-19943968D02*
X10648963Y-19896349D01*
X10648963Y-19896349D02*
X10658487Y-19867777D01*
X10658487Y-19867777D02*
X10668011Y-19848730D01*
X10668011Y-19848730D02*
X10687058Y-19820158D01*
X10687058Y-19820158D02*
X10696582Y-19810634D01*
X10772773Y-19905872D02*
X10772773Y-20039206D01*
X10772773Y-19924920D02*
X10782296Y-19915396D01*
X10782296Y-19915396D02*
X10801344Y-19905872D01*
X10801344Y-19905872D02*
X10829916Y-19905872D01*
X10829916Y-19905872D02*
X10848963Y-19915396D01*
X10848963Y-19915396D02*
X10858487Y-19934444D01*
X10858487Y-19934444D02*
X10858487Y-20039206D01*
X10982296Y-20039206D02*
X10963249Y-20029682D01*
X10963249Y-20029682D02*
X10953725Y-20020158D01*
X10953725Y-20020158D02*
X10944201Y-20001110D01*
X10944201Y-20001110D02*
X10944201Y-19943968D01*
X10944201Y-19943968D02*
X10953725Y-19924920D01*
X10953725Y-19924920D02*
X10963249Y-19915396D01*
X10963249Y-19915396D02*
X10982296Y-19905872D01*
X10982296Y-19905872D02*
X11010868Y-19905872D01*
X11010868Y-19905872D02*
X11029916Y-19915396D01*
X11029916Y-19915396D02*
X11039439Y-19924920D01*
X11039439Y-19924920D02*
X11048963Y-19943968D01*
X11048963Y-19943968D02*
X11048963Y-20001110D01*
X11048963Y-20001110D02*
X11039439Y-20020158D01*
X11039439Y-20020158D02*
X11029916Y-20029682D01*
X11029916Y-20029682D02*
X11010868Y-20039206D01*
X11010868Y-20039206D02*
X10982296Y-20039206D01*
X11106106Y-19905872D02*
X11182296Y-19905872D01*
X11134677Y-19839206D02*
X11134677Y-20010634D01*
X11134677Y-20010634D02*
X11144201Y-20029682D01*
X11144201Y-20029682D02*
X11163249Y-20039206D01*
X11163249Y-20039206D02*
X11182296Y-20039206D01*
X11401344Y-19905872D02*
X11401344Y-20105872D01*
X11401344Y-19915396D02*
X11420392Y-19905872D01*
X11420392Y-19905872D02*
X11458487Y-19905872D01*
X11458487Y-19905872D02*
X11477535Y-19915396D01*
X11477535Y-19915396D02*
X11487058Y-19924920D01*
X11487058Y-19924920D02*
X11496582Y-19943968D01*
X11496582Y-19943968D02*
X11496582Y-20001110D01*
X11496582Y-20001110D02*
X11487058Y-20020158D01*
X11487058Y-20020158D02*
X11477535Y-20029682D01*
X11477535Y-20029682D02*
X11458487Y-20039206D01*
X11458487Y-20039206D02*
X11420392Y-20039206D01*
X11420392Y-20039206D02*
X11401344Y-20029682D01*
X11610868Y-20039206D02*
X11591820Y-20029682D01*
X11591820Y-20029682D02*
X11582296Y-20010634D01*
X11582296Y-20010634D02*
X11582296Y-19839206D01*
X11772773Y-20039206D02*
X11772773Y-19934444D01*
X11772773Y-19934444D02*
X11763249Y-19915396D01*
X11763249Y-19915396D02*
X11744201Y-19905872D01*
X11744201Y-19905872D02*
X11706106Y-19905872D01*
X11706106Y-19905872D02*
X11687058Y-19915396D01*
X11772773Y-20029682D02*
X11753725Y-20039206D01*
X11753725Y-20039206D02*
X11706106Y-20039206D01*
X11706106Y-20039206D02*
X11687058Y-20029682D01*
X11687058Y-20029682D02*
X11677535Y-20010634D01*
X11677535Y-20010634D02*
X11677535Y-19991587D01*
X11677535Y-19991587D02*
X11687058Y-19972539D01*
X11687058Y-19972539D02*
X11706106Y-19963015D01*
X11706106Y-19963015D02*
X11753725Y-19963015D01*
X11753725Y-19963015D02*
X11772773Y-19953491D01*
X11839439Y-19905872D02*
X11915630Y-19905872D01*
X11868011Y-19839206D02*
X11868011Y-20010634D01*
X11868011Y-20010634D02*
X11877535Y-20029682D01*
X11877535Y-20029682D02*
X11896582Y-20039206D01*
X11896582Y-20039206D02*
X11915630Y-20039206D01*
X12058487Y-20029682D02*
X12039439Y-20039206D01*
X12039439Y-20039206D02*
X12001344Y-20039206D01*
X12001344Y-20039206D02*
X11982296Y-20029682D01*
X11982296Y-20029682D02*
X11972773Y-20010634D01*
X11972773Y-20010634D02*
X11972773Y-19934444D01*
X11972773Y-19934444D02*
X11982296Y-19915396D01*
X11982296Y-19915396D02*
X12001344Y-19905872D01*
X12001344Y-19905872D02*
X12039439Y-19905872D01*
X12039439Y-19905872D02*
X12058487Y-19915396D01*
X12058487Y-19915396D02*
X12068011Y-19934444D01*
X12068011Y-19934444D02*
X12068011Y-19953491D01*
X12068011Y-19953491D02*
X11972773Y-19972539D01*
X12239439Y-20039206D02*
X12239439Y-19839206D01*
X12239439Y-20029682D02*
X12220392Y-20039206D01*
X12220392Y-20039206D02*
X12182296Y-20039206D01*
X12182296Y-20039206D02*
X12163249Y-20029682D01*
X12163249Y-20029682D02*
X12153725Y-20020158D01*
X12153725Y-20020158D02*
X12144201Y-20001110D01*
X12144201Y-20001110D02*
X12144201Y-19943968D01*
X12144201Y-19943968D02*
X12153725Y-19924920D01*
X12153725Y-19924920D02*
X12163249Y-19915396D01*
X12163249Y-19915396D02*
X12182296Y-19905872D01*
X12182296Y-19905872D02*
X12220392Y-19905872D01*
X12220392Y-19905872D02*
X12239439Y-19915396D01*
X12315630Y-20115396D02*
X12325154Y-20105872D01*
X12325154Y-20105872D02*
X12344201Y-20077301D01*
X12344201Y-20077301D02*
X12353725Y-20058253D01*
X12353725Y-20058253D02*
X12363249Y-20029682D01*
X12363249Y-20029682D02*
X12372773Y-19982063D01*
X12372773Y-19982063D02*
X12372773Y-19943968D01*
X12372773Y-19943968D02*
X12363249Y-19896349D01*
X12363249Y-19896349D02*
X12353725Y-19867777D01*
X12353725Y-19867777D02*
X12344201Y-19848730D01*
X12344201Y-19848730D02*
X12325154Y-19820158D01*
X12325154Y-19820158D02*
X12315630Y-19810634D01*
M02*
