M48
; DRILL file {KiCad 7.0.10} date Mon 29 Jan 2024 03:04:38 PM CET
; FORMAT={-:-/ absolute / metric / decimal}
; #@! TF.CreationDate,2024-01-29T15:04:38+01:00
; #@! TF.GenerationSoftware,Kicad,Pcbnew,7.0.10
; #@! TF.FileFunction,NonPlated,1,2,NPTH
FMAT,2
METRIC
; #@! TA.AperFunction,NonPlated,NPTH,ComponentDrill
T1C1.700
; #@! TA.AperFunction,NonPlated,NPTH,ComponentDrill
T2C3.048
; #@! TA.AperFunction,NonPlated,NPTH,ComponentDrill
T3C3.050
; #@! TA.AperFunction,NonPlated,NPTH,ComponentDrill
T4C3.988
; #@! TA.AperFunction,NonPlated,NPTH,ComponentDrill
T5C4.000
%
G90
G05
T1
X58.261Y-94.774
X60.642Y-170.964
X60.642Y-132.864
X60.642Y-151.924
X63.024Y-170.964
X63.024Y-113.824
X65.405Y-132.864
X68.421Y-94.774
X70.167Y-151.924
X70.802Y-170.964
X70.802Y-132.864
X70.802Y-151.924
X73.184Y-170.964
X73.184Y-113.824
X75.565Y-132.864
X77.311Y-94.774
X80.327Y-151.924
X82.074Y-151.924
X84.455Y-170.974
X86.836Y-113.824
X87.471Y-94.774
X91.599Y-132.874
X91.623Y-170.97
X92.234Y-151.924
X94.615Y-170.974
X96.361Y-94.774
X96.996Y-113.824
X101.124Y-151.924
X101.759Y-132.874
X101.783Y-170.97
X105.886Y-113.824
X106.521Y-94.774
X108.267Y-170.964
X110.649Y-132.874
X111.284Y-151.924
X115.411Y-94.774
X116.046Y-113.824
X118.427Y-170.964
X120.174Y-151.924
X120.809Y-132.874
X124.936Y-113.824
X125.571Y-94.774
X129.699Y-132.874
X130.334Y-151.924
X134.461Y-94.774
X135.096Y-113.824
X139.224Y-151.924
X139.859Y-132.874
X143.986Y-113.824
X144.621Y-94.774
X148.748Y-132.874
X149.384Y-151.924
X153.511Y-94.774
X154.146Y-113.824
X158.274Y-151.924
X158.908Y-132.874
X163.036Y-113.824
X163.671Y-94.774
X167.798Y-132.874
X168.434Y-151.924
X172.561Y-94.774
X172.588Y-170.982
X173.196Y-113.824
X177.324Y-151.924
X177.958Y-132.874
X179.705Y-170.974
X182.086Y-113.824
X182.721Y-94.774
X182.748Y-170.982
X186.848Y-132.874
X187.484Y-151.924
X189.865Y-170.974
X191.611Y-94.774
X192.246Y-113.824
X196.374Y-151.924
X197.008Y-132.874
X201.136Y-113.824
X201.771Y-94.774
X205.898Y-132.874
X206.534Y-151.924
X210.661Y-94.774
X211.296Y-113.824
X215.424Y-151.924
X216.058Y-132.874
X220.186Y-113.824
X220.821Y-94.774
X224.948Y-132.874
X225.584Y-151.924
X229.711Y-94.774
X230.346Y-113.824
X234.474Y-151.924
X235.108Y-132.874
X239.236Y-113.824
X239.871Y-94.774
X243.998Y-132.874
X244.634Y-151.924
X248.761Y-94.774
X248.791Y-170.964
X249.396Y-113.824
X253.524Y-151.924
X253.564Y-170.974
X254.158Y-132.874
X258.286Y-113.824
X258.921Y-94.774
X258.951Y-170.964
X263.048Y-132.874
X263.684Y-151.924
X263.724Y-170.974
X267.811Y-94.774
X267.846Y-170.974
X268.446Y-113.824
X272.574Y-151.924
X273.208Y-132.874
X277.336Y-113.824
X277.971Y-94.774
X278.006Y-170.974
X282.098Y-132.874
X282.12Y-170.974
X282.734Y-151.924
X286.861Y-94.774
X286.902Y-170.964
X287.496Y-113.824
X292.258Y-132.874
X292.28Y-170.974
X296.386Y-113.824
X297.021Y-94.774
X297.062Y-170.964
X298.767Y-151.924
X301.149Y-132.874
X305.911Y-170.974
X306.546Y-113.824
X308.927Y-151.924
X311.309Y-132.874
X313.055Y-132.874
X315.436Y-94.774
X316.071Y-170.974
X320.198Y-113.824
X322.58Y-123.349
X323.215Y-132.874
X324.961Y-151.924
X324.961Y-170.974
X325.596Y-94.774
X330.358Y-113.824
X332.74Y-123.349
X335.121Y-151.924
X335.121Y-170.974
X344.011Y-94.774
X344.011Y-113.824
X344.011Y-132.874
X344.011Y-151.924
X344.011Y-170.974
X354.171Y-94.774
X354.171Y-113.824
X354.171Y-132.874
X354.171Y-151.924
X354.171Y-170.974
T2
X120.518Y-177.967
X134.811Y-177.967
X234.811Y-177.967
X234.818Y-177.967
T3
X63.347Y-144.924
X87.147Y-144.924
X306.235Y-125.874
X308.616Y-87.774
X330.035Y-125.874
X332.416Y-87.774
X334.66Y-111.449
X334.66Y-135.249
T4
X120.518Y-162.727
X134.811Y-162.727
X234.811Y-162.727
X234.818Y-162.727
T5
X63.341Y-94.774
X63.347Y-160.164
X65.722Y-170.964
X65.722Y-132.864
X65.722Y-151.924
X68.104Y-170.964
X68.104Y-113.824
X70.485Y-132.864
X75.247Y-151.924
X82.391Y-94.774
X87.147Y-160.164
X87.154Y-151.924
X89.535Y-170.974
X91.916Y-113.824
X96.679Y-132.874
X96.703Y-170.97
X101.441Y-94.774
X106.204Y-151.924
X110.966Y-113.824
X113.347Y-170.964
X115.729Y-132.874
X120.491Y-94.774
X125.254Y-151.924
X130.016Y-113.824
X134.779Y-132.874
X139.541Y-94.774
X144.304Y-151.924
X149.066Y-113.824
X153.828Y-132.874
X158.591Y-94.774
X163.354Y-151.924
X168.116Y-113.824
X172.878Y-132.874
X177.641Y-94.774
X177.668Y-170.982
X182.404Y-151.924
X184.785Y-170.974
X187.166Y-113.824
X191.928Y-132.874
X196.691Y-94.774
X201.454Y-151.924
X206.216Y-113.824
X210.978Y-132.874
X215.741Y-94.774
X220.504Y-151.924
X225.266Y-113.824
X230.028Y-132.874
X234.791Y-94.774
X239.554Y-151.924
X244.316Y-113.824
X249.078Y-132.874
X253.841Y-94.774
X253.871Y-170.964
X258.604Y-151.924
X258.644Y-170.974
X263.366Y-113.824
X268.128Y-132.874
X272.891Y-94.774
X272.926Y-170.974
X277.654Y-151.924
X282.416Y-113.824
X287.178Y-132.874
X287.2Y-170.974
X291.941Y-94.774
X291.982Y-170.964
X301.466Y-113.824
X303.847Y-151.924
X306.229Y-132.874
X306.235Y-141.114
X308.616Y-103.014
X310.991Y-170.974
X318.135Y-132.874
X319.42Y-111.449
X319.42Y-135.249
X320.516Y-94.774
X325.278Y-113.824
X327.66Y-123.349
X330.035Y-141.114
X330.041Y-151.924
X330.041Y-170.974
X332.416Y-103.014
X349.091Y-94.774
X349.091Y-113.824
X349.091Y-132.874
X349.091Y-151.924
X349.091Y-170.974
M30
