G04 #@! TF.GenerationSoftware,KiCad,Pcbnew,7.0.10*
G04 #@! TF.CreationDate,2024-01-29T11:57:02+01:00*
G04 #@! TF.ProjectId,discipline-pcb,64697363-6970-46c6-996e-652d7063622e,rev?*
G04 #@! TF.SameCoordinates,Original*
G04 #@! TF.FileFunction,Copper,L1,Top*
G04 #@! TF.FilePolarity,Positive*
%FSLAX46Y46*%
G04 Gerber Fmt 4.6, Leading zero omitted, Abs format (unit mm)*
G04 Created by KiCad (PCBNEW 7.0.10) date 2024-01-29 11:57:02*
%MOMM*%
%LPD*%
G01*
G04 APERTURE LIST*
G04 #@! TA.AperFunction,EtchedComponent*
%ADD10C,0.010000*%
G04 #@! TD*
G04 #@! TA.AperFunction,EtchedComponent*
%ADD11C,3.000000*%
G04 #@! TD*
G04 #@! TA.AperFunction,ComponentPad*
%ADD12C,4.400000*%
G04 #@! TD*
G04 APERTURE END LIST*
D10*
X158870985Y-108958112D02*
X160098538Y-109298701D01*
X161021051Y-109740144D01*
X161442233Y-110187362D01*
X161620439Y-111028920D01*
X161552783Y-111765354D01*
X161355996Y-112068076D01*
X160920525Y-112037855D01*
X160155635Y-111758413D01*
X159821758Y-111598833D01*
X158246516Y-111033794D01*
X156759502Y-110927194D01*
X155469498Y-111240490D01*
X154485290Y-111935136D01*
X153915662Y-112972589D01*
X153818089Y-113726048D01*
X154051380Y-114851439D01*
X154788204Y-115840507D01*
X156083985Y-116751171D01*
X157275081Y-117338613D01*
X159541400Y-118495077D01*
X161170390Y-119676765D01*
X162001937Y-120625110D01*
X162422840Y-121702178D01*
X162599451Y-123107913D01*
X162524854Y-124564499D01*
X162192131Y-125794120D01*
X162133631Y-125914969D01*
X161042702Y-127347034D01*
X159510709Y-128390558D01*
X157645375Y-129007725D01*
X155554418Y-129160714D01*
X153655268Y-128891570D01*
X152492368Y-128507316D01*
X151473508Y-127993613D01*
X150837169Y-127472530D01*
X150810896Y-127435632D01*
X150598351Y-126782523D01*
X150604552Y-126023320D01*
X150820039Y-125497688D01*
X150865863Y-125462387D01*
X151311365Y-125489468D01*
X152093337Y-125772739D01*
X152529168Y-125982804D01*
X154266407Y-126652003D01*
X155938596Y-126871130D01*
X157446154Y-126672940D01*
X158689502Y-126090183D01*
X159569059Y-125155614D01*
X159985246Y-123901983D01*
X160005268Y-123523872D01*
X159790947Y-122634057D01*
X159112851Y-121744643D01*
X157918281Y-120806596D01*
X156154541Y-119770880D01*
X155736011Y-119551396D01*
X153901346Y-118516319D01*
X152613632Y-117549105D01*
X151790994Y-116548054D01*
X151351561Y-115411469D01*
X151213459Y-114037653D01*
X151212961Y-113933123D01*
X151469045Y-112066618D01*
X152233626Y-110605739D01*
X153501196Y-109556151D01*
X155266247Y-108923519D01*
X156226363Y-108775859D01*
X157519792Y-108767468D01*
X158870985Y-108958112D01*
G04 #@! TA.AperFunction,EtchedComponent*
G36*
X158870985Y-108958112D02*
G01*
X160098538Y-109298701D01*
X161021051Y-109740144D01*
X161442233Y-110187362D01*
X161620439Y-111028920D01*
X161552783Y-111765354D01*
X161355996Y-112068076D01*
X160920525Y-112037855D01*
X160155635Y-111758413D01*
X159821758Y-111598833D01*
X158246516Y-111033794D01*
X156759502Y-110927194D01*
X155469498Y-111240490D01*
X154485290Y-111935136D01*
X153915662Y-112972589D01*
X153818089Y-113726048D01*
X154051380Y-114851439D01*
X154788204Y-115840507D01*
X156083985Y-116751171D01*
X157275081Y-117338613D01*
X159541400Y-118495077D01*
X161170390Y-119676765D01*
X162001937Y-120625110D01*
X162422840Y-121702178D01*
X162599451Y-123107913D01*
X162524854Y-124564499D01*
X162192131Y-125794120D01*
X162133631Y-125914969D01*
X161042702Y-127347034D01*
X159510709Y-128390558D01*
X157645375Y-129007725D01*
X155554418Y-129160714D01*
X153655268Y-128891570D01*
X152492368Y-128507316D01*
X151473508Y-127993613D01*
X150837169Y-127472530D01*
X150810896Y-127435632D01*
X150598351Y-126782523D01*
X150604552Y-126023320D01*
X150820039Y-125497688D01*
X150865863Y-125462387D01*
X151311365Y-125489468D01*
X152093337Y-125772739D01*
X152529168Y-125982804D01*
X154266407Y-126652003D01*
X155938596Y-126871130D01*
X157446154Y-126672940D01*
X158689502Y-126090183D01*
X159569059Y-125155614D01*
X159985246Y-123901983D01*
X160005268Y-123523872D01*
X159790947Y-122634057D01*
X159112851Y-121744643D01*
X157918281Y-120806596D01*
X156154541Y-119770880D01*
X155736011Y-119551396D01*
X153901346Y-118516319D01*
X152613632Y-117549105D01*
X151790994Y-116548054D01*
X151351561Y-115411469D01*
X151213459Y-114037653D01*
X151212961Y-113933123D01*
X151469045Y-112066618D01*
X152233626Y-110605739D01*
X153501196Y-109556151D01*
X155266247Y-108923519D01*
X156226363Y-108775859D01*
X157519792Y-108767468D01*
X158870985Y-108958112D01*
G37*
G04 #@! TD.AperFunction*
X182308392Y-108816567D02*
X184431510Y-109356777D01*
X185017193Y-109623684D01*
X186059754Y-110296612D01*
X186581113Y-111057378D01*
X186707833Y-111942438D01*
X186558492Y-112574255D01*
X186082126Y-112712086D01*
X185236216Y-112358191D01*
X184735944Y-112047251D01*
X183357734Y-111362017D01*
X181755367Y-111059246D01*
X181549538Y-111044689D01*
X179661954Y-111172783D01*
X178131103Y-111834695D01*
X176902302Y-113061715D01*
X176306448Y-114044648D01*
X175921601Y-114865578D01*
X175676479Y-115642490D01*
X175540701Y-116559771D01*
X175483889Y-117801810D01*
X175474838Y-119092084D01*
X175495217Y-120728942D01*
X175572579Y-121890329D01*
X175734005Y-122751373D01*
X176006578Y-123487197D01*
X176220665Y-123915105D01*
X177322678Y-125347575D01*
X178781598Y-126315616D01*
X180475293Y-126796031D01*
X182281627Y-126765625D01*
X184078469Y-126201204D01*
X185095549Y-125600608D01*
X185809895Y-125161583D01*
X186327999Y-124961814D01*
X186351051Y-124960664D01*
X186658245Y-125217674D01*
X186712369Y-125844064D01*
X186543854Y-126622869D01*
X186183130Y-127337128D01*
X185986293Y-127561355D01*
X184782640Y-128319389D01*
X183154860Y-128845079D01*
X181299174Y-129104419D01*
X179411803Y-129063406D01*
X178357809Y-128883357D01*
X176487502Y-128119158D01*
X174932203Y-126829578D01*
X173725032Y-125076352D01*
X172899109Y-122921219D01*
X172487555Y-120425914D01*
X172497346Y-117959382D01*
X172912324Y-115440835D01*
X173721381Y-113226324D01*
X174876046Y-111421065D01*
X176001588Y-110352818D01*
X177915273Y-109328996D01*
X180076927Y-108812109D01*
X182308392Y-108816567D01*
G04 #@! TA.AperFunction,EtchedComponent*
G36*
X182308392Y-108816567D02*
G01*
X184431510Y-109356777D01*
X185017193Y-109623684D01*
X186059754Y-110296612D01*
X186581113Y-111057378D01*
X186707833Y-111942438D01*
X186558492Y-112574255D01*
X186082126Y-112712086D01*
X185236216Y-112358191D01*
X184735944Y-112047251D01*
X183357734Y-111362017D01*
X181755367Y-111059246D01*
X181549538Y-111044689D01*
X179661954Y-111172783D01*
X178131103Y-111834695D01*
X176902302Y-113061715D01*
X176306448Y-114044648D01*
X175921601Y-114865578D01*
X175676479Y-115642490D01*
X175540701Y-116559771D01*
X175483889Y-117801810D01*
X175474838Y-119092084D01*
X175495217Y-120728942D01*
X175572579Y-121890329D01*
X175734005Y-122751373D01*
X176006578Y-123487197D01*
X176220665Y-123915105D01*
X177322678Y-125347575D01*
X178781598Y-126315616D01*
X180475293Y-126796031D01*
X182281627Y-126765625D01*
X184078469Y-126201204D01*
X185095549Y-125600608D01*
X185809895Y-125161583D01*
X186327999Y-124961814D01*
X186351051Y-124960664D01*
X186658245Y-125217674D01*
X186712369Y-125844064D01*
X186543854Y-126622869D01*
X186183130Y-127337128D01*
X185986293Y-127561355D01*
X184782640Y-128319389D01*
X183154860Y-128845079D01*
X181299174Y-129104419D01*
X179411803Y-129063406D01*
X178357809Y-128883357D01*
X176487502Y-128119158D01*
X174932203Y-126829578D01*
X173725032Y-125076352D01*
X172899109Y-122921219D01*
X172487555Y-120425914D01*
X172497346Y-117959382D01*
X172912324Y-115440835D01*
X173721381Y-113226324D01*
X174876046Y-111421065D01*
X176001588Y-110352818D01*
X177915273Y-109328996D01*
X180076927Y-108812109D01*
X182308392Y-108816567D01*
G37*
G04 #@! TD.AperFunction*
X116840747Y-109091587D02*
X118966376Y-109331993D01*
X120727792Y-109818972D01*
X122253182Y-110577026D01*
X122324535Y-110621837D01*
X123836774Y-111954263D01*
X124972378Y-113745812D01*
X125699855Y-115903294D01*
X125987713Y-118333524D01*
X125807095Y-120926872D01*
X125185497Y-123401153D01*
X124173460Y-125379111D01*
X122737667Y-126909062D01*
X120928345Y-128001801D01*
X120018923Y-128289072D01*
X118741532Y-128528703D01*
X117233993Y-128713840D01*
X115634125Y-128837631D01*
X114079748Y-128893222D01*
X112708681Y-128873760D01*
X111658745Y-128772392D01*
X111067758Y-128582265D01*
X110995675Y-128495705D01*
X110954428Y-128065302D01*
X110922636Y-127069857D01*
X110901046Y-125595553D01*
X110890408Y-123728571D01*
X110891470Y-121555095D01*
X110904981Y-119161306D01*
X110909763Y-118606700D01*
X110976890Y-111283741D01*
X113438602Y-111283741D01*
X113438602Y-126588869D01*
X115974730Y-126588869D01*
X117542780Y-126534889D01*
X118714363Y-126342561D01*
X119737656Y-125966301D01*
X119963833Y-125856177D01*
X121339198Y-124881593D01*
X122307401Y-123518556D01*
X122902131Y-121702496D01*
X123138162Y-119772164D01*
X123126380Y-117463917D01*
X122774926Y-115608300D01*
X122052785Y-114084443D01*
X121489602Y-113347626D01*
X120425520Y-112346137D01*
X119236390Y-111709893D01*
X117753176Y-111376577D01*
X115891369Y-111283741D01*
X113438602Y-111283741D01*
X110976890Y-111283741D01*
X110996294Y-109167074D01*
X114222715Y-109073252D01*
X116840747Y-109091587D01*
G04 #@! TA.AperFunction,EtchedComponent*
G36*
X116840747Y-109091587D02*
G01*
X118966376Y-109331993D01*
X120727792Y-109818972D01*
X122253182Y-110577026D01*
X122324535Y-110621837D01*
X123836774Y-111954263D01*
X124972378Y-113745812D01*
X125699855Y-115903294D01*
X125987713Y-118333524D01*
X125807095Y-120926872D01*
X125185497Y-123401153D01*
X124173460Y-125379111D01*
X122737667Y-126909062D01*
X120928345Y-128001801D01*
X120018923Y-128289072D01*
X118741532Y-128528703D01*
X117233993Y-128713840D01*
X115634125Y-128837631D01*
X114079748Y-128893222D01*
X112708681Y-128873760D01*
X111658745Y-128772392D01*
X111067758Y-128582265D01*
X110995675Y-128495705D01*
X110954428Y-128065302D01*
X110922636Y-127069857D01*
X110901046Y-125595553D01*
X110890408Y-123728571D01*
X110891470Y-121555095D01*
X110904981Y-119161306D01*
X110909763Y-118606700D01*
X110976890Y-111283741D01*
X113438602Y-111283741D01*
X113438602Y-126588869D01*
X115974730Y-126588869D01*
X117542780Y-126534889D01*
X118714363Y-126342561D01*
X119737656Y-125966301D01*
X119963833Y-125856177D01*
X121339198Y-124881593D01*
X122307401Y-123518556D01*
X122902131Y-121702496D01*
X123138162Y-119772164D01*
X123126380Y-117463917D01*
X122774926Y-115608300D01*
X122052785Y-114084443D01*
X121489602Y-113347626D01*
X120425520Y-112346137D01*
X119236390Y-111709893D01*
X117753176Y-111376577D01*
X115891369Y-111283741D01*
X113438602Y-111283741D01*
X110976890Y-111283741D01*
X110996294Y-109167074D01*
X114222715Y-109073252D01*
X116840747Y-109091587D01*
G37*
G04 #@! TD.AperFunction*
X139652704Y-128705536D02*
X138592132Y-128807745D01*
X137734339Y-128757271D01*
X137365857Y-128478140D01*
X137326343Y-128052383D01*
X137296116Y-127061376D01*
X137275865Y-125591095D01*
X137266281Y-123727515D01*
X137268052Y-121556612D01*
X137281868Y-119164362D01*
X137286686Y-118606700D01*
X137373217Y-109167074D01*
X139652704Y-109167074D01*
X139652704Y-128705536D01*
G04 #@! TA.AperFunction,EtchedComponent*
G36*
X139652704Y-128705536D02*
G01*
X138592132Y-128807745D01*
X137734339Y-128757271D01*
X137365857Y-128478140D01*
X137326343Y-128052383D01*
X137296116Y-127061376D01*
X137275865Y-125591095D01*
X137266281Y-123727515D01*
X137268052Y-121556612D01*
X137281868Y-119164362D01*
X137286686Y-118606700D01*
X137373217Y-109167074D01*
X139652704Y-109167074D01*
X139652704Y-128705536D01*
G37*
G04 #@! TD.AperFunction*
X199733474Y-128868356D02*
X198583510Y-128868356D01*
X197776719Y-128763113D01*
X197301855Y-128505001D01*
X197275825Y-128457341D01*
X197238361Y-128037083D01*
X197209987Y-127051329D01*
X197191321Y-125585810D01*
X197182984Y-123726257D01*
X197185595Y-121558403D01*
X197199773Y-119167977D01*
X197204635Y-118606700D01*
X197291166Y-109167074D01*
X198512320Y-109066006D01*
X199733474Y-108964939D01*
X199733474Y-128868356D01*
G04 #@! TA.AperFunction,EtchedComponent*
G36*
X199733474Y-128868356D02*
G01*
X198583510Y-128868356D01*
X197776719Y-128763113D01*
X197301855Y-128505001D01*
X197275825Y-128457341D01*
X197238361Y-128037083D01*
X197209987Y-127051329D01*
X197191321Y-125585810D01*
X197182984Y-123726257D01*
X197185595Y-121558403D01*
X197199773Y-119167977D01*
X197204635Y-118606700D01*
X197291166Y-109167074D01*
X198512320Y-109066006D01*
X199733474Y-108964939D01*
X199733474Y-128868356D01*
G37*
G04 #@! TD.AperFunction*
X216772434Y-109063453D02*
X218469498Y-109146283D01*
X219671884Y-109261084D01*
X220536190Y-109436593D01*
X221219010Y-109701548D01*
X221689324Y-109965776D01*
X222951973Y-110963325D01*
X223730079Y-112162832D01*
X224096871Y-113710114D01*
X224149976Y-114865792D01*
X223913490Y-116975774D01*
X223203867Y-118655630D01*
X222007196Y-119918378D01*
X220309564Y-120777039D01*
X218097060Y-121244630D01*
X217258435Y-121314938D01*
X214712961Y-121462293D01*
X214712961Y-128868356D01*
X213627491Y-128868356D01*
X212822859Y-128808780D01*
X212339632Y-128664082D01*
X212324927Y-128651262D01*
X212269248Y-128281924D01*
X212218851Y-127345213D01*
X212175641Y-125925030D01*
X212141520Y-124105276D01*
X212118393Y-121969850D01*
X212108164Y-119602654D01*
X212107833Y-119084725D01*
X212112191Y-116311798D01*
X212127595Y-114120557D01*
X212157535Y-112441449D01*
X212202444Y-111283741D01*
X214712961Y-111283741D01*
X214712961Y-115137160D01*
X214730325Y-116660491D01*
X214777568Y-117938010D01*
X214847415Y-118833300D01*
X214930055Y-119207672D01*
X215448721Y-119376692D01*
X216380697Y-119412673D01*
X217503153Y-119322206D01*
X218593260Y-119111881D01*
X218644834Y-119097805D01*
X220030591Y-118457547D01*
X220942026Y-117410837D01*
X221419032Y-115905190D01*
X221482743Y-115363924D01*
X221538368Y-114298498D01*
X221420245Y-113605014D01*
X221034951Y-113009104D01*
X220483973Y-112430650D01*
X219841839Y-111828796D01*
X219280526Y-111485486D01*
X218581980Y-111328419D01*
X217528150Y-111285296D01*
X217025012Y-111283741D01*
X214712961Y-111283741D01*
X212202444Y-111283741D01*
X212205502Y-111204921D01*
X212274989Y-110341421D01*
X212369487Y-109781397D01*
X212492487Y-109455296D01*
X212597566Y-109328839D01*
X213077616Y-109138656D01*
X213997523Y-109039107D01*
X215434089Y-109025309D01*
X216772434Y-109063453D01*
G04 #@! TA.AperFunction,EtchedComponent*
G36*
X216772434Y-109063453D02*
G01*
X218469498Y-109146283D01*
X219671884Y-109261084D01*
X220536190Y-109436593D01*
X221219010Y-109701548D01*
X221689324Y-109965776D01*
X222951973Y-110963325D01*
X223730079Y-112162832D01*
X224096871Y-113710114D01*
X224149976Y-114865792D01*
X223913490Y-116975774D01*
X223203867Y-118655630D01*
X222007196Y-119918378D01*
X220309564Y-120777039D01*
X218097060Y-121244630D01*
X217258435Y-121314938D01*
X214712961Y-121462293D01*
X214712961Y-128868356D01*
X213627491Y-128868356D01*
X212822859Y-128808780D01*
X212339632Y-128664082D01*
X212324927Y-128651262D01*
X212269248Y-128281924D01*
X212218851Y-127345213D01*
X212175641Y-125925030D01*
X212141520Y-124105276D01*
X212118393Y-121969850D01*
X212108164Y-119602654D01*
X212107833Y-119084725D01*
X212112191Y-116311798D01*
X212127595Y-114120557D01*
X212157535Y-112441449D01*
X212202444Y-111283741D01*
X214712961Y-111283741D01*
X214712961Y-115137160D01*
X214730325Y-116660491D01*
X214777568Y-117938010D01*
X214847415Y-118833300D01*
X214930055Y-119207672D01*
X215448721Y-119376692D01*
X216380697Y-119412673D01*
X217503153Y-119322206D01*
X218593260Y-119111881D01*
X218644834Y-119097805D01*
X220030591Y-118457547D01*
X220942026Y-117410837D01*
X221419032Y-115905190D01*
X221482743Y-115363924D01*
X221538368Y-114298498D01*
X221420245Y-113605014D01*
X221034951Y-113009104D01*
X220483973Y-112430650D01*
X219841839Y-111828796D01*
X219280526Y-111485486D01*
X218581980Y-111328419D01*
X217528150Y-111285296D01*
X217025012Y-111283741D01*
X214712961Y-111283741D01*
X212202444Y-111283741D01*
X212205502Y-111204921D01*
X212274989Y-110341421D01*
X212369487Y-109781397D01*
X212492487Y-109455296D01*
X212597566Y-109328839D01*
X213077616Y-109138656D01*
X213997523Y-109039107D01*
X215434089Y-109025309D01*
X216772434Y-109063453D01*
G37*
G04 #@! TD.AperFunction*
X236775140Y-109066006D02*
X237996294Y-109167074D01*
X238169712Y-126567638D01*
X245486038Y-126751690D01*
X245486038Y-128705536D01*
X240745453Y-128795293D01*
X239049744Y-128812395D01*
X237590497Y-128798761D01*
X236489251Y-128757711D01*
X235867547Y-128692567D01*
X235779427Y-128659609D01*
X235722717Y-128288970D01*
X235671236Y-127349275D01*
X235626846Y-125922741D01*
X235591408Y-124091586D01*
X235566783Y-121938027D01*
X235554832Y-119544281D01*
X235553986Y-118699553D01*
X235553986Y-108964939D01*
X236775140Y-109066006D01*
G04 #@! TA.AperFunction,EtchedComponent*
G36*
X236775140Y-109066006D02*
G01*
X237996294Y-109167074D01*
X238169712Y-126567638D01*
X245486038Y-126751690D01*
X245486038Y-128705536D01*
X240745453Y-128795293D01*
X239049744Y-128812395D01*
X237590497Y-128798761D01*
X236489251Y-128757711D01*
X235867547Y-128692567D01*
X235779427Y-128659609D01*
X235722717Y-128288970D01*
X235671236Y-127349275D01*
X235626846Y-125922741D01*
X235591408Y-124091586D01*
X235566783Y-121938027D01*
X235554832Y-119544281D01*
X235553986Y-118699553D01*
X235553986Y-108964939D01*
X236775140Y-109066006D01*
G37*
G04 #@! TD.AperFunction*
X256964884Y-109066006D02*
X258186038Y-109167074D01*
X258186038Y-128705536D01*
X256964884Y-128806603D01*
X255743730Y-128907671D01*
X255743730Y-108964939D01*
X256964884Y-109066006D01*
G04 #@! TA.AperFunction,EtchedComponent*
G36*
X256964884Y-109066006D02*
G01*
X258186038Y-109167074D01*
X258186038Y-128705536D01*
X256964884Y-128806603D01*
X255743730Y-128907671D01*
X255743730Y-108964939D01*
X256964884Y-109066006D01*
G37*
G04 #@! TD.AperFunction*
X285300459Y-118833904D02*
X285214243Y-128705536D01*
X284074499Y-128801439D01*
X283141336Y-128751393D01*
X282421937Y-128499762D01*
X282388843Y-128475798D01*
X282092989Y-128088758D01*
X281531426Y-127207531D01*
X280750072Y-125909819D01*
X279794845Y-124273324D01*
X278711662Y-122375747D01*
X277546443Y-120294791D01*
X277428567Y-120082112D01*
X273014204Y-112109970D01*
X272839884Y-128705536D01*
X271776744Y-128807937D01*
X270713605Y-128910337D01*
X270799821Y-119038706D01*
X270886038Y-109167074D01*
X272396335Y-109069312D01*
X273401652Y-109063734D01*
X274023819Y-109268611D01*
X274513002Y-109760272D01*
X274833672Y-110258886D01*
X275413533Y-111242227D01*
X276202418Y-112621901D01*
X277150161Y-114309517D01*
X278206598Y-116216681D01*
X279027063Y-117714095D01*
X282934756Y-124879196D01*
X283097576Y-117023135D01*
X283260397Y-109167074D01*
X284323536Y-109064673D01*
X285386676Y-108962272D01*
X285300459Y-118833904D01*
G04 #@! TA.AperFunction,EtchedComponent*
G36*
X285300459Y-118833904D02*
G01*
X285214243Y-128705536D01*
X284074499Y-128801439D01*
X283141336Y-128751393D01*
X282421937Y-128499762D01*
X282388843Y-128475798D01*
X282092989Y-128088758D01*
X281531426Y-127207531D01*
X280750072Y-125909819D01*
X279794845Y-124273324D01*
X278711662Y-122375747D01*
X277546443Y-120294791D01*
X277428567Y-120082112D01*
X273014204Y-112109970D01*
X272839884Y-128705536D01*
X271776744Y-128807937D01*
X270713605Y-128910337D01*
X270799821Y-119038706D01*
X270886038Y-109167074D01*
X272396335Y-109069312D01*
X273401652Y-109063734D01*
X274023819Y-109268611D01*
X274513002Y-109760272D01*
X274833672Y-110258886D01*
X275413533Y-111242227D01*
X276202418Y-112621901D01*
X277150161Y-114309517D01*
X278206598Y-116216681D01*
X279027063Y-117714095D01*
X282934756Y-124879196D01*
X283097576Y-117023135D01*
X283260397Y-109167074D01*
X284323536Y-109064673D01*
X285386676Y-108962272D01*
X285300459Y-118833904D01*
G37*
G04 #@! TD.AperFunction*
X305398825Y-109010163D02*
X306752335Y-109035663D01*
X307653095Y-109092416D01*
X308200349Y-109192082D01*
X308493339Y-109346322D01*
X308631306Y-109566797D01*
X308645836Y-109609660D01*
X308709806Y-110398108D01*
X308632941Y-110749404D01*
X308460338Y-110976086D01*
X308076642Y-111129382D01*
X307374645Y-111222761D01*
X306247144Y-111269690D01*
X304586934Y-111283641D01*
X304380003Y-111283741D01*
X300332111Y-111283741D01*
X300425741Y-114295920D01*
X300519371Y-117308100D01*
X307520653Y-117492954D01*
X307520653Y-119424766D01*
X300356550Y-119424766D01*
X300356550Y-126569411D01*
X304508474Y-126660550D01*
X308660397Y-126751690D01*
X308660397Y-128705536D01*
X303604577Y-128794844D01*
X301455550Y-128815045D01*
X299893268Y-128786238D01*
X298854779Y-128704853D01*
X298277132Y-128567321D01*
X298150090Y-128485485D01*
X298026734Y-128043374D01*
X297924273Y-127053154D01*
X297842750Y-125617629D01*
X297782206Y-123839604D01*
X297742684Y-121821883D01*
X297724226Y-119667270D01*
X297726876Y-117478569D01*
X297750676Y-115358585D01*
X297795668Y-113410122D01*
X297861895Y-111735983D01*
X297949399Y-110438975D01*
X298058223Y-109621899D01*
X298142192Y-109395023D01*
X298603553Y-109221591D01*
X299609906Y-109100337D01*
X301195727Y-109028741D01*
X303395496Y-109004287D01*
X303493324Y-109004254D01*
X305398825Y-109010163D01*
G04 #@! TA.AperFunction,EtchedComponent*
G36*
X305398825Y-109010163D02*
G01*
X306752335Y-109035663D01*
X307653095Y-109092416D01*
X308200349Y-109192082D01*
X308493339Y-109346322D01*
X308631306Y-109566797D01*
X308645836Y-109609660D01*
X308709806Y-110398108D01*
X308632941Y-110749404D01*
X308460338Y-110976086D01*
X308076642Y-111129382D01*
X307374645Y-111222761D01*
X306247144Y-111269690D01*
X304586934Y-111283641D01*
X304380003Y-111283741D01*
X300332111Y-111283741D01*
X300425741Y-114295920D01*
X300519371Y-117308100D01*
X307520653Y-117492954D01*
X307520653Y-119424766D01*
X300356550Y-119424766D01*
X300356550Y-126569411D01*
X304508474Y-126660550D01*
X308660397Y-126751690D01*
X308660397Y-128705536D01*
X303604577Y-128794844D01*
X301455550Y-128815045D01*
X299893268Y-128786238D01*
X298854779Y-128704853D01*
X298277132Y-128567321D01*
X298150090Y-128485485D01*
X298026734Y-128043374D01*
X297924273Y-127053154D01*
X297842750Y-125617629D01*
X297782206Y-123839604D01*
X297742684Y-121821883D01*
X297724226Y-119667270D01*
X297726876Y-117478569D01*
X297750676Y-115358585D01*
X297795668Y-113410122D01*
X297861895Y-111735983D01*
X297949399Y-110438975D01*
X298058223Y-109621899D01*
X298142192Y-109395023D01*
X298603553Y-109221591D01*
X299609906Y-109100337D01*
X301195727Y-109028741D01*
X303395496Y-109004287D01*
X303493324Y-109004254D01*
X305398825Y-109010163D01*
G37*
G04 #@! TD.AperFunction*
D11*
X96808345Y-85763484D02*
G75*
G03*
X96808345Y-152463484I0J-33350000D01*
G01*
X315618345Y-152463484D02*
G75*
G03*
X315618345Y-85763484I0J33350000D01*
G01*
X96878345Y-85733484D02*
X316198345Y-85763484D01*
X96428345Y-152383484D02*
X315748345Y-152413484D01*
D12*
X206213345Y-92373872D03*
X81973322Y-92373872D03*
X330453369Y-92373872D03*
X206213345Y-166958110D03*
X206213345Y-61694750D03*
X206213345Y-80444750D03*
X206213345Y-104302994D03*
X298671968Y-104302994D03*
X113754723Y-104302994D03*
X315860803Y-161146960D03*
X96565888Y-161146960D03*
X354660309Y-80444750D03*
X354660309Y-61694750D03*
X57766382Y-61694750D03*
X57766382Y-80444750D03*
G04 #@! TA.AperFunction,Conductor*
G36*
X355356552Y-57770422D02*
G01*
X355684447Y-57787602D01*
X355697558Y-57788979D01*
X355697769Y-57789013D01*
X356018614Y-57839826D01*
X356031516Y-57842568D01*
X356345492Y-57926693D01*
X356358024Y-57930765D01*
X356496205Y-57983806D01*
X356661498Y-58047254D01*
X356673547Y-58052619D01*
X356963167Y-58200184D01*
X356974588Y-58206778D01*
X357247202Y-58383812D01*
X357257855Y-58391550D01*
X357510482Y-58596121D01*
X357520283Y-58604946D01*
X357750128Y-58834788D01*
X357758953Y-58844589D01*
X357963515Y-59097200D01*
X357971267Y-59107870D01*
X358148300Y-59380474D01*
X358154895Y-59391896D01*
X358302467Y-59681521D01*
X358307831Y-59693570D01*
X358424318Y-59997028D01*
X358428394Y-60009571D01*
X358512523Y-60323545D01*
X358515265Y-60336445D01*
X358566115Y-60657499D01*
X358567493Y-60670616D01*
X358584636Y-60997724D01*
X358584809Y-61004318D01*
X358584809Y-177191869D01*
X358584636Y-177198462D01*
X358567455Y-177526352D01*
X358566077Y-177539469D01*
X358515230Y-177860521D01*
X358512488Y-177873421D01*
X358428361Y-178187398D01*
X358424285Y-178199942D01*
X358307804Y-178503391D01*
X358302440Y-178515439D01*
X358154873Y-178805058D01*
X358148279Y-178816480D01*
X357971241Y-179089096D01*
X357963488Y-179099766D01*
X357758937Y-179352366D01*
X357750112Y-179362168D01*
X357520266Y-179592013D01*
X357510465Y-179600838D01*
X357257852Y-179805399D01*
X357247182Y-179813151D01*
X356974573Y-179990184D01*
X356963151Y-179996778D01*
X356673538Y-180144340D01*
X356661489Y-180149705D01*
X356358022Y-180266191D01*
X356345479Y-180270266D01*
X356031510Y-180354391D01*
X356018609Y-180357133D01*
X355697560Y-180407978D01*
X355684444Y-180409356D01*
X355356360Y-180426546D01*
X355349767Y-180426719D01*
X57120737Y-180426719D01*
X57120477Y-180426678D01*
X57079663Y-180426715D01*
X57073070Y-180426548D01*
X56745164Y-180409664D01*
X56732046Y-180408298D01*
X56410942Y-180357742D01*
X56398039Y-180355011D01*
X56083997Y-180271172D01*
X56071450Y-180267108D01*
X55767886Y-180150899D01*
X55755837Y-180145548D01*
X55678695Y-180106330D01*
X55466078Y-179998241D01*
X55454650Y-179991657D01*
X55181878Y-179814870D01*
X55171201Y-179807127D01*
X54918413Y-179602803D01*
X54908604Y-179593987D01*
X54678549Y-179364350D01*
X54669719Y-179354563D01*
X54464917Y-179102121D01*
X54457173Y-179091482D01*
X54279874Y-178819004D01*
X54273280Y-178807606D01*
X54235142Y-178732923D01*
X54125442Y-178518105D01*
X54120083Y-178506100D01*
X54003306Y-178202702D01*
X53999227Y-178190183D01*
X53914813Y-177876273D01*
X53912065Y-177863403D01*
X53860925Y-177542379D01*
X53859536Y-177529268D01*
X53842061Y-177201448D01*
X53841882Y-177194741D01*
X53841882Y-166958111D01*
X203500395Y-166958111D01*
X203520174Y-167285117D01*
X203520175Y-167285120D01*
X203579225Y-167607348D01*
X203579227Y-167607357D01*
X203676693Y-167920134D01*
X203811148Y-168218882D01*
X203980627Y-168499235D01*
X203980630Y-168499240D01*
X204126637Y-168685605D01*
X204126638Y-168685606D01*
X205275203Y-167537041D01*
X205378239Y-167681734D01*
X205530277Y-167826702D01*
X205636010Y-167894652D01*
X204485847Y-169044815D01*
X204485848Y-169044816D01*
X204672214Y-169190824D01*
X204672219Y-169190827D01*
X204952572Y-169360306D01*
X205251320Y-169494761D01*
X205564097Y-169592227D01*
X205564106Y-169592229D01*
X205886334Y-169651279D01*
X205886337Y-169651280D01*
X206213344Y-169671060D01*
X206213346Y-169671060D01*
X206540352Y-169651280D01*
X206540355Y-169651279D01*
X206862583Y-169592229D01*
X206862592Y-169592227D01*
X207175369Y-169494761D01*
X207474117Y-169360306D01*
X207754472Y-169190826D01*
X207940840Y-169044815D01*
X207940841Y-169044815D01*
X206792919Y-167896893D01*
X206810755Y-167887699D01*
X206975885Y-167757839D01*
X207113455Y-167599075D01*
X207150080Y-167535636D01*
X208300050Y-168685606D01*
X208300050Y-168685605D01*
X208446061Y-168499237D01*
X208615541Y-168218882D01*
X208749996Y-167920134D01*
X208847462Y-167607357D01*
X208847464Y-167607348D01*
X208906514Y-167285120D01*
X208906515Y-167285117D01*
X208926295Y-166958111D01*
X208926295Y-166958108D01*
X208906515Y-166631102D01*
X208906514Y-166631099D01*
X208847464Y-166308871D01*
X208847462Y-166308862D01*
X208749996Y-165996085D01*
X208615541Y-165697337D01*
X208446062Y-165416984D01*
X208446059Y-165416979D01*
X208300051Y-165230613D01*
X208300050Y-165230612D01*
X207151485Y-166379177D01*
X207048451Y-166234486D01*
X206896413Y-166089518D01*
X206790678Y-166021566D01*
X207940841Y-164871403D01*
X207940840Y-164871402D01*
X207754475Y-164725395D01*
X207754470Y-164725392D01*
X207474117Y-164555913D01*
X207175369Y-164421458D01*
X206862592Y-164323992D01*
X206862583Y-164323990D01*
X206540355Y-164264940D01*
X206540352Y-164264939D01*
X206213346Y-164245160D01*
X206213344Y-164245160D01*
X205886337Y-164264939D01*
X205886334Y-164264940D01*
X205564106Y-164323990D01*
X205564097Y-164323992D01*
X205251320Y-164421458D01*
X204952572Y-164555913D01*
X204672222Y-164725390D01*
X204485847Y-164871403D01*
X205633770Y-166019326D01*
X205615935Y-166028521D01*
X205450805Y-166158381D01*
X205313235Y-166317145D01*
X205276609Y-166380583D01*
X204126638Y-165230612D01*
X203980625Y-165416987D01*
X203811148Y-165697337D01*
X203676693Y-165996085D01*
X203579227Y-166308862D01*
X203579225Y-166308871D01*
X203520175Y-166631099D01*
X203520174Y-166631102D01*
X203500395Y-166958108D01*
X203500395Y-166958111D01*
X53841882Y-166958111D01*
X53841882Y-161146961D01*
X93852437Y-161146961D01*
X93872220Y-161474027D01*
X93872221Y-161474030D01*
X93931284Y-161796330D01*
X94028768Y-162109167D01*
X94163244Y-162407963D01*
X94332759Y-162688372D01*
X94534842Y-162946312D01*
X94534847Y-162946318D01*
X94766529Y-163178000D01*
X94766535Y-163178005D01*
X94766537Y-163178007D01*
X95024472Y-163380086D01*
X95024475Y-163380088D01*
X95304884Y-163549603D01*
X95603680Y-163684079D01*
X95603681Y-163684079D01*
X95603685Y-163684081D01*
X95916517Y-163781563D01*
X96238818Y-163840627D01*
X96456864Y-163853816D01*
X96565887Y-163860411D01*
X96565888Y-163860411D01*
X96565889Y-163860411D01*
X96647655Y-163855465D01*
X96892958Y-163840627D01*
X97215259Y-163781563D01*
X97528091Y-163684081D01*
X97607707Y-163648248D01*
X97826891Y-163549603D01*
X97963196Y-163467202D01*
X98107304Y-163380086D01*
X98365239Y-163178007D01*
X98596935Y-162946311D01*
X98799014Y-162688376D01*
X98968530Y-162407964D01*
X98968531Y-162407963D01*
X99103007Y-162109167D01*
X99103009Y-162109163D01*
X99200491Y-161796331D01*
X99259555Y-161474030D01*
X99279339Y-161146961D01*
X313147352Y-161146961D01*
X313167135Y-161474027D01*
X313167136Y-161474030D01*
X313226199Y-161796330D01*
X313323683Y-162109167D01*
X313458159Y-162407963D01*
X313627674Y-162688372D01*
X313829757Y-162946312D01*
X313829762Y-162946318D01*
X314061444Y-163178000D01*
X314061450Y-163178005D01*
X314061452Y-163178007D01*
X314319387Y-163380086D01*
X314319390Y-163380088D01*
X314599799Y-163549603D01*
X314898595Y-163684079D01*
X314898596Y-163684079D01*
X314898600Y-163684081D01*
X315211432Y-163781563D01*
X315533733Y-163840627D01*
X315751779Y-163853816D01*
X315860802Y-163860411D01*
X315860803Y-163860411D01*
X315860804Y-163860411D01*
X315942570Y-163855465D01*
X316187873Y-163840627D01*
X316510174Y-163781563D01*
X316823006Y-163684081D01*
X316902622Y-163648248D01*
X317121806Y-163549603D01*
X317258111Y-163467202D01*
X317402219Y-163380086D01*
X317660154Y-163178007D01*
X317891850Y-162946311D01*
X318093929Y-162688376D01*
X318263445Y-162407964D01*
X318263446Y-162407963D01*
X318397922Y-162109167D01*
X318397924Y-162109163D01*
X318495406Y-161796331D01*
X318554470Y-161474030D01*
X318574254Y-161146960D01*
X318554470Y-160819890D01*
X318495406Y-160497589D01*
X318397924Y-160184757D01*
X318397922Y-160184752D01*
X318263446Y-159885956D01*
X318093931Y-159605547D01*
X317891848Y-159347607D01*
X317891843Y-159347601D01*
X317660161Y-159115919D01*
X317660155Y-159115914D01*
X317402215Y-158913831D01*
X317121806Y-158744316D01*
X316823010Y-158609840D01*
X316510173Y-158512356D01*
X316187873Y-158453293D01*
X316187870Y-158453292D01*
X315860804Y-158433509D01*
X315860802Y-158433509D01*
X315533735Y-158453292D01*
X315533732Y-158453293D01*
X315211432Y-158512356D01*
X314898595Y-158609840D01*
X314599799Y-158744316D01*
X314319390Y-158913831D01*
X314061450Y-159115914D01*
X314061444Y-159115919D01*
X313829762Y-159347601D01*
X313829757Y-159347607D01*
X313627674Y-159605547D01*
X313458159Y-159885956D01*
X313323683Y-160184752D01*
X313226199Y-160497589D01*
X313167136Y-160819889D01*
X313167135Y-160819892D01*
X313147352Y-161146958D01*
X313147352Y-161146961D01*
X99279339Y-161146961D01*
X99279339Y-161146960D01*
X99259555Y-160819890D01*
X99200491Y-160497589D01*
X99103009Y-160184757D01*
X99103007Y-160184752D01*
X98968531Y-159885956D01*
X98799016Y-159605547D01*
X98596933Y-159347607D01*
X98596928Y-159347601D01*
X98365246Y-159115919D01*
X98365240Y-159115914D01*
X98107300Y-158913831D01*
X97826891Y-158744316D01*
X97528095Y-158609840D01*
X97215258Y-158512356D01*
X96892958Y-158453293D01*
X96892955Y-158453292D01*
X96565889Y-158433509D01*
X96565887Y-158433509D01*
X96238820Y-158453292D01*
X96238817Y-158453293D01*
X95916517Y-158512356D01*
X95603680Y-158609840D01*
X95304884Y-158744316D01*
X95024475Y-158913831D01*
X94766535Y-159115914D01*
X94766529Y-159115919D01*
X94534847Y-159347601D01*
X94534842Y-159347607D01*
X94332759Y-159605547D01*
X94163244Y-159885956D01*
X94028768Y-160184752D01*
X93931284Y-160497589D01*
X93872221Y-160819889D01*
X93872220Y-160819892D01*
X93852437Y-161146958D01*
X93852437Y-161146961D01*
X53841882Y-161146961D01*
X53841882Y-119704401D01*
X61449845Y-119704401D01*
X61489336Y-120885574D01*
X61495209Y-120973299D01*
X61568275Y-122064785D01*
X61686569Y-123240653D01*
X61844094Y-124411959D01*
X62040668Y-125577335D01*
X62276068Y-126735460D01*
X62276071Y-126735473D01*
X62276072Y-126735477D01*
X62550045Y-127885116D01*
X62683493Y-128372279D01*
X62862278Y-129024953D01*
X63212432Y-130153744D01*
X63600094Y-131270159D01*
X63600099Y-131270172D01*
X64024859Y-132373036D01*
X64078722Y-132500060D01*
X64486238Y-133461101D01*
X64983710Y-134533124D01*
X65516719Y-135587913D01*
X66084689Y-136624328D01*
X66084693Y-136624334D01*
X66084695Y-136624338D01*
X66686977Y-137641190D01*
X67322901Y-138637348D01*
X67586467Y-139021297D01*
X67991751Y-139611693D01*
X68692803Y-140563169D01*
X69425238Y-141490663D01*
X70188257Y-142393167D01*
X70981016Y-143269679D01*
X71802618Y-144119210D01*
X72652149Y-144940812D01*
X73528661Y-145733571D01*
X74431165Y-146496590D01*
X75358659Y-147229025D01*
X75358670Y-147229033D01*
X76310129Y-147930073D01*
X77284481Y-148598928D01*
X78280639Y-149234852D01*
X79297491Y-149837134D01*
X80333721Y-150405003D01*
X80333915Y-150405109D01*
X81388704Y-150938118D01*
X82460727Y-151435590D01*
X82460739Y-151435595D01*
X83548793Y-151896970D01*
X84651657Y-152321730D01*
X84651669Y-152321734D01*
X85768084Y-152709396D01*
X85768089Y-152709397D01*
X85768099Y-152709401D01*
X86896871Y-153059549D01*
X88036713Y-153371784D01*
X89186352Y-153645757D01*
X90211927Y-153854214D01*
X90344468Y-153881155D01*
X90344503Y-153881162D01*
X91509874Y-154077735D01*
X92681163Y-154235258D01*
X93857061Y-154353555D01*
X95036255Y-154432493D01*
X96217428Y-154471984D01*
X96217438Y-154471984D01*
X96945730Y-154471984D01*
X96945740Y-154471983D01*
X97041747Y-154458786D01*
X97217941Y-154434569D01*
X97352785Y-154396786D01*
X97386791Y-154392114D01*
X315146241Y-154421901D01*
X315180210Y-154426572D01*
X315208748Y-154434569D01*
X315303849Y-154447640D01*
X315480949Y-154471983D01*
X315480960Y-154471984D01*
X315670470Y-154471984D01*
X315670544Y-154471976D01*
X316209251Y-154471976D01*
X316209261Y-154471976D01*
X317390435Y-154432485D01*
X318569629Y-154353547D01*
X319745527Y-154235251D01*
X320916816Y-154077728D01*
X322082186Y-153881155D01*
X323240338Y-153645750D01*
X324389977Y-153371778D01*
X325529819Y-153059543D01*
X326658591Y-152709395D01*
X327775032Y-152321724D01*
X328877896Y-151896964D01*
X329965951Y-151435589D01*
X331037982Y-150938114D01*
X332092790Y-150405096D01*
X333129199Y-149837128D01*
X334146051Y-149234846D01*
X335142209Y-148598923D01*
X336116561Y-147930068D01*
X337068020Y-147229028D01*
X337995522Y-146496587D01*
X338898032Y-145733562D01*
X339774541Y-144940807D01*
X340624071Y-144119205D01*
X341445673Y-143269675D01*
X342238429Y-142393166D01*
X343001454Y-141490657D01*
X343733895Y-140563154D01*
X344434935Y-139611696D01*
X345103790Y-138637343D01*
X345739714Y-137641185D01*
X346341996Y-136624334D01*
X346909963Y-135587925D01*
X347442982Y-134533116D01*
X347940457Y-133461086D01*
X348401832Y-132373031D01*
X348826592Y-131270167D01*
X349214263Y-130153726D01*
X349564411Y-129024954D01*
X349876646Y-127885112D01*
X350150619Y-126735473D01*
X350386024Y-125577322D01*
X350582597Y-124411951D01*
X350740120Y-123240662D01*
X350858417Y-122064764D01*
X350937355Y-120885570D01*
X350976846Y-119704397D01*
X350976846Y-118522563D01*
X350937355Y-117341390D01*
X350858417Y-116162196D01*
X350740120Y-114986298D01*
X350582597Y-113815009D01*
X350386024Y-112649638D01*
X350383072Y-112635117D01*
X350335058Y-112398892D01*
X350150619Y-111491487D01*
X349876646Y-110341848D01*
X349564411Y-109202006D01*
X349214263Y-108073234D01*
X349106667Y-107763373D01*
X348826596Y-106956805D01*
X348826593Y-106956796D01*
X348826592Y-106956793D01*
X348401832Y-105853929D01*
X347940457Y-104765874D01*
X347940452Y-104765862D01*
X347475156Y-103763178D01*
X347442982Y-103693844D01*
X347264574Y-103340786D01*
X346909971Y-102639050D01*
X346708793Y-102271947D01*
X346341996Y-101602626D01*
X345739714Y-100585775D01*
X345103790Y-99589617D01*
X344434935Y-98615264D01*
X343733895Y-97663806D01*
X343733889Y-97663798D01*
X343733887Y-97663795D01*
X343001452Y-96736300D01*
X342238432Y-95833797D01*
X341445673Y-94957285D01*
X340624071Y-94107754D01*
X339774540Y-93286152D01*
X338898028Y-92493394D01*
X337995524Y-91730374D01*
X337068030Y-90997939D01*
X336116554Y-90296887D01*
X335642151Y-89971228D01*
X335142209Y-89628037D01*
X334692648Y-89341048D01*
X334146077Y-88992130D01*
X334146064Y-88992122D01*
X334146051Y-88992114D01*
X333244807Y-88458307D01*
X333129189Y-88389826D01*
X332092774Y-87821855D01*
X331037986Y-87288847D01*
X329965962Y-86791375D01*
X329301787Y-86509741D01*
X328877896Y-86329996D01*
X327775032Y-85905236D01*
X327775031Y-85905235D01*
X327775019Y-85905231D01*
X326658605Y-85517569D01*
X325529814Y-85167415D01*
X324913077Y-84998474D01*
X324389977Y-84855182D01*
X323240338Y-84581210D01*
X323240336Y-84581209D01*
X323240321Y-84581206D01*
X322082195Y-84345806D01*
X320916820Y-84149232D01*
X319745514Y-83991707D01*
X318569646Y-83873414D01*
X317775574Y-83820257D01*
X317390435Y-83794475D01*
X316386057Y-83760894D01*
X316372718Y-83759736D01*
X316365525Y-83758724D01*
X316339071Y-83755003D01*
X316210990Y-83754985D01*
X316210900Y-83754984D01*
X316209261Y-83754984D01*
X316200166Y-83754984D01*
X96808482Y-83724974D01*
X96808481Y-83724974D01*
X96808474Y-83724974D01*
X96808460Y-83724975D01*
X96598411Y-83739634D01*
X96598409Y-83739634D01*
X96553621Y-83749147D01*
X96539091Y-83752234D01*
X96512913Y-83754984D01*
X96217428Y-83754984D01*
X95036255Y-83794475D01*
X93857043Y-83873414D01*
X92681175Y-83991708D01*
X91509869Y-84149233D01*
X90344493Y-84345807D01*
X89186368Y-84581207D01*
X88918924Y-84644942D01*
X88036713Y-84855184D01*
X87781620Y-84925061D01*
X86896875Y-85167417D01*
X85768084Y-85517571D01*
X84651669Y-85905233D01*
X83548793Y-86329998D01*
X82460727Y-86791377D01*
X81388704Y-87288849D01*
X80333915Y-87821858D01*
X79297500Y-88389828D01*
X78891700Y-88630183D01*
X78280639Y-88992116D01*
X78280617Y-88992129D01*
X78280612Y-88992133D01*
X77284497Y-89628029D01*
X76310135Y-90296890D01*
X75358659Y-90997942D01*
X74431165Y-91730377D01*
X73528661Y-92493396D01*
X72652149Y-93286155D01*
X71802618Y-94107757D01*
X70981016Y-94957288D01*
X70188257Y-95833800D01*
X69425238Y-96736304D01*
X68692803Y-97663798D01*
X67991751Y-98615274D01*
X67322890Y-99589636D01*
X66686996Y-100585748D01*
X66686977Y-100585778D01*
X66464765Y-100960946D01*
X66084689Y-101602639D01*
X65516719Y-102639054D01*
X64983710Y-103693843D01*
X64486238Y-104765866D01*
X64024859Y-105853932D01*
X63600094Y-106956808D01*
X63212432Y-108073223D01*
X62862278Y-109202014D01*
X62640398Y-110012010D01*
X62550045Y-110341852D01*
X62360363Y-111137793D01*
X62276068Y-111491507D01*
X62040668Y-112649632D01*
X61844094Y-113815008D01*
X61686569Y-114986314D01*
X61568275Y-116162182D01*
X61498210Y-117208833D01*
X61489336Y-117341394D01*
X61449845Y-118522567D01*
X61449845Y-119704401D01*
X53841882Y-119704401D01*
X53841882Y-80444751D01*
X55052931Y-80444751D01*
X55072714Y-80771817D01*
X55072715Y-80771820D01*
X55131778Y-81094120D01*
X55229262Y-81406957D01*
X55363738Y-81705753D01*
X55533253Y-81986162D01*
X55735336Y-82244102D01*
X55735341Y-82244108D01*
X55967023Y-82475790D01*
X55967029Y-82475795D01*
X55967031Y-82475797D01*
X56224966Y-82677876D01*
X56224969Y-82677878D01*
X56505378Y-82847393D01*
X56804174Y-82981869D01*
X56804175Y-82981869D01*
X56804179Y-82981871D01*
X57117011Y-83079353D01*
X57439312Y-83138417D01*
X57657358Y-83151606D01*
X57766381Y-83158201D01*
X57766382Y-83158201D01*
X57766383Y-83158201D01*
X57848149Y-83153255D01*
X58093452Y-83138417D01*
X58415753Y-83079353D01*
X58728585Y-82981871D01*
X58808201Y-82946038D01*
X59027385Y-82847393D01*
X59163690Y-82764992D01*
X59307798Y-82677876D01*
X59565733Y-82475797D01*
X59797429Y-82244101D01*
X59999508Y-81986166D01*
X60169024Y-81705754D01*
X60169025Y-81705753D01*
X60303501Y-81406957D01*
X60303503Y-81406953D01*
X60400985Y-81094121D01*
X60460049Y-80771820D01*
X60479833Y-80444751D01*
X203499894Y-80444751D01*
X203519677Y-80771817D01*
X203519678Y-80771820D01*
X203578741Y-81094120D01*
X203676225Y-81406957D01*
X203810701Y-81705753D01*
X203980216Y-81986162D01*
X204182299Y-82244102D01*
X204182304Y-82244108D01*
X204413986Y-82475790D01*
X204413992Y-82475795D01*
X204413994Y-82475797D01*
X204671929Y-82677876D01*
X204671932Y-82677878D01*
X204952341Y-82847393D01*
X205251137Y-82981869D01*
X205251138Y-82981869D01*
X205251142Y-82981871D01*
X205563974Y-83079353D01*
X205886275Y-83138417D01*
X206104321Y-83151606D01*
X206213344Y-83158201D01*
X206213345Y-83158201D01*
X206213346Y-83158201D01*
X206295112Y-83153255D01*
X206540415Y-83138417D01*
X206862716Y-83079353D01*
X207175548Y-82981871D01*
X207255164Y-82946038D01*
X207474348Y-82847393D01*
X207610653Y-82764992D01*
X207754761Y-82677876D01*
X208012696Y-82475797D01*
X208244392Y-82244101D01*
X208446471Y-81986166D01*
X208615987Y-81705754D01*
X208615988Y-81705753D01*
X208750464Y-81406957D01*
X208750466Y-81406953D01*
X208847948Y-81094121D01*
X208907012Y-80771820D01*
X208926796Y-80444751D01*
X351946858Y-80444751D01*
X351966641Y-80771817D01*
X351966642Y-80771820D01*
X352025705Y-81094120D01*
X352123189Y-81406957D01*
X352257665Y-81705753D01*
X352427180Y-81986162D01*
X352629263Y-82244102D01*
X352629268Y-82244108D01*
X352860950Y-82475790D01*
X352860956Y-82475795D01*
X352860958Y-82475797D01*
X353118893Y-82677876D01*
X353118896Y-82677878D01*
X353399305Y-82847393D01*
X353698101Y-82981869D01*
X353698102Y-82981869D01*
X353698106Y-82981871D01*
X354010938Y-83079353D01*
X354333239Y-83138417D01*
X354551285Y-83151606D01*
X354660308Y-83158201D01*
X354660309Y-83158201D01*
X354660310Y-83158201D01*
X354742076Y-83153255D01*
X354987379Y-83138417D01*
X355309680Y-83079353D01*
X355622512Y-82981871D01*
X355702128Y-82946038D01*
X355921312Y-82847393D01*
X356057617Y-82764992D01*
X356201725Y-82677876D01*
X356459660Y-82475797D01*
X356691356Y-82244101D01*
X356893435Y-81986166D01*
X357062951Y-81705754D01*
X357062952Y-81705753D01*
X357197428Y-81406957D01*
X357197430Y-81406953D01*
X357294912Y-81094121D01*
X357353976Y-80771820D01*
X357373760Y-80444750D01*
X357353976Y-80117680D01*
X357294912Y-79795379D01*
X357197430Y-79482547D01*
X357197428Y-79482542D01*
X357062952Y-79183746D01*
X356893437Y-78903337D01*
X356691354Y-78645397D01*
X356691349Y-78645391D01*
X356459667Y-78413709D01*
X356459661Y-78413704D01*
X356201721Y-78211621D01*
X355921312Y-78042106D01*
X355622516Y-77907630D01*
X355309679Y-77810146D01*
X354987379Y-77751083D01*
X354987376Y-77751082D01*
X354660310Y-77731299D01*
X354660308Y-77731299D01*
X354333241Y-77751082D01*
X354333238Y-77751083D01*
X354010938Y-77810146D01*
X353698101Y-77907630D01*
X353399305Y-78042106D01*
X353118896Y-78211621D01*
X352860956Y-78413704D01*
X352860950Y-78413709D01*
X352629268Y-78645391D01*
X352629263Y-78645397D01*
X352427180Y-78903337D01*
X352257665Y-79183746D01*
X352123189Y-79482542D01*
X352025705Y-79795379D01*
X351966642Y-80117679D01*
X351966641Y-80117682D01*
X351946858Y-80444748D01*
X351946858Y-80444751D01*
X208926796Y-80444751D01*
X208926796Y-80444750D01*
X208907012Y-80117680D01*
X208847948Y-79795379D01*
X208750466Y-79482547D01*
X208750464Y-79482542D01*
X208615988Y-79183746D01*
X208446473Y-78903337D01*
X208244390Y-78645397D01*
X208244385Y-78645391D01*
X208012703Y-78413709D01*
X208012697Y-78413704D01*
X207754757Y-78211621D01*
X207474348Y-78042106D01*
X207175552Y-77907630D01*
X206862715Y-77810146D01*
X206540415Y-77751083D01*
X206540412Y-77751082D01*
X206213346Y-77731299D01*
X206213344Y-77731299D01*
X205886277Y-77751082D01*
X205886274Y-77751083D01*
X205563974Y-77810146D01*
X205251137Y-77907630D01*
X204952341Y-78042106D01*
X204671932Y-78211621D01*
X204413992Y-78413704D01*
X204413986Y-78413709D01*
X204182304Y-78645391D01*
X204182299Y-78645397D01*
X203980216Y-78903337D01*
X203810701Y-79183746D01*
X203676225Y-79482542D01*
X203578741Y-79795379D01*
X203519678Y-80117679D01*
X203519677Y-80117682D01*
X203499894Y-80444748D01*
X203499894Y-80444751D01*
X60479833Y-80444751D01*
X60479833Y-80444750D01*
X60460049Y-80117680D01*
X60400985Y-79795379D01*
X60303503Y-79482547D01*
X60303501Y-79482542D01*
X60169025Y-79183746D01*
X59999510Y-78903337D01*
X59797427Y-78645397D01*
X59797422Y-78645391D01*
X59565740Y-78413709D01*
X59565734Y-78413704D01*
X59307794Y-78211621D01*
X59027385Y-78042106D01*
X58728589Y-77907630D01*
X58415752Y-77810146D01*
X58093452Y-77751083D01*
X58093449Y-77751082D01*
X57766383Y-77731299D01*
X57766381Y-77731299D01*
X57439314Y-77751082D01*
X57439311Y-77751083D01*
X57117011Y-77810146D01*
X56804174Y-77907630D01*
X56505378Y-78042106D01*
X56224969Y-78211621D01*
X55967029Y-78413704D01*
X55967023Y-78413709D01*
X55735341Y-78645391D01*
X55735336Y-78645397D01*
X55533253Y-78903337D01*
X55363738Y-79183746D01*
X55229262Y-79482542D01*
X55131778Y-79795379D01*
X55072715Y-80117679D01*
X55072714Y-80117682D01*
X55052931Y-80444748D01*
X55052931Y-80444751D01*
X53841882Y-80444751D01*
X53841882Y-61694751D01*
X55052931Y-61694751D01*
X55072714Y-62021817D01*
X55072715Y-62021820D01*
X55131778Y-62344120D01*
X55229262Y-62656957D01*
X55363738Y-62955753D01*
X55533253Y-63236162D01*
X55735336Y-63494102D01*
X55735341Y-63494108D01*
X55967023Y-63725790D01*
X55967029Y-63725795D01*
X55967031Y-63725797D01*
X56224966Y-63927876D01*
X56224969Y-63927878D01*
X56505378Y-64097393D01*
X56804174Y-64231869D01*
X56804175Y-64231869D01*
X56804179Y-64231871D01*
X57117011Y-64329353D01*
X57439312Y-64388417D01*
X57657358Y-64401606D01*
X57766381Y-64408201D01*
X57766382Y-64408201D01*
X57766383Y-64408201D01*
X57848149Y-64403255D01*
X58093452Y-64388417D01*
X58415753Y-64329353D01*
X58728585Y-64231871D01*
X58808201Y-64196038D01*
X59027385Y-64097393D01*
X59163690Y-64014992D01*
X59307798Y-63927876D01*
X59565733Y-63725797D01*
X59797429Y-63494101D01*
X59999508Y-63236166D01*
X60169024Y-62955754D01*
X60169025Y-62955753D01*
X60303501Y-62656957D01*
X60303503Y-62656953D01*
X60400985Y-62344121D01*
X60460049Y-62021820D01*
X60479833Y-61694751D01*
X203499894Y-61694751D01*
X203519677Y-62021817D01*
X203519678Y-62021820D01*
X203578741Y-62344120D01*
X203676225Y-62656957D01*
X203810701Y-62955753D01*
X203980216Y-63236162D01*
X204182299Y-63494102D01*
X204182304Y-63494108D01*
X204413986Y-63725790D01*
X204413992Y-63725795D01*
X204413994Y-63725797D01*
X204671929Y-63927876D01*
X204671932Y-63927878D01*
X204952341Y-64097393D01*
X205251137Y-64231869D01*
X205251138Y-64231869D01*
X205251142Y-64231871D01*
X205563974Y-64329353D01*
X205886275Y-64388417D01*
X206104321Y-64401606D01*
X206213344Y-64408201D01*
X206213345Y-64408201D01*
X206213346Y-64408201D01*
X206295112Y-64403255D01*
X206540415Y-64388417D01*
X206862716Y-64329353D01*
X207175548Y-64231871D01*
X207255164Y-64196038D01*
X207474348Y-64097393D01*
X207610653Y-64014992D01*
X207754761Y-63927876D01*
X208012696Y-63725797D01*
X208244392Y-63494101D01*
X208446471Y-63236166D01*
X208615987Y-62955754D01*
X208615988Y-62955753D01*
X208750464Y-62656957D01*
X208750466Y-62656953D01*
X208847948Y-62344121D01*
X208907012Y-62021820D01*
X208926796Y-61694751D01*
X351946858Y-61694751D01*
X351966641Y-62021817D01*
X351966642Y-62021820D01*
X352025705Y-62344120D01*
X352123189Y-62656957D01*
X352257665Y-62955753D01*
X352427180Y-63236162D01*
X352629263Y-63494102D01*
X352629268Y-63494108D01*
X352860950Y-63725790D01*
X352860956Y-63725795D01*
X352860958Y-63725797D01*
X353118893Y-63927876D01*
X353118896Y-63927878D01*
X353399305Y-64097393D01*
X353698101Y-64231869D01*
X353698102Y-64231869D01*
X353698106Y-64231871D01*
X354010938Y-64329353D01*
X354333239Y-64388417D01*
X354551285Y-64401606D01*
X354660308Y-64408201D01*
X354660309Y-64408201D01*
X354660310Y-64408201D01*
X354742076Y-64403255D01*
X354987379Y-64388417D01*
X355309680Y-64329353D01*
X355622512Y-64231871D01*
X355702128Y-64196038D01*
X355921312Y-64097393D01*
X356057617Y-64014992D01*
X356201725Y-63927876D01*
X356459660Y-63725797D01*
X356691356Y-63494101D01*
X356893435Y-63236166D01*
X357062951Y-62955754D01*
X357062952Y-62955753D01*
X357197428Y-62656957D01*
X357197430Y-62656953D01*
X357294912Y-62344121D01*
X357353976Y-62021820D01*
X357373760Y-61694750D01*
X357353976Y-61367680D01*
X357294912Y-61045379D01*
X357197430Y-60732547D01*
X357169559Y-60670620D01*
X357062952Y-60433746D01*
X356893437Y-60153337D01*
X356893435Y-60153334D01*
X356691356Y-59895399D01*
X356691354Y-59895397D01*
X356691349Y-59895391D01*
X356459667Y-59663709D01*
X356459661Y-59663704D01*
X356204807Y-59464039D01*
X356201725Y-59461624D01*
X356201724Y-59461623D01*
X356201721Y-59461621D01*
X355921312Y-59292106D01*
X355622516Y-59157630D01*
X355309679Y-59060146D01*
X354987379Y-59001083D01*
X354987376Y-59001082D01*
X354660310Y-58981299D01*
X354660308Y-58981299D01*
X354333241Y-59001082D01*
X354333238Y-59001083D01*
X354010938Y-59060146D01*
X353698101Y-59157630D01*
X353399305Y-59292106D01*
X353118896Y-59461621D01*
X352860956Y-59663704D01*
X352860950Y-59663709D01*
X352629268Y-59895391D01*
X352629263Y-59895397D01*
X352427180Y-60153337D01*
X352257665Y-60433746D01*
X352123189Y-60732542D01*
X352025705Y-61045379D01*
X351966642Y-61367679D01*
X351966641Y-61367682D01*
X351946858Y-61694748D01*
X351946858Y-61694751D01*
X208926796Y-61694751D01*
X208926796Y-61694750D01*
X208907012Y-61367680D01*
X208847948Y-61045379D01*
X208750466Y-60732547D01*
X208722595Y-60670620D01*
X208615988Y-60433746D01*
X208446473Y-60153337D01*
X208446471Y-60153334D01*
X208244392Y-59895399D01*
X208244390Y-59895397D01*
X208244385Y-59895391D01*
X208012703Y-59663709D01*
X208012697Y-59663704D01*
X207757843Y-59464039D01*
X207754761Y-59461624D01*
X207754760Y-59461623D01*
X207754757Y-59461621D01*
X207474348Y-59292106D01*
X207175552Y-59157630D01*
X206862715Y-59060146D01*
X206540415Y-59001083D01*
X206540412Y-59001082D01*
X206213346Y-58981299D01*
X206213344Y-58981299D01*
X205886277Y-59001082D01*
X205886274Y-59001083D01*
X205563974Y-59060146D01*
X205251137Y-59157630D01*
X204952341Y-59292106D01*
X204671932Y-59461621D01*
X204413992Y-59663704D01*
X204413986Y-59663709D01*
X204182304Y-59895391D01*
X204182299Y-59895397D01*
X203980216Y-60153337D01*
X203810701Y-60433746D01*
X203676225Y-60732542D01*
X203578741Y-61045379D01*
X203519678Y-61367679D01*
X203519677Y-61367682D01*
X203499894Y-61694748D01*
X203499894Y-61694751D01*
X60479833Y-61694751D01*
X60479833Y-61694750D01*
X60460049Y-61367680D01*
X60400985Y-61045379D01*
X60303503Y-60732547D01*
X60275632Y-60670620D01*
X60169025Y-60433746D01*
X59999510Y-60153337D01*
X59999508Y-60153334D01*
X59797429Y-59895399D01*
X59797427Y-59895397D01*
X59797422Y-59895391D01*
X59565740Y-59663709D01*
X59565734Y-59663704D01*
X59310880Y-59464039D01*
X59307798Y-59461624D01*
X59307797Y-59461623D01*
X59307794Y-59461621D01*
X59027385Y-59292106D01*
X58728589Y-59157630D01*
X58415752Y-59060146D01*
X58093452Y-59001083D01*
X58093449Y-59001082D01*
X57766383Y-58981299D01*
X57766381Y-58981299D01*
X57439314Y-59001082D01*
X57439311Y-59001083D01*
X57117011Y-59060146D01*
X56804174Y-59157630D01*
X56505378Y-59292106D01*
X56224969Y-59461621D01*
X55967029Y-59663704D01*
X55967023Y-59663709D01*
X55735341Y-59895391D01*
X55735336Y-59895397D01*
X55533253Y-60153337D01*
X55363738Y-60433746D01*
X55229262Y-60732542D01*
X55131778Y-61045379D01*
X55072715Y-61367679D01*
X55072714Y-61367682D01*
X55052931Y-61694748D01*
X55052931Y-61694751D01*
X53841882Y-61694751D01*
X53841882Y-61005101D01*
X53842055Y-60998507D01*
X53859238Y-60670620D01*
X53860616Y-60657503D01*
X53896056Y-60433746D01*
X53911465Y-60336449D01*
X53914207Y-60323553D01*
X53967372Y-60125139D01*
X53998338Y-60009571D01*
X54002412Y-59997035D01*
X54002415Y-59997028D01*
X54118902Y-59693570D01*
X54124250Y-59681555D01*
X54271841Y-59391896D01*
X54278416Y-59380507D01*
X54455463Y-59107880D01*
X54463198Y-59097234D01*
X54667776Y-58844602D01*
X54676582Y-58834822D01*
X54906443Y-58604964D01*
X54916225Y-58596156D01*
X55168855Y-58391583D01*
X55179507Y-58383843D01*
X55452140Y-58206796D01*
X55463533Y-58200219D01*
X55753167Y-58052646D01*
X55765200Y-58047288D01*
X56068678Y-57930797D01*
X56081211Y-57926725D01*
X56395204Y-57842594D01*
X56408063Y-57839861D01*
X56729139Y-57789012D01*
X56742241Y-57787635D01*
X56927458Y-57777930D01*
X57070754Y-57770423D01*
X57077347Y-57770250D01*
X57097971Y-57770250D01*
X355328720Y-57770250D01*
X355349961Y-57770250D01*
X355356552Y-57770422D01*
G37*
G04 #@! TD.AperFunction*
M02*
