%TF.GenerationSoftware,KiCad,Pcbnew,7.0.10*%
%TF.CreationDate,2024-01-29T11:57:05+01:00*%
%TF.ProjectId,discipline-pcb,64697363-6970-46c6-996e-652d7063622e,rev?*%
%TF.SameCoordinates,Original*%
%TF.FileFunction,Drillmap*%
%TF.FilePolarity,Positive*%
%FSLAX45Y45*%
G04 Gerber Fmt 4.5, Leading zero omitted, Abs format (unit mm)*
G04 Created by KiCad (PCBNEW 7.0.10) date 2024-01-29 11:57:05*
%MOMM*%
%LPD*%
G01*
G04 APERTURE LIST*
%ADD10C,0.150000*%
%ADD11C,0.200000*%
G04 APERTURE END LIST*
D10*
X35535325Y-18050222D02*
X5707644Y-18050222D01*
X35866031Y-6100181D02*
X35866031Y-17719516D01*
X5707344Y-5769475D02*
X35535325Y-5769475D01*
X5376638Y-17719816D02*
X5376638Y-6100181D01*
X35866031Y-6100181D02*
G75*
G03*
X35535325Y-5769475I-330706J0D01*
G01*
X35535325Y-18050222D02*
G75*
G03*
X35866031Y-17719516I0J330706D01*
G01*
X5376638Y-17719816D02*
G75*
G03*
X5707644Y-18050222I330706J300D01*
G01*
X5707344Y-5769475D02*
G75*
G03*
X5376638Y-6100181I0J-330706D01*
G01*
D11*
X5629915Y-18369206D02*
X5629915Y-18169206D01*
X5629915Y-18169206D02*
X5677534Y-18169206D01*
X5677534Y-18169206D02*
X5706105Y-18178730D01*
X5706105Y-18178730D02*
X5725153Y-18197777D01*
X5725153Y-18197777D02*
X5734677Y-18216825D01*
X5734677Y-18216825D02*
X5744201Y-18254920D01*
X5744201Y-18254920D02*
X5744201Y-18283491D01*
X5744201Y-18283491D02*
X5734677Y-18321587D01*
X5734677Y-18321587D02*
X5725153Y-18340634D01*
X5725153Y-18340634D02*
X5706105Y-18359682D01*
X5706105Y-18359682D02*
X5677534Y-18369206D01*
X5677534Y-18369206D02*
X5629915Y-18369206D01*
X5829915Y-18369206D02*
X5829915Y-18235872D01*
X5829915Y-18273968D02*
X5839439Y-18254920D01*
X5839439Y-18254920D02*
X5848963Y-18245396D01*
X5848963Y-18245396D02*
X5868010Y-18235872D01*
X5868010Y-18235872D02*
X5887058Y-18235872D01*
X5953724Y-18369206D02*
X5953724Y-18235872D01*
X5953724Y-18169206D02*
X5944201Y-18178730D01*
X5944201Y-18178730D02*
X5953724Y-18188253D01*
X5953724Y-18188253D02*
X5963248Y-18178730D01*
X5963248Y-18178730D02*
X5953724Y-18169206D01*
X5953724Y-18169206D02*
X5953724Y-18188253D01*
X6077534Y-18369206D02*
X6058486Y-18359682D01*
X6058486Y-18359682D02*
X6048963Y-18340634D01*
X6048963Y-18340634D02*
X6048963Y-18169206D01*
X6182296Y-18369206D02*
X6163248Y-18359682D01*
X6163248Y-18359682D02*
X6153724Y-18340634D01*
X6153724Y-18340634D02*
X6153724Y-18169206D01*
X6410867Y-18369206D02*
X6410867Y-18169206D01*
X6410867Y-18169206D02*
X6477534Y-18312063D01*
X6477534Y-18312063D02*
X6544201Y-18169206D01*
X6544201Y-18169206D02*
X6544201Y-18369206D01*
X6725153Y-18369206D02*
X6725153Y-18264444D01*
X6725153Y-18264444D02*
X6715629Y-18245396D01*
X6715629Y-18245396D02*
X6696582Y-18235872D01*
X6696582Y-18235872D02*
X6658486Y-18235872D01*
X6658486Y-18235872D02*
X6639439Y-18245396D01*
X6725153Y-18359682D02*
X6706105Y-18369206D01*
X6706105Y-18369206D02*
X6658486Y-18369206D01*
X6658486Y-18369206D02*
X6639439Y-18359682D01*
X6639439Y-18359682D02*
X6629915Y-18340634D01*
X6629915Y-18340634D02*
X6629915Y-18321587D01*
X6629915Y-18321587D02*
X6639439Y-18302539D01*
X6639439Y-18302539D02*
X6658486Y-18293015D01*
X6658486Y-18293015D02*
X6706105Y-18293015D01*
X6706105Y-18293015D02*
X6725153Y-18283491D01*
X6820391Y-18235872D02*
X6820391Y-18435872D01*
X6820391Y-18245396D02*
X6839439Y-18235872D01*
X6839439Y-18235872D02*
X6877534Y-18235872D01*
X6877534Y-18235872D02*
X6896582Y-18245396D01*
X6896582Y-18245396D02*
X6906105Y-18254920D01*
X6906105Y-18254920D02*
X6915629Y-18273968D01*
X6915629Y-18273968D02*
X6915629Y-18331110D01*
X6915629Y-18331110D02*
X6906105Y-18350158D01*
X6906105Y-18350158D02*
X6896582Y-18359682D01*
X6896582Y-18359682D02*
X6877534Y-18369206D01*
X6877534Y-18369206D02*
X6839439Y-18369206D01*
X6839439Y-18369206D02*
X6820391Y-18359682D01*
X7001344Y-18350158D02*
X7010867Y-18359682D01*
X7010867Y-18359682D02*
X7001344Y-18369206D01*
X7001344Y-18369206D02*
X6991820Y-18359682D01*
X6991820Y-18359682D02*
X7001344Y-18350158D01*
X7001344Y-18350158D02*
X7001344Y-18369206D01*
X7001344Y-18245396D02*
X7010867Y-18254920D01*
X7010867Y-18254920D02*
X7001344Y-18264444D01*
X7001344Y-18264444D02*
X6991820Y-18254920D01*
X6991820Y-18254920D02*
X7001344Y-18245396D01*
X7001344Y-18245396D02*
X7001344Y-18264444D01*
M02*
