G04 #@! TF.GenerationSoftware,KiCad,Pcbnew,7.0.10*
G04 #@! TF.CreationDate,2024-01-29T11:57:02+01:00*
G04 #@! TF.ProjectId,discipline-pcb,64697363-6970-46c6-996e-652d7063622e,rev?*
G04 #@! TF.SameCoordinates,Original*
G04 #@! TF.FileFunction,Soldermask,Bot*
G04 #@! TF.FilePolarity,Negative*
%FSLAX46Y46*%
G04 Gerber Fmt 4.6, Leading zero omitted, Abs format (unit mm)*
G04 Created by KiCad (PCBNEW 7.0.10) date 2024-01-29 11:57:02*
%MOMM*%
%LPD*%
G01*
G04 APERTURE LIST*
G04 APERTURE END LIST*
G36*
X206507159Y-164726368D02*
G01*
X206795947Y-164783811D01*
X207074765Y-164878457D01*
X207338845Y-165008687D01*
X207583667Y-165172272D01*
X207805042Y-165366413D01*
X207999183Y-165587788D01*
X208162768Y-165832610D01*
X208292998Y-166096690D01*
X208387644Y-166375508D01*
X208445087Y-166664296D01*
X208464345Y-166958110D01*
X208445087Y-167251924D01*
X208387644Y-167540712D01*
X208292998Y-167819530D01*
X208162768Y-168083610D01*
X207999183Y-168328432D01*
X207805042Y-168549807D01*
X207583667Y-168743948D01*
X207338845Y-168907533D01*
X207074765Y-169037763D01*
X206795947Y-169132409D01*
X206507159Y-169189852D01*
X206213345Y-169209110D01*
X205919531Y-169189852D01*
X205630743Y-169132409D01*
X205351925Y-169037763D01*
X205087845Y-168907533D01*
X204843023Y-168743948D01*
X204621648Y-168549807D01*
X204427507Y-168328432D01*
X204263922Y-168083610D01*
X204133692Y-167819530D01*
X204039046Y-167540712D01*
X203981603Y-167251924D01*
X203962345Y-166958110D01*
X203981603Y-166664296D01*
X204039046Y-166375508D01*
X204133692Y-166096690D01*
X204263922Y-165832610D01*
X204427507Y-165587788D01*
X204621648Y-165366413D01*
X204843023Y-165172272D01*
X205087845Y-165008687D01*
X205351925Y-164878457D01*
X205630743Y-164783811D01*
X205919531Y-164726368D01*
X206213345Y-164707110D01*
X206507159Y-164726368D01*
G37*
G36*
X96859702Y-158915218D02*
G01*
X97148490Y-158972661D01*
X97427308Y-159067307D01*
X97691388Y-159197537D01*
X97936210Y-159361122D01*
X98157585Y-159555263D01*
X98351726Y-159776638D01*
X98515311Y-160021460D01*
X98645541Y-160285540D01*
X98740187Y-160564358D01*
X98797630Y-160853146D01*
X98816888Y-161146960D01*
X98797630Y-161440774D01*
X98740187Y-161729562D01*
X98645541Y-162008380D01*
X98515311Y-162272460D01*
X98351726Y-162517282D01*
X98157585Y-162738657D01*
X97936210Y-162932798D01*
X97691388Y-163096383D01*
X97427308Y-163226613D01*
X97148490Y-163321259D01*
X96859702Y-163378702D01*
X96565888Y-163397960D01*
X96272074Y-163378702D01*
X95983286Y-163321259D01*
X95704468Y-163226613D01*
X95440388Y-163096383D01*
X95195566Y-162932798D01*
X94974191Y-162738657D01*
X94780050Y-162517282D01*
X94616465Y-162272460D01*
X94486235Y-162008380D01*
X94391589Y-161729562D01*
X94334146Y-161440774D01*
X94314888Y-161146960D01*
X94334146Y-160853146D01*
X94391589Y-160564358D01*
X94486235Y-160285540D01*
X94616465Y-160021460D01*
X94780050Y-159776638D01*
X94974191Y-159555263D01*
X95195566Y-159361122D01*
X95440388Y-159197537D01*
X95704468Y-159067307D01*
X95983286Y-158972661D01*
X96272074Y-158915218D01*
X96565888Y-158895960D01*
X96859702Y-158915218D01*
G37*
G36*
X316154617Y-158915218D02*
G01*
X316443405Y-158972661D01*
X316722223Y-159067307D01*
X316986303Y-159197537D01*
X317231125Y-159361122D01*
X317452500Y-159555263D01*
X317646641Y-159776638D01*
X317810226Y-160021460D01*
X317940456Y-160285540D01*
X318035102Y-160564358D01*
X318092545Y-160853146D01*
X318111803Y-161146960D01*
X318092545Y-161440774D01*
X318035102Y-161729562D01*
X317940456Y-162008380D01*
X317810226Y-162272460D01*
X317646641Y-162517282D01*
X317452500Y-162738657D01*
X317231125Y-162932798D01*
X316986303Y-163096383D01*
X316722223Y-163226613D01*
X316443405Y-163321259D01*
X316154617Y-163378702D01*
X315860803Y-163397960D01*
X315566989Y-163378702D01*
X315278201Y-163321259D01*
X314999383Y-163226613D01*
X314735303Y-163096383D01*
X314490481Y-162932798D01*
X314269106Y-162738657D01*
X314074965Y-162517282D01*
X313911380Y-162272460D01*
X313781150Y-162008380D01*
X313686504Y-161729562D01*
X313629061Y-161440774D01*
X313609803Y-161146960D01*
X313629061Y-160853146D01*
X313686504Y-160564358D01*
X313781150Y-160285540D01*
X313911380Y-160021460D01*
X314074965Y-159776638D01*
X314269106Y-159555263D01*
X314490481Y-159361122D01*
X314735303Y-159197537D01*
X314999383Y-159067307D01*
X315278201Y-158972661D01*
X315566989Y-158915218D01*
X315860803Y-158895960D01*
X316154617Y-158915218D01*
G37*
G36*
X114048537Y-102071252D02*
G01*
X114337325Y-102128695D01*
X114616143Y-102223341D01*
X114880223Y-102353571D01*
X115125045Y-102517156D01*
X115346420Y-102711297D01*
X115540561Y-102932672D01*
X115704146Y-103177494D01*
X115834376Y-103441574D01*
X115929022Y-103720392D01*
X115986465Y-104009180D01*
X116005723Y-104302994D01*
X115986465Y-104596808D01*
X115929022Y-104885596D01*
X115834376Y-105164414D01*
X115704146Y-105428494D01*
X115540561Y-105673316D01*
X115346420Y-105894691D01*
X115125045Y-106088832D01*
X114880223Y-106252417D01*
X114616143Y-106382647D01*
X114337325Y-106477293D01*
X114048537Y-106534736D01*
X113754723Y-106553994D01*
X113460909Y-106534736D01*
X113172121Y-106477293D01*
X112893303Y-106382647D01*
X112629223Y-106252417D01*
X112384401Y-106088832D01*
X112163026Y-105894691D01*
X111968885Y-105673316D01*
X111805300Y-105428494D01*
X111675070Y-105164414D01*
X111580424Y-104885596D01*
X111522981Y-104596808D01*
X111503723Y-104302994D01*
X111522981Y-104009180D01*
X111580424Y-103720392D01*
X111675070Y-103441574D01*
X111805300Y-103177494D01*
X111968885Y-102932672D01*
X112163026Y-102711297D01*
X112384401Y-102517156D01*
X112629223Y-102353571D01*
X112893303Y-102223341D01*
X113172121Y-102128695D01*
X113460909Y-102071252D01*
X113754723Y-102051994D01*
X114048537Y-102071252D01*
G37*
G36*
X206507159Y-102071252D02*
G01*
X206795947Y-102128695D01*
X207074765Y-102223341D01*
X207338845Y-102353571D01*
X207583667Y-102517156D01*
X207805042Y-102711297D01*
X207999183Y-102932672D01*
X208162768Y-103177494D01*
X208292998Y-103441574D01*
X208387644Y-103720392D01*
X208445087Y-104009180D01*
X208464345Y-104302994D01*
X208445087Y-104596808D01*
X208387644Y-104885596D01*
X208292998Y-105164414D01*
X208162768Y-105428494D01*
X207999183Y-105673316D01*
X207805042Y-105894691D01*
X207583667Y-106088832D01*
X207338845Y-106252417D01*
X207074765Y-106382647D01*
X206795947Y-106477293D01*
X206507159Y-106534736D01*
X206213345Y-106553994D01*
X205919531Y-106534736D01*
X205630743Y-106477293D01*
X205351925Y-106382647D01*
X205087845Y-106252417D01*
X204843023Y-106088832D01*
X204621648Y-105894691D01*
X204427507Y-105673316D01*
X204263922Y-105428494D01*
X204133692Y-105164414D01*
X204039046Y-104885596D01*
X203981603Y-104596808D01*
X203962345Y-104302994D01*
X203981603Y-104009180D01*
X204039046Y-103720392D01*
X204133692Y-103441574D01*
X204263922Y-103177494D01*
X204427507Y-102932672D01*
X204621648Y-102711297D01*
X204843023Y-102517156D01*
X205087845Y-102353571D01*
X205351925Y-102223341D01*
X205630743Y-102128695D01*
X205919531Y-102071252D01*
X206213345Y-102051994D01*
X206507159Y-102071252D01*
G37*
G36*
X298965782Y-102071252D02*
G01*
X299254570Y-102128695D01*
X299533388Y-102223341D01*
X299797468Y-102353571D01*
X300042290Y-102517156D01*
X300263665Y-102711297D01*
X300457806Y-102932672D01*
X300621391Y-103177494D01*
X300751621Y-103441574D01*
X300846267Y-103720392D01*
X300903710Y-104009180D01*
X300922968Y-104302994D01*
X300903710Y-104596808D01*
X300846267Y-104885596D01*
X300751621Y-105164414D01*
X300621391Y-105428494D01*
X300457806Y-105673316D01*
X300263665Y-105894691D01*
X300042290Y-106088832D01*
X299797468Y-106252417D01*
X299533388Y-106382647D01*
X299254570Y-106477293D01*
X298965782Y-106534736D01*
X298671968Y-106553994D01*
X298378154Y-106534736D01*
X298089366Y-106477293D01*
X297810548Y-106382647D01*
X297546468Y-106252417D01*
X297301646Y-106088832D01*
X297080271Y-105894691D01*
X296886130Y-105673316D01*
X296722545Y-105428494D01*
X296592315Y-105164414D01*
X296497669Y-104885596D01*
X296440226Y-104596808D01*
X296420968Y-104302994D01*
X296440226Y-104009180D01*
X296497669Y-103720392D01*
X296592315Y-103441574D01*
X296722545Y-103177494D01*
X296886130Y-102932672D01*
X297080271Y-102711297D01*
X297301646Y-102517156D01*
X297546468Y-102353571D01*
X297810548Y-102223341D01*
X298089366Y-102128695D01*
X298378154Y-102071252D01*
X298671968Y-102051994D01*
X298965782Y-102071252D01*
G37*
G36*
X82267136Y-90142130D02*
G01*
X82555924Y-90199573D01*
X82834742Y-90294219D01*
X83098822Y-90424449D01*
X83343644Y-90588034D01*
X83565019Y-90782175D01*
X83759160Y-91003550D01*
X83922745Y-91248372D01*
X84052975Y-91512452D01*
X84147621Y-91791270D01*
X84205064Y-92080058D01*
X84224322Y-92373872D01*
X84205064Y-92667686D01*
X84147621Y-92956474D01*
X84052975Y-93235292D01*
X83922745Y-93499372D01*
X83759160Y-93744194D01*
X83565019Y-93965569D01*
X83343644Y-94159710D01*
X83098822Y-94323295D01*
X82834742Y-94453525D01*
X82555924Y-94548171D01*
X82267136Y-94605614D01*
X81973322Y-94624872D01*
X81679508Y-94605614D01*
X81390720Y-94548171D01*
X81111902Y-94453525D01*
X80847822Y-94323295D01*
X80603000Y-94159710D01*
X80381625Y-93965569D01*
X80187484Y-93744194D01*
X80023899Y-93499372D01*
X79893669Y-93235292D01*
X79799023Y-92956474D01*
X79741580Y-92667686D01*
X79722322Y-92373872D01*
X79741580Y-92080058D01*
X79799023Y-91791270D01*
X79893669Y-91512452D01*
X80023899Y-91248372D01*
X80187484Y-91003550D01*
X80381625Y-90782175D01*
X80603000Y-90588034D01*
X80847822Y-90424449D01*
X81111902Y-90294219D01*
X81390720Y-90199573D01*
X81679508Y-90142130D01*
X81973322Y-90122872D01*
X82267136Y-90142130D01*
G37*
G36*
X206507159Y-90142130D02*
G01*
X206795947Y-90199573D01*
X207074765Y-90294219D01*
X207338845Y-90424449D01*
X207583667Y-90588034D01*
X207805042Y-90782175D01*
X207999183Y-91003550D01*
X208162768Y-91248372D01*
X208292998Y-91512452D01*
X208387644Y-91791270D01*
X208445087Y-92080058D01*
X208464345Y-92373872D01*
X208445087Y-92667686D01*
X208387644Y-92956474D01*
X208292998Y-93235292D01*
X208162768Y-93499372D01*
X207999183Y-93744194D01*
X207805042Y-93965569D01*
X207583667Y-94159710D01*
X207338845Y-94323295D01*
X207074765Y-94453525D01*
X206795947Y-94548171D01*
X206507159Y-94605614D01*
X206213345Y-94624872D01*
X205919531Y-94605614D01*
X205630743Y-94548171D01*
X205351925Y-94453525D01*
X205087845Y-94323295D01*
X204843023Y-94159710D01*
X204621648Y-93965569D01*
X204427507Y-93744194D01*
X204263922Y-93499372D01*
X204133692Y-93235292D01*
X204039046Y-92956474D01*
X203981603Y-92667686D01*
X203962345Y-92373872D01*
X203981603Y-92080058D01*
X204039046Y-91791270D01*
X204133692Y-91512452D01*
X204263922Y-91248372D01*
X204427507Y-91003550D01*
X204621648Y-90782175D01*
X204843023Y-90588034D01*
X205087845Y-90424449D01*
X205351925Y-90294219D01*
X205630743Y-90199573D01*
X205919531Y-90142130D01*
X206213345Y-90122872D01*
X206507159Y-90142130D01*
G37*
G36*
X330747183Y-90142130D02*
G01*
X331035971Y-90199573D01*
X331314789Y-90294219D01*
X331578869Y-90424449D01*
X331823691Y-90588034D01*
X332045066Y-90782175D01*
X332239207Y-91003550D01*
X332402792Y-91248372D01*
X332533022Y-91512452D01*
X332627668Y-91791270D01*
X332685111Y-92080058D01*
X332704369Y-92373872D01*
X332685111Y-92667686D01*
X332627668Y-92956474D01*
X332533022Y-93235292D01*
X332402792Y-93499372D01*
X332239207Y-93744194D01*
X332045066Y-93965569D01*
X331823691Y-94159710D01*
X331578869Y-94323295D01*
X331314789Y-94453525D01*
X331035971Y-94548171D01*
X330747183Y-94605614D01*
X330453369Y-94624872D01*
X330159555Y-94605614D01*
X329870767Y-94548171D01*
X329591949Y-94453525D01*
X329327869Y-94323295D01*
X329083047Y-94159710D01*
X328861672Y-93965569D01*
X328667531Y-93744194D01*
X328503946Y-93499372D01*
X328373716Y-93235292D01*
X328279070Y-92956474D01*
X328221627Y-92667686D01*
X328202369Y-92373872D01*
X328221627Y-92080058D01*
X328279070Y-91791270D01*
X328373716Y-91512452D01*
X328503946Y-91248372D01*
X328667531Y-91003550D01*
X328861672Y-90782175D01*
X329083047Y-90588034D01*
X329327869Y-90424449D01*
X329591949Y-90294219D01*
X329870767Y-90199573D01*
X330159555Y-90142130D01*
X330453369Y-90122872D01*
X330747183Y-90142130D01*
G37*
G36*
X58060196Y-78213008D02*
G01*
X58348984Y-78270451D01*
X58627802Y-78365097D01*
X58891882Y-78495327D01*
X59136704Y-78658912D01*
X59358079Y-78853053D01*
X59552220Y-79074428D01*
X59715805Y-79319250D01*
X59846035Y-79583330D01*
X59940681Y-79862148D01*
X59998124Y-80150936D01*
X60017382Y-80444750D01*
X59998124Y-80738564D01*
X59940681Y-81027352D01*
X59846035Y-81306170D01*
X59715805Y-81570250D01*
X59552220Y-81815072D01*
X59358079Y-82036447D01*
X59136704Y-82230588D01*
X58891882Y-82394173D01*
X58627802Y-82524403D01*
X58348984Y-82619049D01*
X58060196Y-82676492D01*
X57766382Y-82695750D01*
X57472568Y-82676492D01*
X57183780Y-82619049D01*
X56904962Y-82524403D01*
X56640882Y-82394173D01*
X56396060Y-82230588D01*
X56174685Y-82036447D01*
X55980544Y-81815072D01*
X55816959Y-81570250D01*
X55686729Y-81306170D01*
X55592083Y-81027352D01*
X55534640Y-80738564D01*
X55515382Y-80444750D01*
X55534640Y-80150936D01*
X55592083Y-79862148D01*
X55686729Y-79583330D01*
X55816959Y-79319250D01*
X55980544Y-79074428D01*
X56174685Y-78853053D01*
X56396060Y-78658912D01*
X56640882Y-78495327D01*
X56904962Y-78365097D01*
X57183780Y-78270451D01*
X57472568Y-78213008D01*
X57766382Y-78193750D01*
X58060196Y-78213008D01*
G37*
G36*
X206507159Y-78213008D02*
G01*
X206795947Y-78270451D01*
X207074765Y-78365097D01*
X207338845Y-78495327D01*
X207583667Y-78658912D01*
X207805042Y-78853053D01*
X207999183Y-79074428D01*
X208162768Y-79319250D01*
X208292998Y-79583330D01*
X208387644Y-79862148D01*
X208445087Y-80150936D01*
X208464345Y-80444750D01*
X208445087Y-80738564D01*
X208387644Y-81027352D01*
X208292998Y-81306170D01*
X208162768Y-81570250D01*
X207999183Y-81815072D01*
X207805042Y-82036447D01*
X207583667Y-82230588D01*
X207338845Y-82394173D01*
X207074765Y-82524403D01*
X206795947Y-82619049D01*
X206507159Y-82676492D01*
X206213345Y-82695750D01*
X205919531Y-82676492D01*
X205630743Y-82619049D01*
X205351925Y-82524403D01*
X205087845Y-82394173D01*
X204843023Y-82230588D01*
X204621648Y-82036447D01*
X204427507Y-81815072D01*
X204263922Y-81570250D01*
X204133692Y-81306170D01*
X204039046Y-81027352D01*
X203981603Y-80738564D01*
X203962345Y-80444750D01*
X203981603Y-80150936D01*
X204039046Y-79862148D01*
X204133692Y-79583330D01*
X204263922Y-79319250D01*
X204427507Y-79074428D01*
X204621648Y-78853053D01*
X204843023Y-78658912D01*
X205087845Y-78495327D01*
X205351925Y-78365097D01*
X205630743Y-78270451D01*
X205919531Y-78213008D01*
X206213345Y-78193750D01*
X206507159Y-78213008D01*
G37*
G36*
X354954123Y-78213008D02*
G01*
X355242911Y-78270451D01*
X355521729Y-78365097D01*
X355785809Y-78495327D01*
X356030631Y-78658912D01*
X356252006Y-78853053D01*
X356446147Y-79074428D01*
X356609732Y-79319250D01*
X356739962Y-79583330D01*
X356834608Y-79862148D01*
X356892051Y-80150936D01*
X356911309Y-80444750D01*
X356892051Y-80738564D01*
X356834608Y-81027352D01*
X356739962Y-81306170D01*
X356609732Y-81570250D01*
X356446147Y-81815072D01*
X356252006Y-82036447D01*
X356030631Y-82230588D01*
X355785809Y-82394173D01*
X355521729Y-82524403D01*
X355242911Y-82619049D01*
X354954123Y-82676492D01*
X354660309Y-82695750D01*
X354366495Y-82676492D01*
X354077707Y-82619049D01*
X353798889Y-82524403D01*
X353534809Y-82394173D01*
X353289987Y-82230588D01*
X353068612Y-82036447D01*
X352874471Y-81815072D01*
X352710886Y-81570250D01*
X352580656Y-81306170D01*
X352486010Y-81027352D01*
X352428567Y-80738564D01*
X352409309Y-80444750D01*
X352428567Y-80150936D01*
X352486010Y-79862148D01*
X352580656Y-79583330D01*
X352710886Y-79319250D01*
X352874471Y-79074428D01*
X353068612Y-78853053D01*
X353289987Y-78658912D01*
X353534809Y-78495327D01*
X353798889Y-78365097D01*
X354077707Y-78270451D01*
X354366495Y-78213008D01*
X354660309Y-78193750D01*
X354954123Y-78213008D01*
G37*
G36*
X58060196Y-59463008D02*
G01*
X58348984Y-59520451D01*
X58627802Y-59615097D01*
X58891882Y-59745327D01*
X59136704Y-59908912D01*
X59358079Y-60103053D01*
X59552220Y-60324428D01*
X59715805Y-60569250D01*
X59846035Y-60833330D01*
X59940681Y-61112148D01*
X59998124Y-61400936D01*
X60017382Y-61694750D01*
X59998124Y-61988564D01*
X59940681Y-62277352D01*
X59846035Y-62556170D01*
X59715805Y-62820250D01*
X59552220Y-63065072D01*
X59358079Y-63286447D01*
X59136704Y-63480588D01*
X58891882Y-63644173D01*
X58627802Y-63774403D01*
X58348984Y-63869049D01*
X58060196Y-63926492D01*
X57766382Y-63945750D01*
X57472568Y-63926492D01*
X57183780Y-63869049D01*
X56904962Y-63774403D01*
X56640882Y-63644173D01*
X56396060Y-63480588D01*
X56174685Y-63286447D01*
X55980544Y-63065072D01*
X55816959Y-62820250D01*
X55686729Y-62556170D01*
X55592083Y-62277352D01*
X55534640Y-61988564D01*
X55515382Y-61694750D01*
X55534640Y-61400936D01*
X55592083Y-61112148D01*
X55686729Y-60833330D01*
X55816959Y-60569250D01*
X55980544Y-60324428D01*
X56174685Y-60103053D01*
X56396060Y-59908912D01*
X56640882Y-59745327D01*
X56904962Y-59615097D01*
X57183780Y-59520451D01*
X57472568Y-59463008D01*
X57766382Y-59443750D01*
X58060196Y-59463008D01*
G37*
G36*
X206507159Y-59463008D02*
G01*
X206795947Y-59520451D01*
X207074765Y-59615097D01*
X207338845Y-59745327D01*
X207583667Y-59908912D01*
X207805042Y-60103053D01*
X207999183Y-60324428D01*
X208162768Y-60569250D01*
X208292998Y-60833330D01*
X208387644Y-61112148D01*
X208445087Y-61400936D01*
X208464345Y-61694750D01*
X208445087Y-61988564D01*
X208387644Y-62277352D01*
X208292998Y-62556170D01*
X208162768Y-62820250D01*
X207999183Y-63065072D01*
X207805042Y-63286447D01*
X207583667Y-63480588D01*
X207338845Y-63644173D01*
X207074765Y-63774403D01*
X206795947Y-63869049D01*
X206507159Y-63926492D01*
X206213345Y-63945750D01*
X205919531Y-63926492D01*
X205630743Y-63869049D01*
X205351925Y-63774403D01*
X205087845Y-63644173D01*
X204843023Y-63480588D01*
X204621648Y-63286447D01*
X204427507Y-63065072D01*
X204263922Y-62820250D01*
X204133692Y-62556170D01*
X204039046Y-62277352D01*
X203981603Y-61988564D01*
X203962345Y-61694750D01*
X203981603Y-61400936D01*
X204039046Y-61112148D01*
X204133692Y-60833330D01*
X204263922Y-60569250D01*
X204427507Y-60324428D01*
X204621648Y-60103053D01*
X204843023Y-59908912D01*
X205087845Y-59745327D01*
X205351925Y-59615097D01*
X205630743Y-59520451D01*
X205919531Y-59463008D01*
X206213345Y-59443750D01*
X206507159Y-59463008D01*
G37*
G36*
X354954123Y-59463008D02*
G01*
X355242911Y-59520451D01*
X355521729Y-59615097D01*
X355785809Y-59745327D01*
X356030631Y-59908912D01*
X356252006Y-60103053D01*
X356446147Y-60324428D01*
X356609732Y-60569250D01*
X356739962Y-60833330D01*
X356834608Y-61112148D01*
X356892051Y-61400936D01*
X356911309Y-61694750D01*
X356892051Y-61988564D01*
X356834608Y-62277352D01*
X356739962Y-62556170D01*
X356609732Y-62820250D01*
X356446147Y-63065072D01*
X356252006Y-63286447D01*
X356030631Y-63480588D01*
X355785809Y-63644173D01*
X355521729Y-63774403D01*
X355242911Y-63869049D01*
X354954123Y-63926492D01*
X354660309Y-63945750D01*
X354366495Y-63926492D01*
X354077707Y-63869049D01*
X353798889Y-63774403D01*
X353534809Y-63644173D01*
X353289987Y-63480588D01*
X353068612Y-63286447D01*
X352874471Y-63065072D01*
X352710886Y-62820250D01*
X352580656Y-62556170D01*
X352486010Y-62277352D01*
X352428567Y-61988564D01*
X352409309Y-61694750D01*
X352428567Y-61400936D01*
X352486010Y-61112148D01*
X352580656Y-60833330D01*
X352710886Y-60569250D01*
X352874471Y-60324428D01*
X353068612Y-60103053D01*
X353289987Y-59908912D01*
X353534809Y-59745327D01*
X353798889Y-59615097D01*
X354077707Y-59520451D01*
X354366495Y-59463008D01*
X354660309Y-59443750D01*
X354954123Y-59463008D01*
G37*
M02*
