G04 #@! TF.GenerationSoftware,KiCad,Pcbnew,7.0.10*
G04 #@! TF.CreationDate,2024-01-29T15:05:38+01:00*
G04 #@! TF.ProjectId,discipline-pcb,64697363-6970-46c6-996e-652d7063622e,rev?*
G04 #@! TF.SameCoordinates,Original*
G04 #@! TF.FileFunction,Profile,NP*
%FSLAX46Y46*%
G04 Gerber Fmt 4.6, Leading zero omitted, Abs format (unit mm)*
G04 Created by KiCad (PCBNEW 7.0.10) date 2024-01-29 15:05:38*
%MOMM*%
%LPD*%
G01*
G04 APERTURE LIST*
G04 #@! TA.AperFunction,Profile*
%ADD10C,0.150000*%
G04 #@! TD*
G04 #@! TA.AperFunction,Profile*
%ADD11C,0.200000*%
G04 #@! TD*
G04 APERTURE END LIST*
D10*
X53340500Y-184218841D02*
G75*
G03*
X56650558Y-187522900I3307100J3041D01*
G01*
X355783441Y-187522900D02*
G75*
G03*
X359090500Y-184215842I-41J3307100D01*
G01*
X359090500Y-94629959D02*
G75*
G03*
X355783441Y-91322900I-3307100J-41D01*
G01*
X355783441Y-187522901D02*
X56650558Y-187522900D01*
X56647558Y-91322900D02*
X355783441Y-91322900D01*
D11*
X280225500Y-145681000D02*
G75*
G03*
X280975500Y-146431000I750000J0D01*
G01*
X156113000Y-114131000D02*
X156113000Y-126631000D01*
X109525500Y-146431000D02*
X122025500Y-146431000D01*
X119050500Y-151481000D02*
G75*
G03*
X118300500Y-152231000I0J-750000D01*
G01*
X279938000Y-95081000D02*
G75*
G03*
X279188000Y-94331000I-750000J0D01*
G01*
X199263000Y-126631000D02*
G75*
G03*
X200013000Y-127381000I750000J0D01*
G01*
X333706750Y-115218000D02*
X333706750Y-122074861D01*
X138331750Y-182781000D02*
X138331750Y-169281000D01*
X296894250Y-152231000D02*
X296894250Y-164731000D01*
X59856250Y-166731000D02*
X59856250Y-166350547D01*
X89725500Y-133181000D02*
X89725500Y-145681000D01*
X189450500Y-152231000D02*
X189450500Y-164731000D01*
X214300500Y-165481000D02*
X226800500Y-165481000D01*
X257163000Y-113381000D02*
X269663000Y-113381000D01*
X170400500Y-152231000D02*
X170400500Y-164731000D01*
X137581750Y-168531000D02*
X132081750Y-168531000D01*
X198975500Y-133181000D02*
G75*
G03*
X198225500Y-132431000I-750000J0D01*
G01*
X280975500Y-132431000D02*
X293475500Y-132431000D01*
X82581750Y-171281000D02*
X82581750Y-183781000D01*
X294513000Y-114131000D02*
X294513000Y-126631000D01*
X60606250Y-167481000D02*
X66106250Y-167481000D01*
X176200500Y-151481000D02*
G75*
G03*
X175450500Y-152231000I0J-750000D01*
G01*
X180213000Y-114131000D02*
X180213000Y-126631000D01*
X237363000Y-126631000D02*
G75*
G03*
X238113000Y-127381000I750000J0D01*
G01*
X95238000Y-108331000D02*
X107738000Y-108331000D01*
X356138000Y-171281000D02*
G75*
G03*
X355388000Y-170531000I-750000J0D01*
G01*
X265650500Y-152231000D02*
G75*
G03*
X264900500Y-151481000I-750000J0D01*
G01*
X203738000Y-95081000D02*
G75*
G03*
X202988000Y-94331000I-750000J0D01*
G01*
X94200500Y-152231000D02*
X94200500Y-164731000D01*
X237075500Y-133181000D02*
X237075500Y-145681000D01*
X157150500Y-151481000D02*
X169650500Y-151481000D01*
X222038000Y-108331000D02*
G75*
G03*
X222788000Y-107581000I0J750000D01*
G01*
X98963000Y-114131000D02*
X98963000Y-126631000D01*
X342888000Y-151481000D02*
G75*
G03*
X342138000Y-152231000I0J-750000D01*
G01*
X166675500Y-146431000D02*
X179175500Y-146431000D01*
X147625500Y-132431000D02*
X160125500Y-132431000D01*
X155363000Y-127381000D02*
G75*
G03*
X156113000Y-126631000I0J750000D01*
G01*
X283950500Y-165481000D02*
G75*
G03*
X284700500Y-164731000I0J750000D01*
G01*
X265938000Y-95081000D02*
X265938000Y-107581000D01*
X137581750Y-183531000D02*
X132081750Y-183531000D01*
X327490631Y-94759571D02*
G75*
G03*
X326813000Y-94331000I-677631J-321429D01*
G01*
X298988000Y-171281000D02*
X298988000Y-183781000D01*
X165638000Y-95081000D02*
X165638000Y-107581000D01*
X146875500Y-133181000D02*
X146875500Y-145681000D01*
X89982250Y-167480950D02*
G75*
G03*
X90732250Y-166731000I50J749950D01*
G01*
X318325500Y-114131000D02*
X318325500Y-126631000D01*
X59519250Y-146431000D02*
X76781750Y-146431000D01*
X356138000Y-114131000D02*
G75*
G03*
X355388000Y-113381000I-750000J0D01*
G01*
X170400500Y-152231000D02*
G75*
G03*
X169650500Y-151481000I-750000J0D01*
G01*
X223075500Y-145681000D02*
G75*
G03*
X223825500Y-146431000I750000J0D01*
G01*
X151350500Y-152231000D02*
X151350500Y-164731000D01*
X213263000Y-114131000D02*
G75*
G03*
X212513000Y-113381000I-750000J0D01*
G01*
X67856250Y-165481050D02*
G75*
G03*
X66856250Y-166481000I-50J-999950D01*
G01*
X314313000Y-94331000D02*
X326813000Y-94331000D01*
X332272585Y-113854255D02*
G75*
G03*
X333061861Y-114475402I929415J368955D01*
G01*
X137581750Y-183530950D02*
G75*
G03*
X138331750Y-182781000I50J749950D01*
G01*
X333706750Y-147681000D02*
X333706750Y-137737139D01*
X194213000Y-114131000D02*
X194213000Y-126631000D01*
X265938000Y-107581000D02*
G75*
G03*
X266688000Y-108331000I750000J0D01*
G01*
X246888000Y-171281000D02*
X246888000Y-183781000D01*
X342888000Y-132431000D02*
X355388000Y-132431000D01*
X233350500Y-151481000D02*
G75*
G03*
X232600500Y-152231000I0J-750000D01*
G01*
X261175500Y-133181000D02*
X261175500Y-145681000D01*
X195250500Y-151481000D02*
G75*
G03*
X194500500Y-152231000I0J-750000D01*
G01*
X164888000Y-108331000D02*
G75*
G03*
X165638000Y-107581000I0J750000D01*
G01*
X142863000Y-127381000D02*
X155363000Y-127381000D01*
X280225500Y-133181000D02*
X280225500Y-145681000D01*
X298988000Y-95081000D02*
X298988000Y-107581000D01*
X116038000Y-170531000D02*
G75*
G03*
X117038000Y-169531000I0J1000000D01*
G01*
X223825500Y-146431000D02*
X236325500Y-146431000D01*
X202988000Y-108331000D02*
G75*
G03*
X203738000Y-107581000I0J750000D01*
G01*
X127538000Y-95081000D02*
G75*
G03*
X126788000Y-94331000I-750000J0D01*
G01*
X75150500Y-114131000D02*
X75150500Y-126631000D01*
X99250500Y-152231000D02*
X99250500Y-164731000D01*
X107144250Y-184531000D02*
X119644250Y-184531000D01*
X279188000Y-108331000D02*
G75*
G03*
X279938000Y-107581000I0J750000D01*
G01*
X342888000Y-132431000D02*
G75*
G03*
X342138000Y-133181000I0J-750000D01*
G01*
X242125500Y-145681000D02*
G75*
G03*
X242875500Y-146431000I750000J0D01*
G01*
X200013000Y-113381000D02*
X212513000Y-113381000D01*
X165925500Y-145681000D02*
G75*
G03*
X166675500Y-146431000I750000J0D01*
G01*
X246888000Y-183781000D02*
G75*
G03*
X247638000Y-184531000I750000J0D01*
G01*
X238338000Y-182781000D02*
X238338000Y-169281000D01*
X90475500Y-132431000D02*
G75*
G03*
X89725500Y-133181000I0J-750000D01*
G01*
X232088000Y-168531000D02*
G75*
G03*
X231338000Y-169281000I0J-750000D01*
G01*
X198975500Y-133181000D02*
X198975500Y-145681000D01*
X305875000Y-95331000D02*
G75*
G03*
X305125000Y-96081000I0J-750000D01*
G01*
X238113000Y-113381000D02*
X250613000Y-113381000D01*
X122775500Y-133181000D02*
G75*
G03*
X122025500Y-132431000I-750000J0D01*
G01*
X146875500Y-145681000D02*
G75*
G03*
X147625500Y-146431000I750000J0D01*
G01*
X323838000Y-170531000D02*
X336338000Y-170531000D01*
X58769300Y-145681000D02*
G75*
G03*
X59519250Y-146431000I750000J0D01*
G01*
X145838000Y-108331000D02*
G75*
G03*
X146588000Y-107581000I0J750000D01*
G01*
X138100500Y-151481000D02*
G75*
G03*
X137350500Y-152231000I0J-750000D01*
G01*
X356138000Y-133181000D02*
X356138000Y-145681000D01*
X76188000Y-94331000D02*
X88688000Y-94331000D01*
X334706750Y-123656000D02*
X334706750Y-136156000D01*
X342138000Y-126631000D02*
G75*
G03*
X342888000Y-127381000I750000J0D01*
G01*
X332956750Y-148430950D02*
G75*
G03*
X333706750Y-147681000I50J749950D01*
G01*
X237075500Y-133181000D02*
G75*
G03*
X236325500Y-132431000I-750000J0D01*
G01*
X298988000Y-171281000D02*
G75*
G03*
X298238000Y-170531000I-750000J0D01*
G01*
X237588000Y-168531000D02*
X232088000Y-168531000D01*
X320706700Y-128381000D02*
G75*
G03*
X319706750Y-127381000I-999900J100D01*
G01*
X117263000Y-127381000D02*
G75*
G03*
X118013000Y-126631000I0J750000D01*
G01*
X308513000Y-114131000D02*
X308513000Y-126631000D01*
X107144250Y-170531050D02*
G75*
G03*
X106394250Y-171281000I-50J-749950D01*
G01*
X138331800Y-169281000D02*
G75*
G03*
X137581750Y-168531000I-750100J-100D01*
G01*
X56388000Y-95081000D02*
X56388000Y-107581000D01*
X294513000Y-126631000D02*
G75*
G03*
X295263000Y-127381000I750000J0D01*
G01*
X304788000Y-170531000D02*
G75*
G03*
X304038000Y-171281000I0J-750000D01*
G01*
X59856300Y-166731000D02*
G75*
G03*
X60606250Y-167481000I750000J0D01*
G01*
X123288000Y-183531000D02*
G75*
G03*
X124038000Y-182781000I0J750000D01*
G01*
X337088000Y-171281000D02*
G75*
G03*
X336338000Y-170531000I-750000J0D01*
G01*
X112500500Y-165481000D02*
G75*
G03*
X113250500Y-164731000I0J750000D01*
G01*
X132300500Y-152231000D02*
G75*
G03*
X131550500Y-151481000I-750000J0D01*
G01*
X304788000Y-184531000D02*
X317288000Y-184531000D01*
X356138000Y-152231000D02*
G75*
G03*
X355388000Y-151481000I-750000J0D01*
G01*
X242125500Y-133181000D02*
X242125500Y-145681000D01*
X312731861Y-95330997D02*
G75*
G03*
X313635368Y-94759571I-61J1000097D01*
G01*
X233350500Y-165481000D02*
X245850500Y-165481000D01*
X276213000Y-127381000D02*
X288713000Y-127381000D01*
X318038000Y-171281000D02*
G75*
G03*
X317288000Y-170531000I-750000J0D01*
G01*
X70388000Y-95081000D02*
X70388000Y-107581000D01*
X170688000Y-95081000D02*
X170688000Y-107581000D01*
X75150500Y-171281000D02*
X75150500Y-183781000D01*
X209538000Y-94331000D02*
X222038000Y-94331000D01*
X107738000Y-108331000D02*
G75*
G03*
X108488000Y-107581000I0J750000D01*
G01*
X160875500Y-133181000D02*
X160875500Y-145681000D01*
X58769250Y-133181000D02*
X58769250Y-145681000D01*
X319075500Y-113381000D02*
X331575500Y-113381000D01*
X335251000Y-95331000D02*
X328394139Y-95331000D01*
X84963000Y-126631000D02*
G75*
G03*
X85713000Y-127381000I750000J0D01*
G01*
X256413000Y-126631000D02*
G75*
G03*
X257163000Y-127381000I750000J0D01*
G01*
X123063000Y-114131000D02*
X123063000Y-126631000D01*
X103725500Y-133181000D02*
X103725500Y-145681000D01*
X304038000Y-183781000D02*
G75*
G03*
X304788000Y-184531000I750000J0D01*
G01*
X142863000Y-113381000D02*
X155363000Y-113381000D01*
X260888000Y-95081000D02*
G75*
G03*
X260138000Y-94331000I-750000J0D01*
G01*
X214300500Y-151481000D02*
G75*
G03*
X213550500Y-152231000I0J-750000D01*
G01*
X308513000Y-114131000D02*
G75*
G03*
X307763000Y-113381000I-750000J0D01*
G01*
X84963000Y-114131000D02*
X84963000Y-126631000D01*
X238338000Y-169281000D02*
G75*
G03*
X237588000Y-168531000I-750100J-100D01*
G01*
X118013000Y-114131000D02*
X118013000Y-126631000D01*
X326619700Y-147431000D02*
G75*
G03*
X325619750Y-146431000I-999900J100D01*
G01*
X265650500Y-152231000D02*
X265650500Y-164731000D01*
X297644250Y-151481000D02*
X310144250Y-151481000D01*
X127538000Y-95081000D02*
X127538000Y-107581000D01*
X137063000Y-114131000D02*
X137063000Y-126631000D01*
X204025500Y-133181000D02*
X204025500Y-145681000D01*
X128575500Y-146431000D02*
X141075500Y-146431000D01*
X275175500Y-133181000D02*
X275175500Y-145681000D01*
X219063000Y-127381000D02*
X231563000Y-127381000D01*
X107144250Y-170531000D02*
X116038000Y-170531000D01*
X355388000Y-146431000D02*
G75*
G03*
X356138000Y-145681000I0J750000D01*
G01*
X310894300Y-152231000D02*
G75*
G03*
X310144250Y-151481000I-750100J-100D01*
G01*
X59519250Y-184531000D02*
X74400500Y-184531000D01*
X242875500Y-132431000D02*
X255375500Y-132431000D01*
X58769250Y-152231000D02*
X58769250Y-164731000D01*
X108488000Y-95081000D02*
G75*
G03*
X107738000Y-94331000I-750000J0D01*
G01*
X208788000Y-95081000D02*
X208788000Y-107581000D01*
X342138000Y-107581000D02*
G75*
G03*
X342888000Y-108331000I750000J0D01*
G01*
X356138000Y-152231000D02*
X356138000Y-164731000D01*
X238113000Y-113381000D02*
G75*
G03*
X237363000Y-114131000I0J-750000D01*
G01*
X190488000Y-108331000D02*
X202988000Y-108331000D01*
X57138000Y-108331000D02*
X69638000Y-108331000D01*
X166675500Y-132431000D02*
X179175500Y-132431000D01*
X231338000Y-182781000D02*
X231338000Y-169281000D01*
X102975500Y-184531000D02*
G75*
G03*
X103725500Y-183781000I0J750000D01*
G01*
X247638000Y-94331000D02*
G75*
G03*
X246888000Y-95081000I0J-750000D01*
G01*
X175163000Y-114131000D02*
G75*
G03*
X174413000Y-113381000I-750000J0D01*
G01*
X305125000Y-96081000D02*
X305125000Y-109581000D01*
X323838000Y-170531000D02*
G75*
G03*
X323088000Y-171281000I0J-750000D01*
G01*
X305875000Y-95331000D02*
X312731861Y-95331000D01*
X342138000Y-95081000D02*
X342138000Y-107581000D01*
X152388000Y-108331000D02*
X164888000Y-108331000D01*
X334278176Y-136833625D02*
G75*
G03*
X333706750Y-137737139I428524J-903475D01*
G01*
X104763000Y-113381000D02*
X117263000Y-113381000D01*
X175450500Y-152231000D02*
X175450500Y-164731000D01*
X257163000Y-113381000D02*
G75*
G03*
X256413000Y-114131000I0J-750000D01*
G01*
X199263000Y-114131000D02*
X199263000Y-126631000D01*
X264900500Y-165481000D02*
G75*
G03*
X265650500Y-164731000I0J750000D01*
G01*
X213263000Y-114131000D02*
X213263000Y-126631000D01*
X104763000Y-113381000D02*
G75*
G03*
X104013000Y-114131000I0J-750000D01*
G01*
X251363000Y-114131000D02*
G75*
G03*
X250613000Y-113381000I-750000J0D01*
G01*
X342888000Y-94331000D02*
X355388000Y-94331000D01*
X124038000Y-169281000D02*
G75*
G03*
X123288000Y-168531000I-750000J0D01*
G01*
X275175500Y-133181000D02*
G75*
G03*
X274425500Y-132431000I-750000J0D01*
G01*
X342888000Y-146431000D02*
X355388000Y-146431000D01*
X335251000Y-110331000D02*
G75*
G03*
X336001000Y-109581000I0J750000D01*
G01*
X289463000Y-114131000D02*
X289463000Y-126631000D01*
X227838000Y-107581000D02*
G75*
G03*
X228588000Y-108331000I750000J0D01*
G01*
X256125500Y-133181000D02*
G75*
G03*
X255375500Y-132431000I-750000J0D01*
G01*
X90475500Y-146431000D02*
X102975500Y-146431000D01*
X204025500Y-145681000D02*
G75*
G03*
X204775500Y-146431000I750000J0D01*
G01*
X303493750Y-148431000D02*
X308993750Y-148431000D01*
X332272576Y-113854259D02*
G75*
G03*
X331575500Y-113381000I-697076J-276741D01*
G01*
X184975500Y-133181000D02*
X184975500Y-145681000D01*
X123813000Y-113381000D02*
X136313000Y-113381000D01*
X76188000Y-108331000D02*
X88688000Y-108331000D01*
X88688000Y-108331000D02*
G75*
G03*
X89438000Y-107581000I0J750000D01*
G01*
X266688000Y-94331000D02*
X279188000Y-94331000D01*
X327490651Y-94759562D02*
G75*
G03*
X328394139Y-95331000I903449J428462D01*
G01*
X222788000Y-95081000D02*
X222788000Y-107581000D01*
X93450500Y-165481000D02*
G75*
G03*
X94200500Y-164731000I0J750000D01*
G01*
X269663000Y-127381000D02*
G75*
G03*
X270413000Y-126631000I0J750000D01*
G01*
X207750500Y-165481000D02*
G75*
G03*
X208500500Y-164731000I0J750000D01*
G01*
X122025500Y-146431000D02*
G75*
G03*
X122775500Y-145681000I0J750000D01*
G01*
X232313000Y-114131000D02*
G75*
G03*
X231563000Y-113381000I-750000J0D01*
G01*
X318038000Y-171281000D02*
X318038000Y-183781000D01*
X76188000Y-94331000D02*
G75*
G03*
X75438000Y-95081000I0J-750000D01*
G01*
X326619750Y-147681000D02*
X326619750Y-147431000D01*
X232600500Y-164731000D02*
G75*
G03*
X233350500Y-165481000I750000J0D01*
G01*
X190488000Y-94331000D02*
X202988000Y-94331000D01*
X102975500Y-146431000D02*
G75*
G03*
X103725500Y-145681000I0J750000D01*
G01*
X298988000Y-95081000D02*
G75*
G03*
X298238000Y-94331000I-750000J0D01*
G01*
X356138000Y-95081000D02*
G75*
G03*
X355388000Y-94331000I-750000J0D01*
G01*
X90732250Y-166731000D02*
X90732250Y-166481000D01*
X61150500Y-126631000D02*
G75*
G03*
X61900500Y-127381000I750000J0D01*
G01*
X326619700Y-147681000D02*
G75*
G03*
X327369750Y-148431000I750100J100D01*
G01*
X323088000Y-152231000D02*
X323088000Y-164731000D01*
X131331750Y-182781000D02*
X131331750Y-169281000D01*
X296894200Y-164731000D02*
G75*
G03*
X297644250Y-165481000I750100J100D01*
G01*
X75438000Y-107581000D02*
G75*
G03*
X76188000Y-108331000I750000J0D01*
G01*
X83732250Y-166731000D02*
X83732250Y-166481000D01*
X319706750Y-132431050D02*
G75*
G03*
X320706750Y-131431000I-50J1000050D01*
G01*
X266688000Y-94331000D02*
G75*
G03*
X265938000Y-95081000I0J-750000D01*
G01*
X174413000Y-127381000D02*
G75*
G03*
X175163000Y-126631000I0J750000D01*
G01*
X104013000Y-126631000D02*
G75*
G03*
X104763000Y-127381000I750000J0D01*
G01*
X95238000Y-94331000D02*
G75*
G03*
X94488000Y-95081000I0J-750000D01*
G01*
X180963000Y-113381000D02*
X193463000Y-113381000D01*
X204775500Y-132431000D02*
X217275500Y-132431000D01*
X302743750Y-147681000D02*
X302743750Y-147431000D01*
X151350500Y-152231000D02*
G75*
G03*
X150600500Y-151481000I-750000J0D01*
G01*
X355388000Y-165481000D02*
G75*
G03*
X356138000Y-164731000I0J750000D01*
G01*
X342138000Y-164731000D02*
G75*
G03*
X342888000Y-165481000I750000J0D01*
G01*
X314313000Y-94331000D02*
G75*
G03*
X313635369Y-94759571I0J-750000D01*
G01*
X219063000Y-113381000D02*
X231563000Y-113381000D01*
X59519250Y-132430950D02*
G75*
G03*
X58769250Y-133181000I50J-750050D01*
G01*
X151638000Y-95081000D02*
X151638000Y-107581000D01*
X175163000Y-114131000D02*
X175163000Y-126631000D01*
X132300500Y-152231000D02*
X132300500Y-164731000D01*
X246888000Y-107581000D02*
G75*
G03*
X247638000Y-108331000I750000J0D01*
G01*
X57138000Y-94331000D02*
G75*
G03*
X56388000Y-95081000I0J-750000D01*
G01*
X66856250Y-166731000D02*
X66856250Y-166481000D01*
D10*
X53340499Y-184218841D02*
X53340499Y-94629959D01*
D11*
X151638000Y-107581000D02*
G75*
G03*
X152388000Y-108331000I750000J0D01*
G01*
X294225500Y-133181000D02*
G75*
G03*
X293475500Y-132431000I-750000J0D01*
G01*
X61900500Y-113381000D02*
G75*
G03*
X61150500Y-114131000I0J-750000D01*
G01*
X128575500Y-132431000D02*
G75*
G03*
X127825500Y-133181000I0J-750000D01*
G01*
X228588000Y-108331000D02*
X241088000Y-108331000D01*
X185725500Y-132431000D02*
G75*
G03*
X184975500Y-133181000I0J-750000D01*
G01*
X280975500Y-146431000D02*
X293475500Y-146431000D01*
X109525500Y-132431000D02*
G75*
G03*
X108775500Y-133181000I0J-750000D01*
G01*
X284988000Y-95081000D02*
X284988000Y-107581000D01*
X270700500Y-164731000D02*
G75*
G03*
X271450500Y-165481000I750000J0D01*
G01*
X251650500Y-152231000D02*
X251650500Y-164731000D01*
X106394250Y-171281000D02*
X106394250Y-183781000D01*
X241838000Y-95081000D02*
G75*
G03*
X241088000Y-94331000I-750000J0D01*
G01*
D10*
X56647558Y-91322899D02*
G75*
G03*
X53340499Y-94629959I2J-3307061D01*
G01*
D11*
X166675500Y-132431000D02*
G75*
G03*
X165925500Y-133181000I0J-750000D01*
G01*
X123288000Y-168531000D02*
X117788000Y-168531000D01*
X191831750Y-171281000D02*
X191831750Y-183781000D01*
X337088000Y-171281000D02*
X337088000Y-183781000D01*
X307763000Y-127381000D02*
G75*
G03*
X308513000Y-126631000I0J750000D01*
G01*
X329001000Y-109331000D02*
G75*
G03*
X328001000Y-108331000I-1000000J0D01*
G01*
X180963000Y-127381000D02*
X193463000Y-127381000D01*
X184688000Y-95081000D02*
G75*
G03*
X183938000Y-94331000I-750000J0D01*
G01*
X103725500Y-171281000D02*
X103725500Y-183781000D01*
X180963000Y-113381000D02*
G75*
G03*
X180213000Y-114131000I0J-750000D01*
G01*
X170688000Y-107581000D02*
G75*
G03*
X171438000Y-108331000I750000J0D01*
G01*
X89725500Y-145681000D02*
G75*
G03*
X90475500Y-146431000I750000J0D01*
G01*
X246600500Y-152231000D02*
G75*
G03*
X245850500Y-151481000I-750000J0D01*
G01*
X336001000Y-96081000D02*
X336001000Y-109581000D01*
X152388000Y-94331000D02*
X164888000Y-94331000D01*
X342888000Y-113381000D02*
X355388000Y-113381000D01*
X300025500Y-146431000D02*
X301743750Y-146431000D01*
X247638000Y-184531000D02*
X298238000Y-184531000D01*
X193463000Y-127381000D02*
G75*
G03*
X194213000Y-126631000I0J750000D01*
G01*
X300025500Y-132431000D02*
G75*
G03*
X299275500Y-133181000I0J-750000D01*
G01*
X223075500Y-133181000D02*
X223075500Y-145681000D01*
X137350500Y-164731000D02*
G75*
G03*
X138100500Y-165481000I750000J0D01*
G01*
X91732250Y-165480950D02*
G75*
G03*
X90732250Y-166481000I50J-1000050D01*
G01*
X257163000Y-127381000D02*
X269663000Y-127381000D01*
X336338000Y-165481000D02*
G75*
G03*
X337088000Y-164731000I0J750000D01*
G01*
X310144250Y-165480950D02*
G75*
G03*
X310894250Y-164731000I50J749950D01*
G01*
X136313000Y-127381000D02*
G75*
G03*
X137063000Y-126631000I0J750000D01*
G01*
X184688000Y-95081000D02*
X184688000Y-107581000D01*
X183938000Y-108331000D02*
G75*
G03*
X184688000Y-107581000I0J750000D01*
G01*
X175450500Y-164731000D02*
G75*
G03*
X176200500Y-165481000I750000J0D01*
G01*
X176200500Y-151481000D02*
X188700500Y-151481000D01*
X320706750Y-128381000D02*
X320706750Y-131431000D01*
X270413000Y-114131000D02*
G75*
G03*
X269663000Y-113381000I-750000J0D01*
G01*
X103725500Y-133181000D02*
G75*
G03*
X102975500Y-132431000I-750000J0D01*
G01*
X198225500Y-146431000D02*
G75*
G03*
X198975500Y-145681000I0J750000D01*
G01*
X119050500Y-151481000D02*
X131550500Y-151481000D01*
X83331750Y-170531050D02*
G75*
G03*
X82581750Y-171281000I-50J-749950D01*
G01*
X171438000Y-170531000D02*
G75*
G03*
X170688000Y-171281000I0J-750000D01*
G01*
X209538000Y-94331000D02*
G75*
G03*
X208788000Y-95081000I0J-750000D01*
G01*
X323088000Y-164731000D02*
G75*
G03*
X323838000Y-165481000I750000J0D01*
G01*
X271450500Y-151481000D02*
G75*
G03*
X270700500Y-152231000I0J-750000D01*
G01*
X82581700Y-183781000D02*
G75*
G03*
X83331750Y-184531000I750100J100D01*
G01*
X342888000Y-108331000D02*
X355388000Y-108331000D01*
X75150500Y-114131000D02*
G75*
G03*
X74400500Y-113381000I-750000J0D01*
G01*
X161913000Y-127381000D02*
X174413000Y-127381000D01*
X342888000Y-170531000D02*
X355388000Y-170531000D01*
X218313000Y-126631000D02*
G75*
G03*
X219063000Y-127381000I750000J0D01*
G01*
X58769250Y-171281000D02*
X58769250Y-183781000D01*
X126788000Y-108331000D02*
G75*
G03*
X127538000Y-107581000I0J750000D01*
G01*
X294225500Y-133181000D02*
X294225500Y-145681000D01*
X204775500Y-146431000D02*
X217275500Y-146431000D01*
X113250500Y-152231000D02*
G75*
G03*
X112500500Y-151481000I-750000J0D01*
G01*
X232313000Y-114131000D02*
X232313000Y-126631000D01*
X276213000Y-113381000D02*
G75*
G03*
X275463000Y-114131000I0J-750000D01*
G01*
X57138000Y-94331000D02*
X69638000Y-94331000D01*
X118300500Y-152231000D02*
X118300500Y-164731000D01*
X295263000Y-113381000D02*
X307763000Y-113381000D01*
X319075500Y-127381000D02*
X319706750Y-127381000D01*
X337088000Y-152231000D02*
G75*
G03*
X336338000Y-151481000I-750000J0D01*
G01*
X133338000Y-108331000D02*
X145838000Y-108331000D01*
X58769220Y-164731000D02*
G75*
G03*
X59235107Y-165425090I749980J0D01*
G01*
X317288000Y-184531000D02*
G75*
G03*
X318038000Y-183781000I0J750000D01*
G01*
X161913000Y-113381000D02*
X174413000Y-113381000D01*
X94488000Y-107581000D02*
G75*
G03*
X95238000Y-108331000I750000J0D01*
G01*
X189738000Y-107581000D02*
G75*
G03*
X190488000Y-108331000I750000J0D01*
G01*
X189450500Y-152231000D02*
G75*
G03*
X188700500Y-151481000I-750000J0D01*
G01*
X226800500Y-165481000D02*
G75*
G03*
X227550500Y-164731000I0J750000D01*
G01*
X171438000Y-170531000D02*
X191081750Y-170531000D01*
X85713000Y-113381000D02*
X98213000Y-113381000D01*
X279938000Y-95081000D02*
X279938000Y-107581000D01*
X100000500Y-151481000D02*
G75*
G03*
X99250500Y-152231000I0J-750000D01*
G01*
X238113000Y-127381000D02*
X250613000Y-127381000D01*
X246600500Y-152231000D02*
X246600500Y-164731000D01*
X142113000Y-114131000D02*
X142113000Y-126631000D01*
X342138000Y-114131000D02*
X342138000Y-126631000D01*
X104763000Y-127381000D02*
X117263000Y-127381000D01*
X85713000Y-113381000D02*
G75*
G03*
X84963000Y-114131000I0J-750000D01*
G01*
X231338000Y-182781000D02*
G75*
G03*
X232088000Y-183531000I750100J100D01*
G01*
X117038000Y-169531000D02*
X117038000Y-169281000D01*
X152388000Y-94331000D02*
G75*
G03*
X151638000Y-95081000I0J-750000D01*
G01*
X271450500Y-165481000D02*
X283950500Y-165481000D01*
X208500500Y-152231000D02*
G75*
G03*
X207750500Y-151481000I-750000J0D01*
G01*
X179925500Y-133181000D02*
X179925500Y-145681000D01*
X246888000Y-95081000D02*
X246888000Y-107581000D01*
X170688000Y-183781000D02*
G75*
G03*
X171438000Y-184531000I750000J0D01*
G01*
X356138000Y-114131000D02*
X356138000Y-126631000D01*
X157150500Y-151481000D02*
G75*
G03*
X156400500Y-152231000I0J-750000D01*
G01*
X288713000Y-127381000D02*
G75*
G03*
X289463000Y-126631000I0J750000D01*
G01*
X323838000Y-151481000D02*
G75*
G03*
X323088000Y-152231000I0J-750000D01*
G01*
X141825500Y-133181000D02*
X141825500Y-145681000D01*
X329751000Y-110331000D02*
X335251000Y-110331000D01*
X247638000Y-94331000D02*
X260138000Y-94331000D01*
X342888000Y-94331000D02*
G75*
G03*
X342138000Y-95081000I0J-750000D01*
G01*
X121225389Y-183530991D02*
G75*
G03*
X120321882Y-184102429I11J-1000009D01*
G01*
X103725500Y-171281000D02*
G75*
G03*
X102975500Y-170531000I-750000J0D01*
G01*
X83331750Y-170531000D02*
X102975500Y-170531000D01*
X100000500Y-165481000D02*
X112500500Y-165481000D01*
X171438000Y-108331000D02*
X183938000Y-108331000D01*
X342138000Y-133181000D02*
X342138000Y-145681000D01*
X133338000Y-94331000D02*
G75*
G03*
X132588000Y-95081000I0J-750000D01*
G01*
X161163000Y-126631000D02*
G75*
G03*
X161913000Y-127381000I750000J0D01*
G01*
X90475500Y-132431000D02*
X102975500Y-132431000D01*
X59519250Y-151480950D02*
G75*
G03*
X58769250Y-152231000I50J-750050D01*
G01*
X77531800Y-133181000D02*
G75*
G03*
X76781750Y-132431000I-750100J-100D01*
G01*
X123813000Y-113381000D02*
G75*
G03*
X123063000Y-114131000I0J-750000D01*
G01*
X293475500Y-146431000D02*
G75*
G03*
X294225500Y-145681000I0J750000D01*
G01*
X156400500Y-164731000D02*
G75*
G03*
X157150500Y-165481000I750000J0D01*
G01*
X74400500Y-184531000D02*
G75*
G03*
X75150500Y-183781000I0J750000D01*
G01*
X252400500Y-151481000D02*
X264900500Y-151481000D01*
X184975500Y-145681000D02*
G75*
G03*
X185725500Y-146431000I750000J0D01*
G01*
X261925500Y-132431000D02*
G75*
G03*
X261175500Y-133181000I0J-750000D01*
G01*
X132081750Y-168531050D02*
G75*
G03*
X131331750Y-169281000I-50J-749950D01*
G01*
X213550500Y-164731000D02*
G75*
G03*
X214300500Y-165481000I750000J0D01*
G01*
X323088000Y-183781000D02*
G75*
G03*
X323838000Y-184531000I750000J0D01*
G01*
X356138000Y-95081000D02*
X356138000Y-107581000D01*
X91732250Y-165481000D02*
X93450500Y-165481000D01*
X142863000Y-113381000D02*
G75*
G03*
X142113000Y-114131000I0J-750000D01*
G01*
X270700500Y-152231000D02*
X270700500Y-164731000D01*
X109525500Y-132431000D02*
X122025500Y-132431000D01*
X156400500Y-152231000D02*
X156400500Y-164731000D01*
X123813000Y-127381000D02*
X136313000Y-127381000D01*
X146588000Y-95081000D02*
G75*
G03*
X145838000Y-94331000I-750000J0D01*
G01*
X271450500Y-151481000D02*
X283950500Y-151481000D01*
X95238000Y-94331000D02*
X107738000Y-94331000D01*
X232600500Y-152231000D02*
X232600500Y-164731000D01*
X297644250Y-165481000D02*
X310144250Y-165481000D01*
X297644250Y-151481050D02*
G75*
G03*
X296894250Y-152231000I-50J-749950D01*
G01*
X122775500Y-133181000D02*
X122775500Y-145681000D01*
X327369750Y-148431000D02*
X332956750Y-148431000D01*
X161913000Y-113381000D02*
G75*
G03*
X161163000Y-114131000I0J-750000D01*
G01*
X141825500Y-133181000D02*
G75*
G03*
X141075500Y-132431000I-750000J0D01*
G01*
X299275500Y-145681000D02*
G75*
G03*
X300025500Y-146431000I750000J0D01*
G01*
X228588000Y-94331000D02*
X241088000Y-94331000D01*
X185725500Y-132431000D02*
X198225500Y-132431000D01*
X247638000Y-108331000D02*
X260138000Y-108331000D01*
X61150500Y-114131000D02*
X61150500Y-126631000D01*
X194500500Y-164731000D02*
G75*
G03*
X195250500Y-165481000I750000J0D01*
G01*
X289463000Y-114131000D02*
G75*
G03*
X288713000Y-113381000I-750000J0D01*
G01*
X227838000Y-95081000D02*
X227838000Y-107581000D01*
X165925500Y-133181000D02*
X165925500Y-145681000D01*
X284988000Y-107581000D02*
G75*
G03*
X285738000Y-108331000I750000J0D01*
G01*
X241088000Y-108331000D02*
G75*
G03*
X241838000Y-107581000I0J750000D01*
G01*
X298238000Y-184531000D02*
G75*
G03*
X298988000Y-183781000I0J750000D01*
G01*
X194500500Y-152231000D02*
X194500500Y-164731000D01*
X99250500Y-164731000D02*
G75*
G03*
X100000500Y-165481000I750000J0D01*
G01*
X195250500Y-151481000D02*
X207750500Y-151481000D01*
X213550500Y-152231000D02*
X213550500Y-164731000D01*
X319075500Y-113381000D02*
G75*
G03*
X318325500Y-114131000I0J-750000D01*
G01*
X356138000Y-133181000D02*
G75*
G03*
X355388000Y-132431000I-750000J0D01*
G01*
X128575500Y-132431000D02*
X141075500Y-132431000D01*
X256413000Y-114131000D02*
X256413000Y-126631000D01*
X218025500Y-133181000D02*
G75*
G03*
X217275500Y-132431000I-750000J0D01*
G01*
X114288000Y-94331000D02*
X126788000Y-94331000D01*
X121225389Y-183531000D02*
X123288000Y-183531000D01*
X185725500Y-146431000D02*
X198225500Y-146431000D01*
X323838000Y-165481000D02*
X336338000Y-165481000D01*
X255375500Y-146431000D02*
G75*
G03*
X256125500Y-145681000I0J750000D01*
G01*
X342888000Y-165481000D02*
X355388000Y-165481000D01*
X83732200Y-166731000D02*
G75*
G03*
X84482250Y-167481000I750100J100D01*
G01*
X66106250Y-167480950D02*
G75*
G03*
X66856250Y-166731000I50J749950D01*
G01*
X171438000Y-94331000D02*
X183938000Y-94331000D01*
X104013000Y-114131000D02*
X104013000Y-126631000D01*
X305125000Y-109581000D02*
G75*
G03*
X305875000Y-110331000I750000J0D01*
G01*
X200013000Y-127381000D02*
X212513000Y-127381000D01*
X138100500Y-165481000D02*
X150600500Y-165481000D01*
X113250500Y-152231000D02*
X113250500Y-164731000D01*
X323088000Y-171281000D02*
X323088000Y-183781000D01*
X342888000Y-127381000D02*
X355388000Y-127381000D01*
X170688000Y-171281000D02*
X170688000Y-183781000D01*
X342888000Y-184531000D02*
X355388000Y-184531000D01*
X98963000Y-114131000D02*
G75*
G03*
X98213000Y-113381000I-750000J0D01*
G01*
X108775500Y-145681000D02*
G75*
G03*
X109525500Y-146431000I750000J0D01*
G01*
X231563000Y-127381000D02*
G75*
G03*
X232313000Y-126631000I0J750000D01*
G01*
X77531750Y-133181000D02*
X77531750Y-145681000D01*
X85713000Y-127381000D02*
X98213000Y-127381000D01*
X75438000Y-95081000D02*
X75438000Y-107581000D01*
X70388000Y-95081000D02*
G75*
G03*
X69638000Y-94331000I-750000J0D01*
G01*
X165638000Y-95081000D02*
G75*
G03*
X164888000Y-94331000I-750000J0D01*
G01*
X227550500Y-152231000D02*
G75*
G03*
X226800500Y-151481000I-750000J0D01*
G01*
X261925500Y-146431000D02*
X274425500Y-146431000D01*
X333706757Y-122074861D02*
G75*
G03*
X334278179Y-122978369I999943J-39D01*
G01*
X323838000Y-151481000D02*
X336338000Y-151481000D01*
X131550500Y-165481000D02*
G75*
G03*
X132300500Y-164731000I0J750000D01*
G01*
X318325500Y-126631000D02*
G75*
G03*
X319075500Y-127381000I750000J0D01*
G01*
X114288000Y-108331000D02*
X126788000Y-108331000D01*
X147625500Y-146431000D02*
X160125500Y-146431000D01*
X308993750Y-148430950D02*
G75*
G03*
X309743750Y-147681000I50J749950D01*
G01*
X356138000Y-171281000D02*
X356138000Y-183781000D01*
X342888000Y-113381000D02*
G75*
G03*
X342138000Y-114131000I0J-750000D01*
G01*
X132588000Y-95081000D02*
X132588000Y-107581000D01*
X302743700Y-147681000D02*
G75*
G03*
X303493750Y-148431000I750100J100D01*
G01*
X61900500Y-127381000D02*
X74400500Y-127381000D01*
X270413000Y-114131000D02*
X270413000Y-126631000D01*
X295263000Y-127381000D02*
X307763000Y-127381000D01*
X355388000Y-108331000D02*
G75*
G03*
X356138000Y-107581000I0J750000D01*
G01*
X218313000Y-114131000D02*
X218313000Y-126631000D01*
X146588000Y-95081000D02*
X146588000Y-107581000D01*
X333706806Y-115218000D02*
G75*
G03*
X333061861Y-114475402I-750106J-100D01*
G01*
X138100500Y-151481000D02*
X150600500Y-151481000D01*
X127825500Y-145681000D02*
G75*
G03*
X128575500Y-146431000I750000J0D01*
G01*
X142113000Y-126631000D02*
G75*
G03*
X142863000Y-127381000I750000J0D01*
G01*
X251650500Y-164731000D02*
G75*
G03*
X252400500Y-165481000I750000J0D01*
G01*
X261175500Y-145681000D02*
G75*
G03*
X261925500Y-146431000I750000J0D01*
G01*
X180213000Y-126631000D02*
G75*
G03*
X180963000Y-127381000I750000J0D01*
G01*
X133338000Y-94331000D02*
X145838000Y-94331000D01*
X59519250Y-170530950D02*
G75*
G03*
X58769250Y-171281000I50J-750050D01*
G01*
X355388000Y-184531000D02*
G75*
G03*
X356138000Y-183781000I0J750000D01*
G01*
X250613000Y-127381000D02*
G75*
G03*
X251363000Y-126631000I0J750000D01*
G01*
X266688000Y-108331000D02*
X279188000Y-108331000D01*
X228588000Y-94331000D02*
G75*
G03*
X227838000Y-95081000I0J-750000D01*
G01*
X208788000Y-107581000D02*
G75*
G03*
X209538000Y-108331000I750000J0D01*
G01*
X132588000Y-107581000D02*
G75*
G03*
X133338000Y-108331000I750000J0D01*
G01*
X329001000Y-109581000D02*
X329001000Y-109331000D01*
X227550500Y-152231000D02*
X227550500Y-164731000D01*
X342888000Y-151481000D02*
X355388000Y-151481000D01*
X252400500Y-151481000D02*
G75*
G03*
X251650500Y-152231000I0J-750000D01*
G01*
X337088000Y-152231000D02*
X337088000Y-164731000D01*
X323838000Y-184531000D02*
X336338000Y-184531000D01*
X161163000Y-114131000D02*
X161163000Y-126631000D01*
X190488000Y-94331000D02*
G75*
G03*
X189738000Y-95081000I0J-750000D01*
G01*
X124038000Y-182781000D02*
X124038000Y-169281000D01*
X241838000Y-95081000D02*
X241838000Y-107581000D01*
X251363000Y-114131000D02*
X251363000Y-126631000D01*
X203738000Y-95081000D02*
X203738000Y-107581000D01*
X355388000Y-127381000D02*
G75*
G03*
X356138000Y-126631000I0J750000D01*
G01*
X237363000Y-114131000D02*
X237363000Y-126631000D01*
X195250500Y-165481000D02*
X207750500Y-165481000D01*
X219063000Y-113381000D02*
G75*
G03*
X218313000Y-114131000I0J-750000D01*
G01*
X298238000Y-108331000D02*
G75*
G03*
X298988000Y-107581000I0J750000D01*
G01*
X313125000Y-108331000D02*
G75*
G03*
X312125000Y-109331000I0J-1000000D01*
G01*
X118013000Y-114131000D02*
G75*
G03*
X117263000Y-113381000I-750000J0D01*
G01*
X247638000Y-170531000D02*
X298238000Y-170531000D01*
X106394200Y-183781000D02*
G75*
G03*
X107144250Y-184531000I750100J100D01*
G01*
X160875500Y-133181000D02*
G75*
G03*
X160125500Y-132431000I-750000J0D01*
G01*
X295263000Y-113381000D02*
G75*
G03*
X294513000Y-114131000I0J-750000D01*
G01*
X123063000Y-126631000D02*
G75*
G03*
X123813000Y-127381000I750000J0D01*
G01*
X61900500Y-113381000D02*
X74400500Y-113381000D01*
X200013000Y-113381000D02*
G75*
G03*
X199263000Y-114131000I0J-750000D01*
G01*
X119644250Y-184530988D02*
G75*
G03*
X120321881Y-184102429I-50J750088D01*
G01*
X223825500Y-132431000D02*
X236325500Y-132431000D01*
X59519250Y-151481000D02*
X93450500Y-151481000D01*
X131331700Y-182781000D02*
G75*
G03*
X132081750Y-183531000I750100J100D01*
G01*
X222788000Y-95081000D02*
G75*
G03*
X222038000Y-94331000I-750000J0D01*
G01*
X237588000Y-183531000D02*
X232088000Y-183531000D01*
X212513000Y-127381000D02*
G75*
G03*
X213263000Y-126631000I0J750000D01*
G01*
X242875500Y-146431000D02*
X255375500Y-146431000D01*
X237588000Y-183531000D02*
G75*
G03*
X238338000Y-182781000I0J750000D01*
G01*
X334278191Y-136833657D02*
G75*
G03*
X334706750Y-136156000I-321491J677657D01*
G01*
X94200500Y-152231000D02*
G75*
G03*
X93450500Y-151481000I-750000J0D01*
G01*
X156113000Y-114131000D02*
G75*
G03*
X155363000Y-113381000I-750000J0D01*
G01*
X191081750Y-184530950D02*
G75*
G03*
X191831750Y-183781000I50J749950D01*
G01*
X310743750Y-146431000D02*
X325619750Y-146431000D01*
D10*
X359090500Y-94629959D02*
X359090500Y-184215842D01*
D11*
X59856238Y-166350547D02*
G75*
G03*
X59235107Y-165425091I-999938J47D01*
G01*
X108488000Y-95081000D02*
X108488000Y-107581000D01*
X336338000Y-184531000D02*
G75*
G03*
X337088000Y-183781000I0J750000D01*
G01*
X89438000Y-95081000D02*
G75*
G03*
X88688000Y-94331000I-750000J0D01*
G01*
X261925500Y-132431000D02*
X274425500Y-132431000D01*
X189738000Y-95081000D02*
X189738000Y-107581000D01*
X209538000Y-108331000D02*
X222038000Y-108331000D01*
X117788000Y-168531000D02*
G75*
G03*
X117038000Y-169281000I0J-750000D01*
G01*
X113538000Y-95081000D02*
X113538000Y-107581000D01*
X179175500Y-146431000D02*
G75*
G03*
X179925500Y-145681000I0J750000D01*
G01*
X82732250Y-165481000D02*
X67856250Y-165481000D01*
X141075500Y-146431000D02*
G75*
G03*
X141825500Y-145681000I0J750000D01*
G01*
X98213000Y-127381000D02*
G75*
G03*
X98963000Y-126631000I0J750000D01*
G01*
X223825500Y-132431000D02*
G75*
G03*
X223075500Y-133181000I0J-750000D01*
G01*
X280975500Y-132431000D02*
G75*
G03*
X280225500Y-133181000I0J-750000D01*
G01*
X176200500Y-165481000D02*
X188700500Y-165481000D01*
X83331750Y-184531000D02*
X102975500Y-184531000D01*
X313125000Y-108331000D02*
X328001000Y-108331000D01*
X84482250Y-167481000D02*
X89982250Y-167481000D01*
X108775500Y-133181000D02*
X108775500Y-145681000D01*
X100000500Y-151481000D02*
X112500500Y-151481000D01*
X89438000Y-95081000D02*
X89438000Y-107581000D01*
X319706750Y-132431000D02*
X300025500Y-132431000D01*
X342138000Y-152231000D02*
X342138000Y-164731000D01*
X76781750Y-146430950D02*
G75*
G03*
X77531750Y-145681000I50J749950D01*
G01*
X242875500Y-132431000D02*
G75*
G03*
X242125500Y-133181000I0J-750000D01*
G01*
X56388000Y-107581000D02*
G75*
G03*
X57138000Y-108331000I750000J0D01*
G01*
X59519250Y-132431000D02*
X76781750Y-132431000D01*
X342888000Y-170531000D02*
G75*
G03*
X342138000Y-171281000I0J-750000D01*
G01*
X274425500Y-146431000D02*
G75*
G03*
X275175500Y-145681000I0J750000D01*
G01*
X94488000Y-95081000D02*
X94488000Y-107581000D01*
X171438000Y-184531000D02*
X191081750Y-184531000D01*
X329001000Y-109581000D02*
G75*
G03*
X329751000Y-110331000I750000J0D01*
G01*
X191831800Y-171281000D02*
G75*
G03*
X191081750Y-170531000I-750100J-100D01*
G01*
X256125500Y-133181000D02*
X256125500Y-145681000D01*
X188700500Y-165481000D02*
G75*
G03*
X189450500Y-164731000I0J750000D01*
G01*
X275463000Y-114131000D02*
X275463000Y-126631000D01*
X285738000Y-94331000D02*
X298238000Y-94331000D01*
X137063000Y-114131000D02*
G75*
G03*
X136313000Y-113381000I-750000J0D01*
G01*
X285738000Y-94331000D02*
G75*
G03*
X284988000Y-95081000I0J-750000D01*
G01*
X58769300Y-183781000D02*
G75*
G03*
X59519250Y-184531000I750000J0D01*
G01*
X312125000Y-109581000D02*
X312125000Y-109331000D01*
X299275500Y-133181000D02*
X299275500Y-145681000D01*
X137350500Y-152231000D02*
X137350500Y-164731000D01*
X276213000Y-113381000D02*
X288713000Y-113381000D01*
X311375000Y-110331000D02*
G75*
G03*
X312125000Y-109581000I0J750000D01*
G01*
X309743750Y-147681000D02*
X309743750Y-147431000D01*
X113538000Y-107581000D02*
G75*
G03*
X114288000Y-108331000I750000J0D01*
G01*
X284700500Y-152231000D02*
G75*
G03*
X283950500Y-151481000I-750000J0D01*
G01*
X204775500Y-132431000D02*
G75*
G03*
X204025500Y-133181000I0J-750000D01*
G01*
X194213000Y-114131000D02*
G75*
G03*
X193463000Y-113381000I-750000J0D01*
G01*
X304038000Y-171281000D02*
X304038000Y-183781000D01*
X114288000Y-94331000D02*
G75*
G03*
X113538000Y-95081000I0J-750000D01*
G01*
X179925500Y-133181000D02*
G75*
G03*
X179175500Y-132431000I-750000J0D01*
G01*
X252400500Y-165481000D02*
X264900500Y-165481000D01*
X150600500Y-165481000D02*
G75*
G03*
X151350500Y-164731000I0J750000D01*
G01*
X342138000Y-145681000D02*
G75*
G03*
X342888000Y-146431000I750000J0D01*
G01*
X310743750Y-146430950D02*
G75*
G03*
X309743750Y-147431000I50J-1000050D01*
G01*
X305875000Y-110331000D02*
X311375000Y-110331000D01*
X302743700Y-147431000D02*
G75*
G03*
X301743750Y-146431000I-999900J100D01*
G01*
X233350500Y-151481000D02*
X245850500Y-151481000D01*
X118300500Y-164731000D02*
G75*
G03*
X119050500Y-165481000I750000J0D01*
G01*
X260888000Y-95081000D02*
X260888000Y-107581000D01*
X59519250Y-170531000D02*
X74400500Y-170531000D01*
X69638000Y-108331000D02*
G75*
G03*
X70388000Y-107581000I0J750000D01*
G01*
X171438000Y-94331000D02*
G75*
G03*
X170688000Y-95081000I0J-750000D01*
G01*
X147625500Y-132431000D02*
G75*
G03*
X146875500Y-133181000I0J-750000D01*
G01*
X214300500Y-151481000D02*
X226800500Y-151481000D01*
X247638000Y-170531000D02*
G75*
G03*
X246888000Y-171281000I0J-750000D01*
G01*
X285738000Y-108331000D02*
X298238000Y-108331000D01*
X218025500Y-133181000D02*
X218025500Y-145681000D01*
X342138000Y-183781000D02*
G75*
G03*
X342888000Y-184531000I750000J0D01*
G01*
X160125500Y-146431000D02*
G75*
G03*
X160875500Y-145681000I0J750000D01*
G01*
X236325500Y-146431000D02*
G75*
G03*
X237075500Y-145681000I0J750000D01*
G01*
X127825500Y-133181000D02*
X127825500Y-145681000D01*
X245850500Y-165481000D02*
G75*
G03*
X246600500Y-164731000I0J750000D01*
G01*
X83732200Y-166481000D02*
G75*
G03*
X82732250Y-165481000I-999900J100D01*
G01*
X169650500Y-165481000D02*
G75*
G03*
X170400500Y-164731000I0J750000D01*
G01*
X284700500Y-152231000D02*
X284700500Y-164731000D01*
X310894250Y-152231000D02*
X310894250Y-164731000D01*
X119050500Y-165481000D02*
X131550500Y-165481000D01*
X336001000Y-96081000D02*
G75*
G03*
X335251000Y-95331000I-750000J0D01*
G01*
X208500500Y-152231000D02*
X208500500Y-164731000D01*
X260138000Y-108331000D02*
G75*
G03*
X260888000Y-107581000I0J750000D01*
G01*
X334706745Y-123656000D02*
G75*
G03*
X334278179Y-122978370I-749845J100D01*
G01*
X342138000Y-171281000D02*
X342138000Y-183781000D01*
X75150500Y-171281000D02*
G75*
G03*
X74400500Y-170531000I-750000J0D01*
G01*
X74400500Y-127381000D02*
G75*
G03*
X75150500Y-126631000I0J750000D01*
G01*
X217275500Y-146431000D02*
G75*
G03*
X218025500Y-145681000I0J750000D01*
G01*
X275463000Y-126631000D02*
G75*
G03*
X276213000Y-127381000I750000J0D01*
G01*
X157150500Y-165481000D02*
X169650500Y-165481000D01*
X304788000Y-170531000D02*
X317288000Y-170531000D01*
M02*
